G75*
G70*
%OFA0B0*%
%FSLAX24Y24*%
%IPPOS*%
%LPD*%
%AMOC8*
5,1,8,0,0,1.08239X$1,22.5*
%
%ADD10C,0.0000*%
%ADD11C,0.0555*%
%ADD12R,0.0670X0.0631*%
%ADD13R,0.0158X0.0540*%
%ADD14R,0.0434X0.0473*%
%ADD15R,0.0473X0.0434*%
%ADD16R,0.0276X0.0394*%
%ADD17R,0.0670X0.0985*%
%ADD18C,0.0540*%
%ADD19R,0.0906X0.0276*%
%ADD20R,0.0394X0.0276*%
%ADD21R,0.0552X0.0631*%
%ADD22R,0.0591X0.0591*%
%ADD23R,0.1221X0.0827*%
%ADD24R,0.0631X0.0552*%
%ADD25R,0.2009X0.0827*%
%ADD26C,0.1621*%
%ADD27R,0.0985X0.0985*%
%ADD28R,0.0300X0.0840*%
D10*
X001314Y000380D02*
X001314Y019671D01*
X028086Y019671D01*
X028086Y000380D01*
X001314Y000380D01*
D11*
X011814Y002171D03*
X012814Y002171D03*
X013814Y002171D03*
X014814Y002171D03*
X015814Y002171D03*
X015814Y003171D03*
X014814Y003171D03*
X013814Y003171D03*
X012814Y003171D03*
X011814Y003171D03*
X003814Y008671D03*
X002814Y008671D03*
X002814Y009671D03*
X003814Y009671D03*
X003814Y010671D03*
X002814Y010671D03*
X002814Y011671D03*
X003814Y011671D03*
X003814Y012671D03*
X002814Y012671D03*
X011814Y017171D03*
X012814Y017171D03*
X013814Y017171D03*
X014814Y017171D03*
X015814Y017171D03*
X015814Y018171D03*
X014814Y018171D03*
X013814Y018171D03*
X012814Y018171D03*
X011814Y018171D03*
D12*
X006406Y013183D03*
X005422Y013183D03*
X005422Y012277D03*
X006406Y012277D03*
D13*
X007212Y013061D03*
X007468Y013061D03*
X007724Y013061D03*
X007980Y013061D03*
X008236Y013061D03*
X008492Y013061D03*
X008748Y013061D03*
X009004Y013061D03*
X009260Y013061D03*
X009515Y013061D03*
X009515Y010699D03*
X009260Y010699D03*
X009004Y010699D03*
X008748Y010699D03*
X008492Y010699D03*
X008236Y010699D03*
X007980Y010699D03*
X007724Y010699D03*
X007468Y010699D03*
X007212Y010699D03*
D14*
X008729Y009830D03*
X009399Y009830D03*
X010079Y009830D03*
X010749Y009830D03*
X010749Y011330D03*
X010079Y011330D03*
X010079Y012080D03*
X010749Y012080D03*
X010749Y012830D03*
X010079Y012830D03*
X010364Y014295D03*
X010364Y014965D03*
X014664Y011215D03*
X014664Y010545D03*
X016964Y009665D03*
X016964Y008995D03*
X019429Y008530D03*
X020099Y008530D03*
X020099Y007830D03*
X019429Y007830D03*
X019429Y007130D03*
X020099Y007130D03*
X020864Y006165D03*
X020864Y005495D03*
X024614Y004165D03*
X025314Y004165D03*
X025314Y003495D03*
X024614Y003495D03*
X024629Y002730D03*
X025299Y002730D03*
X025299Y001930D03*
X024629Y001930D03*
X024579Y007330D03*
X025249Y007330D03*
X025249Y008030D03*
X024579Y008030D03*
X024564Y008745D03*
X025264Y008745D03*
X025264Y009415D03*
X024564Y009415D03*
X023314Y009615D03*
X023314Y008945D03*
X018549Y012580D03*
X017879Y012580D03*
X017879Y013280D03*
X018549Y013280D03*
X017014Y014045D03*
X017014Y014715D03*
X019064Y016695D03*
X019064Y017365D03*
X019064Y018045D03*
X019064Y018715D03*
X022529Y015430D03*
X023199Y015430D03*
X020764Y014315D03*
X020764Y013645D03*
X013749Y008530D03*
X013079Y008530D03*
X013079Y007830D03*
X013749Y007830D03*
X013749Y007130D03*
X013079Y007130D03*
X013079Y006430D03*
X013749Y006430D03*
X014564Y006165D03*
X014564Y005495D03*
D15*
X010249Y003280D03*
X009579Y003280D03*
X008714Y003265D03*
X008714Y002595D03*
X008714Y001715D03*
X008714Y001045D03*
X006999Y003280D03*
X006329Y003280D03*
X005464Y003265D03*
X005464Y002595D03*
X005464Y001715D03*
X005464Y001045D03*
X003799Y003280D03*
X003129Y003280D03*
X002264Y003265D03*
X002264Y002595D03*
X002264Y001715D03*
X002264Y001045D03*
X006864Y009145D03*
X006864Y009815D03*
X006099Y011430D03*
X005429Y011430D03*
X007229Y014180D03*
X007899Y014180D03*
X007899Y014930D03*
X007229Y014930D03*
X008929Y014930D03*
X009599Y014930D03*
X009599Y014180D03*
X008929Y014180D03*
X011529Y013980D03*
X012199Y013980D03*
X013179Y013980D03*
X013849Y013980D03*
X017879Y013980D03*
X018549Y013980D03*
X018549Y011880D03*
X017879Y011880D03*
X019429Y009230D03*
X020099Y009230D03*
X025314Y012995D03*
X025314Y013665D03*
X018314Y017395D03*
X018314Y018065D03*
X010749Y010580D03*
X010079Y010580D03*
X013079Y009230D03*
X013749Y009230D03*
X024629Y001130D03*
X025299Y001130D03*
D16*
X013838Y014827D03*
X013464Y014827D03*
X013090Y014827D03*
X012238Y014827D03*
X011864Y014827D03*
X011490Y014827D03*
X011490Y015733D03*
X011864Y015733D03*
X012238Y015733D03*
X013090Y015733D03*
X013464Y015733D03*
X013838Y015733D03*
D17*
X014923Y014330D03*
X016104Y014330D03*
X020173Y015330D03*
X021354Y015330D03*
X016754Y010930D03*
X015573Y010930D03*
X016054Y009280D03*
X014873Y009280D03*
X015523Y005880D03*
X016704Y005880D03*
X021223Y009280D03*
X022404Y009280D03*
X021873Y005880D03*
X023054Y005880D03*
X010254Y016030D03*
X009073Y016030D03*
X007704Y016030D03*
X006523Y016030D03*
D18*
X011464Y012830D03*
X013064Y012880D03*
X010064Y009030D03*
X010064Y008280D03*
X011314Y004980D03*
X005464Y007380D03*
X002264Y007380D03*
X018314Y007130D03*
X018314Y007830D03*
D19*
X016837Y007830D03*
X016837Y007330D03*
X016837Y006830D03*
X016837Y008330D03*
X014790Y008330D03*
X014790Y007830D03*
X014790Y007330D03*
X014790Y006830D03*
X021140Y006830D03*
X021140Y007330D03*
X021140Y007830D03*
X021140Y008330D03*
X023187Y008330D03*
X023187Y007830D03*
X023187Y007330D03*
X023187Y006830D03*
X016837Y011880D03*
X016837Y012380D03*
X016837Y012880D03*
X016837Y013380D03*
X014790Y013380D03*
X014790Y012880D03*
X014790Y012380D03*
X014790Y011880D03*
D20*
X010367Y002604D03*
X010367Y002230D03*
X010367Y001856D03*
X009461Y001856D03*
X009461Y002230D03*
X009461Y002604D03*
X007117Y002604D03*
X007117Y002230D03*
X007117Y001856D03*
X006211Y001856D03*
X006211Y002230D03*
X006211Y002604D03*
X003917Y002604D03*
X003917Y002230D03*
X003917Y001856D03*
X003011Y001856D03*
X003011Y002230D03*
X003011Y002604D03*
D21*
X003090Y001130D03*
X003838Y001130D03*
X006290Y001130D03*
X007038Y001130D03*
X009540Y001130D03*
X010288Y001130D03*
X006988Y007430D03*
X006240Y007430D03*
X003838Y007430D03*
X003090Y007430D03*
D22*
X002264Y006528D03*
X002264Y005032D03*
X002266Y004130D03*
X003762Y004130D03*
X005466Y004130D03*
X005464Y005032D03*
X006962Y004130D03*
X008716Y004130D03*
X008714Y005032D03*
X010212Y004130D03*
X008714Y006528D03*
X005464Y006528D03*
D23*
X006664Y006410D03*
X006664Y005150D03*
X003464Y005150D03*
X003464Y006410D03*
X009914Y006410D03*
X009914Y005150D03*
X017164Y017100D03*
X017164Y018360D03*
D24*
X011114Y006504D03*
X011114Y005756D03*
D25*
X026942Y006286D03*
X026942Y007860D03*
X026942Y009435D03*
X026942Y011404D03*
X026942Y012978D03*
X026942Y014553D03*
X026942Y004317D03*
X026942Y002742D03*
X026942Y001167D03*
D26*
X025067Y017803D03*
X022705Y017803D03*
D27*
X020764Y018546D03*
X020764Y016814D03*
D28*
X021514Y014190D03*
X022014Y014190D03*
X022514Y014190D03*
X023014Y014190D03*
X023514Y014190D03*
X024014Y014190D03*
X024514Y014190D03*
X024514Y011770D03*
X024014Y011770D03*
X023514Y011770D03*
X023014Y011770D03*
X022514Y011770D03*
X022014Y011770D03*
X021514Y011770D03*
M02*
