G75*
G70*
%OFA0B0*%
%FSLAX24Y24*%
%IPPOS*%
%LPD*%
%AMOC8*
5,1,8,0,0,1.08239X$1,22.5*
%
%ADD10C,0.0000*%
%ADD11C,0.0515*%
%ADD12C,0.1581*%
%ADD13C,0.0238*%
%ADD14C,0.0060*%
%ADD15C,0.0100*%
D10*
X001314Y000380D02*
X001314Y019671D01*
X028086Y019671D01*
X028086Y000380D01*
X001314Y000380D01*
D11*
X011814Y002171D03*
X012814Y002171D03*
X013814Y002171D03*
X014814Y002171D03*
X015814Y002171D03*
X015814Y003171D03*
X014814Y003171D03*
X013814Y003171D03*
X012814Y003171D03*
X011814Y003171D03*
X003814Y008671D03*
X002814Y008671D03*
X002814Y009671D03*
X003814Y009671D03*
X003814Y010671D03*
X002814Y010671D03*
X002814Y011671D03*
X003814Y011671D03*
X003814Y012671D03*
X002814Y012671D03*
X011814Y017171D03*
X012814Y017171D03*
X013814Y017171D03*
X014814Y017171D03*
X015814Y017171D03*
X015814Y018171D03*
X014814Y018171D03*
X013814Y018171D03*
X012814Y018171D03*
X011814Y018171D03*
D12*
X022705Y017803D03*
X025067Y017803D03*
D13*
X021664Y017030D03*
X021664Y016730D03*
X021664Y016430D03*
X020764Y015480D03*
X020764Y015180D03*
X020314Y014430D03*
X020014Y014430D03*
X018564Y014430D03*
X017614Y014830D03*
X016364Y015080D03*
X016014Y015080D03*
X015514Y014530D03*
X015514Y014130D03*
X015614Y012880D03*
X013914Y012180D03*
X013514Y012880D03*
X013814Y013580D03*
X013464Y014430D03*
X013464Y015280D03*
X013464Y016130D03*
X013814Y016380D03*
X012214Y016380D03*
X011864Y016130D03*
X011464Y016680D03*
X011864Y015280D03*
X011864Y014430D03*
X012214Y013580D03*
X009714Y015380D03*
X009714Y015730D03*
X008564Y016780D03*
X008214Y016780D03*
X008214Y017580D03*
X008564Y017580D03*
X008564Y018430D03*
X008214Y018430D03*
X006514Y015280D03*
X006814Y014530D03*
X004964Y014530D03*
X004164Y014530D03*
X007614Y012430D03*
X006664Y011430D03*
X005414Y010980D03*
X005864Y010330D03*
X006214Y010330D03*
X006214Y009530D03*
X005864Y009530D03*
X007614Y009830D03*
X007964Y010080D03*
X008114Y009580D03*
X007164Y007980D03*
X006864Y007980D03*
X007564Y006580D03*
X007564Y006230D03*
X010164Y007030D03*
X010464Y007030D03*
X010914Y005130D03*
X010914Y004830D03*
X009214Y004080D03*
X009214Y003780D03*
X009914Y002380D03*
X009914Y002080D03*
X010814Y001280D03*
X010814Y000980D03*
X007564Y000980D03*
X007564Y001280D03*
X006664Y002080D03*
X006664Y002380D03*
X006014Y003780D03*
X006014Y004080D03*
X004464Y002930D03*
X004464Y002630D03*
X003464Y002380D03*
X003464Y002080D03*
X004364Y001280D03*
X004364Y000980D03*
X002814Y003780D03*
X002814Y004080D03*
X003714Y007980D03*
X004014Y007980D03*
X008864Y011380D03*
X011314Y011080D03*
X014164Y010630D03*
X015364Y010180D03*
X015664Y010180D03*
X015964Y010030D03*
X016264Y010030D03*
X016164Y010630D03*
X016164Y010930D03*
X016164Y011580D03*
X018564Y011330D03*
X020014Y011530D03*
X020314Y011530D03*
X020314Y012530D03*
X020014Y012530D03*
X020814Y013130D03*
X023014Y012680D03*
X023514Y013380D03*
X024514Y012880D03*
X024514Y012530D03*
X026714Y012180D03*
X027164Y012180D03*
X027164Y013780D03*
X026714Y013780D03*
X024414Y010730D03*
X024414Y010430D03*
X022614Y009980D03*
X022314Y009980D03*
X021814Y009180D03*
X021814Y008680D03*
X021814Y007330D03*
X022464Y006080D03*
X022464Y005680D03*
X021864Y005130D03*
X021864Y004830D03*
X021064Y004430D03*
X020764Y004430D03*
X020314Y005580D03*
X020014Y005580D03*
X016114Y005680D03*
X016114Y006080D03*
X015514Y005130D03*
X015514Y004830D03*
X014014Y004430D03*
X013714Y004430D03*
X013714Y005580D03*
X014014Y005580D03*
X015464Y008680D03*
X015464Y009180D03*
X017564Y008930D03*
X018964Y008930D03*
X024014Y008930D03*
X026714Y008630D03*
X027164Y008630D03*
X027164Y007080D03*
X026714Y007080D03*
X024414Y005880D03*
X024064Y005880D03*
X026714Y003530D03*
X027164Y003530D03*
X027164Y001980D03*
X026714Y001980D03*
X025814Y001930D03*
X012614Y008930D03*
X018314Y016630D03*
X018514Y016880D03*
X018114Y016880D03*
X019664Y016730D03*
X019814Y018280D03*
X019814Y018580D03*
X019814Y018880D03*
D14*
X019464Y018580D02*
X019314Y018730D01*
X002464Y018730D01*
X002264Y018530D01*
X002264Y001780D01*
X002664Y001380D01*
X010864Y001380D01*
X010964Y001280D01*
X010964Y000510D01*
X001444Y000510D01*
X001444Y019541D01*
X020264Y019541D01*
X020264Y018180D01*
X020114Y018030D01*
X019564Y018030D01*
X019464Y018130D01*
X019464Y018580D01*
X019464Y018574D02*
X020264Y018574D01*
X020264Y018632D02*
X019412Y018632D01*
X019353Y018691D02*
X020264Y018691D01*
X020264Y018749D02*
X001444Y018749D01*
X001444Y018691D02*
X002424Y018691D01*
X002366Y018632D02*
X001444Y018632D01*
X001444Y018574D02*
X002307Y018574D01*
X002264Y018515D02*
X001444Y018515D01*
X001444Y018457D02*
X002264Y018457D01*
X002264Y018398D02*
X001444Y018398D01*
X001444Y018340D02*
X002264Y018340D01*
X002264Y018281D02*
X001444Y018281D01*
X001444Y018223D02*
X002264Y018223D01*
X002264Y018164D02*
X001444Y018164D01*
X001444Y018106D02*
X002264Y018106D01*
X002264Y018047D02*
X001444Y018047D01*
X001444Y017989D02*
X002264Y017989D01*
X002264Y017930D02*
X001444Y017930D01*
X001444Y017872D02*
X002264Y017872D01*
X002264Y017813D02*
X001444Y017813D01*
X001444Y017755D02*
X002264Y017755D01*
X002264Y017696D02*
X001444Y017696D01*
X001444Y017638D02*
X002264Y017638D01*
X002264Y017579D02*
X001444Y017579D01*
X001444Y017521D02*
X002264Y017521D01*
X002264Y017462D02*
X001444Y017462D01*
X001444Y017404D02*
X002264Y017404D01*
X002264Y017345D02*
X001444Y017345D01*
X001444Y017287D02*
X002264Y017287D01*
X002264Y017228D02*
X001444Y017228D01*
X001444Y017170D02*
X002264Y017170D01*
X002264Y017111D02*
X001444Y017111D01*
X001444Y017053D02*
X002264Y017053D01*
X002264Y016994D02*
X001444Y016994D01*
X001444Y016936D02*
X002264Y016936D01*
X002264Y016877D02*
X001444Y016877D01*
X001444Y016819D02*
X002264Y016819D01*
X002264Y016760D02*
X001444Y016760D01*
X001444Y016702D02*
X002264Y016702D01*
X002264Y016643D02*
X001444Y016643D01*
X001444Y016585D02*
X002264Y016585D01*
X002264Y016526D02*
X001444Y016526D01*
X001444Y016468D02*
X002264Y016468D01*
X002264Y016409D02*
X001444Y016409D01*
X001444Y016351D02*
X002264Y016351D01*
X002264Y016292D02*
X001444Y016292D01*
X001444Y016234D02*
X002264Y016234D01*
X002264Y016175D02*
X001444Y016175D01*
X001444Y016117D02*
X002264Y016117D01*
X002264Y016058D02*
X001444Y016058D01*
X001444Y016000D02*
X002264Y016000D01*
X002264Y015941D02*
X001444Y015941D01*
X001444Y015883D02*
X002264Y015883D01*
X002264Y015824D02*
X001444Y015824D01*
X001444Y015766D02*
X002264Y015766D01*
X002264Y015707D02*
X001444Y015707D01*
X001444Y015649D02*
X002264Y015649D01*
X002264Y015590D02*
X001444Y015590D01*
X001444Y015532D02*
X002264Y015532D01*
X002264Y015473D02*
X001444Y015473D01*
X001444Y015415D02*
X002264Y015415D01*
X002264Y015356D02*
X001444Y015356D01*
X001444Y015298D02*
X002264Y015298D01*
X002264Y015239D02*
X001444Y015239D01*
X001444Y015181D02*
X002264Y015181D01*
X002264Y015122D02*
X001444Y015122D01*
X001444Y015064D02*
X002264Y015064D01*
X002264Y015005D02*
X001444Y015005D01*
X001444Y014947D02*
X002264Y014947D01*
X002264Y014888D02*
X001444Y014888D01*
X001444Y014830D02*
X002264Y014830D01*
X002264Y014771D02*
X001444Y014771D01*
X001444Y014713D02*
X002264Y014713D01*
X002264Y014654D02*
X001444Y014654D01*
X001444Y014596D02*
X002264Y014596D01*
X002264Y014537D02*
X001444Y014537D01*
X001444Y014479D02*
X002264Y014479D01*
X002264Y014420D02*
X001444Y014420D01*
X001444Y014362D02*
X002264Y014362D01*
X002264Y014303D02*
X001444Y014303D01*
X001444Y014245D02*
X002264Y014245D01*
X002264Y014186D02*
X001444Y014186D01*
X001444Y014128D02*
X002264Y014128D01*
X002264Y014069D02*
X001444Y014069D01*
X001444Y014011D02*
X002264Y014011D01*
X002264Y013952D02*
X001444Y013952D01*
X001444Y013894D02*
X002264Y013894D01*
X002264Y013835D02*
X001444Y013835D01*
X001444Y013777D02*
X002264Y013777D01*
X002264Y013718D02*
X001444Y013718D01*
X001444Y013660D02*
X002264Y013660D01*
X002264Y013601D02*
X001444Y013601D01*
X001444Y013543D02*
X002264Y013543D01*
X002264Y013484D02*
X001444Y013484D01*
X001444Y013426D02*
X002264Y013426D01*
X002264Y013367D02*
X001444Y013367D01*
X001444Y013309D02*
X002264Y013309D01*
X002264Y013250D02*
X001444Y013250D01*
X001444Y013192D02*
X002264Y013192D01*
X002264Y013133D02*
X001444Y013133D01*
X001444Y013075D02*
X002264Y013075D01*
X002264Y013016D02*
X001444Y013016D01*
X001444Y012958D02*
X002264Y012958D01*
X002264Y012899D02*
X001444Y012899D01*
X001444Y012841D02*
X002264Y012841D01*
X002264Y012782D02*
X001444Y012782D01*
X001444Y012724D02*
X002264Y012724D01*
X002264Y012665D02*
X001444Y012665D01*
X001444Y012607D02*
X002264Y012607D01*
X002264Y012548D02*
X001444Y012548D01*
X001444Y012490D02*
X002264Y012490D01*
X002264Y012431D02*
X001444Y012431D01*
X001444Y012373D02*
X002264Y012373D01*
X002264Y012314D02*
X001444Y012314D01*
X001444Y012256D02*
X002264Y012256D01*
X002264Y012197D02*
X001444Y012197D01*
X001444Y012139D02*
X002264Y012139D01*
X002264Y012080D02*
X001444Y012080D01*
X001444Y012022D02*
X002264Y012022D01*
X002264Y011963D02*
X001444Y011963D01*
X001444Y011905D02*
X002264Y011905D01*
X002264Y011846D02*
X001444Y011846D01*
X001444Y011788D02*
X002264Y011788D01*
X002264Y011729D02*
X001444Y011729D01*
X001444Y011671D02*
X002264Y011671D01*
X002264Y011612D02*
X001444Y011612D01*
X001444Y011554D02*
X002264Y011554D01*
X002264Y011495D02*
X001444Y011495D01*
X001444Y011437D02*
X002264Y011437D01*
X002264Y011378D02*
X001444Y011378D01*
X001444Y011320D02*
X002264Y011320D01*
X002264Y011261D02*
X001444Y011261D01*
X001444Y011203D02*
X002264Y011203D01*
X002264Y011144D02*
X001444Y011144D01*
X001444Y011086D02*
X002264Y011086D01*
X002264Y011027D02*
X001444Y011027D01*
X001444Y010969D02*
X002264Y010969D01*
X002264Y010910D02*
X001444Y010910D01*
X001444Y010852D02*
X002264Y010852D01*
X002264Y010793D02*
X001444Y010793D01*
X001444Y010735D02*
X002264Y010735D01*
X002264Y010676D02*
X001444Y010676D01*
X001444Y010618D02*
X002264Y010618D01*
X002264Y010559D02*
X001444Y010559D01*
X001444Y010501D02*
X002264Y010501D01*
X002264Y010442D02*
X001444Y010442D01*
X001444Y010384D02*
X002264Y010384D01*
X002264Y010325D02*
X001444Y010325D01*
X001444Y010267D02*
X002264Y010267D01*
X002264Y010208D02*
X001444Y010208D01*
X001444Y010150D02*
X002264Y010150D01*
X002264Y010091D02*
X001444Y010091D01*
X001444Y010033D02*
X002264Y010033D01*
X002264Y009974D02*
X001444Y009974D01*
X001444Y009916D02*
X002264Y009916D01*
X002264Y009857D02*
X001444Y009857D01*
X001444Y009799D02*
X002264Y009799D01*
X002264Y009740D02*
X001444Y009740D01*
X001444Y009682D02*
X002264Y009682D01*
X002264Y009623D02*
X001444Y009623D01*
X001444Y009565D02*
X002264Y009565D01*
X002264Y009506D02*
X001444Y009506D01*
X001444Y009448D02*
X002264Y009448D01*
X002264Y009389D02*
X001444Y009389D01*
X001444Y009331D02*
X002264Y009331D01*
X002264Y009272D02*
X001444Y009272D01*
X001444Y009214D02*
X002264Y009214D01*
X002264Y009155D02*
X001444Y009155D01*
X001444Y009097D02*
X002264Y009097D01*
X002264Y009038D02*
X001444Y009038D01*
X001444Y008980D02*
X002264Y008980D01*
X002264Y008921D02*
X001444Y008921D01*
X001444Y008863D02*
X002264Y008863D01*
X002264Y008804D02*
X001444Y008804D01*
X001444Y008746D02*
X002264Y008746D01*
X002264Y008687D02*
X001444Y008687D01*
X001444Y008629D02*
X002264Y008629D01*
X002264Y008570D02*
X001444Y008570D01*
X001444Y008512D02*
X002264Y008512D01*
X002264Y008453D02*
X001444Y008453D01*
X001444Y008395D02*
X002264Y008395D01*
X002264Y008336D02*
X001444Y008336D01*
X001444Y008278D02*
X002264Y008278D01*
X002264Y008219D02*
X001444Y008219D01*
X001444Y008161D02*
X002264Y008161D01*
X002264Y008102D02*
X001444Y008102D01*
X001444Y008044D02*
X002264Y008044D01*
X002264Y007985D02*
X001444Y007985D01*
X001444Y007927D02*
X002264Y007927D01*
X002264Y007868D02*
X001444Y007868D01*
X001444Y007810D02*
X002264Y007810D01*
X002264Y007751D02*
X001444Y007751D01*
X001444Y007693D02*
X002264Y007693D01*
X002264Y007634D02*
X001444Y007634D01*
X001444Y007576D02*
X002264Y007576D01*
X002264Y007517D02*
X001444Y007517D01*
X001444Y007459D02*
X002264Y007459D01*
X002264Y007400D02*
X001444Y007400D01*
X001444Y007342D02*
X002264Y007342D01*
X002264Y007283D02*
X001444Y007283D01*
X001444Y007225D02*
X002264Y007225D01*
X002264Y007166D02*
X001444Y007166D01*
X001444Y007108D02*
X002264Y007108D01*
X002264Y007049D02*
X001444Y007049D01*
X001444Y006991D02*
X002264Y006991D01*
X002264Y006932D02*
X001444Y006932D01*
X001444Y006874D02*
X002264Y006874D01*
X002264Y006815D02*
X001444Y006815D01*
X001444Y006757D02*
X002264Y006757D01*
X002264Y006698D02*
X001444Y006698D01*
X001444Y006640D02*
X002264Y006640D01*
X002264Y006581D02*
X001444Y006581D01*
X001444Y006523D02*
X002264Y006523D01*
X002264Y006464D02*
X001444Y006464D01*
X001444Y006406D02*
X002264Y006406D01*
X002264Y006347D02*
X001444Y006347D01*
X001444Y006289D02*
X002264Y006289D01*
X002264Y006230D02*
X001444Y006230D01*
X001444Y006172D02*
X002264Y006172D01*
X002264Y006113D02*
X001444Y006113D01*
X001444Y006055D02*
X002264Y006055D01*
X002264Y005996D02*
X001444Y005996D01*
X001444Y005938D02*
X002264Y005938D01*
X002264Y005879D02*
X001444Y005879D01*
X001444Y005821D02*
X002264Y005821D01*
X002264Y005762D02*
X001444Y005762D01*
X001444Y005704D02*
X002264Y005704D01*
X002264Y005645D02*
X001444Y005645D01*
X001444Y005587D02*
X002264Y005587D01*
X002264Y005528D02*
X001444Y005528D01*
X001444Y005470D02*
X002264Y005470D01*
X002264Y005411D02*
X001444Y005411D01*
X001444Y005353D02*
X002264Y005353D01*
X002264Y005294D02*
X001444Y005294D01*
X001444Y005236D02*
X002264Y005236D01*
X002264Y005177D02*
X001444Y005177D01*
X001444Y005119D02*
X002264Y005119D01*
X002264Y005060D02*
X001444Y005060D01*
X001444Y005002D02*
X002264Y005002D01*
X002264Y004943D02*
X001444Y004943D01*
X001444Y004885D02*
X002264Y004885D01*
X002264Y004826D02*
X001444Y004826D01*
X001444Y004768D02*
X002264Y004768D01*
X002264Y004709D02*
X001444Y004709D01*
X001444Y004651D02*
X002264Y004651D01*
X002264Y004592D02*
X001444Y004592D01*
X001444Y004534D02*
X002264Y004534D01*
X002264Y004475D02*
X001444Y004475D01*
X001444Y004417D02*
X002264Y004417D01*
X002264Y004358D02*
X001444Y004358D01*
X001444Y004300D02*
X002264Y004300D01*
X002264Y004241D02*
X001444Y004241D01*
X001444Y004183D02*
X002264Y004183D01*
X002264Y004124D02*
X001444Y004124D01*
X001444Y004066D02*
X002264Y004066D01*
X002264Y004007D02*
X001444Y004007D01*
X001444Y003949D02*
X002264Y003949D01*
X002264Y003890D02*
X001444Y003890D01*
X001444Y003832D02*
X002264Y003832D01*
X002264Y003773D02*
X001444Y003773D01*
X001444Y003715D02*
X002264Y003715D01*
X002264Y003656D02*
X001444Y003656D01*
X001444Y003598D02*
X002264Y003598D01*
X002264Y003539D02*
X001444Y003539D01*
X001444Y003481D02*
X002264Y003481D01*
X002264Y003422D02*
X001444Y003422D01*
X001444Y003364D02*
X002264Y003364D01*
X002264Y003305D02*
X001444Y003305D01*
X001444Y003247D02*
X002264Y003247D01*
X002264Y003188D02*
X001444Y003188D01*
X001444Y003130D02*
X002264Y003130D01*
X002264Y003071D02*
X001444Y003071D01*
X001444Y003013D02*
X002264Y003013D01*
X002264Y002954D02*
X001444Y002954D01*
X001444Y002896D02*
X002264Y002896D01*
X002264Y002837D02*
X001444Y002837D01*
X001444Y002779D02*
X002264Y002779D01*
X002264Y002720D02*
X001444Y002720D01*
X001444Y002662D02*
X002264Y002662D01*
X002264Y002603D02*
X001444Y002603D01*
X001444Y002545D02*
X002264Y002545D01*
X002264Y002486D02*
X001444Y002486D01*
X001444Y002428D02*
X002264Y002428D01*
X002264Y002369D02*
X001444Y002369D01*
X001444Y002311D02*
X002264Y002311D01*
X002264Y002252D02*
X001444Y002252D01*
X001444Y002194D02*
X002264Y002194D01*
X002264Y002135D02*
X001444Y002135D01*
X001444Y002077D02*
X002264Y002077D01*
X002264Y002018D02*
X001444Y002018D01*
X001444Y001960D02*
X002264Y001960D01*
X002264Y001901D02*
X001444Y001901D01*
X001444Y001843D02*
X002264Y001843D01*
X002264Y001784D02*
X001444Y001784D01*
X001444Y001726D02*
X002318Y001726D01*
X002377Y001667D02*
X001444Y001667D01*
X001444Y001609D02*
X002435Y001609D01*
X002494Y001550D02*
X001444Y001550D01*
X001444Y001492D02*
X002552Y001492D01*
X002611Y001433D02*
X001444Y001433D01*
X001444Y001375D02*
X010869Y001375D01*
X010928Y001316D02*
X001444Y001316D01*
X001444Y001258D02*
X010964Y001258D01*
X010964Y001199D02*
X001444Y001199D01*
X001444Y001141D02*
X010964Y001141D01*
X010964Y001082D02*
X001444Y001082D01*
X001444Y001024D02*
X010964Y001024D01*
X010964Y000965D02*
X001444Y000965D01*
X001444Y000907D02*
X010964Y000907D01*
X010964Y000848D02*
X001444Y000848D01*
X001444Y000790D02*
X010964Y000790D01*
X010964Y000731D02*
X001444Y000731D01*
X001444Y000673D02*
X010964Y000673D01*
X010964Y000614D02*
X001444Y000614D01*
X001444Y000556D02*
X010964Y000556D01*
X011084Y000556D02*
X027956Y000556D01*
X027956Y000510D02*
X011084Y000510D01*
X011084Y001330D01*
X011014Y001400D01*
X011014Y001400D01*
X010914Y001500D01*
X002714Y001500D01*
X002384Y001830D01*
X002384Y018480D01*
X002514Y018610D01*
X019264Y018610D01*
X019344Y018530D01*
X019344Y018080D01*
X019414Y018010D01*
X019514Y017910D01*
X020164Y017910D01*
X020234Y017980D01*
X020384Y018130D01*
X020384Y019541D01*
X027956Y019541D01*
X027956Y000510D01*
X027956Y000614D02*
X011084Y000614D01*
X011084Y000673D02*
X027956Y000673D01*
X027956Y000731D02*
X011084Y000731D01*
X011084Y000790D02*
X027956Y000790D01*
X027956Y000848D02*
X011084Y000848D01*
X011084Y000907D02*
X027956Y000907D01*
X027956Y000965D02*
X011084Y000965D01*
X011084Y001024D02*
X027956Y001024D01*
X027956Y001082D02*
X011084Y001082D01*
X011084Y001141D02*
X027956Y001141D01*
X027956Y001199D02*
X011084Y001199D01*
X011084Y001258D02*
X027956Y001258D01*
X027956Y001316D02*
X011084Y001316D01*
X011039Y001375D02*
X027956Y001375D01*
X027956Y001433D02*
X010981Y001433D01*
X010922Y001492D02*
X014004Y001492D01*
X014006Y001490D02*
X025572Y001490D01*
X025654Y001572D01*
X025803Y001721D01*
X025900Y001721D01*
X026023Y001843D01*
X026023Y002017D01*
X025900Y002139D01*
X025727Y002139D01*
X025605Y002017D01*
X025605Y001919D01*
X025456Y001770D01*
X014122Y001770D01*
X014013Y001879D01*
X014108Y001975D01*
X014161Y002102D01*
X014161Y002240D01*
X014108Y002368D01*
X014011Y002466D01*
X013883Y002519D01*
X013745Y002519D01*
X013617Y002466D01*
X013519Y002368D01*
X013466Y002240D01*
X013466Y002102D01*
X013519Y001975D01*
X013617Y001877D01*
X013674Y001853D01*
X013674Y001822D01*
X014006Y001490D01*
X013946Y001550D02*
X002664Y001550D01*
X002605Y001609D02*
X013887Y001609D01*
X013829Y001667D02*
X002547Y001667D01*
X002488Y001726D02*
X013770Y001726D01*
X013712Y001784D02*
X002430Y001784D01*
X002384Y001843D02*
X011700Y001843D01*
X011745Y001824D02*
X011883Y001824D01*
X012011Y001877D01*
X012108Y001975D01*
X012161Y002102D01*
X012161Y002240D01*
X012108Y002368D01*
X012011Y002466D01*
X011883Y002519D01*
X011745Y002519D01*
X011617Y002466D01*
X011519Y002368D01*
X011466Y002240D01*
X011466Y002102D01*
X011519Y001975D01*
X011617Y001877D01*
X011745Y001824D01*
X011593Y001901D02*
X010055Y001901D01*
X010084Y001930D02*
X010234Y002080D01*
X010234Y004180D01*
X010614Y004560D01*
X024664Y004560D01*
X024734Y004630D01*
X025384Y005280D01*
X025384Y011727D01*
X025386Y011774D01*
X025384Y011776D01*
X025384Y011780D01*
X025351Y011813D01*
X024884Y012326D01*
X024884Y012330D01*
X024851Y012363D01*
X024819Y012397D01*
X024816Y012398D01*
X024814Y012400D01*
X024767Y012400D01*
X024720Y012402D01*
X024717Y012400D01*
X016814Y012400D01*
X016634Y012580D01*
X016634Y015230D01*
X016564Y015300D01*
X016464Y015400D01*
X015914Y015400D01*
X015844Y015330D01*
X015744Y015230D01*
X015744Y013046D01*
X015700Y013089D01*
X015527Y013089D01*
X015458Y013020D01*
X013670Y013020D01*
X013600Y013089D01*
X013427Y013089D01*
X013305Y012967D01*
X013305Y012793D01*
X013427Y012671D01*
X013600Y012671D01*
X013670Y012740D01*
X015458Y012740D01*
X015527Y012671D01*
X015700Y012671D01*
X015744Y012714D01*
X015744Y012180D01*
X015814Y012110D01*
X016264Y011660D01*
X024264Y011660D01*
X024544Y011380D01*
X024544Y005730D01*
X024264Y005450D01*
X009914Y005450D01*
X008994Y004530D01*
X008994Y002080D01*
X009064Y002010D01*
X009214Y001860D01*
X010014Y001860D01*
X010084Y001930D01*
X010113Y001960D02*
X011534Y001960D01*
X011501Y002018D02*
X010172Y002018D01*
X010230Y002077D02*
X011477Y002077D01*
X011466Y002135D02*
X010234Y002135D01*
X010234Y002194D02*
X011466Y002194D01*
X011471Y002252D02*
X010234Y002252D01*
X010234Y002311D02*
X011495Y002311D01*
X011520Y002369D02*
X010234Y002369D01*
X010234Y002428D02*
X011579Y002428D01*
X011666Y002486D02*
X010234Y002486D01*
X010234Y002545D02*
X027956Y002545D01*
X027956Y002603D02*
X010234Y002603D01*
X010234Y002662D02*
X027956Y002662D01*
X027956Y002720D02*
X010234Y002720D01*
X010234Y002779D02*
X027956Y002779D01*
X027956Y002837D02*
X015915Y002837D01*
X015883Y002824D02*
X016011Y002877D01*
X016108Y002975D01*
X016161Y003102D01*
X016161Y003240D01*
X016108Y003368D01*
X016011Y003466D01*
X015883Y003519D01*
X015745Y003519D01*
X015617Y003466D01*
X015519Y003368D01*
X015466Y003240D01*
X015466Y003102D01*
X015519Y002975D01*
X015617Y002877D01*
X015745Y002824D01*
X015883Y002824D01*
X016029Y002896D02*
X027956Y002896D01*
X027956Y002954D02*
X016088Y002954D01*
X016124Y003013D02*
X027956Y003013D01*
X027956Y003071D02*
X016148Y003071D01*
X016161Y003130D02*
X027956Y003130D01*
X027956Y003188D02*
X016161Y003188D01*
X016159Y003247D02*
X027956Y003247D01*
X027956Y003305D02*
X016135Y003305D01*
X016110Y003364D02*
X027956Y003364D01*
X027956Y003422D02*
X016055Y003422D01*
X015975Y003481D02*
X027956Y003481D01*
X027956Y003539D02*
X010234Y003539D01*
X010234Y003481D02*
X011652Y003481D01*
X011617Y003466D02*
X011519Y003368D01*
X011466Y003240D01*
X011466Y003102D01*
X011519Y002975D01*
X011617Y002877D01*
X011745Y002824D01*
X011883Y002824D01*
X012011Y002877D01*
X012108Y002975D01*
X012161Y003102D01*
X012161Y003240D01*
X012108Y003368D01*
X012011Y003466D01*
X011883Y003519D01*
X011745Y003519D01*
X011617Y003466D01*
X011573Y003422D02*
X010234Y003422D01*
X010234Y003364D02*
X011517Y003364D01*
X011493Y003305D02*
X010234Y003305D01*
X010234Y003247D02*
X011469Y003247D01*
X011466Y003188D02*
X010234Y003188D01*
X010234Y003130D02*
X011466Y003130D01*
X011479Y003071D02*
X010234Y003071D01*
X010234Y003013D02*
X011504Y003013D01*
X011540Y002954D02*
X010234Y002954D01*
X010234Y002896D02*
X011598Y002896D01*
X011713Y002837D02*
X010234Y002837D01*
X010114Y002837D02*
X009114Y002837D01*
X009114Y002779D02*
X010114Y002779D01*
X010114Y002720D02*
X009114Y002720D01*
X009114Y002662D02*
X010114Y002662D01*
X010114Y002603D02*
X009114Y002603D01*
X009114Y002545D02*
X010114Y002545D01*
X010114Y002486D02*
X009114Y002486D01*
X009114Y002428D02*
X010114Y002428D01*
X010114Y002369D02*
X009114Y002369D01*
X009114Y002311D02*
X010114Y002311D01*
X010114Y002252D02*
X009114Y002252D01*
X009114Y002194D02*
X010114Y002194D01*
X010114Y002135D02*
X009114Y002135D01*
X009114Y002130D02*
X009114Y004480D01*
X009964Y005330D01*
X024314Y005330D01*
X024664Y005680D01*
X024664Y011430D01*
X024314Y011780D01*
X016314Y011780D01*
X015864Y012230D01*
X015864Y015180D01*
X015964Y015280D01*
X016414Y015280D01*
X016514Y015180D01*
X016514Y012530D01*
X016764Y012280D01*
X024764Y012280D01*
X025264Y011730D01*
X025264Y005330D01*
X024614Y004680D01*
X010564Y004680D01*
X010114Y004230D01*
X010114Y002130D01*
X009964Y001980D01*
X009264Y001980D01*
X009114Y002130D01*
X009167Y002077D02*
X010060Y002077D01*
X010002Y002018D02*
X009226Y002018D01*
X009115Y001960D02*
X002384Y001960D01*
X002384Y002018D02*
X009056Y002018D01*
X008998Y002077D02*
X002384Y002077D01*
X002384Y002135D02*
X008994Y002135D01*
X008994Y002194D02*
X002384Y002194D01*
X002384Y002252D02*
X008994Y002252D01*
X008994Y002311D02*
X002384Y002311D01*
X002384Y002369D02*
X008994Y002369D01*
X008994Y002428D02*
X002384Y002428D01*
X002384Y002486D02*
X008994Y002486D01*
X008994Y002545D02*
X002384Y002545D01*
X002384Y002603D02*
X008994Y002603D01*
X008994Y002662D02*
X002384Y002662D01*
X002384Y002720D02*
X008994Y002720D01*
X008994Y002779D02*
X002384Y002779D01*
X002384Y002837D02*
X008994Y002837D01*
X008994Y002896D02*
X002384Y002896D01*
X002384Y002954D02*
X008994Y002954D01*
X008994Y003013D02*
X002384Y003013D01*
X002384Y003071D02*
X008994Y003071D01*
X008994Y003130D02*
X002384Y003130D01*
X002384Y003188D02*
X008994Y003188D01*
X008994Y003247D02*
X002384Y003247D01*
X002384Y003305D02*
X008994Y003305D01*
X008994Y003364D02*
X002384Y003364D01*
X002384Y003422D02*
X008994Y003422D01*
X008994Y003481D02*
X002384Y003481D01*
X002384Y003539D02*
X008994Y003539D01*
X008994Y003598D02*
X002384Y003598D01*
X002384Y003656D02*
X008994Y003656D01*
X008994Y003715D02*
X002384Y003715D01*
X002384Y003773D02*
X008994Y003773D01*
X008994Y003832D02*
X002384Y003832D01*
X002384Y003890D02*
X008994Y003890D01*
X008994Y003949D02*
X002384Y003949D01*
X002384Y004007D02*
X008994Y004007D01*
X008994Y004066D02*
X002384Y004066D01*
X002384Y004124D02*
X008994Y004124D01*
X008994Y004183D02*
X002384Y004183D01*
X002384Y004241D02*
X008994Y004241D01*
X008994Y004300D02*
X002384Y004300D01*
X002384Y004358D02*
X008994Y004358D01*
X008994Y004417D02*
X002384Y004417D01*
X002384Y004475D02*
X008994Y004475D01*
X008998Y004534D02*
X002384Y004534D01*
X002384Y004592D02*
X009056Y004592D01*
X009115Y004651D02*
X002384Y004651D01*
X002384Y004709D02*
X009173Y004709D01*
X009232Y004768D02*
X002384Y004768D01*
X002384Y004826D02*
X009290Y004826D01*
X009349Y004885D02*
X002384Y004885D01*
X002384Y004943D02*
X009407Y004943D01*
X009466Y005002D02*
X002384Y005002D01*
X002384Y005060D02*
X009524Y005060D01*
X009583Y005119D02*
X002384Y005119D01*
X002384Y005177D02*
X009641Y005177D01*
X009700Y005236D02*
X002384Y005236D01*
X002384Y005294D02*
X009758Y005294D01*
X009817Y005353D02*
X002384Y005353D01*
X002384Y005411D02*
X009875Y005411D01*
X009928Y005294D02*
X025228Y005294D01*
X025264Y005353D02*
X024336Y005353D01*
X024395Y005411D02*
X025264Y005411D01*
X025264Y005470D02*
X024453Y005470D01*
X024512Y005528D02*
X025264Y005528D01*
X025264Y005587D02*
X024570Y005587D01*
X024629Y005645D02*
X025264Y005645D01*
X025264Y005704D02*
X024664Y005704D01*
X024664Y005762D02*
X025264Y005762D01*
X025264Y005821D02*
X024664Y005821D01*
X024664Y005879D02*
X025264Y005879D01*
X025264Y005938D02*
X024664Y005938D01*
X024664Y005996D02*
X025264Y005996D01*
X025264Y006055D02*
X024664Y006055D01*
X024664Y006113D02*
X025264Y006113D01*
X025264Y006172D02*
X024664Y006172D01*
X024664Y006230D02*
X025264Y006230D01*
X025264Y006289D02*
X024664Y006289D01*
X024664Y006347D02*
X025264Y006347D01*
X025264Y006406D02*
X024664Y006406D01*
X024664Y006464D02*
X025264Y006464D01*
X025264Y006523D02*
X024664Y006523D01*
X024664Y006581D02*
X025264Y006581D01*
X025264Y006640D02*
X024664Y006640D01*
X024664Y006698D02*
X025264Y006698D01*
X025264Y006757D02*
X024664Y006757D01*
X024664Y006815D02*
X025264Y006815D01*
X025264Y006874D02*
X024664Y006874D01*
X024664Y006932D02*
X025264Y006932D01*
X025264Y006991D02*
X024664Y006991D01*
X024664Y007049D02*
X025264Y007049D01*
X025264Y007108D02*
X024664Y007108D01*
X024664Y007166D02*
X025264Y007166D01*
X025264Y007225D02*
X024664Y007225D01*
X024664Y007283D02*
X025264Y007283D01*
X025264Y007342D02*
X024664Y007342D01*
X024664Y007400D02*
X025264Y007400D01*
X025264Y007459D02*
X024664Y007459D01*
X024664Y007517D02*
X025264Y007517D01*
X025264Y007576D02*
X024664Y007576D01*
X024664Y007634D02*
X025264Y007634D01*
X025264Y007693D02*
X024664Y007693D01*
X024664Y007751D02*
X025264Y007751D01*
X025264Y007810D02*
X024664Y007810D01*
X024664Y007868D02*
X025264Y007868D01*
X025264Y007927D02*
X024664Y007927D01*
X024664Y007985D02*
X025264Y007985D01*
X025264Y008044D02*
X024664Y008044D01*
X024664Y008102D02*
X025264Y008102D01*
X025264Y008161D02*
X024664Y008161D01*
X024664Y008219D02*
X025264Y008219D01*
X025264Y008278D02*
X024664Y008278D01*
X024664Y008336D02*
X025264Y008336D01*
X025264Y008395D02*
X024664Y008395D01*
X024664Y008453D02*
X025264Y008453D01*
X025264Y008512D02*
X024664Y008512D01*
X024664Y008570D02*
X025264Y008570D01*
X025264Y008629D02*
X024664Y008629D01*
X024664Y008687D02*
X025264Y008687D01*
X025264Y008746D02*
X024664Y008746D01*
X024664Y008804D02*
X025264Y008804D01*
X025264Y008863D02*
X024664Y008863D01*
X024664Y008921D02*
X025264Y008921D01*
X025264Y008980D02*
X024664Y008980D01*
X024664Y009038D02*
X025264Y009038D01*
X025264Y009097D02*
X024664Y009097D01*
X024664Y009155D02*
X025264Y009155D01*
X025264Y009214D02*
X024664Y009214D01*
X024664Y009272D02*
X025264Y009272D01*
X025264Y009331D02*
X024664Y009331D01*
X024664Y009389D02*
X025264Y009389D01*
X025264Y009448D02*
X024664Y009448D01*
X024664Y009506D02*
X025264Y009506D01*
X025264Y009565D02*
X024664Y009565D01*
X024664Y009623D02*
X025264Y009623D01*
X025264Y009682D02*
X024664Y009682D01*
X024664Y009740D02*
X025264Y009740D01*
X025264Y009799D02*
X024664Y009799D01*
X024664Y009857D02*
X025264Y009857D01*
X025264Y009916D02*
X024664Y009916D01*
X024664Y009974D02*
X025264Y009974D01*
X025264Y010033D02*
X024664Y010033D01*
X024664Y010091D02*
X025264Y010091D01*
X025264Y010150D02*
X024664Y010150D01*
X024664Y010208D02*
X025264Y010208D01*
X025264Y010267D02*
X024664Y010267D01*
X024664Y010325D02*
X025264Y010325D01*
X025264Y010384D02*
X024664Y010384D01*
X024664Y010442D02*
X025264Y010442D01*
X025264Y010501D02*
X024664Y010501D01*
X024664Y010559D02*
X025264Y010559D01*
X025264Y010618D02*
X024664Y010618D01*
X024664Y010676D02*
X025264Y010676D01*
X025264Y010735D02*
X024664Y010735D01*
X024664Y010793D02*
X025264Y010793D01*
X025264Y010852D02*
X024664Y010852D01*
X024664Y010910D02*
X025264Y010910D01*
X025264Y010969D02*
X024664Y010969D01*
X024664Y011027D02*
X025264Y011027D01*
X025264Y011086D02*
X024664Y011086D01*
X024664Y011144D02*
X025264Y011144D01*
X025264Y011203D02*
X024664Y011203D01*
X024664Y011261D02*
X025264Y011261D01*
X025264Y011320D02*
X024664Y011320D01*
X024664Y011378D02*
X025264Y011378D01*
X025264Y011437D02*
X024657Y011437D01*
X024599Y011495D02*
X025264Y011495D01*
X025264Y011554D02*
X024540Y011554D01*
X024482Y011612D02*
X025264Y011612D01*
X025264Y011671D02*
X024423Y011671D01*
X024365Y011729D02*
X025264Y011729D01*
X025212Y011788D02*
X016306Y011788D01*
X016248Y011846D02*
X025158Y011846D01*
X025105Y011905D02*
X016189Y011905D01*
X016131Y011963D02*
X025052Y011963D01*
X024999Y012022D02*
X016072Y012022D01*
X016014Y012080D02*
X024946Y012080D01*
X024892Y012139D02*
X015955Y012139D01*
X015897Y012197D02*
X024839Y012197D01*
X024786Y012256D02*
X015864Y012256D01*
X015864Y012314D02*
X016730Y012314D01*
X016671Y012373D02*
X015864Y012373D01*
X015864Y012431D02*
X016613Y012431D01*
X016554Y012490D02*
X015864Y012490D01*
X015864Y012548D02*
X016514Y012548D01*
X016514Y012607D02*
X015864Y012607D01*
X015864Y012665D02*
X016514Y012665D01*
X016514Y012724D02*
X015864Y012724D01*
X015864Y012782D02*
X016514Y012782D01*
X016514Y012841D02*
X015864Y012841D01*
X015864Y012899D02*
X016514Y012899D01*
X016514Y012958D02*
X015864Y012958D01*
X015864Y013016D02*
X016514Y013016D01*
X016514Y013075D02*
X015864Y013075D01*
X015864Y013133D02*
X016514Y013133D01*
X016514Y013192D02*
X015864Y013192D01*
X015864Y013250D02*
X016514Y013250D01*
X016514Y013309D02*
X015864Y013309D01*
X015864Y013367D02*
X016514Y013367D01*
X016514Y013426D02*
X015864Y013426D01*
X015864Y013484D02*
X016514Y013484D01*
X016514Y013543D02*
X015864Y013543D01*
X015864Y013601D02*
X016514Y013601D01*
X016514Y013660D02*
X015864Y013660D01*
X015864Y013718D02*
X016514Y013718D01*
X016514Y013777D02*
X015864Y013777D01*
X015864Y013835D02*
X016514Y013835D01*
X016514Y013894D02*
X015864Y013894D01*
X015864Y013952D02*
X016514Y013952D01*
X016514Y014011D02*
X015864Y014011D01*
X015864Y014069D02*
X016514Y014069D01*
X016514Y014128D02*
X015864Y014128D01*
X015864Y014186D02*
X016514Y014186D01*
X016514Y014245D02*
X015864Y014245D01*
X015864Y014303D02*
X016514Y014303D01*
X016514Y014362D02*
X015864Y014362D01*
X015864Y014420D02*
X016514Y014420D01*
X016514Y014479D02*
X015864Y014479D01*
X015864Y014537D02*
X016514Y014537D01*
X016514Y014596D02*
X015864Y014596D01*
X015864Y014654D02*
X016514Y014654D01*
X016514Y014713D02*
X015864Y014713D01*
X015864Y014771D02*
X016514Y014771D01*
X016514Y014830D02*
X015864Y014830D01*
X015864Y014888D02*
X016514Y014888D01*
X016514Y014947D02*
X015864Y014947D01*
X015864Y015005D02*
X016514Y015005D01*
X016514Y015064D02*
X015864Y015064D01*
X015864Y015122D02*
X016514Y015122D01*
X016513Y015181D02*
X015864Y015181D01*
X015923Y015239D02*
X016455Y015239D01*
X016566Y015298D02*
X018424Y015298D01*
X018424Y015356D02*
X016508Y015356D01*
X016625Y015239D02*
X018424Y015239D01*
X018424Y015181D02*
X016634Y015181D01*
X016634Y015122D02*
X018424Y015122D01*
X018424Y015064D02*
X016634Y015064D01*
X016634Y015005D02*
X018424Y015005D01*
X018424Y014947D02*
X016634Y014947D01*
X016634Y014888D02*
X018424Y014888D01*
X018424Y014830D02*
X016634Y014830D01*
X016634Y014771D02*
X018424Y014771D01*
X018424Y014713D02*
X016634Y014713D01*
X016634Y014654D02*
X018424Y014654D01*
X018424Y014596D02*
X016634Y014596D01*
X016634Y014537D02*
X018375Y014537D01*
X018355Y014517D02*
X018355Y014343D01*
X018477Y014221D01*
X018650Y014221D01*
X018773Y014343D01*
X018773Y014517D01*
X018704Y014586D01*
X018704Y015860D01*
X019664Y015860D01*
X019744Y015780D01*
X019744Y014230D01*
X019814Y014160D01*
X019914Y014060D01*
X020414Y014060D01*
X020484Y014130D01*
X020584Y014230D01*
X020584Y016380D01*
X020514Y016450D01*
X020364Y016600D01*
X018864Y016600D01*
X018784Y016680D01*
X018784Y017030D01*
X018714Y017100D01*
X018614Y017200D01*
X018014Y017200D01*
X017944Y017130D01*
X017844Y017030D01*
X017844Y016680D01*
X017764Y016600D01*
X014864Y016600D01*
X014794Y016530D01*
X014344Y016080D01*
X014344Y014430D01*
X014014Y014100D01*
X008964Y014100D01*
X008834Y014230D01*
X008834Y016830D01*
X008764Y016900D01*
X008614Y017050D01*
X008164Y017050D01*
X008094Y016980D01*
X007944Y016830D01*
X007944Y014230D01*
X007814Y014100D01*
X005614Y014100D01*
X005544Y014030D01*
X004994Y013480D01*
X004994Y010930D01*
X005064Y010860D01*
X005164Y010760D01*
X005714Y010760D01*
X005784Y010830D01*
X005784Y010830D01*
X005814Y010860D01*
X005884Y010930D01*
X005884Y013130D01*
X006064Y013310D01*
X014564Y013310D01*
X014634Y013380D01*
X015184Y013930D01*
X015184Y015580D01*
X015464Y015860D01*
X018424Y015860D01*
X018424Y014586D01*
X018355Y014517D01*
X018355Y014479D02*
X016634Y014479D01*
X016634Y014420D02*
X018355Y014420D01*
X018355Y014362D02*
X016634Y014362D01*
X016634Y014303D02*
X018395Y014303D01*
X018454Y014245D02*
X016634Y014245D01*
X016634Y014186D02*
X019788Y014186D01*
X019744Y014245D02*
X018674Y014245D01*
X018733Y014303D02*
X019744Y014303D01*
X019744Y014362D02*
X018773Y014362D01*
X018773Y014420D02*
X019744Y014420D01*
X019744Y014479D02*
X018773Y014479D01*
X018752Y014537D02*
X019744Y014537D01*
X019744Y014596D02*
X018704Y014596D01*
X018704Y014654D02*
X019744Y014654D01*
X019744Y014713D02*
X018704Y014713D01*
X018704Y014771D02*
X019744Y014771D01*
X019744Y014830D02*
X018704Y014830D01*
X018704Y014888D02*
X019744Y014888D01*
X019744Y014947D02*
X018704Y014947D01*
X018704Y015005D02*
X019744Y015005D01*
X019744Y015064D02*
X018704Y015064D01*
X018704Y015122D02*
X019744Y015122D01*
X019744Y015181D02*
X018704Y015181D01*
X018704Y015239D02*
X019744Y015239D01*
X019744Y015298D02*
X018704Y015298D01*
X018704Y015356D02*
X019744Y015356D01*
X019744Y015415D02*
X018704Y015415D01*
X018704Y015473D02*
X019744Y015473D01*
X019744Y015532D02*
X018704Y015532D01*
X018704Y015590D02*
X019744Y015590D01*
X019744Y015649D02*
X018704Y015649D01*
X018704Y015707D02*
X019744Y015707D01*
X019744Y015766D02*
X018704Y015766D01*
X018704Y015824D02*
X019700Y015824D01*
X019811Y015883D02*
X020464Y015883D01*
X020464Y015941D02*
X019753Y015941D01*
X019714Y015980D02*
X015414Y015980D01*
X015064Y015630D01*
X015064Y013980D01*
X014514Y013430D01*
X006014Y013430D01*
X005764Y013180D01*
X005764Y010980D01*
X005664Y010880D01*
X005214Y010880D01*
X005114Y010980D01*
X005114Y013430D01*
X005664Y013980D01*
X007864Y013980D01*
X008064Y014180D01*
X008064Y016780D01*
X008214Y016930D01*
X008564Y016930D01*
X008714Y016780D01*
X008714Y014180D01*
X008914Y013980D01*
X014064Y013980D01*
X014464Y014380D01*
X014464Y016030D01*
X014914Y016480D01*
X017814Y016480D01*
X017964Y016630D01*
X017964Y016980D01*
X018064Y017080D01*
X018564Y017080D01*
X018664Y016980D01*
X018664Y016630D01*
X018814Y016480D01*
X020314Y016480D01*
X020464Y016330D01*
X020464Y014280D01*
X020364Y014180D01*
X019964Y014180D01*
X019864Y014280D01*
X019864Y015830D01*
X019714Y015980D01*
X019864Y015824D02*
X020464Y015824D01*
X020464Y015766D02*
X019864Y015766D01*
X019864Y015707D02*
X020464Y015707D01*
X020464Y015649D02*
X019864Y015649D01*
X019864Y015590D02*
X020464Y015590D01*
X020464Y015532D02*
X019864Y015532D01*
X019864Y015473D02*
X020464Y015473D01*
X020464Y015415D02*
X019864Y015415D01*
X019864Y015356D02*
X020464Y015356D01*
X020464Y015298D02*
X019864Y015298D01*
X019864Y015239D02*
X020464Y015239D01*
X020464Y015181D02*
X019864Y015181D01*
X019864Y015122D02*
X020464Y015122D01*
X020464Y015064D02*
X019864Y015064D01*
X019864Y015005D02*
X020464Y015005D01*
X020464Y014947D02*
X019864Y014947D01*
X019864Y014888D02*
X020464Y014888D01*
X020464Y014830D02*
X019864Y014830D01*
X019864Y014771D02*
X020464Y014771D01*
X020464Y014713D02*
X019864Y014713D01*
X019864Y014654D02*
X020464Y014654D01*
X020464Y014596D02*
X019864Y014596D01*
X019864Y014537D02*
X020464Y014537D01*
X020464Y014479D02*
X019864Y014479D01*
X019864Y014420D02*
X020464Y014420D01*
X020464Y014362D02*
X019864Y014362D01*
X019864Y014303D02*
X020464Y014303D01*
X020428Y014245D02*
X019899Y014245D01*
X019958Y014186D02*
X020370Y014186D01*
X020481Y014128D02*
X027956Y014128D01*
X027956Y014186D02*
X020540Y014186D01*
X020584Y014245D02*
X027956Y014245D01*
X027956Y014303D02*
X020584Y014303D01*
X020584Y014362D02*
X027956Y014362D01*
X027956Y014420D02*
X020584Y014420D01*
X020584Y014479D02*
X027956Y014479D01*
X027956Y014537D02*
X020584Y014537D01*
X020584Y014596D02*
X027956Y014596D01*
X027956Y014654D02*
X020584Y014654D01*
X020584Y014713D02*
X027956Y014713D01*
X027956Y014771D02*
X020584Y014771D01*
X020584Y014830D02*
X027956Y014830D01*
X027956Y014888D02*
X020584Y014888D01*
X020584Y014947D02*
X027956Y014947D01*
X027956Y015005D02*
X020584Y015005D01*
X020584Y015064D02*
X027956Y015064D01*
X027956Y015122D02*
X020584Y015122D01*
X020584Y015181D02*
X027956Y015181D01*
X027956Y015239D02*
X020584Y015239D01*
X020584Y015298D02*
X027956Y015298D01*
X027956Y015356D02*
X020584Y015356D01*
X020584Y015415D02*
X027956Y015415D01*
X027956Y015473D02*
X020584Y015473D01*
X020584Y015532D02*
X027956Y015532D01*
X027956Y015590D02*
X020584Y015590D01*
X020584Y015649D02*
X027956Y015649D01*
X027956Y015707D02*
X020584Y015707D01*
X020584Y015766D02*
X027956Y015766D01*
X027956Y015824D02*
X020584Y015824D01*
X020584Y015883D02*
X027956Y015883D01*
X027956Y015941D02*
X020584Y015941D01*
X020584Y016000D02*
X027956Y016000D01*
X027956Y016058D02*
X020584Y016058D01*
X020584Y016117D02*
X027956Y016117D01*
X027956Y016175D02*
X020584Y016175D01*
X020584Y016234D02*
X027956Y016234D01*
X027956Y016292D02*
X020584Y016292D01*
X020584Y016351D02*
X027956Y016351D01*
X027956Y016409D02*
X020555Y016409D01*
X020496Y016468D02*
X027956Y016468D01*
X027956Y016526D02*
X020438Y016526D01*
X020379Y016585D02*
X027956Y016585D01*
X027956Y016643D02*
X018821Y016643D01*
X018784Y016702D02*
X027956Y016702D01*
X027956Y016760D02*
X018784Y016760D01*
X018784Y016819D02*
X027956Y016819D01*
X027956Y016877D02*
X018784Y016877D01*
X018784Y016936D02*
X022498Y016936D01*
X022530Y016922D02*
X022206Y017056D01*
X021959Y017304D01*
X021825Y017628D01*
X021825Y017978D01*
X021959Y018302D01*
X022206Y018549D01*
X022530Y018683D01*
X022880Y018683D01*
X023204Y018549D01*
X023452Y018302D01*
X023586Y017978D01*
X023586Y017628D01*
X023452Y017304D01*
X023204Y017056D01*
X022880Y016922D01*
X022530Y016922D01*
X022357Y016994D02*
X018784Y016994D01*
X018761Y017053D02*
X022216Y017053D01*
X022152Y017111D02*
X018703Y017111D01*
X018644Y017170D02*
X022093Y017170D01*
X022035Y017228D02*
X016161Y017228D01*
X016161Y017240D02*
X016108Y017368D01*
X016011Y017466D01*
X015883Y017519D01*
X015745Y017519D01*
X015617Y017466D01*
X015519Y017368D01*
X015466Y017240D01*
X015466Y017102D01*
X015519Y016975D01*
X015617Y016877D01*
X015745Y016824D01*
X015883Y016824D01*
X016011Y016877D01*
X017844Y016877D01*
X017844Y016819D02*
X014770Y016819D01*
X014775Y016824D02*
X014883Y016824D01*
X015011Y016877D01*
X015617Y016877D01*
X015558Y016936D02*
X015070Y016936D01*
X015108Y016975D02*
X015011Y016877D01*
X015108Y016975D02*
X015161Y017102D01*
X015161Y017240D01*
X015159Y017246D01*
X015159Y017388D01*
X015331Y017560D01*
X015714Y017560D01*
X015934Y017780D01*
X015934Y017845D01*
X016011Y017877D01*
X016108Y017975D01*
X016161Y018102D01*
X016161Y018240D01*
X016108Y018368D01*
X016011Y018466D01*
X015883Y018519D01*
X015745Y018519D01*
X015617Y018466D01*
X015519Y018368D01*
X015466Y018240D01*
X015466Y018102D01*
X015519Y017975D01*
X015617Y017877D01*
X015669Y017855D01*
X015614Y017800D01*
X014614Y017800D01*
X014384Y017570D01*
X014384Y018130D01*
X014314Y018200D01*
X014314Y018200D01*
X014293Y018221D01*
X014222Y018291D01*
X014140Y018291D01*
X014108Y018368D01*
X014011Y018466D01*
X013883Y018519D01*
X013745Y018519D01*
X013617Y018466D01*
X013519Y018368D01*
X013466Y018240D01*
X013466Y018102D01*
X013469Y018096D01*
X013469Y017246D01*
X013466Y017240D01*
X013466Y017102D01*
X013469Y017096D01*
X013469Y016712D01*
X013346Y016590D01*
X011851Y016590D01*
X011384Y017057D01*
X011384Y017630D01*
X011314Y017700D01*
X010764Y018250D01*
X004864Y018250D01*
X004794Y018180D01*
X004364Y017750D01*
X004294Y017680D01*
X004294Y010692D01*
X004241Y010640D01*
X004201Y010640D01*
X004201Y010641D01*
X003844Y010641D01*
X003844Y010701D01*
X004201Y010701D01*
X004201Y010710D01*
X004186Y010784D01*
X004157Y010855D01*
X004115Y010918D01*
X004061Y010972D01*
X003997Y011015D01*
X003927Y011044D01*
X003852Y011059D01*
X003844Y011059D01*
X003844Y010701D01*
X003784Y010701D01*
X003784Y010641D01*
X003426Y010641D01*
X003426Y010640D01*
X003271Y010640D01*
X003155Y010757D01*
X003108Y010868D01*
X003011Y010966D01*
X002883Y011019D01*
X002745Y011019D01*
X002617Y010966D01*
X002519Y010868D01*
X002466Y010740D01*
X002466Y010602D01*
X002519Y010475D01*
X002617Y010377D01*
X002745Y010324D01*
X002883Y010324D01*
X002960Y010356D01*
X003144Y010171D01*
X002960Y009987D01*
X002883Y010019D01*
X002745Y010019D01*
X002617Y009966D01*
X002519Y009868D01*
X002466Y009740D01*
X002384Y009740D01*
X002384Y009682D02*
X002466Y009682D01*
X002466Y009740D02*
X002466Y009602D01*
X002519Y009475D01*
X002617Y009377D01*
X002745Y009324D01*
X002883Y009324D01*
X002886Y009325D01*
X003742Y009325D01*
X003745Y009324D01*
X003883Y009324D01*
X003886Y009325D01*
X004551Y009325D01*
X004886Y009660D01*
X007264Y009660D01*
X007464Y009460D01*
X007938Y009460D01*
X008027Y009371D01*
X008200Y009371D01*
X008323Y009493D01*
X008323Y009612D01*
X008324Y009613D01*
X008324Y010017D01*
X008141Y010200D01*
X008140Y010200D01*
X008050Y010289D01*
X007877Y010289D01*
X007788Y010200D01*
X005064Y010200D01*
X004834Y010430D01*
X004834Y017380D01*
X005164Y017710D01*
X010464Y017710D01*
X010844Y017330D01*
X010844Y016430D01*
X010914Y016360D01*
X011264Y016010D01*
X011688Y016010D01*
X011777Y015921D01*
X011950Y015921D01*
X012040Y016010D01*
X013288Y016010D01*
X013377Y015921D01*
X013550Y015921D01*
X013640Y016010D01*
X013964Y016010D01*
X014034Y016080D01*
X014534Y016580D01*
X014534Y016583D01*
X014775Y016824D01*
X014711Y016760D02*
X017844Y016760D01*
X017844Y016702D02*
X014653Y016702D01*
X014594Y016643D02*
X017807Y016643D01*
X017918Y016585D02*
X018709Y016585D01*
X018664Y016643D02*
X017964Y016643D01*
X017964Y016702D02*
X018664Y016702D01*
X018664Y016760D02*
X017964Y016760D01*
X017964Y016819D02*
X018664Y016819D01*
X018664Y016877D02*
X017964Y016877D01*
X017964Y016936D02*
X018664Y016936D01*
X018650Y016994D02*
X017978Y016994D01*
X018036Y017053D02*
X018591Y017053D01*
X018768Y016526D02*
X017860Y016526D01*
X017844Y016936D02*
X016070Y016936D01*
X016108Y016975D02*
X016161Y017102D01*
X016161Y017240D01*
X016142Y017287D02*
X021976Y017287D01*
X021942Y017345D02*
X016118Y017345D01*
X016073Y017404D02*
X021917Y017404D01*
X021893Y017462D02*
X016015Y017462D01*
X015791Y017638D02*
X021825Y017638D01*
X021825Y017696D02*
X015850Y017696D01*
X015908Y017755D02*
X021825Y017755D01*
X021825Y017813D02*
X015934Y017813D01*
X015998Y017872D02*
X021825Y017872D01*
X021825Y017930D02*
X020184Y017930D01*
X020242Y017989D02*
X021829Y017989D01*
X021853Y018047D02*
X020301Y018047D01*
X020359Y018106D02*
X021878Y018106D01*
X021902Y018164D02*
X020384Y018164D01*
X020384Y018223D02*
X021926Y018223D01*
X021950Y018281D02*
X020384Y018281D01*
X020384Y018340D02*
X021997Y018340D01*
X022055Y018398D02*
X020384Y018398D01*
X020384Y018457D02*
X022114Y018457D01*
X022172Y018515D02*
X020384Y018515D01*
X020384Y018574D02*
X022265Y018574D01*
X022406Y018632D02*
X020384Y018632D01*
X020384Y018691D02*
X024820Y018691D01*
X024812Y018689D02*
X024715Y018655D01*
X024621Y018610D01*
X024534Y018555D01*
X024453Y018490D01*
X024380Y018417D01*
X024315Y018336D01*
X024260Y018249D01*
X024216Y018156D01*
X024181Y018058D01*
X024158Y017957D01*
X024147Y017855D01*
X024147Y017833D01*
X025037Y017833D01*
X025037Y017773D01*
X024147Y017773D01*
X024147Y017751D01*
X024158Y017648D01*
X024181Y017548D01*
X024216Y017450D01*
X024260Y017357D01*
X024315Y017269D01*
X024380Y017188D01*
X024453Y017115D01*
X024534Y017051D01*
X024621Y016996D01*
X024715Y016951D01*
X024812Y016917D01*
X024913Y016894D01*
X025016Y016882D01*
X025037Y016882D01*
X025037Y017773D01*
X025097Y017773D01*
X025097Y016882D01*
X025119Y016882D01*
X025222Y016894D01*
X025323Y016917D01*
X025420Y016951D01*
X025513Y016996D01*
X025601Y017051D01*
X025682Y017115D01*
X025755Y017188D01*
X025819Y017269D01*
X025874Y017357D01*
X025919Y017450D01*
X025953Y017548D01*
X025976Y017648D01*
X025988Y017751D01*
X025988Y017773D01*
X025097Y017773D01*
X025097Y017833D01*
X025037Y017833D01*
X025037Y018723D01*
X025016Y018723D01*
X024913Y018712D01*
X024812Y018689D01*
X024668Y018632D02*
X023004Y018632D01*
X023145Y018574D02*
X024564Y018574D01*
X024484Y018515D02*
X023238Y018515D01*
X023297Y018457D02*
X024419Y018457D01*
X024365Y018398D02*
X023355Y018398D01*
X023414Y018340D02*
X024318Y018340D01*
X024281Y018281D02*
X023460Y018281D01*
X023484Y018223D02*
X024248Y018223D01*
X024220Y018164D02*
X023509Y018164D01*
X023533Y018106D02*
X024198Y018106D01*
X024179Y018047D02*
X023557Y018047D01*
X023581Y017989D02*
X024166Y017989D01*
X024155Y017930D02*
X023586Y017930D01*
X023586Y017872D02*
X024149Y017872D01*
X024147Y017755D02*
X023586Y017755D01*
X023586Y017813D02*
X025037Y017813D01*
X025037Y017755D02*
X025097Y017755D01*
X025097Y017813D02*
X027956Y017813D01*
X027956Y017755D02*
X025988Y017755D01*
X025982Y017696D02*
X027956Y017696D01*
X027956Y017638D02*
X025974Y017638D01*
X025961Y017579D02*
X027956Y017579D01*
X027956Y017521D02*
X025944Y017521D01*
X025923Y017462D02*
X027956Y017462D01*
X027956Y017404D02*
X025897Y017404D01*
X025867Y017345D02*
X027956Y017345D01*
X027956Y017287D02*
X025830Y017287D01*
X025786Y017228D02*
X027956Y017228D01*
X027956Y017170D02*
X025736Y017170D01*
X025676Y017111D02*
X027956Y017111D01*
X027956Y017053D02*
X025603Y017053D01*
X025510Y016994D02*
X027956Y016994D01*
X027956Y016936D02*
X025376Y016936D01*
X025097Y016936D02*
X025037Y016936D01*
X025037Y016994D02*
X025097Y016994D01*
X025097Y017053D02*
X025037Y017053D01*
X025037Y017111D02*
X025097Y017111D01*
X025097Y017170D02*
X025037Y017170D01*
X025037Y017228D02*
X025097Y017228D01*
X025097Y017287D02*
X025037Y017287D01*
X025037Y017345D02*
X025097Y017345D01*
X025097Y017404D02*
X025037Y017404D01*
X025037Y017462D02*
X025097Y017462D01*
X025097Y017521D02*
X025037Y017521D01*
X025037Y017579D02*
X025097Y017579D01*
X025097Y017638D02*
X025037Y017638D01*
X025037Y017696D02*
X025097Y017696D01*
X025097Y017833D02*
X025988Y017833D01*
X025988Y017855D01*
X025976Y017957D01*
X025953Y018058D01*
X025919Y018156D01*
X025874Y018249D01*
X025819Y018336D01*
X025755Y018417D01*
X025682Y018490D01*
X025601Y018555D01*
X025513Y018610D01*
X025420Y018655D01*
X025323Y018689D01*
X025222Y018712D01*
X025119Y018723D01*
X025097Y018723D01*
X025097Y017833D01*
X025097Y017872D02*
X025037Y017872D01*
X025037Y017930D02*
X025097Y017930D01*
X025097Y017989D02*
X025037Y017989D01*
X025037Y018047D02*
X025097Y018047D01*
X025097Y018106D02*
X025037Y018106D01*
X025037Y018164D02*
X025097Y018164D01*
X025097Y018223D02*
X025037Y018223D01*
X025037Y018281D02*
X025097Y018281D01*
X025097Y018340D02*
X025037Y018340D01*
X025037Y018398D02*
X025097Y018398D01*
X025097Y018457D02*
X025037Y018457D01*
X025037Y018515D02*
X025097Y018515D01*
X025097Y018574D02*
X025037Y018574D01*
X025037Y018632D02*
X025097Y018632D01*
X025097Y018691D02*
X025037Y018691D01*
X025315Y018691D02*
X027956Y018691D01*
X027956Y018749D02*
X020384Y018749D01*
X020384Y018808D02*
X027956Y018808D01*
X027956Y018866D02*
X020384Y018866D01*
X020384Y018925D02*
X027956Y018925D01*
X027956Y018983D02*
X020384Y018983D01*
X020384Y019042D02*
X027956Y019042D01*
X027956Y019100D02*
X020384Y019100D01*
X020384Y019159D02*
X027956Y019159D01*
X027956Y019217D02*
X020384Y019217D01*
X020384Y019276D02*
X027956Y019276D01*
X027956Y019334D02*
X020384Y019334D01*
X020384Y019393D02*
X027956Y019393D01*
X027956Y019451D02*
X020384Y019451D01*
X020384Y019510D02*
X027956Y019510D01*
X027956Y018632D02*
X025467Y018632D01*
X025571Y018574D02*
X027956Y018574D01*
X027956Y018515D02*
X025651Y018515D01*
X025716Y018457D02*
X027956Y018457D01*
X027956Y018398D02*
X025770Y018398D01*
X025817Y018340D02*
X027956Y018340D01*
X027956Y018281D02*
X025854Y018281D01*
X025887Y018223D02*
X027956Y018223D01*
X027956Y018164D02*
X025915Y018164D01*
X025937Y018106D02*
X027956Y018106D01*
X027956Y018047D02*
X025956Y018047D01*
X025969Y017989D02*
X027956Y017989D01*
X027956Y017930D02*
X025979Y017930D01*
X025986Y017872D02*
X027956Y017872D01*
X024759Y016936D02*
X022912Y016936D01*
X023054Y016994D02*
X024625Y016994D01*
X024532Y017053D02*
X023195Y017053D01*
X023259Y017111D02*
X024458Y017111D01*
X024399Y017170D02*
X023317Y017170D01*
X023376Y017228D02*
X024348Y017228D01*
X024305Y017287D02*
X023434Y017287D01*
X023469Y017345D02*
X024268Y017345D01*
X024238Y017404D02*
X023493Y017404D01*
X023517Y017462D02*
X024211Y017462D01*
X024191Y017521D02*
X023541Y017521D01*
X023566Y017579D02*
X024174Y017579D01*
X024161Y017638D02*
X023586Y017638D01*
X023586Y017696D02*
X024153Y017696D01*
X021869Y017521D02*
X015292Y017521D01*
X015233Y017462D02*
X015613Y017462D01*
X015555Y017404D02*
X015175Y017404D01*
X015159Y017345D02*
X015510Y017345D01*
X015485Y017287D02*
X015159Y017287D01*
X015161Y017228D02*
X015466Y017228D01*
X015466Y017170D02*
X015161Y017170D01*
X015161Y017111D02*
X015466Y017111D01*
X015487Y017053D02*
X015141Y017053D01*
X015117Y016994D02*
X015511Y016994D01*
X016011Y016877D02*
X016108Y016975D01*
X016117Y016994D02*
X017844Y016994D01*
X017867Y017053D02*
X016141Y017053D01*
X016161Y017111D02*
X017925Y017111D01*
X017984Y017170D02*
X016161Y017170D01*
X015733Y017579D02*
X021845Y017579D01*
X020248Y018164D02*
X019464Y018164D01*
X019464Y018223D02*
X020264Y018223D01*
X020264Y018281D02*
X019464Y018281D01*
X019464Y018340D02*
X020264Y018340D01*
X020264Y018398D02*
X019464Y018398D01*
X019464Y018457D02*
X020264Y018457D01*
X020264Y018515D02*
X019464Y018515D01*
X019344Y018515D02*
X015892Y018515D01*
X016020Y018457D02*
X019344Y018457D01*
X019344Y018398D02*
X016079Y018398D01*
X016120Y018340D02*
X019344Y018340D01*
X019344Y018281D02*
X016145Y018281D01*
X016161Y018223D02*
X019344Y018223D01*
X019344Y018164D02*
X016161Y018164D01*
X016161Y018106D02*
X019344Y018106D01*
X019377Y018047D02*
X016139Y018047D01*
X016114Y017989D02*
X019436Y017989D01*
X019494Y017930D02*
X016064Y017930D01*
X015814Y017830D02*
X015664Y017680D01*
X014664Y017680D01*
X014414Y017430D01*
X014414Y016630D01*
X013914Y016130D01*
X013464Y016130D01*
X011864Y016130D01*
X011314Y016130D01*
X010964Y016480D01*
X010964Y017380D01*
X010514Y017830D01*
X005114Y017830D01*
X004714Y017430D01*
X004714Y010380D01*
X005014Y010080D01*
X007964Y010080D01*
X008131Y010208D02*
X011172Y010208D01*
X011114Y010150D02*
X008192Y010150D01*
X008250Y010091D02*
X011055Y010091D01*
X010997Y010033D02*
X008309Y010033D01*
X008324Y009974D02*
X010938Y009974D01*
X010880Y009916D02*
X008324Y009916D01*
X008324Y009857D02*
X010821Y009857D01*
X010763Y009799D02*
X008324Y009799D01*
X008324Y009740D02*
X010704Y009740D01*
X010646Y009682D02*
X008324Y009682D01*
X008324Y009623D02*
X010587Y009623D01*
X010529Y009565D02*
X008323Y009565D01*
X008323Y009506D02*
X010470Y009506D01*
X010412Y009448D02*
X008277Y009448D01*
X008219Y009389D02*
X010353Y009389D01*
X010295Y009331D02*
X004557Y009331D01*
X004615Y009389D02*
X008009Y009389D01*
X007951Y009448D02*
X004674Y009448D01*
X004732Y009506D02*
X007418Y009506D01*
X007360Y009565D02*
X004791Y009565D01*
X004849Y009623D02*
X007301Y009623D01*
X007314Y009780D02*
X004914Y009780D01*
X004614Y010080D01*
X003223Y010080D01*
X002814Y009671D01*
X002490Y009799D02*
X002384Y009799D01*
X002384Y009857D02*
X002515Y009857D01*
X002567Y009916D02*
X002384Y009916D01*
X002384Y009974D02*
X002637Y009974D01*
X002384Y010033D02*
X003005Y010033D01*
X003064Y010091D02*
X002384Y010091D01*
X002384Y010150D02*
X003122Y010150D01*
X003107Y010208D02*
X002384Y010208D01*
X002384Y010267D02*
X003049Y010267D01*
X002990Y010325D02*
X002886Y010325D01*
X002742Y010325D02*
X002384Y010325D01*
X002384Y010384D02*
X002610Y010384D01*
X002552Y010442D02*
X002384Y010442D01*
X002384Y010501D02*
X002509Y010501D01*
X002484Y010559D02*
X002384Y010559D01*
X002384Y010618D02*
X002466Y010618D01*
X002466Y010676D02*
X002384Y010676D01*
X002384Y010735D02*
X002466Y010735D01*
X002488Y010793D02*
X002384Y010793D01*
X002384Y010852D02*
X002512Y010852D01*
X002561Y010910D02*
X002384Y010910D01*
X002384Y010969D02*
X002623Y010969D01*
X002384Y011027D02*
X003660Y011027D01*
X003630Y011015D02*
X003567Y010972D01*
X003513Y010918D01*
X003470Y010855D01*
X003441Y010784D01*
X003426Y010710D01*
X003426Y010701D01*
X003784Y010701D01*
X003784Y011059D01*
X003776Y011059D01*
X003701Y011044D01*
X003630Y011015D01*
X003563Y010969D02*
X003004Y010969D01*
X003067Y010910D02*
X003507Y010910D01*
X003469Y010852D02*
X003115Y010852D01*
X003140Y010793D02*
X003445Y010793D01*
X003431Y010735D02*
X003177Y010735D01*
X003235Y010676D02*
X003784Y010676D01*
X003784Y010735D02*
X003844Y010735D01*
X003844Y010793D02*
X003784Y010793D01*
X003784Y010852D02*
X003844Y010852D01*
X003844Y010910D02*
X003784Y010910D01*
X003784Y010969D02*
X003844Y010969D01*
X003844Y011027D02*
X003784Y011027D01*
X003968Y011027D02*
X004294Y011027D01*
X004294Y010969D02*
X004065Y010969D01*
X004120Y010910D02*
X004294Y010910D01*
X004294Y010852D02*
X004159Y010852D01*
X004183Y010793D02*
X004294Y010793D01*
X004294Y010735D02*
X004196Y010735D01*
X004277Y010676D02*
X003844Y010676D01*
X004214Y010230D02*
X003255Y010230D01*
X002814Y010671D01*
X002384Y011086D02*
X004294Y011086D01*
X004294Y011144D02*
X002384Y011144D01*
X002384Y011203D02*
X004294Y011203D01*
X004294Y011261D02*
X002384Y011261D01*
X002384Y011320D02*
X002651Y011320D01*
X002630Y011328D02*
X002701Y011299D01*
X002776Y011284D01*
X002784Y011284D01*
X002784Y011641D01*
X002844Y011641D01*
X002844Y011284D01*
X002852Y011284D01*
X002927Y011299D01*
X002997Y011328D01*
X003061Y011370D01*
X003115Y011424D01*
X003157Y011488D01*
X003186Y011558D01*
X003201Y011633D01*
X003201Y011641D01*
X002844Y011641D01*
X002844Y011701D01*
X003201Y011701D01*
X003201Y011710D01*
X003186Y011784D01*
X003157Y011855D01*
X003115Y011918D01*
X003061Y011972D01*
X002997Y012015D01*
X002927Y012044D01*
X002852Y012059D01*
X002844Y012059D01*
X002844Y011701D01*
X002784Y011701D01*
X002784Y011641D01*
X002426Y011641D01*
X002426Y011633D01*
X002441Y011558D01*
X002470Y011488D01*
X002513Y011424D01*
X002567Y011370D01*
X002630Y011328D01*
X002559Y011378D02*
X002384Y011378D01*
X002384Y011437D02*
X002505Y011437D01*
X002467Y011495D02*
X002384Y011495D01*
X002384Y011554D02*
X002443Y011554D01*
X002431Y011612D02*
X002384Y011612D01*
X002384Y011671D02*
X002784Y011671D01*
X002784Y011701D02*
X002426Y011701D01*
X002426Y011710D01*
X002441Y011784D01*
X002470Y011855D01*
X002513Y011918D01*
X002567Y011972D01*
X002630Y012015D01*
X002701Y012044D01*
X002776Y012059D01*
X002784Y012059D01*
X002784Y011701D01*
X002784Y011729D02*
X002844Y011729D01*
X002844Y011671D02*
X003466Y011671D01*
X003466Y011729D02*
X003197Y011729D01*
X003185Y011788D02*
X003486Y011788D01*
X003466Y011740D02*
X003466Y011602D01*
X003519Y011475D01*
X003617Y011377D01*
X003745Y011324D01*
X003883Y011324D01*
X004011Y011377D01*
X004108Y011475D01*
X004161Y011602D01*
X004161Y011740D01*
X004108Y011868D01*
X004011Y011966D01*
X003883Y012019D01*
X003745Y012019D01*
X003617Y011966D01*
X003519Y011868D01*
X003466Y011740D01*
X003510Y011846D02*
X003161Y011846D01*
X003124Y011905D02*
X003556Y011905D01*
X003614Y011963D02*
X003070Y011963D01*
X002981Y012022D02*
X004294Y012022D01*
X004294Y012080D02*
X002384Y012080D01*
X002384Y012022D02*
X002647Y012022D01*
X002558Y011963D02*
X002384Y011963D01*
X002384Y011905D02*
X002504Y011905D01*
X002467Y011846D02*
X002384Y011846D01*
X002384Y011788D02*
X002443Y011788D01*
X002430Y011729D02*
X002384Y011729D01*
X002784Y011788D02*
X002844Y011788D01*
X002844Y011846D02*
X002784Y011846D01*
X002784Y011905D02*
X002844Y011905D01*
X002844Y011963D02*
X002784Y011963D01*
X002784Y012022D02*
X002844Y012022D01*
X002844Y012284D02*
X002852Y012284D01*
X002927Y012299D01*
X002997Y012328D01*
X003061Y012370D01*
X003115Y012424D01*
X003157Y012488D01*
X003186Y012558D01*
X003201Y012633D01*
X003201Y012641D01*
X002844Y012641D01*
X002844Y012284D01*
X002844Y012314D02*
X002784Y012314D01*
X002784Y012284D02*
X002784Y012641D01*
X002844Y012641D01*
X002844Y012701D01*
X003201Y012701D01*
X003201Y012710D01*
X003186Y012784D01*
X003157Y012855D01*
X003115Y012918D01*
X003061Y012972D01*
X002997Y013015D01*
X002927Y013044D01*
X002852Y013059D01*
X002844Y013059D01*
X002844Y012701D01*
X002784Y012701D01*
X002784Y012641D01*
X002426Y012641D01*
X002426Y012633D01*
X002441Y012558D01*
X002470Y012488D01*
X002513Y012424D01*
X002567Y012370D01*
X002630Y012328D01*
X002701Y012299D01*
X002776Y012284D01*
X002784Y012284D01*
X002784Y012373D02*
X002844Y012373D01*
X002844Y012431D02*
X002784Y012431D01*
X002784Y012490D02*
X002844Y012490D01*
X002844Y012548D02*
X002784Y012548D01*
X002784Y012607D02*
X002844Y012607D01*
X002844Y012665D02*
X003466Y012665D01*
X003466Y012607D02*
X003196Y012607D01*
X003182Y012548D02*
X003489Y012548D01*
X003466Y012602D02*
X003519Y012475D01*
X003617Y012377D01*
X003745Y012324D01*
X003883Y012324D01*
X004011Y012377D01*
X004108Y012475D01*
X004161Y012602D01*
X004161Y012740D01*
X004108Y012868D01*
X004011Y012966D01*
X003883Y013019D01*
X003745Y013019D01*
X003617Y012966D01*
X003519Y012868D01*
X003466Y012740D01*
X003466Y012602D01*
X003466Y012724D02*
X003199Y012724D01*
X003187Y012782D02*
X003484Y012782D01*
X003508Y012841D02*
X003163Y012841D01*
X003128Y012899D02*
X003550Y012899D01*
X003609Y012958D02*
X003076Y012958D01*
X002994Y013016D02*
X003738Y013016D01*
X003890Y013016D02*
X004294Y013016D01*
X004294Y012958D02*
X004019Y012958D01*
X004078Y012899D02*
X004294Y012899D01*
X004294Y012841D02*
X004120Y012841D01*
X004144Y012782D02*
X004294Y012782D01*
X004294Y012724D02*
X004161Y012724D01*
X004161Y012665D02*
X004294Y012665D01*
X004294Y012607D02*
X004161Y012607D01*
X004139Y012548D02*
X004294Y012548D01*
X004294Y012490D02*
X004115Y012490D01*
X004065Y012431D02*
X004294Y012431D01*
X004294Y012373D02*
X004001Y012373D01*
X004294Y012314D02*
X002964Y012314D01*
X003063Y012373D02*
X003627Y012373D01*
X003563Y012431D02*
X003119Y012431D01*
X003158Y012490D02*
X003513Y012490D01*
X002844Y012724D02*
X002784Y012724D01*
X002784Y012701D02*
X002784Y013059D01*
X002776Y013059D01*
X002701Y013044D01*
X002630Y013015D01*
X002567Y012972D01*
X002513Y012918D01*
X002470Y012855D01*
X002441Y012784D01*
X002426Y012710D01*
X002426Y012701D01*
X002784Y012701D01*
X002784Y012665D02*
X002384Y012665D01*
X002384Y012607D02*
X002432Y012607D01*
X002446Y012548D02*
X002384Y012548D01*
X002384Y012490D02*
X002470Y012490D01*
X002508Y012431D02*
X002384Y012431D01*
X002384Y012373D02*
X002565Y012373D01*
X002664Y012314D02*
X002384Y012314D01*
X002384Y012256D02*
X004294Y012256D01*
X004294Y012197D02*
X002384Y012197D01*
X002384Y012139D02*
X004294Y012139D01*
X004294Y011963D02*
X004014Y011963D01*
X004072Y011905D02*
X004294Y011905D01*
X004294Y011846D02*
X004118Y011846D01*
X004142Y011788D02*
X004294Y011788D01*
X004294Y011729D02*
X004161Y011729D01*
X004161Y011671D02*
X004294Y011671D01*
X004294Y011612D02*
X004161Y011612D01*
X004141Y011554D02*
X004294Y011554D01*
X004294Y011495D02*
X004117Y011495D01*
X004070Y011437D02*
X004294Y011437D01*
X004294Y011378D02*
X004012Y011378D01*
X004294Y011320D02*
X002977Y011320D01*
X003069Y011378D02*
X003616Y011378D01*
X003557Y011437D02*
X003123Y011437D01*
X003160Y011495D02*
X003511Y011495D01*
X003487Y011554D02*
X003184Y011554D01*
X003197Y011612D02*
X003466Y011612D01*
X002844Y011612D02*
X002784Y011612D01*
X002784Y011554D02*
X002844Y011554D01*
X002844Y011495D02*
X002784Y011495D01*
X002784Y011437D02*
X002844Y011437D01*
X002844Y011378D02*
X002784Y011378D01*
X002784Y011320D02*
X002844Y011320D01*
X004214Y010230D02*
X004414Y010430D01*
X004414Y017630D01*
X004914Y018130D01*
X010714Y018130D01*
X011264Y017580D01*
X011264Y016880D01*
X011464Y016680D01*
X011623Y016819D02*
X013469Y016819D01*
X013469Y016877D02*
X013011Y016877D01*
X013108Y016975D01*
X013161Y017102D01*
X013161Y017240D01*
X013108Y017368D01*
X013011Y017466D01*
X012883Y017519D01*
X012745Y017519D01*
X012617Y017466D01*
X012519Y017368D01*
X012466Y017240D01*
X012466Y017102D01*
X012519Y016975D01*
X012617Y016877D01*
X012745Y016824D01*
X012883Y016824D01*
X013011Y016877D01*
X013070Y016936D02*
X013469Y016936D01*
X013469Y016994D02*
X013117Y016994D01*
X013141Y017053D02*
X013469Y017053D01*
X013466Y017111D02*
X013161Y017111D01*
X013161Y017170D02*
X013466Y017170D01*
X013466Y017228D02*
X013161Y017228D01*
X013142Y017287D02*
X013469Y017287D01*
X013469Y017345D02*
X013118Y017345D01*
X013073Y017404D02*
X013469Y017404D01*
X013469Y017462D02*
X013015Y017462D01*
X012613Y017462D02*
X012015Y017462D01*
X012011Y017466D02*
X011883Y017519D01*
X011745Y017519D01*
X011617Y017466D01*
X011519Y017368D01*
X011466Y017240D01*
X011466Y017102D01*
X011519Y016975D01*
X011617Y016877D01*
X011745Y016824D01*
X011883Y016824D01*
X012011Y016877D01*
X012617Y016877D01*
X012558Y016936D02*
X012070Y016936D01*
X012108Y016975D02*
X012161Y017102D01*
X012161Y017240D01*
X012108Y017368D01*
X012011Y017466D01*
X012073Y017404D02*
X012555Y017404D01*
X012510Y017345D02*
X012118Y017345D01*
X012142Y017287D02*
X012485Y017287D01*
X012466Y017228D02*
X012161Y017228D01*
X012161Y017170D02*
X012466Y017170D01*
X012466Y017111D02*
X012161Y017111D01*
X012141Y017053D02*
X012487Y017053D01*
X012511Y016994D02*
X012117Y016994D01*
X012108Y016975D02*
X012011Y016877D01*
X011798Y016643D02*
X013400Y016643D01*
X013458Y016702D02*
X011740Y016702D01*
X011681Y016760D02*
X013469Y016760D01*
X013814Y016380D02*
X014264Y016830D01*
X014264Y018080D01*
X014173Y018171D01*
X013814Y018171D01*
X013466Y018164D02*
X013161Y018164D01*
X013161Y018106D02*
X013466Y018106D01*
X013469Y018047D02*
X013139Y018047D01*
X013161Y018102D02*
X013108Y017975D01*
X013011Y017877D01*
X012883Y017824D01*
X012745Y017824D01*
X012617Y017877D01*
X012519Y017975D01*
X012466Y018102D01*
X012466Y018240D01*
X012519Y018368D01*
X012617Y018466D01*
X012745Y018519D01*
X012883Y018519D01*
X013011Y018466D01*
X013108Y018368D01*
X013161Y018240D01*
X013161Y018102D01*
X013161Y018223D02*
X013466Y018223D01*
X013483Y018281D02*
X013145Y018281D01*
X013120Y018340D02*
X013507Y018340D01*
X013549Y018398D02*
X013079Y018398D01*
X013020Y018457D02*
X013608Y018457D01*
X013736Y018515D02*
X012892Y018515D01*
X012736Y018515D02*
X011892Y018515D01*
X011883Y018519D02*
X011745Y018519D01*
X011617Y018466D01*
X011519Y018368D01*
X011466Y018240D01*
X011466Y018102D01*
X011519Y017975D01*
X011617Y017877D01*
X011745Y017824D01*
X011883Y017824D01*
X012011Y017877D01*
X012108Y017975D01*
X012161Y018102D01*
X012161Y018240D01*
X012108Y018368D01*
X012011Y018466D01*
X011883Y018519D01*
X011736Y018515D02*
X002419Y018515D01*
X002384Y018457D02*
X011608Y018457D01*
X011549Y018398D02*
X002384Y018398D01*
X002384Y018340D02*
X011507Y018340D01*
X011483Y018281D02*
X002384Y018281D01*
X002384Y018223D02*
X004837Y018223D01*
X004778Y018164D02*
X002384Y018164D01*
X002384Y018106D02*
X004720Y018106D01*
X004661Y018047D02*
X002384Y018047D01*
X002384Y017989D02*
X004603Y017989D01*
X004544Y017930D02*
X002384Y017930D01*
X002384Y017872D02*
X004486Y017872D01*
X004427Y017813D02*
X002384Y017813D01*
X002384Y017755D02*
X004369Y017755D01*
X004310Y017696D02*
X002384Y017696D01*
X002384Y017638D02*
X004294Y017638D01*
X004294Y017579D02*
X002384Y017579D01*
X002384Y017521D02*
X004294Y017521D01*
X004294Y017462D02*
X002384Y017462D01*
X002384Y017404D02*
X004294Y017404D01*
X004294Y017345D02*
X002384Y017345D01*
X002384Y017287D02*
X004294Y017287D01*
X004294Y017228D02*
X002384Y017228D01*
X002384Y017170D02*
X004294Y017170D01*
X004294Y017111D02*
X002384Y017111D01*
X002384Y017053D02*
X004294Y017053D01*
X004294Y016994D02*
X002384Y016994D01*
X002384Y016936D02*
X004294Y016936D01*
X004294Y016877D02*
X002384Y016877D01*
X002384Y016819D02*
X004294Y016819D01*
X004294Y016760D02*
X002384Y016760D01*
X002384Y016702D02*
X004294Y016702D01*
X004294Y016643D02*
X002384Y016643D01*
X002384Y016585D02*
X004294Y016585D01*
X004294Y016526D02*
X002384Y016526D01*
X002384Y016468D02*
X004294Y016468D01*
X004294Y016409D02*
X002384Y016409D01*
X002384Y016351D02*
X004294Y016351D01*
X004294Y016292D02*
X002384Y016292D01*
X002384Y016234D02*
X004294Y016234D01*
X004294Y016175D02*
X002384Y016175D01*
X002384Y016117D02*
X004294Y016117D01*
X004294Y016058D02*
X002384Y016058D01*
X002384Y016000D02*
X004294Y016000D01*
X004294Y015941D02*
X002384Y015941D01*
X002384Y015883D02*
X004294Y015883D01*
X004294Y015824D02*
X002384Y015824D01*
X002384Y015766D02*
X004294Y015766D01*
X004294Y015707D02*
X002384Y015707D01*
X002384Y015649D02*
X004294Y015649D01*
X004294Y015590D02*
X002384Y015590D01*
X002384Y015532D02*
X004294Y015532D01*
X004294Y015473D02*
X002384Y015473D01*
X002384Y015415D02*
X004294Y015415D01*
X004294Y015356D02*
X002384Y015356D01*
X002384Y015298D02*
X004294Y015298D01*
X004294Y015239D02*
X002384Y015239D01*
X002384Y015181D02*
X004294Y015181D01*
X004294Y015122D02*
X002384Y015122D01*
X002384Y015064D02*
X004294Y015064D01*
X004294Y015005D02*
X002384Y015005D01*
X002384Y014947D02*
X004294Y014947D01*
X004294Y014888D02*
X002384Y014888D01*
X002384Y014830D02*
X004294Y014830D01*
X004294Y014771D02*
X002384Y014771D01*
X002384Y014713D02*
X004294Y014713D01*
X004294Y014654D02*
X002384Y014654D01*
X002384Y014596D02*
X004294Y014596D01*
X004294Y014537D02*
X002384Y014537D01*
X002384Y014479D02*
X004294Y014479D01*
X004294Y014420D02*
X002384Y014420D01*
X002384Y014362D02*
X004294Y014362D01*
X004294Y014303D02*
X002384Y014303D01*
X002384Y014245D02*
X004294Y014245D01*
X004294Y014186D02*
X002384Y014186D01*
X002384Y014128D02*
X004294Y014128D01*
X004294Y014069D02*
X002384Y014069D01*
X002384Y014011D02*
X004294Y014011D01*
X004294Y013952D02*
X002384Y013952D01*
X002384Y013894D02*
X004294Y013894D01*
X004294Y013835D02*
X002384Y013835D01*
X002384Y013777D02*
X004294Y013777D01*
X004294Y013718D02*
X002384Y013718D01*
X002384Y013660D02*
X004294Y013660D01*
X004294Y013601D02*
X002384Y013601D01*
X002384Y013543D02*
X004294Y013543D01*
X004294Y013484D02*
X002384Y013484D01*
X002384Y013426D02*
X004294Y013426D01*
X004294Y013367D02*
X002384Y013367D01*
X002384Y013309D02*
X004294Y013309D01*
X004294Y013250D02*
X002384Y013250D01*
X002384Y013192D02*
X004294Y013192D01*
X004294Y013133D02*
X002384Y013133D01*
X002384Y013075D02*
X004294Y013075D01*
X004834Y013075D02*
X004994Y013075D01*
X004994Y013133D02*
X004834Y013133D01*
X004834Y013192D02*
X004994Y013192D01*
X004994Y013250D02*
X004834Y013250D01*
X004834Y013309D02*
X004994Y013309D01*
X004994Y013367D02*
X004834Y013367D01*
X004834Y013426D02*
X004994Y013426D01*
X004998Y013484D02*
X004834Y013484D01*
X004834Y013543D02*
X005057Y013543D01*
X005115Y013601D02*
X004834Y013601D01*
X004834Y013660D02*
X005174Y013660D01*
X005232Y013718D02*
X004834Y013718D01*
X004834Y013777D02*
X005291Y013777D01*
X005349Y013835D02*
X004834Y013835D01*
X004834Y013894D02*
X005408Y013894D01*
X005466Y013952D02*
X004834Y013952D01*
X004834Y014011D02*
X005525Y014011D01*
X005583Y014069D02*
X004834Y014069D01*
X004834Y014128D02*
X007842Y014128D01*
X007900Y014186D02*
X004834Y014186D01*
X004834Y014245D02*
X007944Y014245D01*
X007944Y014303D02*
X004834Y014303D01*
X004834Y014362D02*
X007944Y014362D01*
X007944Y014420D02*
X004834Y014420D01*
X004834Y014479D02*
X007944Y014479D01*
X007944Y014537D02*
X004834Y014537D01*
X004834Y014596D02*
X007944Y014596D01*
X007944Y014654D02*
X004834Y014654D01*
X004834Y014713D02*
X007944Y014713D01*
X007944Y014771D02*
X004834Y014771D01*
X004834Y014830D02*
X007944Y014830D01*
X007944Y014888D02*
X004834Y014888D01*
X004834Y014947D02*
X007944Y014947D01*
X007944Y015005D02*
X004834Y015005D01*
X004834Y015064D02*
X007944Y015064D01*
X007944Y015122D02*
X004834Y015122D01*
X004834Y015181D02*
X007944Y015181D01*
X007944Y015239D02*
X004834Y015239D01*
X004834Y015298D02*
X007944Y015298D01*
X007944Y015356D02*
X004834Y015356D01*
X004834Y015415D02*
X007944Y015415D01*
X007944Y015473D02*
X004834Y015473D01*
X004834Y015532D02*
X007944Y015532D01*
X007944Y015590D02*
X004834Y015590D01*
X004834Y015649D02*
X007944Y015649D01*
X007944Y015707D02*
X004834Y015707D01*
X004834Y015766D02*
X007944Y015766D01*
X007944Y015824D02*
X004834Y015824D01*
X004834Y015883D02*
X007944Y015883D01*
X007944Y015941D02*
X004834Y015941D01*
X004834Y016000D02*
X007944Y016000D01*
X007944Y016058D02*
X004834Y016058D01*
X004834Y016117D02*
X007944Y016117D01*
X007944Y016175D02*
X004834Y016175D01*
X004834Y016234D02*
X007944Y016234D01*
X007944Y016292D02*
X004834Y016292D01*
X004834Y016351D02*
X007944Y016351D01*
X007944Y016409D02*
X004834Y016409D01*
X004834Y016468D02*
X007944Y016468D01*
X007944Y016526D02*
X004834Y016526D01*
X004834Y016585D02*
X007944Y016585D01*
X007944Y016643D02*
X004834Y016643D01*
X004834Y016702D02*
X007944Y016702D01*
X007944Y016760D02*
X004834Y016760D01*
X004834Y016819D02*
X007944Y016819D01*
X007991Y016877D02*
X004834Y016877D01*
X004834Y016936D02*
X008050Y016936D01*
X008108Y016994D02*
X004834Y016994D01*
X004834Y017053D02*
X010844Y017053D01*
X010844Y017111D02*
X004834Y017111D01*
X004834Y017170D02*
X010844Y017170D01*
X010844Y017228D02*
X004834Y017228D01*
X004834Y017287D02*
X010844Y017287D01*
X010829Y017345D02*
X004834Y017345D01*
X004857Y017404D02*
X010771Y017404D01*
X010712Y017462D02*
X004916Y017462D01*
X004974Y017521D02*
X010654Y017521D01*
X010595Y017579D02*
X005033Y017579D01*
X005091Y017638D02*
X010537Y017638D01*
X010478Y017696D02*
X005150Y017696D01*
X005014Y017980D02*
X004564Y017530D01*
X004564Y010330D01*
X004964Y009930D01*
X007514Y009930D01*
X007614Y009830D01*
X007514Y009580D02*
X007314Y009780D01*
X007514Y009580D02*
X008114Y009580D01*
X008073Y010267D02*
X011231Y010267D01*
X011289Y010325D02*
X004939Y010325D01*
X004997Y010267D02*
X007855Y010267D01*
X007796Y010208D02*
X005056Y010208D01*
X004880Y010384D02*
X011348Y010384D01*
X011344Y010380D02*
X007864Y006900D01*
X007314Y006900D01*
X007244Y006830D01*
X007244Y005980D01*
X007314Y005910D01*
X008164Y005910D01*
X008234Y005980D01*
X011814Y009560D01*
X022714Y009560D01*
X022784Y009630D01*
X022784Y009630D01*
X022864Y009710D01*
X022934Y009780D01*
X022934Y010230D01*
X022864Y010300D01*
X022714Y010450D01*
X022614Y010450D01*
X011414Y010450D01*
X011344Y010380D01*
X011406Y010442D02*
X004834Y010442D01*
X004834Y010501D02*
X024544Y010501D01*
X024544Y010559D02*
X004834Y010559D01*
X004834Y010618D02*
X024544Y010618D01*
X024544Y010676D02*
X004834Y010676D01*
X004834Y010735D02*
X024544Y010735D01*
X024544Y010793D02*
X005747Y010793D01*
X005805Y010852D02*
X024544Y010852D01*
X024544Y010910D02*
X005864Y010910D01*
X005884Y010969D02*
X024544Y010969D01*
X024544Y011027D02*
X005884Y011027D01*
X005884Y011086D02*
X024544Y011086D01*
X024544Y011144D02*
X018674Y011144D01*
X018650Y011121D02*
X018773Y011243D01*
X018773Y011417D01*
X018650Y011539D01*
X018477Y011539D01*
X018408Y011470D01*
X014822Y011470D01*
X014123Y012169D01*
X014123Y012267D01*
X014000Y012389D01*
X013827Y012389D01*
X013705Y012267D01*
X013705Y012093D01*
X013827Y011971D01*
X013925Y011971D01*
X014706Y011190D01*
X018408Y011190D01*
X018477Y011121D01*
X018650Y011121D01*
X018732Y011203D02*
X024544Y011203D01*
X024544Y011261D02*
X018773Y011261D01*
X018773Y011320D02*
X024544Y011320D01*
X024544Y011378D02*
X018773Y011378D01*
X018753Y011437D02*
X024488Y011437D01*
X024429Y011495D02*
X018694Y011495D01*
X018433Y011495D02*
X014797Y011495D01*
X014738Y011554D02*
X024371Y011554D01*
X024312Y011612D02*
X014680Y011612D01*
X014621Y011671D02*
X016254Y011671D01*
X016195Y011729D02*
X014563Y011729D01*
X014504Y011788D02*
X016137Y011788D01*
X016078Y011846D02*
X014446Y011846D01*
X014387Y011905D02*
X016020Y011905D01*
X015961Y011963D02*
X014329Y011963D01*
X014270Y012022D02*
X015903Y012022D01*
X015844Y012080D02*
X014212Y012080D01*
X014153Y012139D02*
X015786Y012139D01*
X015744Y012197D02*
X014123Y012197D01*
X014123Y012256D02*
X015744Y012256D01*
X015744Y012314D02*
X014075Y012314D01*
X014017Y012373D02*
X015744Y012373D01*
X015744Y012431D02*
X005884Y012431D01*
X005884Y012373D02*
X013811Y012373D01*
X013752Y012314D02*
X005884Y012314D01*
X005884Y012256D02*
X013705Y012256D01*
X013705Y012197D02*
X005884Y012197D01*
X005884Y012139D02*
X013705Y012139D01*
X013718Y012080D02*
X005884Y012080D01*
X005884Y012022D02*
X013777Y012022D01*
X013933Y011963D02*
X005884Y011963D01*
X005884Y011905D02*
X013991Y011905D01*
X014050Y011846D02*
X005884Y011846D01*
X005884Y011788D02*
X014108Y011788D01*
X014167Y011729D02*
X005884Y011729D01*
X005884Y011671D02*
X014225Y011671D01*
X014284Y011612D02*
X005884Y011612D01*
X005884Y011554D02*
X014342Y011554D01*
X014401Y011495D02*
X005884Y011495D01*
X005884Y011437D02*
X014459Y011437D01*
X014518Y011378D02*
X005884Y011378D01*
X005884Y011320D02*
X014576Y011320D01*
X014635Y011261D02*
X005884Y011261D01*
X005884Y011203D02*
X014693Y011203D01*
X015744Y012490D02*
X005884Y012490D01*
X005884Y012548D02*
X015744Y012548D01*
X015744Y012607D02*
X005884Y012607D01*
X005884Y012665D02*
X015744Y012665D01*
X015475Y012724D02*
X013653Y012724D01*
X013375Y012724D02*
X005884Y012724D01*
X005884Y012782D02*
X013316Y012782D01*
X013305Y012841D02*
X005884Y012841D01*
X005884Y012899D02*
X013305Y012899D01*
X013305Y012958D02*
X005884Y012958D01*
X005884Y013016D02*
X013354Y013016D01*
X013413Y013075D02*
X005884Y013075D01*
X005887Y013133D02*
X015744Y013133D01*
X015744Y013075D02*
X015715Y013075D01*
X015744Y013192D02*
X005945Y013192D01*
X006004Y013250D02*
X015744Y013250D01*
X015744Y013309D02*
X006062Y013309D01*
X005951Y013367D02*
X005114Y013367D01*
X005114Y013309D02*
X005892Y013309D01*
X005834Y013250D02*
X005114Y013250D01*
X005114Y013192D02*
X005775Y013192D01*
X005764Y013133D02*
X005114Y013133D01*
X005114Y013075D02*
X005764Y013075D01*
X005764Y013016D02*
X005114Y013016D01*
X005114Y012958D02*
X005764Y012958D01*
X005764Y012899D02*
X005114Y012899D01*
X005114Y012841D02*
X005764Y012841D01*
X005764Y012782D02*
X005114Y012782D01*
X005114Y012724D02*
X005764Y012724D01*
X005764Y012665D02*
X005114Y012665D01*
X005114Y012607D02*
X005764Y012607D01*
X005764Y012548D02*
X005114Y012548D01*
X005114Y012490D02*
X005764Y012490D01*
X005764Y012431D02*
X005114Y012431D01*
X005114Y012373D02*
X005764Y012373D01*
X005764Y012314D02*
X005114Y012314D01*
X005114Y012256D02*
X005764Y012256D01*
X005764Y012197D02*
X005114Y012197D01*
X005114Y012139D02*
X005764Y012139D01*
X005764Y012080D02*
X005114Y012080D01*
X005114Y012022D02*
X005764Y012022D01*
X005764Y011963D02*
X005114Y011963D01*
X005114Y011905D02*
X005764Y011905D01*
X005764Y011846D02*
X005114Y011846D01*
X005114Y011788D02*
X005764Y011788D01*
X005764Y011729D02*
X005114Y011729D01*
X005114Y011671D02*
X005764Y011671D01*
X005764Y011612D02*
X005114Y011612D01*
X005114Y011554D02*
X005764Y011554D01*
X005764Y011495D02*
X005114Y011495D01*
X005114Y011437D02*
X005764Y011437D01*
X005764Y011378D02*
X005114Y011378D01*
X005114Y011320D02*
X005764Y011320D01*
X005764Y011261D02*
X005114Y011261D01*
X005114Y011203D02*
X005764Y011203D01*
X005764Y011144D02*
X005114Y011144D01*
X005114Y011086D02*
X005764Y011086D01*
X005764Y011027D02*
X005114Y011027D01*
X005125Y010969D02*
X005752Y010969D01*
X005694Y010910D02*
X005184Y010910D01*
X005073Y010852D02*
X004834Y010852D01*
X004834Y010910D02*
X005014Y010910D01*
X004994Y010969D02*
X004834Y010969D01*
X004834Y011027D02*
X004994Y011027D01*
X004994Y011086D02*
X004834Y011086D01*
X004834Y011144D02*
X004994Y011144D01*
X004994Y011203D02*
X004834Y011203D01*
X004834Y011261D02*
X004994Y011261D01*
X004994Y011320D02*
X004834Y011320D01*
X004834Y011378D02*
X004994Y011378D01*
X004994Y011437D02*
X004834Y011437D01*
X004834Y011495D02*
X004994Y011495D01*
X004994Y011554D02*
X004834Y011554D01*
X004834Y011612D02*
X004994Y011612D01*
X004994Y011671D02*
X004834Y011671D01*
X004834Y011729D02*
X004994Y011729D01*
X004994Y011788D02*
X004834Y011788D01*
X004834Y011846D02*
X004994Y011846D01*
X004994Y011905D02*
X004834Y011905D01*
X004834Y011963D02*
X004994Y011963D01*
X004994Y012022D02*
X004834Y012022D01*
X004834Y012080D02*
X004994Y012080D01*
X004994Y012139D02*
X004834Y012139D01*
X004834Y012197D02*
X004994Y012197D01*
X004994Y012256D02*
X004834Y012256D01*
X004834Y012314D02*
X004994Y012314D01*
X004994Y012373D02*
X004834Y012373D01*
X004834Y012431D02*
X004994Y012431D01*
X004994Y012490D02*
X004834Y012490D01*
X004834Y012548D02*
X004994Y012548D01*
X004994Y012607D02*
X004834Y012607D01*
X004834Y012665D02*
X004994Y012665D01*
X004994Y012724D02*
X004834Y012724D01*
X004834Y012782D02*
X004994Y012782D01*
X004994Y012841D02*
X004834Y012841D01*
X004834Y012899D02*
X004994Y012899D01*
X004994Y012958D02*
X004834Y012958D01*
X004834Y013016D02*
X004994Y013016D01*
X005114Y013426D02*
X006009Y013426D01*
X005519Y013835D02*
X014919Y013835D01*
X014977Y013894D02*
X005577Y013894D01*
X005636Y013952D02*
X015036Y013952D01*
X015064Y014011D02*
X014094Y014011D01*
X014153Y014069D02*
X015064Y014069D01*
X015064Y014128D02*
X014211Y014128D01*
X014270Y014186D02*
X015064Y014186D01*
X015064Y014245D02*
X014328Y014245D01*
X014387Y014303D02*
X015064Y014303D01*
X015064Y014362D02*
X014445Y014362D01*
X014464Y014420D02*
X015064Y014420D01*
X015064Y014479D02*
X014464Y014479D01*
X014464Y014537D02*
X015064Y014537D01*
X015064Y014596D02*
X014464Y014596D01*
X014464Y014654D02*
X015064Y014654D01*
X015064Y014713D02*
X014464Y014713D01*
X014464Y014771D02*
X015064Y014771D01*
X015064Y014830D02*
X014464Y014830D01*
X014464Y014888D02*
X015064Y014888D01*
X015064Y014947D02*
X014464Y014947D01*
X014464Y015005D02*
X015064Y015005D01*
X015064Y015064D02*
X014464Y015064D01*
X014464Y015122D02*
X015064Y015122D01*
X015064Y015181D02*
X014464Y015181D01*
X014464Y015239D02*
X015064Y015239D01*
X015064Y015298D02*
X014464Y015298D01*
X014464Y015356D02*
X015064Y015356D01*
X015064Y015415D02*
X014464Y015415D01*
X014464Y015473D02*
X015064Y015473D01*
X015064Y015532D02*
X014464Y015532D01*
X014464Y015590D02*
X015064Y015590D01*
X015082Y015649D02*
X014464Y015649D01*
X014464Y015707D02*
X015141Y015707D01*
X015199Y015766D02*
X014464Y015766D01*
X014464Y015824D02*
X015258Y015824D01*
X015316Y015883D02*
X014464Y015883D01*
X014464Y015941D02*
X015375Y015941D01*
X015428Y015824D02*
X018424Y015824D01*
X018424Y015766D02*
X015369Y015766D01*
X015311Y015707D02*
X018424Y015707D01*
X018424Y015649D02*
X015252Y015649D01*
X015194Y015590D02*
X018424Y015590D01*
X018424Y015532D02*
X015184Y015532D01*
X015184Y015473D02*
X018424Y015473D01*
X018424Y015415D02*
X015184Y015415D01*
X015184Y015356D02*
X015870Y015356D01*
X015812Y015298D02*
X015184Y015298D01*
X015184Y015239D02*
X015753Y015239D01*
X015744Y015181D02*
X015184Y015181D01*
X015184Y015122D02*
X015744Y015122D01*
X015744Y015064D02*
X015184Y015064D01*
X015184Y015005D02*
X015744Y015005D01*
X015744Y014947D02*
X015184Y014947D01*
X015184Y014888D02*
X015744Y014888D01*
X015744Y014830D02*
X015184Y014830D01*
X015184Y014771D02*
X015744Y014771D01*
X015744Y014713D02*
X015184Y014713D01*
X015184Y014654D02*
X015744Y014654D01*
X015744Y014596D02*
X015184Y014596D01*
X015184Y014537D02*
X015744Y014537D01*
X015744Y014479D02*
X015184Y014479D01*
X015184Y014420D02*
X015744Y014420D01*
X015744Y014362D02*
X015184Y014362D01*
X015184Y014303D02*
X015744Y014303D01*
X015744Y014245D02*
X015184Y014245D01*
X015184Y014186D02*
X015744Y014186D01*
X015744Y014128D02*
X015184Y014128D01*
X015184Y014069D02*
X015744Y014069D01*
X015744Y014011D02*
X015184Y014011D01*
X015184Y013952D02*
X015744Y013952D01*
X015744Y013894D02*
X015147Y013894D01*
X015089Y013835D02*
X015744Y013835D01*
X015744Y013777D02*
X015030Y013777D01*
X014972Y013718D02*
X015744Y013718D01*
X015744Y013660D02*
X014913Y013660D01*
X014855Y013601D02*
X015744Y013601D01*
X015744Y013543D02*
X014796Y013543D01*
X014738Y013484D02*
X015744Y013484D01*
X015744Y013426D02*
X014679Y013426D01*
X014621Y013367D02*
X015744Y013367D01*
X015513Y013075D02*
X013615Y013075D01*
X014568Y013484D02*
X005168Y013484D01*
X005226Y013543D02*
X014626Y013543D01*
X014685Y013601D02*
X005285Y013601D01*
X005343Y013660D02*
X014743Y013660D01*
X014802Y013718D02*
X005402Y013718D01*
X005460Y013777D02*
X014860Y013777D01*
X014276Y014362D02*
X008834Y014362D01*
X008834Y014420D02*
X014334Y014420D01*
X014344Y014479D02*
X008834Y014479D01*
X008834Y014537D02*
X014344Y014537D01*
X014344Y014596D02*
X008834Y014596D01*
X008834Y014654D02*
X014344Y014654D01*
X014344Y014713D02*
X008834Y014713D01*
X008834Y014771D02*
X014344Y014771D01*
X014344Y014830D02*
X008834Y014830D01*
X008834Y014888D02*
X014344Y014888D01*
X014344Y014947D02*
X008834Y014947D01*
X008834Y015005D02*
X014344Y015005D01*
X014344Y015064D02*
X008834Y015064D01*
X008834Y015122D02*
X014344Y015122D01*
X014344Y015181D02*
X008834Y015181D01*
X008834Y015239D02*
X014344Y015239D01*
X014344Y015298D02*
X008834Y015298D01*
X008834Y015356D02*
X014344Y015356D01*
X014344Y015415D02*
X008834Y015415D01*
X008834Y015473D02*
X014344Y015473D01*
X014344Y015532D02*
X008834Y015532D01*
X008834Y015590D02*
X014344Y015590D01*
X014344Y015649D02*
X008834Y015649D01*
X008834Y015707D02*
X014344Y015707D01*
X014344Y015766D02*
X008834Y015766D01*
X008834Y015824D02*
X014344Y015824D01*
X014344Y015883D02*
X008834Y015883D01*
X008834Y015941D02*
X011757Y015941D01*
X011699Y016000D02*
X008834Y016000D01*
X008834Y016058D02*
X011216Y016058D01*
X011158Y016117D02*
X008834Y016117D01*
X008834Y016175D02*
X011099Y016175D01*
X011041Y016234D02*
X008834Y016234D01*
X008834Y016292D02*
X010982Y016292D01*
X010924Y016351D02*
X008834Y016351D01*
X008834Y016409D02*
X010865Y016409D01*
X010844Y016468D02*
X008834Y016468D01*
X008834Y016526D02*
X010844Y016526D01*
X010844Y016585D02*
X008834Y016585D01*
X008834Y016643D02*
X010844Y016643D01*
X010844Y016702D02*
X008834Y016702D01*
X008834Y016760D02*
X010844Y016760D01*
X010844Y016819D02*
X008834Y016819D01*
X008787Y016877D02*
X010844Y016877D01*
X010844Y016936D02*
X008728Y016936D01*
X008670Y016994D02*
X010844Y016994D01*
X011389Y017053D02*
X011487Y017053D01*
X011466Y017111D02*
X011384Y017111D01*
X011384Y017170D02*
X011466Y017170D01*
X011466Y017228D02*
X011384Y017228D01*
X011384Y017287D02*
X011485Y017287D01*
X011510Y017345D02*
X011384Y017345D01*
X011384Y017404D02*
X011555Y017404D01*
X011613Y017462D02*
X011384Y017462D01*
X011384Y017521D02*
X013469Y017521D01*
X013469Y017579D02*
X011384Y017579D01*
X011376Y017638D02*
X013469Y017638D01*
X013469Y017696D02*
X011318Y017696D01*
X011259Y017755D02*
X013469Y017755D01*
X013469Y017813D02*
X011201Y017813D01*
X011142Y017872D02*
X011630Y017872D01*
X011564Y017930D02*
X011084Y017930D01*
X011025Y017989D02*
X011513Y017989D01*
X011489Y018047D02*
X010967Y018047D01*
X010908Y018106D02*
X011466Y018106D01*
X011466Y018164D02*
X010850Y018164D01*
X010791Y018223D02*
X011466Y018223D01*
X012020Y018457D02*
X012608Y018457D01*
X012549Y018398D02*
X012079Y018398D01*
X012120Y018340D02*
X012507Y018340D01*
X012483Y018281D02*
X012145Y018281D01*
X012161Y018223D02*
X012466Y018223D01*
X012466Y018164D02*
X012161Y018164D01*
X012161Y018106D02*
X012466Y018106D01*
X012489Y018047D02*
X012139Y018047D01*
X012114Y017989D02*
X012513Y017989D01*
X012564Y017930D02*
X012064Y017930D01*
X011998Y017872D02*
X012630Y017872D01*
X012998Y017872D02*
X013469Y017872D01*
X013469Y017930D02*
X013064Y017930D01*
X013114Y017989D02*
X013469Y017989D01*
X013892Y018515D02*
X014736Y018515D01*
X014745Y018519D02*
X014617Y018466D01*
X014519Y018368D01*
X014466Y018240D01*
X014466Y018102D01*
X014519Y017975D01*
X014617Y017877D01*
X014745Y017824D01*
X014883Y017824D01*
X015011Y017877D01*
X015108Y017975D01*
X015161Y018102D01*
X015161Y018240D01*
X015108Y018368D01*
X015011Y018466D01*
X014883Y018519D01*
X014745Y018519D01*
X014892Y018515D02*
X015736Y018515D01*
X015608Y018457D02*
X015020Y018457D01*
X015079Y018398D02*
X015549Y018398D01*
X015507Y018340D02*
X015120Y018340D01*
X015145Y018281D02*
X015483Y018281D01*
X015466Y018223D02*
X015161Y018223D01*
X015161Y018164D02*
X015466Y018164D01*
X015466Y018106D02*
X015161Y018106D01*
X015139Y018047D02*
X015489Y018047D01*
X015513Y017989D02*
X015114Y017989D01*
X015064Y017930D02*
X015564Y017930D01*
X015630Y017872D02*
X014998Y017872D01*
X014630Y017872D02*
X014384Y017872D01*
X014384Y017930D02*
X014564Y017930D01*
X014513Y017989D02*
X014384Y017989D01*
X014384Y018047D02*
X014489Y018047D01*
X014466Y018106D02*
X014384Y018106D01*
X014350Y018164D02*
X014466Y018164D01*
X014466Y018223D02*
X014291Y018223D01*
X014293Y018221D02*
X014293Y018221D01*
X014233Y018281D02*
X014483Y018281D01*
X014507Y018340D02*
X014120Y018340D01*
X014079Y018398D02*
X014549Y018398D01*
X014608Y018457D02*
X014020Y018457D01*
X014384Y017813D02*
X015627Y017813D01*
X015814Y017830D02*
X015814Y018171D01*
X014569Y017755D02*
X014384Y017755D01*
X014384Y017696D02*
X014510Y017696D01*
X014452Y017638D02*
X014384Y017638D01*
X014384Y017579D02*
X014393Y017579D01*
X014536Y016585D02*
X014849Y016585D01*
X014790Y016526D02*
X014480Y016526D01*
X014421Y016468D02*
X014732Y016468D01*
X014673Y016409D02*
X014363Y016409D01*
X014304Y016351D02*
X014615Y016351D01*
X014556Y016292D02*
X014246Y016292D01*
X014187Y016234D02*
X014498Y016234D01*
X014439Y016175D02*
X014129Y016175D01*
X014070Y016117D02*
X014381Y016117D01*
X014344Y016058D02*
X014012Y016058D01*
X014344Y016000D02*
X013629Y016000D01*
X013571Y015941D02*
X014344Y015941D01*
X014464Y016000D02*
X020464Y016000D01*
X020464Y016058D02*
X014492Y016058D01*
X014550Y016117D02*
X020464Y016117D01*
X020464Y016175D02*
X014609Y016175D01*
X014667Y016234D02*
X020464Y016234D01*
X020464Y016292D02*
X014726Y016292D01*
X014784Y016351D02*
X020443Y016351D01*
X020385Y016409D02*
X014843Y016409D01*
X014901Y016468D02*
X020326Y016468D01*
X020131Y018047D02*
X019547Y018047D01*
X019488Y018106D02*
X020189Y018106D01*
X019301Y018574D02*
X002477Y018574D01*
X001444Y018808D02*
X020264Y018808D01*
X020264Y018866D02*
X001444Y018866D01*
X001444Y018925D02*
X020264Y018925D01*
X020264Y018983D02*
X001444Y018983D01*
X001444Y019042D02*
X020264Y019042D01*
X020264Y019100D02*
X001444Y019100D01*
X001444Y019159D02*
X020264Y019159D01*
X020264Y019217D02*
X001444Y019217D01*
X001444Y019276D02*
X020264Y019276D01*
X020264Y019334D02*
X001444Y019334D01*
X001444Y019393D02*
X020264Y019393D01*
X020264Y019451D02*
X001444Y019451D01*
X001444Y019510D02*
X020264Y019510D01*
X013814Y016380D02*
X012214Y016380D01*
X011414Y016380D01*
X011114Y016680D01*
X011114Y017480D01*
X010614Y017980D01*
X005014Y017980D01*
X008064Y016760D02*
X008714Y016760D01*
X008714Y016702D02*
X008064Y016702D01*
X008064Y016643D02*
X008714Y016643D01*
X008714Y016585D02*
X008064Y016585D01*
X008064Y016526D02*
X008714Y016526D01*
X008714Y016468D02*
X008064Y016468D01*
X008064Y016409D02*
X008714Y016409D01*
X008714Y016351D02*
X008064Y016351D01*
X008064Y016292D02*
X008714Y016292D01*
X008714Y016234D02*
X008064Y016234D01*
X008064Y016175D02*
X008714Y016175D01*
X008714Y016117D02*
X008064Y016117D01*
X008064Y016058D02*
X008714Y016058D01*
X008714Y016000D02*
X008064Y016000D01*
X008064Y015941D02*
X008714Y015941D01*
X008714Y015883D02*
X008064Y015883D01*
X008064Y015824D02*
X008714Y015824D01*
X008714Y015766D02*
X008064Y015766D01*
X008064Y015707D02*
X008714Y015707D01*
X008714Y015649D02*
X008064Y015649D01*
X008064Y015590D02*
X008714Y015590D01*
X008714Y015532D02*
X008064Y015532D01*
X008064Y015473D02*
X008714Y015473D01*
X008714Y015415D02*
X008064Y015415D01*
X008064Y015356D02*
X008714Y015356D01*
X008714Y015298D02*
X008064Y015298D01*
X008064Y015239D02*
X008714Y015239D01*
X008714Y015181D02*
X008064Y015181D01*
X008064Y015122D02*
X008714Y015122D01*
X008714Y015064D02*
X008064Y015064D01*
X008064Y015005D02*
X008714Y015005D01*
X008714Y014947D02*
X008064Y014947D01*
X008064Y014888D02*
X008714Y014888D01*
X008714Y014830D02*
X008064Y014830D01*
X008064Y014771D02*
X008714Y014771D01*
X008714Y014713D02*
X008064Y014713D01*
X008064Y014654D02*
X008714Y014654D01*
X008714Y014596D02*
X008064Y014596D01*
X008064Y014537D02*
X008714Y014537D01*
X008714Y014479D02*
X008064Y014479D01*
X008064Y014420D02*
X008714Y014420D01*
X008714Y014362D02*
X008064Y014362D01*
X008064Y014303D02*
X008714Y014303D01*
X008714Y014245D02*
X008064Y014245D01*
X008064Y014186D02*
X008714Y014186D01*
X008766Y014128D02*
X008011Y014128D01*
X007953Y014069D02*
X008825Y014069D01*
X008883Y014011D02*
X007894Y014011D01*
X008834Y014245D02*
X014159Y014245D01*
X014217Y014303D02*
X008834Y014303D01*
X008878Y014186D02*
X014100Y014186D01*
X014042Y014128D02*
X008936Y014128D01*
X011971Y015941D02*
X013357Y015941D01*
X013299Y016000D02*
X012029Y016000D01*
X011617Y016877D02*
X011564Y016877D01*
X011558Y016936D02*
X011506Y016936D01*
X011511Y016994D02*
X011447Y016994D01*
X008675Y016819D02*
X008102Y016819D01*
X008161Y016877D02*
X008617Y016877D01*
X002844Y013016D02*
X002784Y013016D01*
X002784Y012958D02*
X002844Y012958D01*
X002844Y012899D02*
X002784Y012899D01*
X002784Y012841D02*
X002844Y012841D01*
X002844Y012782D02*
X002784Y012782D01*
X002634Y013016D02*
X002384Y013016D01*
X002384Y012958D02*
X002552Y012958D01*
X002500Y012899D02*
X002384Y012899D01*
X002384Y012841D02*
X002465Y012841D01*
X002441Y012782D02*
X002384Y012782D01*
X002384Y012724D02*
X002429Y012724D01*
X004834Y010793D02*
X005131Y010793D01*
X005814Y010860D02*
X005814Y010860D01*
X005884Y011144D02*
X018454Y011144D01*
X016783Y012431D02*
X027956Y012431D01*
X027956Y012373D02*
X024842Y012373D01*
X024895Y012314D02*
X027956Y012314D01*
X027956Y012256D02*
X024948Y012256D01*
X025001Y012197D02*
X027956Y012197D01*
X027956Y012139D02*
X025055Y012139D01*
X025108Y012080D02*
X027956Y012080D01*
X027956Y012022D02*
X025161Y012022D01*
X025214Y011963D02*
X027956Y011963D01*
X027956Y011905D02*
X025267Y011905D01*
X025321Y011846D02*
X027956Y011846D01*
X027956Y011788D02*
X025376Y011788D01*
X025384Y011729D02*
X027956Y011729D01*
X027956Y011671D02*
X025384Y011671D01*
X025384Y011612D02*
X027956Y011612D01*
X027956Y011554D02*
X025384Y011554D01*
X025384Y011495D02*
X027956Y011495D01*
X027956Y011437D02*
X025384Y011437D01*
X025384Y011378D02*
X027956Y011378D01*
X027956Y011320D02*
X025384Y011320D01*
X025384Y011261D02*
X027956Y011261D01*
X027956Y011203D02*
X025384Y011203D01*
X025384Y011144D02*
X027956Y011144D01*
X027956Y011086D02*
X025384Y011086D01*
X025384Y011027D02*
X027956Y011027D01*
X027956Y010969D02*
X025384Y010969D01*
X025384Y010910D02*
X027956Y010910D01*
X027956Y010852D02*
X025384Y010852D01*
X025384Y010793D02*
X027956Y010793D01*
X027956Y010735D02*
X025384Y010735D01*
X025384Y010676D02*
X027956Y010676D01*
X027956Y010618D02*
X025384Y010618D01*
X025384Y010559D02*
X027956Y010559D01*
X027956Y010501D02*
X025384Y010501D01*
X025384Y010442D02*
X027956Y010442D01*
X027956Y010384D02*
X025384Y010384D01*
X025384Y010325D02*
X027956Y010325D01*
X027956Y010267D02*
X025384Y010267D01*
X025384Y010208D02*
X027956Y010208D01*
X027956Y010150D02*
X025384Y010150D01*
X025384Y010091D02*
X027956Y010091D01*
X027956Y010033D02*
X025384Y010033D01*
X025384Y009974D02*
X027956Y009974D01*
X027956Y009916D02*
X025384Y009916D01*
X025384Y009857D02*
X027956Y009857D01*
X027956Y009799D02*
X025384Y009799D01*
X025384Y009740D02*
X027956Y009740D01*
X027956Y009682D02*
X025384Y009682D01*
X025384Y009623D02*
X027956Y009623D01*
X027956Y009565D02*
X025384Y009565D01*
X025384Y009506D02*
X027956Y009506D01*
X027956Y009448D02*
X025384Y009448D01*
X025384Y009389D02*
X027956Y009389D01*
X027956Y009331D02*
X025384Y009331D01*
X025384Y009272D02*
X027956Y009272D01*
X027956Y009214D02*
X025384Y009214D01*
X025384Y009155D02*
X027956Y009155D01*
X027956Y009097D02*
X025384Y009097D01*
X025384Y009038D02*
X027956Y009038D01*
X027956Y008980D02*
X025384Y008980D01*
X025384Y008921D02*
X027956Y008921D01*
X027956Y008863D02*
X025384Y008863D01*
X025384Y008804D02*
X027956Y008804D01*
X027956Y008746D02*
X025384Y008746D01*
X025384Y008687D02*
X027956Y008687D01*
X027956Y008629D02*
X025384Y008629D01*
X025384Y008570D02*
X027956Y008570D01*
X027956Y008512D02*
X025384Y008512D01*
X025384Y008453D02*
X027956Y008453D01*
X027956Y008395D02*
X025384Y008395D01*
X025384Y008336D02*
X027956Y008336D01*
X027956Y008278D02*
X025384Y008278D01*
X025384Y008219D02*
X027956Y008219D01*
X027956Y008161D02*
X025384Y008161D01*
X025384Y008102D02*
X027956Y008102D01*
X027956Y008044D02*
X025384Y008044D01*
X025384Y007985D02*
X027956Y007985D01*
X027956Y007927D02*
X025384Y007927D01*
X025384Y007868D02*
X027956Y007868D01*
X027956Y007810D02*
X025384Y007810D01*
X025384Y007751D02*
X027956Y007751D01*
X027956Y007693D02*
X025384Y007693D01*
X025384Y007634D02*
X027956Y007634D01*
X027956Y007576D02*
X025384Y007576D01*
X025384Y007517D02*
X027956Y007517D01*
X027956Y007459D02*
X025384Y007459D01*
X025384Y007400D02*
X027956Y007400D01*
X027956Y007342D02*
X025384Y007342D01*
X025384Y007283D02*
X027956Y007283D01*
X027956Y007225D02*
X025384Y007225D01*
X025384Y007166D02*
X027956Y007166D01*
X027956Y007108D02*
X025384Y007108D01*
X025384Y007049D02*
X027956Y007049D01*
X027956Y006991D02*
X025384Y006991D01*
X025384Y006932D02*
X027956Y006932D01*
X027956Y006874D02*
X025384Y006874D01*
X025384Y006815D02*
X027956Y006815D01*
X027956Y006757D02*
X025384Y006757D01*
X025384Y006698D02*
X027956Y006698D01*
X027956Y006640D02*
X025384Y006640D01*
X025384Y006581D02*
X027956Y006581D01*
X027956Y006523D02*
X025384Y006523D01*
X025384Y006464D02*
X027956Y006464D01*
X027956Y006406D02*
X025384Y006406D01*
X025384Y006347D02*
X027956Y006347D01*
X027956Y006289D02*
X025384Y006289D01*
X025384Y006230D02*
X027956Y006230D01*
X027956Y006172D02*
X025384Y006172D01*
X025384Y006113D02*
X027956Y006113D01*
X027956Y006055D02*
X025384Y006055D01*
X025384Y005996D02*
X027956Y005996D01*
X027956Y005938D02*
X025384Y005938D01*
X025384Y005879D02*
X027956Y005879D01*
X027956Y005821D02*
X025384Y005821D01*
X025384Y005762D02*
X027956Y005762D01*
X027956Y005704D02*
X025384Y005704D01*
X025384Y005645D02*
X027956Y005645D01*
X027956Y005587D02*
X025384Y005587D01*
X025384Y005528D02*
X027956Y005528D01*
X027956Y005470D02*
X025384Y005470D01*
X025384Y005411D02*
X027956Y005411D01*
X027956Y005353D02*
X025384Y005353D01*
X025384Y005294D02*
X027956Y005294D01*
X027956Y005236D02*
X025339Y005236D01*
X025281Y005177D02*
X027956Y005177D01*
X027956Y005119D02*
X025222Y005119D01*
X025164Y005060D02*
X027956Y005060D01*
X027956Y005002D02*
X025105Y005002D01*
X025047Y004943D02*
X027956Y004943D01*
X027956Y004885D02*
X024988Y004885D01*
X024930Y004826D02*
X027956Y004826D01*
X027956Y004768D02*
X024871Y004768D01*
X024813Y004709D02*
X027956Y004709D01*
X027956Y004651D02*
X024754Y004651D01*
X024696Y004592D02*
X027956Y004592D01*
X027956Y004534D02*
X010587Y004534D01*
X010529Y004475D02*
X027956Y004475D01*
X027956Y004417D02*
X010470Y004417D01*
X010412Y004358D02*
X027956Y004358D01*
X027956Y004300D02*
X010353Y004300D01*
X010295Y004241D02*
X027956Y004241D01*
X027956Y004183D02*
X010236Y004183D01*
X010234Y004124D02*
X027956Y004124D01*
X027956Y004066D02*
X010234Y004066D01*
X010234Y004007D02*
X027956Y004007D01*
X027956Y003949D02*
X010234Y003949D01*
X010234Y003890D02*
X027956Y003890D01*
X027956Y003832D02*
X010234Y003832D01*
X010234Y003773D02*
X027956Y003773D01*
X027956Y003715D02*
X010234Y003715D01*
X010234Y003656D02*
X027956Y003656D01*
X027956Y003598D02*
X010234Y003598D01*
X010114Y003598D02*
X009114Y003598D01*
X009114Y003656D02*
X010114Y003656D01*
X010114Y003715D02*
X009114Y003715D01*
X009114Y003773D02*
X010114Y003773D01*
X010114Y003832D02*
X009114Y003832D01*
X009114Y003890D02*
X010114Y003890D01*
X010114Y003949D02*
X009114Y003949D01*
X009114Y004007D02*
X010114Y004007D01*
X010114Y004066D02*
X009114Y004066D01*
X009114Y004124D02*
X010114Y004124D01*
X010114Y004183D02*
X009114Y004183D01*
X009114Y004241D02*
X010125Y004241D01*
X010183Y004300D02*
X009114Y004300D01*
X009114Y004358D02*
X010242Y004358D01*
X010300Y004417D02*
X009114Y004417D01*
X009114Y004475D02*
X010359Y004475D01*
X010417Y004534D02*
X009167Y004534D01*
X009226Y004592D02*
X010476Y004592D01*
X010534Y004651D02*
X009284Y004651D01*
X009343Y004709D02*
X024643Y004709D01*
X024701Y004768D02*
X009401Y004768D01*
X009460Y004826D02*
X024760Y004826D01*
X024818Y004885D02*
X009518Y004885D01*
X009577Y004943D02*
X024877Y004943D01*
X024935Y005002D02*
X009635Y005002D01*
X009694Y005060D02*
X024994Y005060D01*
X025052Y005119D02*
X009752Y005119D01*
X009811Y005177D02*
X025111Y005177D01*
X025169Y005236D02*
X009869Y005236D01*
X008542Y006289D02*
X024544Y006289D01*
X024544Y006347D02*
X008601Y006347D01*
X008659Y006406D02*
X024544Y006406D01*
X024544Y006464D02*
X008718Y006464D01*
X008776Y006523D02*
X024544Y006523D01*
X024544Y006581D02*
X008835Y006581D01*
X008893Y006640D02*
X024544Y006640D01*
X024544Y006698D02*
X008952Y006698D01*
X009010Y006757D02*
X024544Y006757D01*
X024544Y006815D02*
X009069Y006815D01*
X009127Y006874D02*
X024544Y006874D01*
X024544Y006932D02*
X009186Y006932D01*
X009244Y006991D02*
X024544Y006991D01*
X024544Y007049D02*
X009303Y007049D01*
X009361Y007108D02*
X024544Y007108D01*
X024544Y007166D02*
X009420Y007166D01*
X009478Y007225D02*
X024544Y007225D01*
X024544Y007283D02*
X009537Y007283D01*
X009595Y007342D02*
X024544Y007342D01*
X024544Y007400D02*
X009654Y007400D01*
X009712Y007459D02*
X024544Y007459D01*
X024544Y007517D02*
X009771Y007517D01*
X009829Y007576D02*
X024544Y007576D01*
X024544Y007634D02*
X009888Y007634D01*
X009946Y007693D02*
X024544Y007693D01*
X024544Y007751D02*
X010005Y007751D01*
X010063Y007810D02*
X024544Y007810D01*
X024544Y007868D02*
X010122Y007868D01*
X010180Y007927D02*
X024544Y007927D01*
X024544Y007985D02*
X010239Y007985D01*
X010297Y008044D02*
X024544Y008044D01*
X024544Y008102D02*
X010356Y008102D01*
X010414Y008161D02*
X024544Y008161D01*
X024544Y008219D02*
X010473Y008219D01*
X010531Y008278D02*
X024544Y008278D01*
X024544Y008336D02*
X010590Y008336D01*
X010648Y008395D02*
X024544Y008395D01*
X024544Y008453D02*
X010707Y008453D01*
X010765Y008512D02*
X024544Y008512D01*
X024544Y008570D02*
X010824Y008570D01*
X010882Y008629D02*
X024544Y008629D01*
X024544Y008687D02*
X010941Y008687D01*
X010999Y008746D02*
X012503Y008746D01*
X012527Y008721D02*
X012700Y008721D01*
X012770Y008790D01*
X017408Y008790D01*
X017477Y008721D01*
X017650Y008721D01*
X017773Y008843D01*
X017773Y009017D01*
X017650Y009139D01*
X017477Y009139D01*
X017408Y009070D01*
X012770Y009070D01*
X012700Y009139D01*
X012527Y009139D01*
X012405Y009017D01*
X012405Y008843D01*
X012527Y008721D01*
X012444Y008804D02*
X011058Y008804D01*
X011116Y008863D02*
X012405Y008863D01*
X012405Y008921D02*
X011175Y008921D01*
X011233Y008980D02*
X012405Y008980D01*
X012426Y009038D02*
X011292Y009038D01*
X011350Y009097D02*
X012485Y009097D01*
X012743Y009097D02*
X017435Y009097D01*
X017693Y009097D02*
X018835Y009097D01*
X018877Y009139D02*
X018755Y009017D01*
X018755Y008843D01*
X018877Y008721D01*
X019050Y008721D01*
X019120Y008790D01*
X023858Y008790D01*
X023927Y008721D01*
X024100Y008721D01*
X024223Y008843D01*
X024223Y009017D01*
X024100Y009139D01*
X023927Y009139D01*
X023858Y009070D01*
X019120Y009070D01*
X019050Y009139D01*
X018877Y009139D01*
X018776Y009038D02*
X017751Y009038D01*
X017773Y008980D02*
X018755Y008980D01*
X018755Y008921D02*
X017773Y008921D01*
X017773Y008863D02*
X018755Y008863D01*
X018794Y008804D02*
X017734Y008804D01*
X017675Y008746D02*
X018853Y008746D01*
X019075Y008746D02*
X023903Y008746D01*
X024125Y008746D02*
X024544Y008746D01*
X024544Y008804D02*
X024184Y008804D01*
X024223Y008863D02*
X024544Y008863D01*
X024544Y008921D02*
X024223Y008921D01*
X024223Y008980D02*
X024544Y008980D01*
X024544Y009038D02*
X024201Y009038D01*
X024143Y009097D02*
X024544Y009097D01*
X024544Y009155D02*
X011409Y009155D01*
X011467Y009214D02*
X024544Y009214D01*
X024544Y009272D02*
X011526Y009272D01*
X011584Y009331D02*
X024544Y009331D01*
X024544Y009389D02*
X011643Y009389D01*
X011701Y009448D02*
X024544Y009448D01*
X024544Y009506D02*
X011760Y009506D01*
X011648Y009565D02*
X010698Y009565D01*
X010757Y009623D02*
X011707Y009623D01*
X011764Y009680D02*
X022664Y009680D01*
X022814Y009830D01*
X022814Y010180D01*
X022664Y010330D01*
X011464Y010330D01*
X007914Y006780D01*
X007364Y006780D01*
X007364Y006030D01*
X008114Y006030D01*
X011764Y009680D01*
X011590Y009506D02*
X010640Y009506D01*
X010581Y009448D02*
X011531Y009448D01*
X011473Y009389D02*
X010523Y009389D01*
X010464Y009331D02*
X011414Y009331D01*
X011356Y009272D02*
X010406Y009272D01*
X010347Y009214D02*
X011297Y009214D01*
X011239Y009155D02*
X010289Y009155D01*
X010230Y009097D02*
X011180Y009097D01*
X011122Y009038D02*
X010172Y009038D01*
X010113Y008980D02*
X011063Y008980D01*
X011005Y008921D02*
X010055Y008921D01*
X009996Y008863D02*
X010946Y008863D01*
X010888Y008804D02*
X009938Y008804D01*
X009879Y008746D02*
X010829Y008746D01*
X010771Y008687D02*
X009821Y008687D01*
X009762Y008629D02*
X010712Y008629D01*
X010654Y008570D02*
X009704Y008570D01*
X009645Y008512D02*
X010595Y008512D01*
X010537Y008453D02*
X009587Y008453D01*
X009528Y008395D02*
X010478Y008395D01*
X010420Y008336D02*
X009470Y008336D01*
X009411Y008278D02*
X010361Y008278D01*
X010303Y008219D02*
X009353Y008219D01*
X009294Y008161D02*
X010244Y008161D01*
X010186Y008102D02*
X009236Y008102D01*
X009177Y008044D02*
X010127Y008044D01*
X010069Y007985D02*
X009119Y007985D01*
X009060Y007927D02*
X010010Y007927D01*
X009952Y007868D02*
X009002Y007868D01*
X008943Y007810D02*
X009893Y007810D01*
X009835Y007751D02*
X008885Y007751D01*
X008826Y007693D02*
X009776Y007693D01*
X009718Y007634D02*
X008768Y007634D01*
X008709Y007576D02*
X009659Y007576D01*
X009601Y007517D02*
X008651Y007517D01*
X008592Y007459D02*
X009542Y007459D01*
X009484Y007400D02*
X008534Y007400D01*
X008475Y007342D02*
X009425Y007342D01*
X009367Y007283D02*
X008417Y007283D01*
X008358Y007225D02*
X009308Y007225D01*
X009250Y007166D02*
X008300Y007166D01*
X008241Y007108D02*
X009191Y007108D01*
X009133Y007049D02*
X008183Y007049D01*
X008124Y006991D02*
X009074Y006991D01*
X009016Y006932D02*
X008066Y006932D01*
X008007Y006874D02*
X008957Y006874D01*
X008899Y006815D02*
X007949Y006815D01*
X007896Y006932D02*
X002384Y006932D01*
X002384Y006874D02*
X007288Y006874D01*
X007244Y006815D02*
X002384Y006815D01*
X002384Y006757D02*
X007244Y006757D01*
X007244Y006698D02*
X002384Y006698D01*
X002384Y006640D02*
X007244Y006640D01*
X007244Y006581D02*
X002384Y006581D01*
X002384Y006523D02*
X007244Y006523D01*
X007244Y006464D02*
X002384Y006464D01*
X002384Y006406D02*
X007244Y006406D01*
X007244Y006347D02*
X002384Y006347D01*
X002384Y006289D02*
X007244Y006289D01*
X007244Y006230D02*
X002384Y006230D01*
X002384Y006172D02*
X007244Y006172D01*
X007244Y006113D02*
X002384Y006113D01*
X002384Y006055D02*
X007244Y006055D01*
X007244Y005996D02*
X002384Y005996D01*
X002384Y005938D02*
X007287Y005938D01*
X007364Y006055D02*
X008138Y006055D01*
X008197Y006113D02*
X007364Y006113D01*
X007364Y006172D02*
X008255Y006172D01*
X008314Y006230D02*
X007364Y006230D01*
X007364Y006289D02*
X008372Y006289D01*
X008431Y006347D02*
X007364Y006347D01*
X007364Y006406D02*
X008489Y006406D01*
X008548Y006464D02*
X007364Y006464D01*
X007364Y006523D02*
X008606Y006523D01*
X008665Y006581D02*
X007364Y006581D01*
X007364Y006640D02*
X008723Y006640D01*
X008782Y006698D02*
X007364Y006698D01*
X007364Y006757D02*
X008840Y006757D01*
X008484Y006230D02*
X024544Y006230D01*
X024544Y006172D02*
X008425Y006172D01*
X008367Y006113D02*
X024544Y006113D01*
X024544Y006055D02*
X008308Y006055D01*
X008250Y005996D02*
X024544Y005996D01*
X024544Y005938D02*
X008191Y005938D01*
X007955Y006991D02*
X002384Y006991D01*
X002384Y007049D02*
X008013Y007049D01*
X008072Y007108D02*
X002384Y007108D01*
X002384Y007166D02*
X008130Y007166D01*
X008189Y007225D02*
X002384Y007225D01*
X002384Y007283D02*
X008247Y007283D01*
X008306Y007342D02*
X002384Y007342D01*
X002384Y007400D02*
X008364Y007400D01*
X008423Y007459D02*
X002384Y007459D01*
X002384Y007517D02*
X008481Y007517D01*
X008540Y007576D02*
X002384Y007576D01*
X002384Y007634D02*
X008598Y007634D01*
X008657Y007693D02*
X002384Y007693D01*
X002384Y007751D02*
X008715Y007751D01*
X008774Y007810D02*
X002384Y007810D01*
X002384Y007868D02*
X008832Y007868D01*
X008891Y007927D02*
X002384Y007927D01*
X002384Y007985D02*
X008949Y007985D01*
X009008Y008044D02*
X002384Y008044D01*
X002384Y008102D02*
X009066Y008102D01*
X009125Y008161D02*
X002384Y008161D01*
X002384Y008219D02*
X009183Y008219D01*
X009242Y008278D02*
X002384Y008278D01*
X002384Y008336D02*
X002715Y008336D01*
X002745Y008324D02*
X002883Y008324D01*
X003011Y008377D01*
X003108Y008475D01*
X003161Y008602D01*
X003161Y008740D01*
X003108Y008868D01*
X003011Y008966D01*
X002883Y009019D01*
X002745Y009019D01*
X002617Y008966D01*
X002519Y008868D01*
X002466Y008740D01*
X002466Y008602D01*
X002519Y008475D01*
X002617Y008377D01*
X002745Y008324D01*
X002599Y008395D02*
X002384Y008395D01*
X002384Y008453D02*
X002541Y008453D01*
X002504Y008512D02*
X002384Y008512D01*
X002384Y008570D02*
X002480Y008570D01*
X002466Y008629D02*
X002384Y008629D01*
X002384Y008687D02*
X002466Y008687D01*
X002469Y008746D02*
X002384Y008746D01*
X002384Y008804D02*
X002493Y008804D01*
X002517Y008863D02*
X002384Y008863D01*
X002384Y008921D02*
X002572Y008921D01*
X002650Y008980D02*
X002384Y008980D01*
X002384Y009038D02*
X010002Y009038D01*
X009944Y008980D02*
X003978Y008980D01*
X004011Y008966D02*
X003883Y009019D01*
X003745Y009019D01*
X003617Y008966D01*
X003519Y008868D01*
X003466Y008740D01*
X003466Y008602D01*
X003519Y008475D01*
X003617Y008377D01*
X003745Y008324D01*
X003883Y008324D01*
X004011Y008377D01*
X004108Y008475D01*
X004161Y008602D01*
X004161Y008740D01*
X004108Y008868D01*
X004011Y008966D01*
X004056Y008921D02*
X009885Y008921D01*
X009827Y008863D02*
X004111Y008863D01*
X004135Y008804D02*
X009768Y008804D01*
X009710Y008746D02*
X004159Y008746D01*
X004161Y008687D02*
X009651Y008687D01*
X009593Y008629D02*
X004161Y008629D01*
X004148Y008570D02*
X009534Y008570D01*
X009476Y008512D02*
X004124Y008512D01*
X004087Y008453D02*
X009417Y008453D01*
X009359Y008395D02*
X004028Y008395D01*
X003912Y008336D02*
X009300Y008336D01*
X010061Y009097D02*
X002384Y009097D01*
X002384Y009155D02*
X010119Y009155D01*
X010178Y009214D02*
X002384Y009214D01*
X002384Y009272D02*
X010236Y009272D01*
X010815Y009682D02*
X022665Y009682D01*
X022724Y009740D02*
X010874Y009740D01*
X010932Y009799D02*
X022782Y009799D01*
X022814Y009857D02*
X010991Y009857D01*
X011049Y009916D02*
X022814Y009916D01*
X022814Y009974D02*
X011108Y009974D01*
X011166Y010033D02*
X022814Y010033D01*
X022814Y010091D02*
X011225Y010091D01*
X011283Y010150D02*
X022814Y010150D01*
X022786Y010208D02*
X011342Y010208D01*
X011400Y010267D02*
X022727Y010267D01*
X022669Y010325D02*
X011459Y010325D01*
X012725Y008746D02*
X017453Y008746D01*
X019093Y009097D02*
X023885Y009097D01*
X024544Y009565D02*
X022718Y009565D01*
X022777Y009623D02*
X024544Y009623D01*
X024544Y009682D02*
X022835Y009682D01*
X022864Y009710D02*
X022864Y009710D01*
X022894Y009740D02*
X024544Y009740D01*
X024544Y009799D02*
X022934Y009799D01*
X022934Y009857D02*
X024544Y009857D01*
X024544Y009916D02*
X022934Y009916D01*
X022934Y009974D02*
X024544Y009974D01*
X024544Y010033D02*
X022934Y010033D01*
X022934Y010091D02*
X024544Y010091D01*
X024544Y010150D02*
X022934Y010150D01*
X022934Y010208D02*
X024544Y010208D01*
X024544Y010267D02*
X022897Y010267D01*
X022839Y010325D02*
X024544Y010325D01*
X024544Y010384D02*
X022780Y010384D01*
X022722Y010442D02*
X024544Y010442D01*
X023100Y012471D02*
X022927Y012471D01*
X022805Y012593D01*
X022805Y012767D01*
X022927Y012889D01*
X023025Y012889D01*
X023367Y013231D01*
X023305Y013293D01*
X023305Y013467D01*
X023427Y013589D01*
X023600Y013589D01*
X023723Y013467D01*
X023723Y013293D01*
X023654Y013224D01*
X023654Y013122D01*
X023223Y012691D01*
X023223Y012593D01*
X023100Y012471D01*
X023119Y012490D02*
X027956Y012490D01*
X027956Y012548D02*
X023178Y012548D01*
X023223Y012607D02*
X027956Y012607D01*
X027956Y012665D02*
X023223Y012665D01*
X023255Y012724D02*
X027956Y012724D01*
X027956Y012782D02*
X023314Y012782D01*
X023372Y012841D02*
X027956Y012841D01*
X027956Y012899D02*
X023431Y012899D01*
X023489Y012958D02*
X027956Y012958D01*
X027956Y013016D02*
X023548Y013016D01*
X023606Y013075D02*
X027956Y013075D01*
X027956Y013133D02*
X023654Y013133D01*
X023654Y013192D02*
X027956Y013192D01*
X027956Y013250D02*
X023680Y013250D01*
X023723Y013309D02*
X027956Y013309D01*
X027956Y013367D02*
X023723Y013367D01*
X023723Y013426D02*
X027956Y013426D01*
X027956Y013484D02*
X023705Y013484D01*
X023647Y013543D02*
X027956Y013543D01*
X027956Y013601D02*
X016634Y013601D01*
X016634Y013543D02*
X023381Y013543D01*
X023322Y013484D02*
X016634Y013484D01*
X016634Y013426D02*
X023305Y013426D01*
X023305Y013367D02*
X016634Y013367D01*
X016634Y013309D02*
X023305Y013309D01*
X023348Y013250D02*
X016634Y013250D01*
X016634Y013192D02*
X023327Y013192D01*
X023269Y013133D02*
X016634Y013133D01*
X016634Y013075D02*
X023210Y013075D01*
X023152Y013016D02*
X016634Y013016D01*
X016634Y012958D02*
X023093Y012958D01*
X023035Y012899D02*
X016634Y012899D01*
X016634Y012841D02*
X022879Y012841D01*
X022820Y012782D02*
X016634Y012782D01*
X016634Y012724D02*
X022805Y012724D01*
X022805Y012665D02*
X016634Y012665D01*
X016634Y012607D02*
X022805Y012607D01*
X022850Y012548D02*
X016666Y012548D01*
X016724Y012490D02*
X022909Y012490D01*
X020423Y014069D02*
X027956Y014069D01*
X027956Y014011D02*
X016634Y014011D01*
X016634Y014069D02*
X019905Y014069D01*
X019847Y014128D02*
X016634Y014128D01*
X016634Y013952D02*
X027956Y013952D01*
X027956Y013894D02*
X016634Y013894D01*
X016634Y013835D02*
X027956Y013835D01*
X027956Y013777D02*
X016634Y013777D01*
X016634Y013718D02*
X027956Y013718D01*
X027956Y013660D02*
X016634Y013660D01*
X024544Y005879D02*
X002384Y005879D01*
X002384Y005821D02*
X024544Y005821D01*
X024544Y005762D02*
X002384Y005762D01*
X002384Y005704D02*
X024518Y005704D01*
X024459Y005645D02*
X002384Y005645D01*
X002384Y005587D02*
X024401Y005587D01*
X024342Y005528D02*
X002384Y005528D01*
X002384Y005470D02*
X024284Y005470D01*
X027956Y002486D02*
X015962Y002486D01*
X016011Y002466D02*
X015883Y002519D01*
X015745Y002519D01*
X015617Y002466D01*
X015519Y002368D01*
X015466Y002240D01*
X015466Y002102D01*
X015519Y001975D01*
X015617Y001877D01*
X015745Y001824D01*
X015883Y001824D01*
X016011Y001877D01*
X016108Y001975D01*
X016161Y002102D01*
X016161Y002240D01*
X016108Y002368D01*
X016011Y002466D01*
X016049Y002428D02*
X027956Y002428D01*
X027956Y002369D02*
X016108Y002369D01*
X016132Y002311D02*
X027956Y002311D01*
X027956Y002252D02*
X016157Y002252D01*
X016161Y002194D02*
X027956Y002194D01*
X027956Y002135D02*
X025905Y002135D01*
X025963Y002077D02*
X027956Y002077D01*
X027956Y002018D02*
X026022Y002018D01*
X026023Y001960D02*
X027956Y001960D01*
X027956Y001901D02*
X026023Y001901D01*
X026022Y001843D02*
X027956Y001843D01*
X027956Y001784D02*
X025964Y001784D01*
X025905Y001726D02*
X027956Y001726D01*
X027956Y001667D02*
X025749Y001667D01*
X025690Y001609D02*
X027956Y001609D01*
X027956Y001550D02*
X025632Y001550D01*
X025573Y001492D02*
X027956Y001492D01*
X025723Y002135D02*
X016161Y002135D01*
X016151Y002077D02*
X025665Y002077D01*
X025606Y002018D02*
X016126Y002018D01*
X016093Y001960D02*
X025605Y001960D01*
X025587Y001901D02*
X016035Y001901D01*
X015928Y001843D02*
X025528Y001843D01*
X025470Y001784D02*
X014108Y001784D01*
X014049Y001843D02*
X014700Y001843D01*
X014745Y001824D02*
X014617Y001877D01*
X014519Y001975D01*
X014466Y002102D01*
X014466Y002240D01*
X014519Y002368D01*
X014617Y002466D01*
X014745Y002519D01*
X014883Y002519D01*
X015011Y002466D01*
X015108Y002368D01*
X015161Y002240D01*
X015161Y002102D01*
X015108Y001975D01*
X015011Y001877D01*
X014883Y001824D01*
X014745Y001824D01*
X014593Y001901D02*
X014035Y001901D01*
X014093Y001960D02*
X014534Y001960D01*
X014501Y002018D02*
X014126Y002018D01*
X014151Y002077D02*
X014477Y002077D01*
X014466Y002135D02*
X014161Y002135D01*
X014161Y002194D02*
X014466Y002194D01*
X014471Y002252D02*
X014157Y002252D01*
X014132Y002311D02*
X014495Y002311D01*
X014520Y002369D02*
X014108Y002369D01*
X014049Y002428D02*
X014579Y002428D01*
X014666Y002486D02*
X013962Y002486D01*
X013883Y002824D02*
X014011Y002877D01*
X014108Y002975D01*
X014161Y003102D01*
X014161Y003240D01*
X014108Y003368D01*
X014011Y003466D01*
X013883Y003519D01*
X013745Y003519D01*
X013617Y003466D01*
X013519Y003368D01*
X013466Y003240D01*
X013466Y003102D01*
X013519Y002975D01*
X013617Y002877D01*
X013745Y002824D01*
X013883Y002824D01*
X013915Y002837D02*
X014713Y002837D01*
X014745Y002824D02*
X014883Y002824D01*
X015011Y002877D01*
X015108Y002975D01*
X015161Y003102D01*
X015161Y003240D01*
X015108Y003368D01*
X015011Y003466D01*
X014883Y003519D01*
X014745Y003519D01*
X014617Y003466D01*
X014519Y003368D01*
X014466Y003240D01*
X014466Y003102D01*
X014519Y002975D01*
X014617Y002877D01*
X014745Y002824D01*
X014598Y002896D02*
X014029Y002896D01*
X014088Y002954D02*
X014540Y002954D01*
X014504Y003013D02*
X014124Y003013D01*
X014148Y003071D02*
X014479Y003071D01*
X014466Y003130D02*
X014161Y003130D01*
X014161Y003188D02*
X014466Y003188D01*
X014469Y003247D02*
X014159Y003247D01*
X014135Y003305D02*
X014493Y003305D01*
X014517Y003364D02*
X014110Y003364D01*
X014055Y003422D02*
X014573Y003422D01*
X014652Y003481D02*
X013975Y003481D01*
X013652Y003481D02*
X012975Y003481D01*
X013011Y003466D02*
X012883Y003519D01*
X012745Y003519D01*
X012617Y003466D01*
X012519Y003368D01*
X012466Y003240D01*
X012466Y003102D01*
X012519Y002975D01*
X012617Y002877D01*
X012745Y002824D01*
X012883Y002824D01*
X013011Y002877D01*
X013108Y002975D01*
X013161Y003102D01*
X013161Y003240D01*
X013108Y003368D01*
X013011Y003466D01*
X013055Y003422D02*
X013573Y003422D01*
X013517Y003364D02*
X013110Y003364D01*
X013135Y003305D02*
X013493Y003305D01*
X013469Y003247D02*
X013159Y003247D01*
X013161Y003188D02*
X013466Y003188D01*
X013466Y003130D02*
X013161Y003130D01*
X013148Y003071D02*
X013479Y003071D01*
X013504Y003013D02*
X013124Y003013D01*
X013088Y002954D02*
X013540Y002954D01*
X013598Y002896D02*
X013029Y002896D01*
X012915Y002837D02*
X013713Y002837D01*
X013666Y002486D02*
X012962Y002486D01*
X013011Y002466D02*
X012883Y002519D01*
X012745Y002519D01*
X012617Y002466D01*
X012519Y002368D01*
X012466Y002240D01*
X012466Y002102D01*
X012519Y001975D01*
X012617Y001877D01*
X012745Y001824D01*
X012883Y001824D01*
X013011Y001877D01*
X013108Y001975D01*
X013161Y002102D01*
X013161Y002240D01*
X013108Y002368D01*
X013011Y002466D01*
X013049Y002428D02*
X013579Y002428D01*
X013520Y002369D02*
X013108Y002369D01*
X013132Y002311D02*
X013495Y002311D01*
X013471Y002252D02*
X013157Y002252D01*
X013161Y002194D02*
X013466Y002194D01*
X013466Y002135D02*
X013161Y002135D01*
X013151Y002077D02*
X013477Y002077D01*
X013501Y002018D02*
X013126Y002018D01*
X013093Y001960D02*
X013534Y001960D01*
X013593Y001901D02*
X013035Y001901D01*
X012928Y001843D02*
X013674Y001843D01*
X012700Y001843D02*
X011928Y001843D01*
X012035Y001901D02*
X012593Y001901D01*
X012534Y001960D02*
X012093Y001960D01*
X012126Y002018D02*
X012501Y002018D01*
X012477Y002077D02*
X012151Y002077D01*
X012161Y002135D02*
X012466Y002135D01*
X012466Y002194D02*
X012161Y002194D01*
X012157Y002252D02*
X012471Y002252D01*
X012495Y002311D02*
X012132Y002311D01*
X012108Y002369D02*
X012520Y002369D01*
X012579Y002428D02*
X012049Y002428D01*
X011962Y002486D02*
X012666Y002486D01*
X012713Y002837D02*
X011915Y002837D01*
X012029Y002896D02*
X012598Y002896D01*
X012540Y002954D02*
X012088Y002954D01*
X012124Y003013D02*
X012504Y003013D01*
X012479Y003071D02*
X012148Y003071D01*
X012161Y003130D02*
X012466Y003130D01*
X012466Y003188D02*
X012161Y003188D01*
X012159Y003247D02*
X012469Y003247D01*
X012493Y003305D02*
X012135Y003305D01*
X012110Y003364D02*
X012517Y003364D01*
X012573Y003422D02*
X012055Y003422D01*
X011975Y003481D02*
X012652Y003481D01*
X014975Y003481D02*
X015652Y003481D01*
X015573Y003422D02*
X015055Y003422D01*
X015110Y003364D02*
X015517Y003364D01*
X015493Y003305D02*
X015135Y003305D01*
X015159Y003247D02*
X015469Y003247D01*
X015466Y003188D02*
X015161Y003188D01*
X015161Y003130D02*
X015466Y003130D01*
X015479Y003071D02*
X015148Y003071D01*
X015124Y003013D02*
X015504Y003013D01*
X015540Y002954D02*
X015088Y002954D01*
X015029Y002896D02*
X015598Y002896D01*
X015713Y002837D02*
X014915Y002837D01*
X014962Y002486D02*
X015666Y002486D01*
X015579Y002428D02*
X015049Y002428D01*
X015108Y002369D02*
X015520Y002369D01*
X015495Y002311D02*
X015132Y002311D01*
X015157Y002252D02*
X015471Y002252D01*
X015466Y002194D02*
X015161Y002194D01*
X015161Y002135D02*
X015466Y002135D01*
X015477Y002077D02*
X015151Y002077D01*
X015126Y002018D02*
X015501Y002018D01*
X015534Y001960D02*
X015093Y001960D01*
X015035Y001901D02*
X015593Y001901D01*
X015700Y001843D02*
X014928Y001843D01*
X010114Y002896D02*
X009114Y002896D01*
X009114Y002954D02*
X010114Y002954D01*
X010114Y003013D02*
X009114Y003013D01*
X009114Y003071D02*
X010114Y003071D01*
X010114Y003130D02*
X009114Y003130D01*
X009114Y003188D02*
X010114Y003188D01*
X010114Y003247D02*
X009114Y003247D01*
X009114Y003305D02*
X010114Y003305D01*
X010114Y003364D02*
X009114Y003364D01*
X009114Y003422D02*
X010114Y003422D01*
X010114Y003481D02*
X009114Y003481D01*
X009114Y003539D02*
X010114Y003539D01*
X009173Y001901D02*
X002384Y001901D01*
X002912Y008336D02*
X003715Y008336D01*
X003599Y008395D02*
X003028Y008395D01*
X003087Y008453D02*
X003541Y008453D01*
X003504Y008512D02*
X003124Y008512D01*
X003148Y008570D02*
X003480Y008570D01*
X003466Y008629D02*
X003161Y008629D01*
X003161Y008687D02*
X003466Y008687D01*
X003469Y008746D02*
X003159Y008746D01*
X003135Y008804D02*
X003493Y008804D01*
X003517Y008863D02*
X003111Y008863D01*
X003056Y008921D02*
X003572Y008921D01*
X003650Y008980D02*
X002978Y008980D01*
X002729Y009331D02*
X002384Y009331D01*
X002384Y009389D02*
X002605Y009389D01*
X002546Y009448D02*
X002384Y009448D01*
X002384Y009506D02*
X002506Y009506D01*
X002482Y009565D02*
X002384Y009565D01*
X002384Y009623D02*
X002466Y009623D01*
D15*
X012614Y008930D02*
X017564Y008930D01*
X018964Y008930D02*
X024014Y008930D01*
X023014Y012680D02*
X023514Y013180D01*
X023514Y013380D01*
X018564Y014430D02*
X018564Y016080D01*
X018314Y016630D01*
X015614Y012880D02*
X013514Y012880D01*
X013914Y012180D02*
X014764Y011330D01*
X018564Y011330D01*
X013814Y002171D02*
X013814Y001880D01*
X014064Y001630D01*
X025514Y001630D01*
X025814Y001930D01*
M02*
