G75*
G70*
%OFA0B0*%
%FSLAX24Y24*%
%IPPOS*%
%LPD*%
%AMOC8*
5,1,8,0,0,1.08239X$1,22.5*
%
%ADD10C,0.0000*%
%ADD11R,0.0010X0.0003*%
%ADD12R,0.0023X0.0003*%
%ADD13R,0.0032X0.0003*%
%ADD14R,0.0029X0.0003*%
%ADD15R,0.0039X0.0003*%
%ADD16R,0.0045X0.0003*%
%ADD17R,0.0055X0.0003*%
%ADD18R,0.0061X0.0003*%
%ADD19R,0.0071X0.0003*%
%ADD20R,0.0077X0.0003*%
%ADD21R,0.0087X0.0003*%
%ADD22R,0.0094X0.0003*%
%ADD23R,0.0103X0.0003*%
%ADD24R,0.0100X0.0003*%
%ADD25R,0.0110X0.0003*%
%ADD26R,0.0119X0.0003*%
%ADD27R,0.0116X0.0003*%
%ADD28R,0.0126X0.0003*%
%ADD29R,0.0136X0.0003*%
%ADD30R,0.0132X0.0003*%
%ADD31R,0.0142X0.0003*%
%ADD32R,0.0149X0.0003*%
%ADD33R,0.0158X0.0003*%
%ADD34R,0.0165X0.0003*%
%ADD35R,0.0174X0.0003*%
%ADD36R,0.0181X0.0003*%
%ADD37R,0.0190X0.0003*%
%ADD38R,0.0187X0.0003*%
%ADD39R,0.0197X0.0003*%
%ADD40R,0.0207X0.0003*%
%ADD41R,0.0203X0.0003*%
%ADD42R,0.0213X0.0003*%
%ADD43R,0.0223X0.0003*%
%ADD44R,0.0220X0.0003*%
%ADD45R,0.0229X0.0003*%
%ADD46R,0.0016X0.0003*%
%ADD47R,0.0236X0.0003*%
%ADD48R,0.0026X0.0003*%
%ADD49R,0.0245X0.0003*%
%ADD50R,0.0252X0.0003*%
%ADD51R,0.0042X0.0003*%
%ADD52R,0.0261X0.0003*%
%ADD53R,0.0268X0.0003*%
%ADD54R,0.0052X0.0003*%
%ADD55R,0.0278X0.0003*%
%ADD56R,0.0274X0.0003*%
%ADD57R,0.0284X0.0003*%
%ADD58R,0.0068X0.0003*%
%ADD59R,0.0294X0.0003*%
%ADD60R,0.0291X0.0003*%
%ADD61R,0.0300X0.0003*%
%ADD62R,0.0084X0.0003*%
%ADD63R,0.0310X0.0003*%
%ADD64R,0.0090X0.0003*%
%ADD65R,0.0307X0.0003*%
%ADD66R,0.0316X0.0003*%
%ADD67R,0.0097X0.0003*%
%ADD68R,0.0323X0.0003*%
%ADD69R,0.0107X0.0003*%
%ADD70R,0.0333X0.0003*%
%ADD71R,0.0113X0.0003*%
%ADD72R,0.0465X0.0003*%
%ADD73R,0.0471X0.0003*%
%ADD74R,0.0475X0.0003*%
%ADD75R,0.0481X0.0003*%
%ADD76R,0.0478X0.0003*%
%ADD77R,0.0484X0.0003*%
%ADD78R,0.0487X0.0003*%
%ADD79R,0.0494X0.0003*%
%ADD80R,0.0497X0.0003*%
%ADD81R,0.0504X0.0003*%
%ADD82R,0.0500X0.0003*%
%ADD83R,0.0507X0.0003*%
%ADD84R,0.0513X0.0003*%
%ADD85R,0.0510X0.0003*%
%ADD86R,0.0517X0.0003*%
%ADD87R,0.0520X0.0003*%
%ADD88R,0.0526X0.0003*%
%ADD89R,0.0529X0.0003*%
%ADD90R,0.0533X0.0003*%
%ADD91R,0.0536X0.0003*%
%ADD92R,0.0523X0.0003*%
%ADD93R,0.0491X0.0003*%
%ADD94R,0.0539X0.0003*%
%ADD95R,0.0542X0.0003*%
%ADD96R,0.0546X0.0003*%
%ADD97R,0.0549X0.0003*%
%ADD98R,0.0552X0.0003*%
%ADD99R,0.0555X0.0003*%
%ADD100R,0.0559X0.0003*%
%ADD101R,0.0562X0.0003*%
%ADD102R,0.0565X0.0003*%
%ADD103R,0.0568X0.0003*%
%ADD104R,0.0571X0.0003*%
%ADD105R,0.0575X0.0003*%
%ADD106R,0.0578X0.0003*%
%ADD107R,0.0591X0.0003*%
%ADD108R,0.0607X0.0003*%
%ADD109R,0.0604X0.0003*%
%ADD110R,0.0620X0.0003*%
%ADD111R,0.0623X0.0003*%
%ADD112R,0.0636X0.0003*%
%ADD113R,0.0652X0.0003*%
%ADD114R,0.0649X0.0003*%
%ADD115R,0.0668X0.0003*%
%ADD116R,0.0681X0.0003*%
%ADD117R,0.0697X0.0003*%
%ADD118R,0.0713X0.0003*%
%ADD119R,0.0720X0.0003*%
%ADD120R,0.0723X0.0003*%
%ADD121R,0.0717X0.0003*%
%ADD122R,0.0710X0.0003*%
%ADD123R,0.0707X0.0003*%
%ADD124R,0.0704X0.0003*%
%ADD125R,0.0701X0.0003*%
%ADD126R,0.0694X0.0003*%
%ADD127R,0.0691X0.0003*%
%ADD128R,0.0726X0.0003*%
%ADD129R,0.0688X0.0003*%
%ADD130R,0.0684X0.0003*%
%ADD131R,0.0671X0.0003*%
%ADD132R,0.0655X0.0003*%
%ADD133R,0.0659X0.0003*%
%ADD134R,0.0642X0.0003*%
%ADD135R,0.0639X0.0003*%
%ADD136R,0.0626X0.0003*%
%ADD137R,0.0610X0.0003*%
%ADD138R,0.0613X0.0003*%
%ADD139R,0.0597X0.0003*%
%ADD140R,0.0584X0.0003*%
%ADD141R,0.0581X0.0003*%
%ADD142R,0.0594X0.0003*%
%ADD143R,0.0600X0.0003*%
%ADD144R,0.0630X0.0003*%
%ADD145R,0.1333X0.0003*%
%ADD146R,0.1330X0.0003*%
%ADD147R,0.1327X0.0003*%
%ADD148R,0.1324X0.0003*%
%ADD149R,0.1320X0.0003*%
%ADD150R,0.1314X0.0003*%
%ADD151R,0.1311X0.0003*%
%ADD152R,0.1307X0.0003*%
%ADD153R,0.1304X0.0003*%
%ADD154R,0.1301X0.0003*%
%ADD155R,0.1295X0.0003*%
%ADD156R,0.1291X0.0003*%
%ADD157R,0.1288X0.0003*%
%ADD158R,0.1285X0.0003*%
%ADD159R,0.1282X0.0003*%
%ADD160R,0.1275X0.0003*%
%ADD161R,0.1272X0.0003*%
%ADD162R,0.1269X0.0003*%
%ADD163R,0.1266X0.0003*%
%ADD164R,0.1262X0.0003*%
%ADD165R,0.1256X0.0003*%
%ADD166R,0.1253X0.0003*%
%ADD167R,0.1249X0.0003*%
%ADD168R,0.1278X0.0003*%
%ADD169R,0.1317X0.0003*%
%ADD170R,0.1340X0.0003*%
%ADD171R,0.1346X0.0003*%
%ADD172R,0.1349X0.0003*%
%ADD173R,0.1353X0.0003*%
%ADD174R,0.1359X0.0003*%
%ADD175R,0.1362X0.0003*%
%ADD176R,0.1366X0.0003*%
%ADD177R,0.1372X0.0003*%
%ADD178R,0.1375X0.0003*%
%ADD179R,0.1379X0.0003*%
%ADD180R,0.1385X0.0003*%
%ADD181R,0.1388X0.0003*%
%ADD182R,0.1391X0.0003*%
%ADD183R,0.1398X0.0003*%
%ADD184R,0.1404X0.0003*%
%ADD185R,0.1411X0.0003*%
%ADD186R,0.1417X0.0003*%
%ADD187R,0.1420X0.0003*%
%ADD188R,0.1424X0.0003*%
%ADD189R,0.1430X0.0003*%
%ADD190R,0.1433X0.0003*%
%ADD191R,0.1437X0.0003*%
%ADD192R,0.1443X0.0003*%
%ADD193R,0.1446X0.0003*%
%ADD194R,0.1450X0.0003*%
%ADD195R,0.1456X0.0003*%
%ADD196R,0.1459X0.0003*%
%ADD197R,0.1462X0.0003*%
%ADD198R,0.1469X0.0003*%
%ADD199R,0.1475X0.0003*%
%ADD200R,0.1482X0.0003*%
%ADD201R,0.1488X0.0003*%
%ADD202R,0.1491X0.0003*%
%ADD203R,0.1495X0.0003*%
%ADD204R,0.1501X0.0003*%
%ADD205R,0.1504X0.0003*%
%ADD206R,0.1508X0.0003*%
%ADD207R,0.1514X0.0003*%
%ADD208R,0.1517X0.0003*%
%ADD209R,0.1521X0.0003*%
%ADD210R,0.1527X0.0003*%
%ADD211R,0.1530X0.0003*%
%ADD212R,0.1533X0.0003*%
%ADD213R,0.0368X0.0003*%
%ADD214R,0.0365X0.0003*%
%ADD215R,0.0358X0.0003*%
%ADD216R,0.0355X0.0003*%
%ADD217R,0.0349X0.0003*%
%ADD218R,0.0342X0.0003*%
%ADD219R,0.0339X0.0003*%
%ADD220R,0.0326X0.0003*%
%ADD221R,0.0617X0.0003*%
%ADD222R,0.0588X0.0003*%
%ADD223R,0.0287X0.0003*%
%ADD224R,0.0271X0.0003*%
%ADD225R,0.0255X0.0003*%
%ADD226R,0.0239X0.0003*%
%ADD227R,0.0462X0.0003*%
%ADD228R,0.0446X0.0003*%
%ADD229R,0.0429X0.0003*%
%ADD230R,0.0413X0.0003*%
%ADD231R,0.0397X0.0003*%
%ADD232R,0.0200X0.0003*%
%ADD233R,0.0384X0.0003*%
%ADD234R,0.0371X0.0003*%
%ADD235R,0.0184X0.0003*%
%ADD236R,0.0168X0.0003*%
%ADD237R,0.0152X0.0003*%
%ADD238R,0.0352X0.0003*%
%ADD239R,0.0081X0.0003*%
%ADD240R,0.0345X0.0003*%
%ADD241R,0.0065X0.0003*%
%ADD242R,0.0048X0.0003*%
%ADD243R,0.0336X0.0003*%
%ADD244R,0.0329X0.0003*%
%ADD245R,0.0320X0.0003*%
%ADD246R,0.0313X0.0003*%
%ADD247R,0.0303X0.0003*%
%ADD248R,0.0297X0.0003*%
%ADD249R,0.0281X0.0003*%
%ADD250R,0.0265X0.0003*%
%ADD251C,0.0060*%
%ADD252R,0.0071X0.0014*%
%ADD253R,0.0100X0.0014*%
%ADD254R,0.0129X0.0014*%
%ADD255R,0.0143X0.0014*%
%ADD256R,0.0171X0.0014*%
%ADD257R,0.0043X0.0014*%
%ADD258R,0.0186X0.0014*%
%ADD259R,0.0200X0.0014*%
%ADD260R,0.0086X0.0014*%
%ADD261R,0.0214X0.0014*%
%ADD262R,0.0100X0.0014*%
%ADD263R,0.0114X0.0014*%
%ADD264R,0.0243X0.0014*%
%ADD265R,0.0129X0.0014*%
%ADD266R,0.0257X0.0014*%
%ADD267R,0.0286X0.0014*%
%ADD268R,0.0157X0.0014*%
%ADD269R,0.0043X0.0014*%
%ADD270R,0.0071X0.0014*%
%ADD271R,0.0300X0.0014*%
%ADD272R,0.0186X0.0014*%
%ADD273R,0.0314X0.0014*%
%ADD274R,0.0329X0.0014*%
%ADD275R,0.0100X0.0014*%
%ADD276R,0.0229X0.0014*%
%ADD277R,0.0114X0.0014*%
%ADD278R,0.0357X0.0014*%
%ADD279R,0.0129X0.0014*%
%ADD280R,0.0086X0.0014*%
%ADD281R,0.0086X0.0014*%
%ADD282R,0.0272X0.0014*%
%ADD283R,0.0057X0.0014*%
%ADD284R,0.0157X0.0014*%
%ADD285R,0.0186X0.0014*%
%ADD286R,0.0372X0.0014*%
%ADD287R,0.0143X0.0014*%
%ADD288R,0.0214X0.0014*%
%ADD289R,0.0386X0.0014*%
%ADD290R,0.0057X0.0014*%
%ADD291R,0.0029X0.0014*%
%ADD292R,0.0029X0.0014*%
%ADD293R,0.0400X0.0014*%
%ADD294R,0.0057X0.0014*%
%ADD295R,0.0486X0.0014*%
%ADD296R,0.0071X0.0014*%
%ADD297R,0.0572X0.0014*%
%ADD298R,0.0200X0.0014*%
%ADD299R,0.0586X0.0014*%
%ADD300R,0.0343X0.0014*%
%ADD301R,0.0943X0.0014*%
%ADD302R,0.0629X0.0014*%
%ADD303R,0.0243X0.0014*%
%ADD304R,0.0143X0.0014*%
%ADD305R,0.0529X0.0014*%
%ADD306R,0.0157X0.0014*%
%ADD307R,0.0200X0.0014*%
%ADD308R,0.0114X0.0014*%
%ADD309R,0.0429X0.0014*%
%ADD310R,0.0386X0.0014*%
%ADD311R,0.0271X0.0014*%
%ADD312R,0.0300X0.0014*%
%ADD313R,0.0171X0.0014*%
%ADD314R,0.0314X0.0014*%
%ADD315R,0.0214X0.0014*%
%ADD316R,0.0329X0.0014*%
%ADD317R,0.0529X0.0014*%
%ADD318R,0.0486X0.0014*%
%ADD319R,0.0014X0.0014*%
%ADD320R,0.0457X0.0014*%
%ADD321R,0.0414X0.0014*%
%ADD322R,0.0386X0.0014*%
%ADD323R,0.0357X0.0014*%
%ADD324R,0.0343X0.0014*%
%ADD325R,0.0043X0.0014*%
%ADD326R,0.0029X0.0014*%
%ADD327R,0.0257X0.0014*%
%ADD328R,0.0329X0.0014*%
%ADD329R,0.0557X0.0014*%
%ADD330R,0.0514X0.0014*%
%ADD331R,0.0472X0.0014*%
%ADD332R,0.0429X0.0014*%
%ADD333R,0.0372X0.0014*%
%ADD334R,0.0314X0.0014*%
%ADD335R,0.0443X0.0014*%
%ADD336R,0.0600X0.0014*%
%ADD337R,0.0657X0.0014*%
%ADD338R,0.0686X0.0014*%
%ADD339R,0.0715X0.0014*%
%ADD340R,0.0743X0.0014*%
%ADD341R,0.0772X0.0014*%
%ADD342R,0.0786X0.0014*%
%ADD343R,0.0800X0.0014*%
%ADD344R,0.0829X0.0014*%
%ADD345R,0.0286X0.0014*%
%ADD346R,0.0857X0.0014*%
%ADD347R,0.0500X0.0014*%
%ADD348R,0.0886X0.0014*%
%ADD349R,0.0915X0.0014*%
%ADD350R,0.0615X0.0014*%
%ADD351R,0.0643X0.0014*%
%ADD352R,0.0700X0.0014*%
%ADD353R,0.0229X0.0014*%
%ADD354R,0.0729X0.0014*%
%ADD355R,0.0757X0.0014*%
%ADD356R,0.0972X0.0014*%
%ADD357R,0.0815X0.0014*%
%ADD358R,0.0843X0.0014*%
%ADD359R,0.1000X0.0014*%
%ADD360R,0.0872X0.0014*%
%ADD361R,0.0900X0.0014*%
%ADD362R,0.1029X0.0014*%
%ADD363R,0.0929X0.0014*%
%ADD364R,0.0943X0.0014*%
%ADD365R,0.1986X0.0014*%
%ADD366R,0.2001X0.0014*%
%ADD367R,0.2029X0.0014*%
%ADD368R,0.2044X0.0014*%
%ADD369R,0.2058X0.0014*%
%ADD370R,0.2072X0.0014*%
%ADD371R,0.2087X0.0014*%
%ADD372R,0.1586X0.0014*%
%ADD373R,0.0357X0.0014*%
%ADD374R,0.0272X0.0014*%
%ADD375R,0.1544X0.0014*%
%ADD376R,0.1515X0.0014*%
%ADD377R,0.0515X0.0014*%
%ADD378R,0.0743X0.0014*%
%ADD379R,0.0700X0.0014*%
%ADD380R,0.0014X0.0014*%
%ADD381R,0.0643X0.0014*%
%ADD382R,0.0614X0.0014*%
%ADD383R,0.0600X0.0014*%
%ADD384R,0.0557X0.0014*%
%ADD385R,0.0343X0.0014*%
%ADD386R,0.0172X0.0014*%
%ADD387R,0.0300X0.0014*%
%ADD388R,0.0700X0.0014*%
%ADD389R,0.0543X0.0014*%
%ADD390R,0.0014X0.0014*%
%ADD391R,0.0243X0.0014*%
%ADD392R,0.0443X0.0014*%
%ADD393R,0.0472X0.0014*%
%ADD394R,0.0500X0.0014*%
%ADD395R,0.0543X0.0014*%
%ADD396R,0.0286X0.0014*%
%ADD397R,0.0372X0.0014*%
%ADD398R,0.0400X0.0014*%
%ADD399R,0.0429X0.0014*%
%ADD400R,0.0457X0.0014*%
%ADD401R,0.0257X0.0014*%
%ADD402R,0.0400X0.0014*%
%ADD403R,0.0414X0.0014*%
%ADD404R,0.0443X0.0014*%
%ADD405R,0.0600X0.0014*%
%ADD406R,0.0472X0.0014*%
%ADD407R,0.0586X0.0014*%
%ADD408R,0.0543X0.0014*%
%ADD409R,0.0557X0.0014*%
%ADD410R,0.0715X0.0014*%
%ADD411R,0.0529X0.0014*%
%ADD412R,0.0486X0.0014*%
%ADD413C,0.0050*%
%ADD414C,0.0030*%
%ADD415C,0.0080*%
%ADD416R,0.1000X0.0900*%
%ADD417R,0.0315X0.0827*%
%ADD418R,0.0400X0.0600*%
%ADD419R,0.0600X0.1200*%
%ADD420R,0.0090X0.1150*%
%ADD421R,0.0070X0.1060*%
%ADD422R,0.1100X0.0500*%
%ADD423R,0.0600X0.0400*%
%ADD424R,0.0800X0.1000*%
%ADD425R,0.1000X0.0800*%
%ADD426R,0.1400X0.0600*%
%ADD427R,0.0550X0.1050*%
D10*
X001314Y000380D02*
X001314Y019671D01*
X028086Y019671D01*
X028086Y000380D01*
X001314Y000380D01*
D11*
X009529Y017196D03*
X010691Y017196D03*
D12*
X010691Y017200D03*
X009529Y017200D03*
X009529Y018723D03*
X010691Y018723D03*
D13*
X010689Y018720D03*
X009530Y018720D03*
X009530Y017203D03*
X010399Y017290D03*
D14*
X010691Y017203D03*
X009823Y017290D03*
D15*
X009821Y017293D03*
X009530Y017206D03*
X010689Y017206D03*
X010689Y018717D03*
X009530Y018717D03*
D16*
X009818Y017296D03*
X009530Y017209D03*
X010402Y017296D03*
X010689Y017209D03*
D17*
X010688Y017212D03*
X009816Y017300D03*
X009532Y017212D03*
X009532Y018710D03*
X010688Y018710D03*
D18*
X010688Y018707D03*
X010407Y017303D03*
X010688Y017216D03*
X009813Y017303D03*
X009532Y017216D03*
D19*
X009534Y017219D03*
X009811Y017306D03*
X010686Y017219D03*
X010686Y018704D03*
X009534Y018704D03*
D20*
X010686Y018701D03*
X010412Y017309D03*
X010686Y017222D03*
X009808Y017309D03*
X009534Y017222D03*
D21*
X009535Y017225D03*
X010685Y017225D03*
X010685Y018698D03*
X009535Y018698D03*
D22*
X010685Y018694D03*
X010417Y017316D03*
X010685Y017229D03*
X009535Y017229D03*
D23*
X009537Y017232D03*
X010421Y017322D03*
X010683Y018691D03*
X009537Y018691D03*
D24*
X010420Y017319D03*
X010685Y017232D03*
D25*
X010683Y017235D03*
X009537Y017235D03*
X009537Y018688D03*
X010683Y018688D03*
D26*
X010681Y018685D03*
X009539Y018685D03*
X009539Y017238D03*
D27*
X010683Y017238D03*
D28*
X010681Y017242D03*
X009539Y017242D03*
X009539Y018681D03*
X010681Y018681D03*
D29*
X010680Y018678D03*
X009540Y018678D03*
X009540Y017245D03*
D30*
X010681Y017245D03*
D31*
X010680Y017248D03*
X009540Y017248D03*
X009540Y018675D03*
X010680Y018675D03*
D32*
X010680Y017251D03*
X009540Y017251D03*
D33*
X009542Y017254D03*
X010678Y017254D03*
X010678Y018668D03*
X009542Y018668D03*
D34*
X010678Y018665D03*
X010678Y017258D03*
X009542Y017258D03*
D35*
X009543Y017261D03*
X010677Y017261D03*
X010677Y018662D03*
X009543Y018662D03*
D36*
X010677Y018659D03*
X010677Y017264D03*
X009543Y017264D03*
D37*
X009545Y017267D03*
X009545Y018656D03*
X010675Y018656D03*
D38*
X010677Y017267D03*
D39*
X010675Y017271D03*
X009545Y017271D03*
X010675Y018652D03*
D40*
X010673Y018649D03*
X009547Y018649D03*
X009547Y017274D03*
D41*
X010675Y017274D03*
D42*
X010673Y017277D03*
X009547Y017277D03*
X009547Y018646D03*
X010673Y018646D03*
D43*
X010672Y018643D03*
X009548Y018643D03*
X009548Y017280D03*
D44*
X010673Y017280D03*
D45*
X010672Y017284D03*
X009548Y017284D03*
X009548Y018639D03*
X010672Y018639D03*
D46*
X010691Y018727D03*
X009529Y018727D03*
X009826Y017284D03*
X010394Y017284D03*
D47*
X010672Y017287D03*
X009548Y017287D03*
D48*
X009824Y017287D03*
X010396Y017287D03*
D49*
X010670Y017290D03*
X009550Y017290D03*
X009550Y018633D03*
X010670Y018633D03*
D50*
X010670Y018630D03*
X010670Y017293D03*
X009550Y017293D03*
D51*
X010400Y017293D03*
D52*
X010668Y017296D03*
X009551Y017296D03*
X009551Y018626D03*
X010668Y018626D03*
D53*
X010668Y018623D03*
X010110Y018907D03*
X010110Y018911D03*
X010668Y017300D03*
X009551Y017300D03*
D54*
X010405Y017300D03*
D55*
X009553Y017303D03*
X009553Y018620D03*
X010112Y018888D03*
X010667Y018620D03*
D56*
X010110Y018891D03*
X010110Y018894D03*
X010110Y018898D03*
X010110Y018901D03*
X010668Y017303D03*
D57*
X010667Y017306D03*
X009553Y017306D03*
X010667Y018617D03*
X010112Y018869D03*
D58*
X010410Y017306D03*
D59*
X009555Y017309D03*
X009555Y018614D03*
X010110Y018840D03*
X010110Y018843D03*
X010110Y018846D03*
X010110Y018849D03*
X010665Y018614D03*
D60*
X010112Y018852D03*
X010667Y017309D03*
D61*
X010665Y017313D03*
X009555Y017313D03*
X009555Y018610D03*
X010110Y018820D03*
X010110Y018823D03*
X010110Y018827D03*
X010110Y018830D03*
X010665Y018610D03*
D62*
X010415Y017313D03*
X009805Y017313D03*
D63*
X009556Y017316D03*
X009556Y018607D03*
X010112Y018801D03*
X010664Y018607D03*
D64*
X009805Y017316D03*
D65*
X010665Y017316D03*
X010110Y018804D03*
X010110Y018807D03*
X010110Y018811D03*
X010110Y018814D03*
D66*
X010112Y018785D03*
X010112Y018781D03*
X010664Y018604D03*
X009556Y018604D03*
X009556Y017319D03*
X010664Y017319D03*
D67*
X009802Y017319D03*
X009537Y018694D03*
D68*
X010112Y018765D03*
X010664Y017322D03*
X009556Y017322D03*
D69*
X009800Y017322D03*
D70*
X009558Y017325D03*
X010662Y017325D03*
X010662Y018597D03*
X010110Y018733D03*
X010110Y018736D03*
X010110Y018739D03*
X010110Y018743D03*
X010110Y018746D03*
X009558Y018597D03*
D71*
X009797Y017325D03*
X010423Y017325D03*
D72*
X010599Y017329D03*
X009621Y017329D03*
D73*
X009621Y017332D03*
X010599Y017332D03*
D74*
X010601Y017335D03*
X009619Y017335D03*
X010110Y018633D03*
D75*
X010501Y017587D03*
X010501Y017584D03*
X010504Y017581D03*
X010504Y017577D03*
X009719Y017581D03*
X009719Y017584D03*
X009716Y017577D03*
X009713Y017571D03*
X009619Y017338D03*
D76*
X010602Y017338D03*
D77*
X010602Y017342D03*
X010512Y017564D03*
X010509Y017568D03*
X010509Y017571D03*
X010505Y017574D03*
X010499Y017590D03*
X009721Y017590D03*
X009721Y017587D03*
X009721Y017593D03*
X009714Y017574D03*
X009711Y017568D03*
X009618Y017342D03*
D78*
X009616Y017345D03*
X009703Y017555D03*
X009706Y017558D03*
X009706Y017561D03*
X009710Y017564D03*
X010501Y017593D03*
X010513Y017561D03*
X010513Y017558D03*
X010517Y017555D03*
X010604Y017345D03*
D79*
X010604Y017348D03*
X010533Y017526D03*
X010530Y017532D03*
X010526Y017535D03*
X010526Y017539D03*
X010501Y017603D03*
X009723Y017603D03*
X009697Y017542D03*
X009693Y017535D03*
X009690Y017532D03*
X009690Y017529D03*
X009616Y017348D03*
X010110Y018630D03*
D80*
X009721Y017610D03*
X009721Y017606D03*
X009689Y017526D03*
X009685Y017522D03*
X009685Y017519D03*
X009682Y017516D03*
X009614Y017351D03*
X010499Y017606D03*
X010531Y017529D03*
X010534Y017522D03*
X010538Y017516D03*
X010605Y017351D03*
D81*
X010551Y017493D03*
X010547Y017500D03*
X010544Y017503D03*
X010499Y017613D03*
X010499Y017616D03*
X009721Y017616D03*
X009721Y017613D03*
X009679Y017509D03*
X009676Y017503D03*
X009672Y017500D03*
X009672Y017497D03*
X009614Y017355D03*
D82*
X009677Y017506D03*
X009681Y017513D03*
X010501Y017610D03*
X010536Y017519D03*
X010539Y017513D03*
X010543Y017509D03*
X010543Y017506D03*
X010607Y017355D03*
D83*
X010607Y017358D03*
X010555Y017484D03*
X010555Y017487D03*
X010552Y017490D03*
X010549Y017497D03*
X010501Y017619D03*
X009723Y017619D03*
X009671Y017493D03*
X009668Y017490D03*
X009668Y017487D03*
X009664Y017484D03*
X009661Y017477D03*
X009613Y017358D03*
X010110Y018626D03*
D84*
X010552Y018149D03*
X010555Y018145D03*
X010501Y017626D03*
X010565Y017468D03*
X010565Y017464D03*
X010568Y017461D03*
X010572Y017455D03*
X009658Y017471D03*
X009655Y017464D03*
X009652Y017461D03*
X009652Y017458D03*
X009613Y017361D03*
X009661Y017777D03*
X009658Y017781D03*
X009661Y018142D03*
X009664Y018145D03*
X009668Y018149D03*
D85*
X009721Y017626D03*
X009721Y017622D03*
X009663Y017480D03*
X009660Y017474D03*
X009656Y017468D03*
X010499Y017622D03*
X010557Y017480D03*
X010560Y017477D03*
X010560Y017474D03*
X010564Y017471D03*
X010609Y017361D03*
D86*
X010609Y017364D03*
X010576Y017445D03*
X010576Y017448D03*
X010573Y017451D03*
X010570Y017458D03*
X010499Y017629D03*
X010499Y017632D03*
X010557Y017774D03*
X010560Y017777D03*
X010564Y017781D03*
X010567Y017784D03*
X010560Y018142D03*
X010551Y018152D03*
X010547Y018155D03*
X009721Y017632D03*
X009721Y017629D03*
X009666Y017771D03*
X009663Y017774D03*
X009650Y017455D03*
X009647Y017451D03*
X009643Y017445D03*
X009611Y017364D03*
X009669Y018152D03*
X009672Y018155D03*
D87*
X009674Y018158D03*
X009677Y018162D03*
X009655Y017784D03*
X009668Y017768D03*
X009723Y017635D03*
X009645Y017448D03*
X009642Y017442D03*
X009639Y017438D03*
X009639Y017435D03*
X009610Y017367D03*
X010501Y017635D03*
X010552Y017768D03*
X010555Y017771D03*
X010578Y017442D03*
X010581Y017438D03*
X010585Y017432D03*
X010610Y017367D03*
X010546Y018158D03*
D88*
X010539Y018168D03*
X010110Y018623D03*
X009684Y018168D03*
X009681Y018165D03*
X009674Y017761D03*
X009723Y017642D03*
X009629Y017419D03*
X009629Y017416D03*
X009626Y017413D03*
X009622Y017406D03*
X009610Y017374D03*
X009610Y017371D03*
X010501Y017642D03*
X010588Y017426D03*
X010591Y017419D03*
X010594Y017416D03*
X010594Y017413D03*
X010610Y017371D03*
D89*
X010612Y017374D03*
X010612Y017377D03*
X010605Y017393D03*
X010602Y017400D03*
X010599Y017403D03*
X010599Y017406D03*
X010596Y017409D03*
X010499Y017645D03*
X010499Y017648D03*
X010544Y017758D03*
X010576Y017787D03*
X010534Y018171D03*
X009685Y018171D03*
X009676Y017758D03*
X009679Y017755D03*
X009721Y017648D03*
X009721Y017645D03*
X009624Y017409D03*
X009621Y017403D03*
D90*
X009619Y017400D03*
X009616Y017396D03*
X009616Y017393D03*
X009613Y017390D03*
X009613Y017387D03*
X009610Y017384D03*
X009610Y017380D03*
X009610Y017377D03*
X009723Y017652D03*
X009681Y017752D03*
X009645Y017787D03*
X009687Y018175D03*
X010533Y018175D03*
X010543Y017755D03*
X010539Y017752D03*
X010604Y017396D03*
X010607Y017390D03*
X010610Y017384D03*
X010610Y017380D03*
D91*
X010609Y017387D03*
X010499Y017652D03*
X010499Y017655D03*
X010538Y017748D03*
X010528Y018178D03*
X009692Y018178D03*
X009643Y018136D03*
X009685Y017748D03*
X009721Y017655D03*
D92*
X009721Y017639D03*
X009672Y017765D03*
X009637Y017432D03*
X009634Y017429D03*
X009634Y017426D03*
X009631Y017422D03*
X010499Y017639D03*
X010547Y017761D03*
X010551Y017765D03*
X010583Y017435D03*
X010586Y017429D03*
X010589Y017422D03*
X010567Y018139D03*
X010544Y018162D03*
X010541Y018165D03*
X009653Y018139D03*
D93*
X009721Y017600D03*
X009721Y017597D03*
X009702Y017551D03*
X009702Y017548D03*
X009698Y017545D03*
X009695Y017539D03*
X010499Y017597D03*
X010499Y017600D03*
X010518Y017551D03*
X010522Y017548D03*
X010522Y017545D03*
X010525Y017542D03*
D94*
X010501Y017658D03*
X010533Y017745D03*
X010578Y018136D03*
X010526Y018181D03*
X010110Y018620D03*
X009693Y018181D03*
X009687Y017745D03*
X009723Y017658D03*
D95*
X009721Y017661D03*
X009721Y017664D03*
X009689Y017742D03*
X009698Y018184D03*
X010531Y017742D03*
X010499Y017664D03*
X010499Y017661D03*
D96*
X009723Y017668D03*
X009693Y017739D03*
X009700Y018187D03*
X010520Y018187D03*
X010523Y018184D03*
D97*
X010586Y017790D03*
X010528Y017739D03*
X010525Y017735D03*
X010499Y017671D03*
X010499Y017668D03*
X009721Y017671D03*
X009698Y017732D03*
X009695Y017735D03*
X009634Y017790D03*
X009705Y018191D03*
D98*
X009632Y018133D03*
X009723Y017674D03*
X010501Y017674D03*
X010523Y017732D03*
X010588Y018133D03*
X010517Y018191D03*
D99*
X010512Y018194D03*
X010518Y017729D03*
X010499Y017681D03*
X010499Y017677D03*
X009721Y017677D03*
X009702Y017729D03*
X009708Y018194D03*
X010112Y018617D03*
D100*
X010517Y017726D03*
X009723Y017684D03*
X009723Y017681D03*
X009703Y017726D03*
D101*
X009708Y017723D03*
X009721Y017687D03*
X009624Y017794D03*
X009711Y018197D03*
X010509Y018197D03*
X010596Y017794D03*
X010499Y017687D03*
X010499Y017684D03*
D102*
X010510Y017719D03*
X010513Y017723D03*
X010597Y018129D03*
X010504Y018200D03*
X009716Y018200D03*
X009622Y018129D03*
X009723Y017690D03*
D103*
X009721Y017694D03*
X009714Y017716D03*
X009711Y017719D03*
X010499Y017697D03*
X010499Y017694D03*
X010499Y017690D03*
D104*
X010504Y017713D03*
X010507Y017716D03*
X010501Y018204D03*
X010110Y018614D03*
X009719Y018204D03*
X009723Y017700D03*
X009723Y017697D03*
D105*
X009721Y017703D03*
X009721Y017706D03*
X009718Y017710D03*
X009718Y017713D03*
X009614Y017797D03*
X009724Y018207D03*
X010502Y017710D03*
X010502Y017706D03*
X010499Y017703D03*
X010499Y017700D03*
D106*
X010607Y017797D03*
X010497Y018207D03*
D107*
X010617Y017800D03*
X009735Y018213D03*
X009603Y017800D03*
D108*
X009595Y017803D03*
D109*
X010110Y018607D03*
X010626Y017803D03*
D110*
X009585Y017806D03*
D111*
X010636Y017806D03*
D112*
X010646Y017810D03*
X010110Y018601D03*
X009574Y017810D03*
D113*
X009566Y017813D03*
D114*
X010110Y018597D03*
X010656Y017813D03*
D115*
X010665Y017816D03*
X010110Y018594D03*
X009555Y017816D03*
D116*
X009545Y017819D03*
X010110Y018591D03*
X010675Y017819D03*
D117*
X010686Y017823D03*
X010718Y017900D03*
X010718Y017903D03*
X010718Y017907D03*
X010718Y017910D03*
X010718Y017913D03*
X010718Y018007D03*
X010718Y018010D03*
X010718Y018013D03*
X010718Y018016D03*
X010718Y018020D03*
X010112Y018588D03*
X009501Y018016D03*
X009501Y018013D03*
X009501Y018010D03*
X009501Y018007D03*
X009501Y018003D03*
X009501Y017916D03*
X009501Y017913D03*
X009501Y017910D03*
X009501Y017907D03*
X009501Y017903D03*
X009537Y017823D03*
D118*
X009526Y017826D03*
X009509Y017855D03*
X009509Y017858D03*
X009509Y017861D03*
X009509Y018062D03*
X009509Y018065D03*
X010110Y018585D03*
X010710Y018068D03*
X010710Y018065D03*
X010710Y018062D03*
X010710Y017858D03*
X010710Y017855D03*
X010694Y017826D03*
D119*
X010701Y017829D03*
X010707Y017842D03*
X010707Y017845D03*
X010707Y018078D03*
X010707Y018081D03*
X009513Y018078D03*
X009513Y018074D03*
X009513Y017845D03*
X009513Y017842D03*
X009519Y017829D03*
D120*
X009518Y017832D03*
X009514Y017836D03*
X009514Y017839D03*
X009514Y018081D03*
X009514Y018084D03*
X009518Y018091D03*
X009521Y018094D03*
X010702Y018091D03*
X010706Y018087D03*
X010706Y018084D03*
X010706Y017839D03*
X010706Y017836D03*
X010702Y017832D03*
D121*
X010709Y017848D03*
X010709Y017852D03*
X010709Y018071D03*
X010709Y018074D03*
X010696Y018097D03*
X009524Y018097D03*
X009511Y018071D03*
X009511Y018068D03*
X009511Y017852D03*
X009511Y017848D03*
D122*
X009508Y017865D03*
X009508Y017868D03*
X009508Y018052D03*
X009508Y018055D03*
X009508Y018058D03*
X010712Y018058D03*
X010712Y018055D03*
X010712Y017865D03*
X010712Y017861D03*
D123*
X010714Y017868D03*
X010714Y017871D03*
X010714Y017874D03*
X010714Y018045D03*
X010714Y018049D03*
X010714Y018052D03*
X009506Y018049D03*
X009506Y018045D03*
X009506Y018042D03*
X009506Y017878D03*
X009506Y017874D03*
X009506Y017871D03*
D124*
X009505Y017881D03*
X009505Y017884D03*
X009505Y017887D03*
X009505Y018032D03*
X009505Y018036D03*
X009505Y018039D03*
X009534Y018100D03*
X010686Y018100D03*
X010715Y018042D03*
X010715Y018039D03*
X010715Y018036D03*
X010715Y017884D03*
X010715Y017881D03*
X010715Y017878D03*
D125*
X010717Y017887D03*
X010717Y017890D03*
X010717Y017894D03*
X010717Y017897D03*
X010717Y018023D03*
X010717Y018026D03*
X010717Y018029D03*
X010717Y018032D03*
X009503Y018029D03*
X009503Y018026D03*
X009503Y018023D03*
X009503Y018020D03*
X009503Y017900D03*
X009503Y017897D03*
X009503Y017894D03*
X009503Y017890D03*
D126*
X009500Y017919D03*
X009500Y017923D03*
X009500Y017926D03*
X009500Y017929D03*
X009500Y017932D03*
X009500Y017936D03*
X009500Y017939D03*
X009500Y017942D03*
X009500Y017945D03*
X009500Y017949D03*
X009500Y017971D03*
X009500Y017974D03*
X009500Y017978D03*
X009500Y017981D03*
X009500Y017984D03*
X009500Y017987D03*
X009500Y017991D03*
X009500Y017994D03*
X009500Y017997D03*
X009500Y018000D03*
X010720Y018000D03*
X010720Y017997D03*
X010720Y017994D03*
X010720Y017991D03*
X010720Y017987D03*
X010720Y017984D03*
X010720Y018003D03*
X010720Y017936D03*
X010720Y017932D03*
X010720Y017929D03*
X010720Y017926D03*
X010720Y017923D03*
X010720Y017919D03*
X010720Y017916D03*
D127*
X010722Y017939D03*
X010722Y017942D03*
X010722Y017945D03*
X010722Y017949D03*
X010722Y017952D03*
X010722Y017955D03*
X010722Y017958D03*
X010722Y017961D03*
X010722Y017965D03*
X010722Y017968D03*
X010722Y017971D03*
X010722Y017974D03*
X010722Y017978D03*
X010722Y017981D03*
X009498Y017968D03*
X009498Y017965D03*
X009498Y017961D03*
X009498Y017958D03*
X009498Y017955D03*
X009498Y017952D03*
D128*
X009516Y018087D03*
X010701Y018094D03*
D129*
X009545Y018104D03*
D130*
X010677Y018104D03*
D131*
X010667Y018107D03*
X009553Y018107D03*
D132*
X009564Y018110D03*
D133*
X010657Y018110D03*
D134*
X009574Y018113D03*
D135*
X010647Y018113D03*
D136*
X010638Y018116D03*
X009582Y018116D03*
D137*
X009593Y018120D03*
D138*
X009747Y018220D03*
X010473Y018220D03*
X010628Y018120D03*
D139*
X010617Y018123D03*
X009603Y018123D03*
D140*
X009613Y018126D03*
X009729Y018210D03*
X010491Y018210D03*
D141*
X010609Y018126D03*
D142*
X010486Y018213D03*
D143*
X010480Y018216D03*
X009740Y018216D03*
D144*
X009758Y018223D03*
X010462Y018223D03*
D145*
X010110Y018226D03*
X010110Y018391D03*
X010110Y018394D03*
D146*
X010112Y018229D03*
D147*
X010110Y018233D03*
X010110Y018388D03*
D148*
X010112Y018236D03*
D149*
X010110Y018239D03*
X010110Y018242D03*
X010110Y018384D03*
D150*
X010110Y018378D03*
X010110Y018249D03*
X010110Y018246D03*
D151*
X010112Y018252D03*
D152*
X010110Y018255D03*
X010110Y018375D03*
D153*
X010112Y018371D03*
X010112Y018258D03*
D154*
X010110Y018262D03*
X010110Y018265D03*
X010110Y018368D03*
D155*
X010110Y018365D03*
X010110Y018271D03*
X010110Y018268D03*
D156*
X010112Y018275D03*
X010112Y018362D03*
D157*
X010110Y018359D03*
X010110Y018278D03*
D158*
X010112Y018281D03*
D159*
X010110Y018284D03*
X010110Y018288D03*
X010110Y018355D03*
D160*
X010110Y018349D03*
X010110Y018294D03*
X010110Y018291D03*
D161*
X010112Y018297D03*
D162*
X010110Y018300D03*
X010110Y018346D03*
D163*
X010112Y018342D03*
X010112Y018304D03*
D164*
X010110Y018307D03*
X010110Y018310D03*
X010110Y018339D03*
D165*
X010110Y018336D03*
X010110Y018317D03*
X010110Y018313D03*
D166*
X010112Y018320D03*
X010112Y018333D03*
D167*
X010110Y018329D03*
X010110Y018326D03*
X010110Y018323D03*
D168*
X010112Y018352D03*
D169*
X010112Y018381D03*
D170*
X010110Y018397D03*
D171*
X010110Y018401D03*
D172*
X010112Y018404D03*
D173*
X010110Y018407D03*
D174*
X010110Y018410D03*
D175*
X010112Y018413D03*
D176*
X010110Y018417D03*
D177*
X010110Y018420D03*
D178*
X010112Y018423D03*
D179*
X010110Y018426D03*
D180*
X010110Y018430D03*
D181*
X010112Y018433D03*
D182*
X010110Y018436D03*
D183*
X010110Y018439D03*
D184*
X010110Y018442D03*
X010110Y018446D03*
D185*
X010110Y018449D03*
D186*
X010110Y018452D03*
D187*
X010112Y018455D03*
D188*
X010110Y018459D03*
D189*
X010110Y018462D03*
D190*
X010112Y018465D03*
D191*
X010110Y018468D03*
D192*
X010110Y018472D03*
D193*
X010112Y018475D03*
D194*
X010110Y018478D03*
D195*
X010110Y018481D03*
D196*
X010112Y018484D03*
D197*
X010110Y018488D03*
D198*
X010110Y018491D03*
X010110Y018581D03*
D199*
X010110Y018578D03*
X010110Y018497D03*
X010110Y018494D03*
D200*
X010110Y018501D03*
X010110Y018575D03*
D201*
X010110Y018572D03*
X010110Y018504D03*
D202*
X010112Y018507D03*
D203*
X010110Y018510D03*
X010110Y018568D03*
D204*
X010110Y018565D03*
X010110Y018514D03*
D205*
X010112Y018517D03*
D206*
X010110Y018520D03*
X010110Y018562D03*
D207*
X010110Y018559D03*
X010110Y018523D03*
D208*
X010112Y018526D03*
D209*
X010110Y018530D03*
X010110Y018555D03*
D210*
X010110Y018552D03*
X010110Y018533D03*
D211*
X010112Y018536D03*
X010112Y018549D03*
D212*
X010110Y018546D03*
X010110Y018543D03*
X010110Y018539D03*
D213*
X009563Y018585D03*
D214*
X010110Y018659D03*
X010110Y018662D03*
X010659Y018585D03*
D215*
X010110Y018665D03*
X010110Y018668D03*
X010110Y018672D03*
X010110Y018675D03*
X009561Y018588D03*
D216*
X010112Y018678D03*
X010660Y018588D03*
D217*
X010660Y018591D03*
X010112Y018694D03*
X010112Y018698D03*
X009560Y018591D03*
D218*
X009560Y018594D03*
X010112Y018714D03*
D219*
X010110Y018717D03*
X010110Y018720D03*
X010110Y018723D03*
X010110Y018727D03*
X010662Y018594D03*
D220*
X010662Y018601D03*
X010110Y018752D03*
X010110Y018756D03*
X010110Y018759D03*
X010110Y018762D03*
X009558Y018601D03*
D221*
X010110Y018604D03*
D222*
X010112Y018610D03*
D223*
X010110Y018856D03*
X010110Y018859D03*
X010110Y018862D03*
X010110Y018865D03*
X009555Y018617D03*
D224*
X009553Y018623D03*
X010112Y018904D03*
D225*
X010110Y018917D03*
X009551Y018630D03*
D226*
X009550Y018636D03*
X010670Y018636D03*
D227*
X010110Y018636D03*
D228*
X010112Y018639D03*
D229*
X010110Y018643D03*
D230*
X010112Y018646D03*
D231*
X010110Y018649D03*
D232*
X009547Y018652D03*
D233*
X010110Y018652D03*
D234*
X010110Y018656D03*
D235*
X009545Y018659D03*
D236*
X009543Y018665D03*
D237*
X009542Y018672D03*
X010678Y018672D03*
D238*
X010110Y018681D03*
X010110Y018685D03*
X010110Y018688D03*
X010110Y018691D03*
D239*
X009535Y018701D03*
D240*
X010110Y018701D03*
X010110Y018704D03*
X010110Y018707D03*
X010110Y018710D03*
D241*
X009534Y018707D03*
D242*
X009532Y018714D03*
X010688Y018714D03*
D243*
X010112Y018730D03*
D244*
X010112Y018749D03*
D245*
X010110Y018769D03*
X010110Y018772D03*
X010110Y018775D03*
X010110Y018778D03*
D246*
X010110Y018788D03*
X010110Y018791D03*
X010110Y018794D03*
X010110Y018798D03*
D247*
X010112Y018817D03*
D248*
X010112Y018833D03*
X010112Y018836D03*
D249*
X010110Y018872D03*
X010110Y018875D03*
X010110Y018878D03*
X010110Y018882D03*
X010110Y018885D03*
D250*
X010112Y018914D03*
D251*
X020164Y010380D02*
X020164Y009730D01*
X020164Y009680D01*
X020014Y009830D01*
X020314Y009830D01*
X020164Y009680D01*
X020164Y009730D02*
X020064Y009830D01*
X020264Y009830D01*
X020164Y009730D01*
X020214Y006680D02*
X020364Y006530D01*
X020064Y006530D01*
X020214Y006680D01*
X020214Y006630D01*
X020314Y006530D01*
X020114Y006530D01*
X020214Y006630D01*
X020214Y005980D01*
X024364Y006730D02*
X024664Y006730D01*
X024514Y006880D01*
X024364Y006730D01*
X024414Y006730D02*
X024614Y006730D01*
X024514Y006830D01*
X024514Y006880D01*
X024514Y006830D02*
X024414Y006730D01*
X024514Y006830D02*
X024514Y006180D01*
D252*
X022665Y003310D03*
X022894Y002295D03*
X021522Y001652D03*
X021250Y001638D03*
X021136Y002595D03*
X020564Y002495D03*
X020221Y001709D03*
X019993Y001223D03*
X019821Y001309D03*
X019592Y001295D03*
X019592Y001152D03*
X019478Y001009D03*
X019421Y000952D03*
X019421Y001309D03*
X019650Y001609D03*
X019592Y001723D03*
X017892Y000709D03*
X017892Y000694D03*
X017463Y000580D03*
X018178Y003481D03*
X022551Y000937D03*
D253*
X022165Y002338D03*
X022922Y002609D03*
X022922Y002738D03*
X021050Y002467D03*
X020979Y002581D03*
X020907Y002709D03*
X020864Y002781D03*
X020407Y002795D03*
X020407Y002810D03*
X020636Y001652D03*
X020636Y001609D03*
X020679Y001323D03*
X020679Y001309D03*
X020250Y001309D03*
X019507Y001352D03*
X017463Y000609D03*
X017463Y000594D03*
X020822Y003881D03*
D254*
X020979Y003696D03*
X020979Y003681D03*
X020979Y003667D03*
X020979Y003653D03*
X020979Y003638D03*
X020979Y003624D03*
X020979Y003610D03*
X020979Y003596D03*
X020979Y003581D03*
X020979Y003567D03*
X020979Y003553D03*
X020221Y003724D03*
X019621Y003724D03*
X019621Y003738D03*
X019621Y003753D03*
X019621Y003767D03*
X019621Y003624D03*
X019621Y003610D03*
X019621Y003596D03*
X019621Y003581D03*
X018478Y004024D03*
X018478Y004039D03*
X018478Y004053D03*
X018178Y003839D03*
X017806Y002881D03*
X017720Y002638D03*
X017463Y000637D03*
X017463Y000623D03*
X020679Y002295D03*
X020679Y002309D03*
X021050Y002481D03*
X021050Y002495D03*
X022394Y003310D03*
X022394Y003324D03*
X022394Y003338D03*
X022394Y003353D03*
X022394Y003367D03*
X022394Y003381D03*
X022394Y003395D03*
X022394Y003410D03*
X022394Y003424D03*
X022394Y003438D03*
X022394Y003453D03*
X022394Y003467D03*
X022394Y003481D03*
X022394Y003496D03*
X022394Y003510D03*
X022394Y003524D03*
X022394Y003538D03*
X022394Y003553D03*
X022394Y003567D03*
X022394Y003581D03*
X022394Y003596D03*
X022394Y003610D03*
X022394Y003624D03*
X022394Y003638D03*
X022394Y003653D03*
X022394Y003667D03*
X022394Y003681D03*
X022394Y003696D03*
X022394Y003710D03*
X022851Y001152D03*
X017406Y004567D03*
D255*
X018128Y003910D03*
X018142Y003896D03*
X018156Y003881D03*
X018170Y003853D03*
X018442Y003653D03*
X018442Y003638D03*
X018614Y003195D03*
X018128Y002867D03*
X017713Y002652D03*
X017699Y002667D03*
X017727Y002624D03*
X017742Y002609D03*
X017742Y002595D03*
X017742Y002581D03*
X017756Y002567D03*
X017756Y002552D03*
X017356Y002938D03*
X017727Y003553D03*
X017727Y003567D03*
X017727Y003581D03*
X017727Y003596D03*
X017727Y003610D03*
X017727Y003624D03*
X018671Y002595D03*
X018699Y002567D03*
X018756Y002481D03*
X018756Y002467D03*
X019614Y003553D03*
X019614Y003567D03*
X019614Y003781D03*
X019614Y003796D03*
X019871Y004067D03*
X020214Y003710D03*
X020014Y003553D03*
X020400Y003424D03*
X021014Y003796D03*
X020814Y003896D03*
X021386Y003781D03*
X021386Y003581D03*
X022415Y003996D03*
X022415Y004010D03*
X022415Y004024D03*
X022415Y004039D03*
X022844Y003667D03*
X022958Y002581D03*
X020671Y002338D03*
X020671Y002324D03*
X017870Y000794D03*
X017456Y000666D03*
X017456Y000652D03*
X017356Y001438D03*
D256*
X017870Y000823D03*
X017456Y000694D03*
X017456Y000680D03*
X018656Y001095D03*
X018656Y001109D03*
X019500Y001338D03*
X019485Y001795D03*
X019485Y002024D03*
X018771Y002409D03*
X018771Y002424D03*
X018771Y002438D03*
X018142Y002881D03*
X017785Y002895D03*
X017656Y002724D03*
X017670Y002709D03*
X017770Y002495D03*
X017770Y002481D03*
X017770Y002467D03*
X016970Y003267D03*
X017527Y003496D03*
X017527Y003510D03*
X017527Y003524D03*
X017513Y003610D03*
X017499Y003710D03*
X017727Y003681D03*
X017742Y003496D03*
X017742Y003481D03*
X017785Y003881D03*
X017799Y003896D03*
X017813Y003910D03*
X017413Y004324D03*
X017413Y004339D03*
X017413Y004353D03*
X017399Y004439D03*
X017399Y004453D03*
X017399Y004467D03*
X017399Y004482D03*
X017399Y004496D03*
X017384Y004539D03*
X017384Y004553D03*
X016870Y004496D03*
X016870Y004482D03*
X018471Y003839D03*
X018471Y003824D03*
X018485Y003853D03*
X019099Y003853D03*
X019099Y003867D03*
X019099Y003881D03*
X019099Y003896D03*
X019099Y003839D03*
X019585Y003510D03*
X019400Y003353D03*
X019900Y003810D03*
X019900Y003824D03*
X021029Y003824D03*
X022787Y003510D03*
X022787Y003496D03*
X022801Y003538D03*
X022801Y003553D03*
X022987Y003853D03*
X022987Y003867D03*
X023001Y003881D03*
X023015Y003910D03*
X023030Y003939D03*
X023058Y003996D03*
X023072Y004010D03*
X023087Y004039D03*
D257*
X023180Y004096D03*
X021350Y001952D03*
X022608Y001052D03*
X019764Y001209D03*
X017892Y000680D03*
D258*
X017449Y000709D03*
X018778Y002395D03*
X018606Y002638D03*
X017763Y003438D03*
X017763Y003453D03*
X017506Y003624D03*
X017506Y003638D03*
X017506Y003653D03*
X017506Y003667D03*
X017506Y003681D03*
X017506Y003696D03*
X017477Y003810D03*
X017477Y003824D03*
X017477Y003839D03*
X017477Y003853D03*
X017477Y003867D03*
X017477Y003881D03*
X017420Y004224D03*
X017420Y004239D03*
X017420Y004253D03*
X017420Y004267D03*
X017420Y004282D03*
X017420Y004296D03*
X017420Y004310D03*
X017392Y004510D03*
X017392Y004524D03*
X017992Y003996D03*
X018492Y003867D03*
X019578Y003824D03*
X019864Y004282D03*
X019864Y004296D03*
X019864Y004310D03*
X021322Y003481D03*
X023037Y003953D03*
X023051Y003981D03*
X023037Y002538D03*
D259*
X023058Y002524D03*
X022744Y003367D03*
X023058Y003638D03*
X023087Y003610D03*
X022744Y003839D03*
X022715Y003867D03*
X022701Y003881D03*
X022101Y003696D03*
X022101Y003681D03*
X022058Y003481D03*
X022058Y003467D03*
X022058Y003453D03*
X022029Y003353D03*
X022029Y003338D03*
X022029Y003324D03*
X021643Y003767D03*
X021329Y003839D03*
X019928Y003696D03*
X019557Y003496D03*
X018728Y004067D03*
X018499Y003881D03*
X018099Y003924D03*
X017470Y003896D03*
X016970Y003796D03*
X016970Y003781D03*
X016970Y003767D03*
X016970Y003753D03*
X016970Y003738D03*
X016970Y003724D03*
X016970Y003710D03*
X016984Y003681D03*
X016984Y003667D03*
X016984Y003653D03*
X016984Y003638D03*
X016984Y003624D03*
X016984Y003610D03*
X016999Y003581D03*
X016999Y003567D03*
X016999Y003553D03*
X016999Y003538D03*
X016999Y003524D03*
X016999Y003510D03*
X016999Y003496D03*
X017013Y003467D03*
X017013Y003453D03*
X017013Y003438D03*
X016956Y003824D03*
X016956Y003839D03*
X016956Y003853D03*
X016956Y003867D03*
X016956Y003881D03*
X016956Y003896D03*
X016956Y003910D03*
X016927Y004110D03*
X016927Y004124D03*
X016913Y004167D03*
X016913Y004181D03*
X016913Y004196D03*
X016913Y004210D03*
X016899Y004282D03*
X017770Y003424D03*
X017785Y003410D03*
X019500Y001323D03*
X017856Y000866D03*
X017856Y000852D03*
X017456Y000723D03*
X021715Y000923D03*
D260*
X021472Y001209D03*
X020686Y001338D03*
X019985Y001209D03*
X019885Y001352D03*
X019528Y001066D03*
X019500Y001037D03*
X019814Y000937D03*
X019885Y000894D03*
X018671Y000952D03*
X018671Y000966D03*
X018299Y000852D03*
X018299Y000837D03*
X017885Y000723D03*
X017113Y001052D03*
X019585Y001838D03*
X020571Y002481D03*
X020557Y002509D03*
X020914Y002695D03*
X020900Y002724D03*
X020929Y002667D03*
X020972Y002595D03*
X021129Y002581D03*
X021143Y002609D03*
X021157Y002638D03*
X021200Y002709D03*
X021200Y002724D03*
X021243Y002795D03*
X021257Y002810D03*
X020857Y002795D03*
X021886Y002738D03*
X021886Y002724D03*
X021886Y002709D03*
X021886Y002695D03*
X021886Y002681D03*
X021886Y002667D03*
X021886Y002652D03*
X021886Y002638D03*
X021886Y002624D03*
X021886Y002609D03*
X021886Y002595D03*
X021886Y002581D03*
X021886Y002567D03*
X021886Y002552D03*
X021886Y002538D03*
X021886Y002524D03*
X021886Y002509D03*
X021886Y002495D03*
X021886Y002481D03*
X021886Y002467D03*
X021886Y002452D03*
X021886Y002438D03*
X021886Y002424D03*
X021886Y002409D03*
X021886Y002395D03*
X021886Y002381D03*
X021886Y002366D03*
X021886Y002352D03*
X021886Y002338D03*
X021886Y002324D03*
X021886Y002309D03*
X022186Y002366D03*
X022201Y002381D03*
X022201Y002395D03*
X022229Y002481D03*
X022229Y002495D03*
X022229Y002509D03*
X022229Y002524D03*
X022229Y002538D03*
X022229Y002552D03*
X022229Y002567D03*
X022229Y002581D03*
X022201Y002667D03*
X022201Y002681D03*
X022186Y002695D03*
X022386Y002695D03*
X022386Y002681D03*
X022386Y002667D03*
X022386Y002652D03*
X022386Y002638D03*
X022386Y002624D03*
X022386Y002609D03*
X022386Y002595D03*
X022386Y002581D03*
X022386Y002567D03*
X022386Y002552D03*
X022386Y002538D03*
X022386Y002524D03*
X022386Y002509D03*
X022386Y002495D03*
X022386Y002481D03*
X022386Y002467D03*
X022386Y002452D03*
X022386Y002438D03*
X022386Y002424D03*
X022386Y002409D03*
X022386Y002395D03*
X022386Y002381D03*
X022386Y002366D03*
X022386Y002352D03*
X022386Y002338D03*
X022386Y002324D03*
X022386Y002309D03*
X022687Y002366D03*
X022729Y002481D03*
X022729Y002495D03*
X022729Y002509D03*
X022729Y002524D03*
X022729Y002538D03*
X022729Y002552D03*
X022729Y002567D03*
X022729Y002581D03*
X022687Y002695D03*
X022915Y002724D03*
X023201Y002409D03*
X023201Y002395D03*
X023201Y002381D03*
X023201Y002366D03*
X023201Y002352D03*
X022386Y002709D03*
X022386Y002724D03*
X022386Y002738D03*
X022086Y003295D03*
X023172Y003438D03*
X021386Y002024D03*
X022415Y000937D03*
X022915Y000937D03*
X022915Y001309D03*
X020214Y003753D03*
X019671Y004067D03*
X018899Y003853D03*
X018499Y004110D03*
X016941Y003295D03*
X017813Y002867D03*
D261*
X018163Y002910D03*
X018578Y003153D03*
X018163Y003395D03*
X017792Y003395D03*
X017849Y003924D03*
X017449Y000752D03*
X017449Y000737D03*
X022665Y003910D03*
X023122Y003567D03*
X023165Y003524D03*
D262*
X022679Y002709D03*
X022908Y002624D03*
X023180Y002438D03*
X023194Y002424D03*
X023180Y002309D03*
X022679Y002352D03*
X021236Y002781D03*
X020964Y002609D03*
X020922Y002681D03*
X020893Y002738D03*
X020850Y002810D03*
X020693Y002252D03*
X020693Y002238D03*
X021265Y001052D03*
X021808Y001123D03*
X022379Y001052D03*
X019778Y001052D03*
X018806Y001466D03*
X017878Y000737D03*
D263*
X017885Y000752D03*
X018671Y000995D03*
X018671Y001009D03*
X019785Y001066D03*
X019986Y001195D03*
X020672Y001295D03*
X020643Y001623D03*
X020643Y001638D03*
X020271Y001638D03*
X020271Y001652D03*
X020686Y002266D03*
X020686Y002281D03*
X020414Y002767D03*
X020414Y002781D03*
X019628Y003638D03*
X019628Y003653D03*
X019628Y003667D03*
X019628Y003681D03*
X019628Y003696D03*
X019628Y003710D03*
X019442Y003981D03*
X018885Y003867D03*
X018485Y004067D03*
X018485Y004081D03*
X018485Y004096D03*
X018628Y003210D03*
X018013Y003238D03*
X018113Y002852D03*
X020214Y003738D03*
X020400Y004067D03*
X021200Y003967D03*
X021400Y003753D03*
X021400Y003738D03*
X021400Y003724D03*
X021400Y003710D03*
X021400Y003696D03*
X021400Y003681D03*
X021400Y003653D03*
X021400Y003638D03*
X021686Y004081D03*
X022401Y003967D03*
X022415Y004053D03*
X022658Y003953D03*
X022386Y003295D03*
X022386Y003267D03*
X022386Y003238D03*
X022158Y002724D03*
X022658Y002724D03*
X022944Y002752D03*
X023172Y002452D03*
X021386Y001981D03*
X021472Y001195D03*
X021700Y000894D03*
X022386Y001066D03*
X022587Y001195D03*
X022815Y000894D03*
D264*
X023080Y002810D03*
X018463Y003081D03*
X017820Y003367D03*
X017906Y001166D03*
X017849Y000909D03*
X017449Y000766D03*
D265*
X017878Y000766D03*
X017878Y000780D03*
X018692Y002581D03*
X018349Y002752D03*
X018163Y003867D03*
X020393Y003996D03*
X020393Y004010D03*
X020393Y004024D03*
X020393Y004039D03*
X020393Y004053D03*
X020664Y004081D03*
X021579Y003410D03*
X022379Y003281D03*
X022379Y003253D03*
X023151Y002467D03*
X023151Y002295D03*
X022151Y002324D03*
X022837Y001352D03*
X020664Y001280D03*
D266*
X018642Y001252D03*
X018642Y001237D03*
X018642Y001223D03*
X018256Y001095D03*
X018256Y001080D03*
X017842Y000937D03*
X017842Y000923D03*
X017442Y000794D03*
X017442Y000780D03*
X017356Y001452D03*
X017356Y002924D03*
X017999Y003253D03*
X018142Y003367D03*
X018442Y003067D03*
X019414Y003367D03*
X020457Y003896D03*
X016984Y003924D03*
D267*
X017985Y003981D03*
X019157Y003767D03*
X019157Y003553D03*
X019157Y003538D03*
X020028Y003581D03*
X021200Y003939D03*
X021986Y002795D03*
X022930Y003710D03*
X019514Y000937D03*
X019514Y000923D03*
X019514Y000909D03*
X018642Y001266D03*
X018642Y001280D03*
X017885Y001152D03*
X017842Y000966D03*
X017842Y000952D03*
X017442Y000823D03*
X017442Y000809D03*
X018356Y002738D03*
X017727Y002938D03*
D268*
X017692Y002681D03*
X017720Y003638D03*
X017720Y003653D03*
X017720Y003667D03*
X017749Y003796D03*
X017749Y003810D03*
X017749Y003824D03*
X017777Y003867D03*
X018449Y003738D03*
X018449Y003724D03*
X018449Y003710D03*
X018449Y003696D03*
X018449Y003681D03*
X018449Y003667D03*
X019592Y003524D03*
X019878Y003996D03*
X019878Y004010D03*
X019878Y004024D03*
X019878Y004039D03*
X019878Y004053D03*
X021022Y003810D03*
X019878Y000909D03*
X017863Y000809D03*
D269*
X018306Y000809D03*
X019993Y000995D03*
X020007Y001052D03*
X020536Y001123D03*
X021250Y001209D03*
X021493Y001052D03*
X021479Y000995D03*
X021650Y001180D03*
X021650Y001195D03*
X021650Y001209D03*
X021650Y001223D03*
X021650Y001237D03*
X021650Y001252D03*
X021650Y001266D03*
X021650Y001280D03*
X021650Y001295D03*
X021336Y001909D03*
X021422Y001966D03*
X020336Y001752D03*
X020321Y001709D03*
X020307Y001666D03*
X022365Y001209D03*
X022594Y000995D03*
X020836Y003853D03*
X020193Y003781D03*
X022408Y003939D03*
X016934Y003410D03*
D270*
X016920Y004510D03*
X018635Y003224D03*
X019550Y002738D03*
X019550Y002724D03*
X019550Y002709D03*
X019550Y002695D03*
X019550Y002681D03*
X019550Y002667D03*
X019550Y002652D03*
X019550Y002638D03*
X019550Y002624D03*
X019550Y002609D03*
X019550Y002595D03*
X019550Y002581D03*
X019550Y002567D03*
X019550Y002552D03*
X019550Y002538D03*
X019550Y002524D03*
X019550Y002509D03*
X019550Y002495D03*
X019550Y002481D03*
X019550Y002467D03*
X019550Y002452D03*
X019550Y002438D03*
X019550Y002424D03*
X019550Y002409D03*
X019550Y002395D03*
X019550Y002381D03*
X019550Y002366D03*
X019550Y002352D03*
X019550Y002338D03*
X019550Y002324D03*
X019550Y002309D03*
X019550Y002295D03*
X019550Y002281D03*
X019550Y002266D03*
X019550Y002252D03*
X019550Y002238D03*
X019607Y001966D03*
X019621Y001952D03*
X019621Y001881D03*
X019607Y001852D03*
X019550Y001781D03*
X019607Y001695D03*
X019621Y001666D03*
X019607Y001252D03*
X019607Y001237D03*
X019607Y001223D03*
X019607Y001209D03*
X019607Y001195D03*
X019564Y001109D03*
X019550Y001095D03*
X019450Y000980D03*
X019435Y000966D03*
X019778Y000995D03*
X019793Y000966D03*
X019950Y000937D03*
X019978Y000966D03*
X019978Y001280D03*
X020164Y001266D03*
X020207Y001752D03*
X020193Y001795D03*
X020178Y001838D03*
X020164Y001881D03*
X020164Y001895D03*
X020150Y001923D03*
X020150Y001938D03*
X020136Y001966D03*
X020136Y001981D03*
X020421Y002009D03*
X020393Y002238D03*
X020393Y002252D03*
X020393Y002266D03*
X020393Y002281D03*
X020393Y002295D03*
X020393Y002309D03*
X020393Y002324D03*
X020393Y002338D03*
X020393Y002352D03*
X020393Y002366D03*
X020393Y002381D03*
X020393Y002395D03*
X020393Y002409D03*
X020393Y002424D03*
X020393Y002438D03*
X020393Y002452D03*
X020393Y002467D03*
X020393Y002481D03*
X020393Y002495D03*
X020393Y002509D03*
X020393Y002524D03*
X020393Y002538D03*
X020393Y002552D03*
X020393Y002567D03*
X020393Y002581D03*
X020393Y002595D03*
X020393Y002609D03*
X020393Y002624D03*
X020393Y002638D03*
X020393Y002652D03*
X020393Y002667D03*
X020393Y002681D03*
X020393Y002695D03*
X020479Y002695D03*
X020479Y002681D03*
X020493Y002652D03*
X020507Y002624D03*
X020507Y002609D03*
X020521Y002595D03*
X020521Y002581D03*
X020536Y002552D03*
X020550Y002524D03*
X020593Y002438D03*
X020593Y002424D03*
X020607Y002395D03*
X020621Y002366D03*
X020621Y002352D03*
X020707Y002352D03*
X020707Y002366D03*
X020707Y002381D03*
X020707Y002395D03*
X020707Y002409D03*
X020707Y002424D03*
X020707Y002438D03*
X020707Y002452D03*
X020707Y002467D03*
X020707Y002481D03*
X020707Y002495D03*
X020707Y002509D03*
X020707Y002524D03*
X020707Y002538D03*
X020707Y002552D03*
X020707Y002567D03*
X020707Y002581D03*
X020707Y002595D03*
X020707Y002609D03*
X020707Y002624D03*
X020707Y002638D03*
X020707Y002652D03*
X020707Y002667D03*
X020707Y002681D03*
X020707Y002695D03*
X020707Y002709D03*
X020707Y002724D03*
X020707Y002738D03*
X020707Y002752D03*
X020707Y002767D03*
X020707Y002781D03*
X020707Y002795D03*
X020707Y002810D03*
X021122Y002567D03*
X021107Y002538D03*
X021050Y002438D03*
X021050Y002424D03*
X021050Y002409D03*
X021050Y002395D03*
X021050Y002381D03*
X021050Y002366D03*
X021050Y002352D03*
X021050Y002338D03*
X021050Y002324D03*
X021050Y002309D03*
X021050Y002295D03*
X021050Y002281D03*
X021050Y002266D03*
X021050Y002252D03*
X021050Y002238D03*
X021236Y001595D03*
X021307Y001309D03*
X021465Y001280D03*
X021479Y001223D03*
X021536Y001609D03*
X021851Y001066D03*
X021851Y001052D03*
X021851Y001037D03*
X021851Y001023D03*
X021808Y000952D03*
X021465Y000966D03*
X021436Y000937D03*
X021279Y000966D03*
X022379Y000995D03*
X022394Y000966D03*
X022579Y000966D03*
X022494Y001137D03*
X022594Y001223D03*
X022579Y001280D03*
X022422Y001309D03*
X022908Y001166D03*
X022922Y001180D03*
X022937Y001295D03*
X022965Y001009D03*
X022937Y000952D03*
X023194Y002338D03*
X022722Y002452D03*
X022722Y002467D03*
X022722Y002595D03*
X022722Y002609D03*
X022222Y002609D03*
X022222Y002595D03*
X022222Y002467D03*
X022222Y002452D03*
X020050Y002452D03*
X020050Y002438D03*
X020050Y002424D03*
X020050Y002409D03*
X020050Y002395D03*
X020050Y002381D03*
X020050Y002366D03*
X020050Y002352D03*
X020050Y002338D03*
X020050Y002324D03*
X020050Y002309D03*
X020050Y002467D03*
X020050Y002481D03*
X020050Y002495D03*
X020050Y002509D03*
X020050Y002524D03*
X020050Y002538D03*
X020050Y002552D03*
X020050Y002567D03*
X020050Y002581D03*
X020050Y002595D03*
X020050Y002609D03*
X020050Y002624D03*
X020050Y002638D03*
X020050Y002652D03*
X020050Y002667D03*
X020050Y002681D03*
X020050Y002695D03*
X020050Y002709D03*
X020050Y002724D03*
X020050Y002738D03*
X020421Y004081D03*
X020064Y004282D03*
X018306Y000823D03*
D271*
X017835Y000980D03*
X017863Y001137D03*
X017435Y000837D03*
X018349Y001695D03*
D272*
X017949Y001195D03*
X017863Y000837D03*
X019878Y000923D03*
X022494Y001323D03*
X022837Y001338D03*
X022036Y003367D03*
X021579Y003496D03*
X021579Y003510D03*
X021579Y003524D03*
X017749Y003467D03*
X017520Y003538D03*
X017520Y003553D03*
X017520Y003567D03*
X017520Y003581D03*
X017520Y003596D03*
X017492Y003724D03*
X017492Y003738D03*
X017492Y003753D03*
X017492Y003767D03*
X017492Y003781D03*
X017492Y003796D03*
X017463Y003910D03*
X017463Y003924D03*
X017463Y003939D03*
X017463Y003953D03*
X017435Y004153D03*
X017435Y004167D03*
X017435Y004181D03*
X017435Y004196D03*
X017435Y004210D03*
X017406Y004367D03*
X017406Y004382D03*
X017406Y004396D03*
X017406Y004410D03*
X017406Y004424D03*
X017635Y002738D03*
D273*
X017670Y002967D03*
X017599Y002995D03*
X017556Y003010D03*
X017527Y003024D03*
X017485Y003038D03*
X017456Y003052D03*
X017413Y003067D03*
X017342Y003095D03*
X017227Y003138D03*
X017113Y003181D03*
X017084Y003195D03*
X017084Y002652D03*
X017056Y002609D03*
X017056Y002595D03*
X017056Y002581D03*
X018642Y001323D03*
X017827Y001009D03*
X017827Y000995D03*
X017442Y000852D03*
X017370Y004124D03*
X019785Y004096D03*
X019785Y004081D03*
X022001Y002781D03*
X022501Y002781D03*
X022501Y002281D03*
X022001Y002281D03*
X022872Y003781D03*
D274*
X022508Y002767D03*
X022008Y002767D03*
X017635Y002981D03*
X017377Y003081D03*
X017120Y002695D03*
X017034Y002524D03*
X017034Y002509D03*
X017435Y000880D03*
X017435Y000866D03*
D275*
X018292Y000866D03*
X018664Y000980D03*
X020264Y001623D03*
X021393Y001995D03*
X021393Y002009D03*
X022179Y002352D03*
X022179Y002709D03*
X022665Y002338D03*
X020879Y002767D03*
X022422Y003824D03*
X022408Y003953D03*
X022422Y004067D03*
D276*
X022086Y003867D03*
X021686Y003853D03*
X021200Y003953D03*
X021172Y003353D03*
X020443Y003881D03*
X020028Y003567D03*
X018556Y003138D03*
X018513Y003110D03*
X018213Y002938D03*
X018185Y002924D03*
X017770Y002910D03*
X018156Y003381D03*
X018513Y003896D03*
X017413Y004139D03*
X018771Y002338D03*
X019514Y001995D03*
X018756Y001452D03*
X017856Y000894D03*
X017856Y000880D03*
X021743Y001309D03*
X021743Y001323D03*
X021743Y001338D03*
X021958Y002810D03*
X022458Y002810D03*
X023215Y003467D03*
X023215Y003481D03*
X023201Y003496D03*
D277*
X023144Y004081D03*
X018299Y000880D03*
D278*
X017435Y000894D03*
X017435Y000909D03*
X018063Y002495D03*
X018063Y002509D03*
X018120Y002581D03*
X018149Y002609D03*
D279*
X018721Y002538D03*
X018735Y002524D03*
X020421Y002738D03*
X020421Y002752D03*
X020993Y003524D03*
X020993Y003753D03*
X021379Y003796D03*
X021393Y003767D03*
X021407Y003667D03*
X021393Y003624D03*
X021393Y003610D03*
X021393Y003596D03*
X021379Y003567D03*
X021679Y004010D03*
X022408Y003981D03*
X022408Y003796D03*
X022408Y003781D03*
X022408Y003767D03*
X022408Y003753D03*
X022408Y003738D03*
X022408Y003724D03*
X022937Y002595D03*
X022651Y002324D03*
X019121Y003996D03*
X018735Y004081D03*
X016949Y003281D03*
X018664Y001037D03*
X018664Y001023D03*
X018292Y000909D03*
X018292Y000894D03*
D280*
X019514Y001052D03*
X019957Y001309D03*
X020257Y001323D03*
X020643Y001595D03*
X020643Y001666D03*
X020600Y002409D03*
X020529Y002567D03*
X020486Y002667D03*
X020943Y002652D03*
X020943Y002638D03*
X020986Y002567D03*
X021057Y002452D03*
X021172Y002652D03*
X021172Y002667D03*
X021215Y002738D03*
X021215Y002752D03*
X022701Y002681D03*
X022701Y002667D03*
X022701Y002395D03*
X022701Y002381D03*
X021443Y001309D03*
X021372Y001352D03*
X021829Y001109D03*
X021372Y000894D03*
X022587Y001209D03*
X022930Y001109D03*
D281*
X022558Y001309D03*
X022486Y001352D03*
X022486Y000894D03*
X021801Y000937D03*
X021300Y000937D03*
X020271Y001595D03*
X020271Y001609D03*
X019600Y001981D03*
X020500Y002638D03*
X020543Y002538D03*
X020614Y002381D03*
X021000Y002538D03*
X021000Y002552D03*
X020957Y002624D03*
X020886Y002752D03*
X021115Y002552D03*
X021186Y002681D03*
X021186Y002695D03*
X021229Y002767D03*
X022215Y002652D03*
X022215Y002638D03*
X022215Y002624D03*
X022215Y002438D03*
X022215Y002424D03*
X022215Y002409D03*
X022715Y002409D03*
X022715Y002424D03*
X022715Y002438D03*
X022715Y002624D03*
X022715Y002638D03*
X022715Y002652D03*
X022901Y002652D03*
X022901Y002638D03*
X022901Y002667D03*
X022901Y002681D03*
X022901Y002695D03*
X022901Y002709D03*
X023187Y002324D03*
X019542Y001080D03*
X019485Y001023D03*
D282*
X020264Y000937D03*
X020264Y000923D03*
X020264Y000909D03*
X018764Y002295D03*
X019149Y003567D03*
X019149Y003753D03*
X019450Y003953D03*
X021708Y003881D03*
X022894Y003753D03*
X022908Y003738D03*
X022922Y003724D03*
X022479Y002252D03*
X021979Y002252D03*
D283*
X021458Y001866D03*
X021458Y001852D03*
X021458Y001838D03*
X021343Y001923D03*
X021343Y001938D03*
X021458Y001295D03*
X021500Y001180D03*
X021500Y001166D03*
X021500Y001152D03*
X021500Y001137D03*
X021500Y001123D03*
X021500Y001109D03*
X021500Y001095D03*
X021500Y001080D03*
X021500Y001066D03*
X021458Y000952D03*
X021272Y000980D03*
X021343Y001109D03*
X021272Y001266D03*
X021272Y001280D03*
X020700Y001266D03*
X020700Y001252D03*
X020700Y001237D03*
X020700Y001223D03*
X020700Y001209D03*
X020700Y001195D03*
X020700Y001180D03*
X020700Y001166D03*
X020700Y001152D03*
X020700Y001137D03*
X020700Y001123D03*
X020700Y001109D03*
X020700Y001095D03*
X020700Y001080D03*
X020700Y001066D03*
X020700Y001052D03*
X020700Y000995D03*
X020700Y000980D03*
X020700Y000966D03*
X020700Y000952D03*
X020700Y000937D03*
X020700Y000923D03*
X020700Y000909D03*
X020500Y001066D03*
X020543Y001137D03*
X020586Y001195D03*
X020586Y001209D03*
X020614Y001252D03*
X020271Y001252D03*
X020271Y001266D03*
X020271Y001280D03*
X020271Y001295D03*
X020271Y001338D03*
X020200Y001295D03*
X020271Y001237D03*
X020271Y001223D03*
X020271Y001209D03*
X020271Y001195D03*
X020271Y001180D03*
X020271Y001166D03*
X020271Y001152D03*
X020271Y001137D03*
X020271Y001123D03*
X020271Y001109D03*
X020271Y001095D03*
X020271Y001080D03*
X020271Y001066D03*
X020271Y001052D03*
X020271Y001037D03*
X020271Y001023D03*
X020271Y001009D03*
X020271Y000995D03*
X020271Y000980D03*
X020271Y000966D03*
X020271Y000952D03*
X020014Y001066D03*
X020014Y001080D03*
X020014Y001095D03*
X020014Y001109D03*
X020014Y001123D03*
X020014Y001137D03*
X020014Y001152D03*
X020014Y001166D03*
X020014Y001180D03*
X019928Y001166D03*
X019971Y001295D03*
X019971Y000952D03*
X020314Y001681D03*
X020314Y001695D03*
X020357Y001809D03*
X020357Y001823D03*
X020357Y001838D03*
X020386Y001895D03*
X020386Y001909D03*
X020386Y001923D03*
X020429Y002024D03*
X020157Y001909D03*
X020128Y001995D03*
X020200Y001781D03*
X020200Y001766D03*
X021843Y001080D03*
X021843Y001009D03*
X021843Y000995D03*
X022372Y001009D03*
X022372Y001023D03*
X022372Y001037D03*
X022372Y001223D03*
X022372Y001237D03*
X022372Y001252D03*
X022529Y001166D03*
X022601Y001237D03*
X022601Y001252D03*
X022601Y001037D03*
X022601Y001023D03*
X022601Y001009D03*
X022944Y000966D03*
X022944Y001095D03*
X022944Y001209D03*
X022944Y001223D03*
X022944Y001237D03*
X022944Y001252D03*
X022944Y001266D03*
X022944Y001280D03*
X020200Y003767D03*
X022415Y004081D03*
D284*
X022837Y003653D03*
X022822Y003624D03*
X022822Y003610D03*
X022822Y003596D03*
X022808Y003581D03*
X022808Y003567D03*
X022794Y003524D03*
X023194Y003453D03*
X023108Y004067D03*
X023080Y002824D03*
X022980Y002567D03*
X023137Y002481D03*
X023008Y002224D03*
X022136Y002738D03*
X021350Y003510D03*
X021365Y003524D03*
X021365Y003810D03*
X021350Y003824D03*
X021007Y003496D03*
X020407Y003496D03*
X020407Y003510D03*
X020407Y003524D03*
X020407Y003538D03*
X020407Y003553D03*
X020407Y003567D03*
X020407Y003581D03*
X020407Y003596D03*
X020407Y003610D03*
X020407Y003624D03*
X020407Y003638D03*
X020407Y003653D03*
X020407Y003667D03*
X020407Y003681D03*
X020407Y003696D03*
X020407Y003710D03*
X020407Y003724D03*
X020407Y003738D03*
X020407Y003753D03*
X020407Y003767D03*
X020407Y003781D03*
X020407Y003481D03*
X020407Y003467D03*
X020407Y003453D03*
X020407Y003438D03*
X019907Y003738D03*
X019907Y003753D03*
X019907Y003767D03*
X019907Y003781D03*
X019907Y003796D03*
X019893Y003839D03*
X019893Y003853D03*
X019893Y003867D03*
X019893Y003881D03*
X019893Y003896D03*
X019893Y003910D03*
X019893Y003924D03*
X019893Y003939D03*
X019107Y003939D03*
X019107Y003953D03*
X019107Y003967D03*
X019107Y003981D03*
X019107Y003924D03*
X019107Y003910D03*
X019092Y003438D03*
X019092Y003424D03*
X019092Y003410D03*
X019092Y003395D03*
X019092Y003381D03*
X019092Y003367D03*
X019092Y003353D03*
X019092Y003338D03*
X019092Y003324D03*
X019092Y003310D03*
X019092Y003295D03*
X019092Y003281D03*
X019092Y003267D03*
X019092Y003253D03*
X019092Y003238D03*
X019092Y003224D03*
X019092Y003210D03*
X019092Y003195D03*
X019092Y003181D03*
X019092Y003167D03*
X019092Y003153D03*
X019092Y003138D03*
X019092Y003124D03*
X019092Y003110D03*
X019092Y003095D03*
X019092Y003081D03*
X019092Y003067D03*
X019092Y003052D03*
X019092Y003038D03*
X019092Y003024D03*
X018635Y002624D03*
X018764Y002452D03*
X018349Y001681D03*
X018278Y000952D03*
X018278Y000937D03*
X021050Y002509D03*
X021050Y002524D03*
X021708Y001166D03*
X021365Y000909D03*
X022479Y000909D03*
X018421Y003467D03*
X018421Y003481D03*
X018421Y003496D03*
X018421Y003510D03*
X018421Y003524D03*
X018206Y003467D03*
X018463Y003753D03*
X018463Y003767D03*
X018463Y003781D03*
X018463Y003796D03*
X018463Y003810D03*
X016991Y003424D03*
D285*
X017006Y003481D03*
X016991Y003596D03*
X016977Y003696D03*
X016963Y003810D03*
X016920Y004139D03*
X016920Y004153D03*
X016906Y004224D03*
X016906Y004239D03*
X016906Y004253D03*
X016906Y004267D03*
X016891Y004296D03*
X016891Y004310D03*
X016891Y004324D03*
X016891Y004339D03*
X016891Y004353D03*
X016891Y004367D03*
X016891Y004382D03*
X016877Y004396D03*
X016877Y004410D03*
X016877Y004424D03*
X016877Y004439D03*
X016877Y004453D03*
X016877Y004467D03*
X018192Y003438D03*
X018192Y003424D03*
X018592Y003167D03*
X018878Y003896D03*
X019850Y004353D03*
X019850Y004367D03*
X019850Y004382D03*
X019850Y004396D03*
X019850Y004410D03*
X019850Y004424D03*
X019850Y004439D03*
X019850Y004453D03*
X019850Y004467D03*
X019850Y004482D03*
X020421Y003839D03*
X021022Y003481D03*
X021565Y003453D03*
X021565Y003438D03*
X021593Y003538D03*
X021593Y003553D03*
X021593Y003567D03*
X021593Y003581D03*
X021608Y003596D03*
X021608Y003610D03*
X021608Y003624D03*
X021608Y003638D03*
X021622Y003653D03*
X021622Y003667D03*
X021622Y003681D03*
X021622Y003696D03*
X021636Y003710D03*
X021636Y003724D03*
X021636Y003738D03*
X021636Y003753D03*
X021650Y003781D03*
X021650Y003796D03*
X022108Y003738D03*
X022108Y003724D03*
X022108Y003710D03*
X022093Y003667D03*
X022093Y003653D03*
X022093Y003638D03*
X022079Y003596D03*
X022079Y003581D03*
X022079Y003567D03*
X022065Y003524D03*
X022065Y003510D03*
X022065Y003496D03*
X022051Y003438D03*
X022737Y003353D03*
X022737Y003338D03*
X022751Y003381D03*
X022751Y003395D03*
X022751Y003410D03*
X022765Y003424D03*
X022765Y003438D03*
X022779Y003481D03*
X023008Y003896D03*
X023022Y003924D03*
X023080Y004024D03*
X023094Y004053D03*
X023008Y002552D03*
X023080Y002509D03*
X021379Y001323D03*
X021722Y001152D03*
X021708Y000909D03*
X021365Y000923D03*
X022479Y000923D03*
X022822Y000909D03*
X019893Y001323D03*
X019492Y001809D03*
X018278Y000980D03*
X018278Y000966D03*
D286*
X017427Y000923D03*
X017027Y002424D03*
X017027Y002438D03*
X017356Y002895D03*
X017027Y003939D03*
X019442Y003910D03*
X019414Y003410D03*
X021200Y003910D03*
D287*
X021000Y003781D03*
X021000Y003767D03*
X021000Y003510D03*
X021686Y004024D03*
X021686Y004039D03*
X021686Y004053D03*
X021686Y004067D03*
X022829Y003638D03*
X020429Y002724D03*
X020429Y002709D03*
X019600Y003538D03*
X019600Y003810D03*
X019885Y003953D03*
X019885Y003967D03*
X019885Y003981D03*
X018742Y002509D03*
X018742Y002495D03*
X019885Y001338D03*
X018285Y000923D03*
X022486Y001338D03*
D288*
X022837Y000923D03*
X021736Y001137D03*
X018778Y002352D03*
X018263Y001037D03*
X018263Y001023D03*
X016991Y003253D03*
X020436Y003867D03*
X021665Y003824D03*
X021679Y003839D03*
X022651Y003924D03*
X023137Y003553D03*
X023151Y003538D03*
X023180Y003510D03*
D289*
X017978Y003953D03*
X017034Y002409D03*
X017034Y002395D03*
X017435Y000937D03*
D290*
X018671Y000937D03*
X019600Y001166D03*
X019600Y001180D03*
X019600Y001266D03*
X019600Y001280D03*
X019771Y001252D03*
X019771Y001237D03*
X019771Y001223D03*
X019757Y001195D03*
X019757Y001180D03*
X019757Y001166D03*
X019757Y001152D03*
X019757Y001137D03*
X019757Y001123D03*
X019757Y001109D03*
X019757Y001095D03*
X019757Y001080D03*
X019771Y001037D03*
X019771Y001023D03*
X019771Y001009D03*
X019785Y000980D03*
X019800Y000952D03*
X019828Y001080D03*
X019843Y001095D03*
X019857Y001109D03*
X019914Y001152D03*
X019943Y001180D03*
X020000Y001237D03*
X020000Y001252D03*
X019800Y001295D03*
X019785Y001280D03*
X019785Y001266D03*
X020000Y001037D03*
X020000Y001023D03*
X020000Y001009D03*
X020514Y001080D03*
X020514Y001095D03*
X020571Y001180D03*
X020629Y001266D03*
X020343Y001766D03*
X020343Y001781D03*
X020343Y001795D03*
X020228Y001695D03*
X020228Y001681D03*
X020171Y001852D03*
X020171Y001866D03*
X020400Y001938D03*
X020400Y001952D03*
X020400Y001966D03*
X019814Y001966D03*
X019814Y001952D03*
X019814Y001938D03*
X019814Y001923D03*
X019814Y001909D03*
X019814Y001895D03*
X019814Y001881D03*
X019814Y001866D03*
X019814Y001852D03*
X019814Y001838D03*
X019814Y001781D03*
X019814Y001766D03*
X019814Y001752D03*
X019814Y001738D03*
X019814Y001723D03*
X019814Y001709D03*
X019814Y001695D03*
X019814Y001681D03*
X019814Y001666D03*
X019814Y001652D03*
X019814Y001638D03*
X019657Y001595D03*
X019643Y001623D03*
X019628Y001652D03*
X019614Y001681D03*
X019600Y001709D03*
X019585Y001738D03*
X019571Y001766D03*
X019614Y001866D03*
X019628Y001895D03*
X019628Y001909D03*
X019628Y001923D03*
X019628Y001938D03*
X019814Y001981D03*
X019428Y001981D03*
X019428Y001966D03*
X019428Y001952D03*
X019428Y001938D03*
X019428Y001923D03*
X019428Y001909D03*
X019428Y001895D03*
X019428Y001881D03*
X019428Y001866D03*
X019428Y001852D03*
X019428Y001838D03*
X019428Y001781D03*
X019428Y001766D03*
X019428Y001752D03*
X019428Y001738D03*
X019428Y001723D03*
X019428Y001709D03*
X019428Y001695D03*
X019428Y001681D03*
X019428Y001666D03*
X019428Y001652D03*
X019428Y001638D03*
X019428Y001623D03*
X019428Y001609D03*
X019428Y001595D03*
X021257Y001652D03*
X021257Y001666D03*
X021257Y001681D03*
X021300Y001781D03*
X021300Y001795D03*
X021300Y001809D03*
X021315Y001823D03*
X021315Y001838D03*
X021315Y001852D03*
X021357Y001966D03*
X021429Y001952D03*
X021429Y001938D03*
X021429Y001923D03*
X021472Y001823D03*
X021472Y001809D03*
X021472Y001795D03*
X021486Y001781D03*
X021486Y001766D03*
X021486Y001752D03*
X021529Y001638D03*
X021529Y001623D03*
X021543Y001595D03*
X021472Y001266D03*
X021486Y001252D03*
X021486Y001237D03*
X021429Y001180D03*
X021415Y001166D03*
X021357Y001123D03*
X021315Y001080D03*
X021257Y001037D03*
X021257Y001023D03*
X021257Y001009D03*
X021472Y000980D03*
X021486Y001009D03*
X021486Y001023D03*
X021486Y001037D03*
X021257Y001223D03*
X021257Y001237D03*
X021257Y001252D03*
X021829Y000966D03*
X022386Y000980D03*
X022401Y000952D03*
X022444Y001095D03*
X022458Y001109D03*
X022515Y001152D03*
X022615Y001152D03*
X022615Y001166D03*
X022615Y001180D03*
X022615Y001137D03*
X022615Y001123D03*
X022615Y001109D03*
X022615Y001095D03*
X022615Y001080D03*
X022615Y001066D03*
X022572Y000952D03*
X022958Y000980D03*
X022958Y000995D03*
X022972Y001023D03*
X022972Y001037D03*
X022972Y001052D03*
X022958Y001066D03*
X022958Y001080D03*
X022572Y001295D03*
X022401Y001295D03*
X022386Y001280D03*
X022386Y001266D03*
X018899Y003839D03*
X022672Y003967D03*
D291*
X023187Y002752D03*
X021629Y000937D03*
X020143Y001237D03*
D292*
X022744Y000937D03*
X018471Y003453D03*
D293*
X017999Y003281D03*
X019214Y003824D03*
X019442Y003896D03*
X019414Y003424D03*
X017356Y001480D03*
X017427Y000966D03*
X017427Y000952D03*
D294*
X019871Y001123D03*
X019986Y000980D03*
X020486Y001052D03*
X020529Y001109D03*
X020557Y001152D03*
X020557Y001166D03*
X020600Y001223D03*
X020600Y001237D03*
X020643Y001580D03*
X020643Y001681D03*
X020329Y001723D03*
X020329Y001738D03*
X020214Y001738D03*
X020214Y001723D03*
X020186Y001809D03*
X020186Y001823D03*
X020143Y001952D03*
X020371Y001881D03*
X020371Y001866D03*
X020371Y001852D03*
X020414Y001981D03*
X020414Y001995D03*
X020186Y001280D03*
X020143Y001252D03*
X019986Y001266D03*
X021243Y001195D03*
X021243Y001180D03*
X021243Y001166D03*
X021243Y001152D03*
X021243Y001137D03*
X021243Y001123D03*
X021243Y001109D03*
X021243Y001095D03*
X021243Y001080D03*
X021329Y001095D03*
X021400Y001152D03*
X021286Y001295D03*
X021243Y001609D03*
X021243Y001623D03*
X021286Y001738D03*
X021286Y001752D03*
X021286Y001766D03*
X021329Y001881D03*
X021329Y001895D03*
X021443Y001895D03*
X021443Y001909D03*
X021443Y001881D03*
X021515Y001681D03*
X021515Y001666D03*
X022358Y001195D03*
X022358Y001180D03*
X022358Y001166D03*
X022358Y001152D03*
X022358Y001137D03*
X022358Y001123D03*
X022358Y001109D03*
X022358Y001095D03*
X022358Y001080D03*
X022429Y001080D03*
X022472Y001123D03*
X022544Y001180D03*
X022587Y001266D03*
X022930Y001195D03*
X022587Y000980D03*
X021286Y000952D03*
X020829Y003867D03*
D295*
X017770Y001080D03*
X017399Y000980D03*
D296*
X019464Y000995D03*
X019578Y001123D03*
X019578Y001137D03*
X019578Y001309D03*
X019893Y001137D03*
X019635Y001638D03*
X019578Y001752D03*
X020121Y002009D03*
X020121Y002024D03*
X020236Y001666D03*
X020579Y002452D03*
X020579Y002467D03*
X021150Y002624D03*
X021608Y003395D03*
X021493Y001738D03*
X021379Y001137D03*
X021265Y000995D03*
X021836Y000980D03*
X021836Y001095D03*
X018106Y002838D03*
X017477Y003481D03*
D297*
X017942Y002409D03*
X017942Y002395D03*
X017356Y000995D03*
X020614Y003924D03*
X020614Y003939D03*
D298*
X020786Y003910D03*
X021057Y003839D03*
X022086Y003624D03*
X022086Y003610D03*
X022043Y003424D03*
X022043Y003410D03*
X022043Y003395D03*
X022043Y003381D03*
X022729Y003853D03*
X023072Y003624D03*
X022844Y001323D03*
X018271Y001009D03*
X018271Y000995D03*
X018156Y002895D03*
X018185Y003410D03*
D299*
X017349Y001009D03*
D300*
X017842Y001123D03*
X017356Y001466D03*
X018070Y002524D03*
X018099Y002552D03*
X018728Y002252D03*
X017999Y003267D03*
X017970Y003967D03*
X019185Y003810D03*
X019442Y003924D03*
X019800Y004110D03*
X019928Y004239D03*
X020657Y004010D03*
X021172Y003381D03*
X022015Y002295D03*
X022515Y002295D03*
X023030Y002281D03*
X020629Y001037D03*
X020629Y001023D03*
X020629Y001009D03*
X019414Y003395D03*
X017356Y002910D03*
D301*
X017356Y001823D03*
X017356Y001809D03*
X017527Y001037D03*
X017527Y001023D03*
D302*
X017685Y001052D03*
X017356Y001566D03*
X017356Y002810D03*
X019328Y003453D03*
X019328Y003467D03*
D303*
X018535Y003124D03*
X018263Y002967D03*
X017749Y002924D03*
X018764Y002324D03*
X018764Y002309D03*
X019907Y002024D03*
X019907Y002009D03*
X019907Y001995D03*
X019907Y001623D03*
X019907Y001609D03*
X019907Y001595D03*
X018649Y001209D03*
X018649Y001195D03*
X018321Y001338D03*
X018263Y001066D03*
X018263Y001052D03*
D304*
X018656Y001052D03*
X018714Y002552D03*
X018656Y002609D03*
X018428Y003538D03*
X018428Y003553D03*
X018185Y003796D03*
X018185Y003810D03*
X018185Y003824D03*
X018885Y003881D03*
X020986Y003738D03*
X020986Y003724D03*
X020986Y003710D03*
X020986Y003538D03*
X021372Y003538D03*
X021372Y003553D03*
X022058Y003310D03*
X022401Y003810D03*
X022701Y003324D03*
X022629Y002309D03*
X022129Y002309D03*
X021372Y001338D03*
X022858Y001137D03*
D305*
X017735Y001066D03*
D306*
X018664Y001066D03*
X018664Y001080D03*
X017763Y002509D03*
X017763Y002524D03*
X017763Y002538D03*
X017677Y002695D03*
X018606Y003181D03*
X018435Y003567D03*
X018435Y003581D03*
X018435Y003596D03*
X018435Y003610D03*
X018435Y003624D03*
X017763Y003839D03*
X017763Y003853D03*
X017735Y003538D03*
X017735Y003524D03*
X017735Y003510D03*
X022637Y002738D03*
D307*
X022072Y003538D03*
X022072Y003553D03*
X022115Y003753D03*
X022115Y003767D03*
X022115Y003781D03*
X022115Y003796D03*
X022115Y003810D03*
X022115Y003824D03*
X021658Y003810D03*
X022644Y003939D03*
X022687Y003896D03*
X023030Y003667D03*
X023044Y003653D03*
X020657Y004067D03*
X020429Y003853D03*
X019857Y004324D03*
X019857Y004339D03*
X018771Y002381D03*
X018771Y002366D03*
X018656Y001137D03*
X018656Y001123D03*
X021000Y001095D03*
X021000Y001080D03*
X021000Y001066D03*
X022115Y001066D03*
X022115Y001080D03*
X022115Y001095D03*
D308*
X021272Y001066D03*
D309*
X018642Y001409D03*
X017799Y001095D03*
X019414Y003438D03*
X020057Y003667D03*
X017970Y003939D03*
D310*
X017820Y001109D03*
D311*
X018249Y001109D03*
X018721Y004039D03*
D312*
X019164Y003781D03*
X019450Y003939D03*
X018749Y002281D03*
X018635Y001309D03*
X018635Y001295D03*
X018278Y001309D03*
X018249Y001137D03*
X018249Y001123D03*
X021393Y001695D03*
X021993Y002266D03*
X022494Y002266D03*
X023051Y002767D03*
X022879Y003767D03*
X021922Y004010D03*
D313*
X021572Y003481D03*
X021572Y003467D03*
X021343Y003496D03*
X020200Y003696D03*
X018199Y003453D03*
X022872Y001123D03*
D314*
X023015Y002252D03*
X020657Y004024D03*
X018742Y002266D03*
X018242Y001166D03*
X018242Y001152D03*
D315*
X018649Y001152D03*
X018649Y001166D03*
X018649Y001180D03*
X017920Y001180D03*
X019507Y001823D03*
X019507Y002009D03*
X017606Y002752D03*
X017806Y003381D03*
X019450Y003967D03*
X022108Y003853D03*
X022108Y003839D03*
X023094Y003596D03*
X023108Y003581D03*
X022451Y002238D03*
X021951Y002238D03*
D316*
X020036Y003596D03*
X020493Y003910D03*
X019935Y004253D03*
X019935Y004267D03*
X019178Y003510D03*
X018721Y004024D03*
X017192Y003153D03*
X017134Y002709D03*
X017106Y002681D03*
X018235Y001195D03*
X018235Y001180D03*
X022865Y003796D03*
X022937Y003696D03*
X022937Y003681D03*
D317*
X020593Y003981D03*
X018149Y001209D03*
D318*
X018171Y001223D03*
X017356Y001509D03*
X017070Y002309D03*
X017356Y002867D03*
D319*
X018892Y003810D03*
X019407Y001280D03*
X020136Y001223D03*
D320*
X018356Y001723D03*
X018185Y001237D03*
X017056Y002338D03*
D321*
X017034Y002381D03*
X018206Y001252D03*
X019550Y002752D03*
X019550Y002767D03*
X019550Y002781D03*
X019550Y002795D03*
X019550Y002810D03*
X019435Y003881D03*
X021179Y003424D03*
D322*
X021193Y003896D03*
X019907Y004224D03*
X018349Y002724D03*
X018206Y002638D03*
X018706Y002238D03*
X018349Y001709D03*
X018221Y001266D03*
X017192Y002752D03*
X022865Y003824D03*
D323*
X022865Y003810D03*
X022522Y002752D03*
X022022Y002752D03*
X020036Y003610D03*
X018135Y002595D03*
X018106Y002567D03*
X017034Y002452D03*
X018235Y001280D03*
D324*
X018256Y001295D03*
X018085Y002538D03*
D325*
X018892Y003824D03*
X021322Y001866D03*
X019407Y001295D03*
D326*
X022758Y001309D03*
D327*
X022072Y003881D03*
X018299Y001323D03*
D328*
X018635Y001338D03*
X021193Y003924D03*
X023022Y002266D03*
D329*
X020607Y003953D03*
X018678Y003924D03*
X018678Y003910D03*
X018349Y002681D03*
X017106Y002281D03*
X017363Y001538D03*
X018349Y001752D03*
X018521Y001352D03*
D330*
X018542Y001366D03*
X017356Y001523D03*
X017356Y002852D03*
X017985Y003338D03*
X018671Y003967D03*
D331*
X019864Y004210D03*
X017063Y002324D03*
X018564Y001380D03*
D332*
X018599Y001395D03*
X017041Y002366D03*
X017356Y002881D03*
X017327Y004110D03*
D333*
X019199Y003496D03*
X020043Y003624D03*
X020657Y003996D03*
X018171Y002624D03*
X018685Y001423D03*
D334*
X018714Y001438D03*
X017041Y002538D03*
X017041Y002552D03*
X017041Y002567D03*
X017070Y002624D03*
X017099Y002667D03*
X017299Y003110D03*
X017270Y003124D03*
X017156Y003167D03*
X019171Y003524D03*
X019171Y003796D03*
D335*
X018349Y002709D03*
X017049Y002352D03*
X017363Y001495D03*
D336*
X017356Y001552D03*
X017356Y002824D03*
D337*
X017356Y002795D03*
X017356Y001580D03*
D338*
X017356Y001595D03*
X017928Y002324D03*
X017356Y002781D03*
D339*
X017356Y001623D03*
X017356Y001609D03*
X017184Y004053D03*
X017184Y004067D03*
X017184Y004081D03*
X017184Y004096D03*
D340*
X017356Y001638D03*
D341*
X017356Y001652D03*
D342*
X017363Y001666D03*
X018349Y001838D03*
D343*
X017356Y001681D03*
D344*
X017356Y001695D03*
X017356Y001709D03*
D345*
X017027Y003224D03*
X020657Y004039D03*
X022486Y002795D03*
X023058Y002781D03*
X021386Y001723D03*
X021386Y001709D03*
D346*
X017356Y001723D03*
X017356Y001738D03*
D347*
X018349Y001738D03*
X018349Y002695D03*
X021851Y003996D03*
D348*
X017356Y001752D03*
D349*
X017356Y001766D03*
X017356Y001781D03*
X017356Y001795D03*
D350*
X018349Y001766D03*
X018349Y002667D03*
X021893Y003896D03*
D351*
X018349Y002652D03*
X018349Y001781D03*
D352*
X018349Y001795D03*
D353*
X019900Y001795D03*
X019900Y001809D03*
X019900Y001823D03*
X018313Y002995D03*
D354*
X018349Y001809D03*
D355*
X018349Y001823D03*
D356*
X017356Y001838D03*
X017356Y001852D03*
X017356Y001866D03*
D357*
X017906Y002281D03*
X018349Y001852D03*
D358*
X018349Y001866D03*
D359*
X017356Y001881D03*
X017356Y001895D03*
X017356Y001909D03*
D360*
X018349Y001895D03*
X018349Y001881D03*
D361*
X018349Y001909D03*
D362*
X017356Y001923D03*
X017356Y001938D03*
D363*
X018349Y001923D03*
D364*
X018356Y001938D03*
D365*
X017835Y001952D03*
D366*
X017842Y001966D03*
X017842Y001981D03*
D367*
X017842Y001995D03*
X017842Y002009D03*
X017842Y002024D03*
D368*
X017849Y002038D03*
X017849Y002052D03*
X017849Y002066D03*
D369*
X017856Y002081D03*
X017856Y002095D03*
D370*
X017849Y002109D03*
X017849Y002124D03*
D371*
X017856Y002138D03*
X017856Y002152D03*
X017856Y002166D03*
X017856Y002181D03*
X017856Y002195D03*
X017856Y002209D03*
X017856Y002224D03*
D372*
X017606Y002238D03*
D373*
X018049Y002467D03*
X018049Y002481D03*
X017163Y002738D03*
X020050Y002752D03*
X020050Y002767D03*
X020050Y002781D03*
X020050Y002795D03*
X020050Y002810D03*
X020050Y002295D03*
X020050Y002281D03*
X020050Y002266D03*
X020050Y002252D03*
X020050Y002238D03*
D374*
X023008Y002238D03*
X023065Y002795D03*
D375*
X017585Y002252D03*
D376*
X017570Y002266D03*
D377*
X017084Y002295D03*
D378*
X017913Y002295D03*
D379*
X017920Y002309D03*
D380*
X020193Y003796D03*
X017463Y004582D03*
X022865Y002309D03*
D381*
X019335Y003481D03*
X017935Y002338D03*
D382*
X017935Y002352D03*
X017935Y002366D03*
X017963Y003696D03*
X017963Y003710D03*
X017963Y003724D03*
X017963Y003738D03*
X017963Y003753D03*
X017963Y003767D03*
D383*
X017942Y002381D03*
X021886Y003910D03*
D384*
X017949Y002452D03*
X017949Y002438D03*
X017949Y002424D03*
D385*
X017142Y002724D03*
X017027Y002495D03*
X017027Y002481D03*
X017027Y002467D03*
D386*
X019914Y003710D03*
X019914Y003724D03*
X020414Y003796D03*
X020414Y003810D03*
X020414Y003824D03*
X021172Y003338D03*
X021558Y003424D03*
X021901Y004039D03*
X022772Y003467D03*
X022772Y003453D03*
X022972Y003839D03*
X023044Y003967D03*
X023115Y002495D03*
X019843Y004496D03*
D387*
X019407Y003381D03*
X017706Y002952D03*
X017077Y002638D03*
X017049Y003210D03*
D388*
X017363Y002767D03*
X017192Y004010D03*
X017192Y004024D03*
X017192Y004039D03*
D389*
X017356Y002838D03*
X020600Y003967D03*
D390*
X020836Y003839D03*
X021179Y003324D03*
X019035Y003996D03*
X017820Y002852D03*
D391*
X018235Y002952D03*
X018292Y002981D03*
X018335Y003010D03*
X018363Y003024D03*
X018392Y003038D03*
X018421Y003052D03*
X018492Y003095D03*
X019135Y003624D03*
X019135Y003638D03*
X019135Y003653D03*
X019135Y003667D03*
X019135Y003681D03*
X019135Y003696D03*
X018721Y004053D03*
X017006Y003238D03*
X020664Y004053D03*
X021693Y003867D03*
X021908Y004024D03*
D392*
X019435Y003867D03*
X019435Y003853D03*
X017992Y003295D03*
D393*
X017992Y003310D03*
X017077Y003953D03*
X019435Y003839D03*
X021179Y003467D03*
D394*
X018664Y003981D03*
X017992Y003324D03*
D395*
X017985Y003353D03*
X021872Y003967D03*
D396*
X021172Y003367D03*
D397*
X021172Y003395D03*
D398*
X021172Y003410D03*
D399*
X021172Y003438D03*
D400*
X021172Y003453D03*
D401*
X019142Y003581D03*
X019142Y003596D03*
X019142Y003610D03*
X019142Y003710D03*
X019142Y003724D03*
X019142Y003738D03*
D402*
X020043Y003638D03*
D403*
X020050Y003653D03*
X021193Y003881D03*
D404*
X021193Y003867D03*
X020050Y003681D03*
X019850Y004124D03*
D405*
X017956Y003781D03*
D406*
X021193Y003853D03*
D407*
X021879Y003924D03*
X021879Y003939D03*
D408*
X018671Y003939D03*
X018671Y003953D03*
D409*
X021879Y003953D03*
D410*
X017199Y003967D03*
X017199Y003981D03*
X017199Y003996D03*
D411*
X021865Y003981D03*
D412*
X019857Y004139D03*
X019857Y004153D03*
X019857Y004167D03*
X019857Y004181D03*
X019857Y004196D03*
X018656Y004010D03*
X018656Y003996D03*
D413*
X016964Y005280D02*
X015264Y005280D01*
X015238Y005282D01*
X015212Y005287D01*
X015187Y005295D01*
X015164Y005307D01*
X015142Y005321D01*
X015123Y005339D01*
X015105Y005358D01*
X015091Y005380D01*
X015079Y005403D01*
X015071Y005428D01*
X015066Y005454D01*
X015064Y005480D01*
X015064Y006280D01*
X014904Y006350D02*
X014904Y005310D01*
X014902Y005289D01*
X014897Y005269D01*
X014888Y005250D01*
X014876Y005233D01*
X014861Y005218D01*
X014844Y005206D01*
X014825Y005197D01*
X014805Y005192D01*
X014784Y005190D01*
X014344Y005190D01*
X014324Y005194D01*
X014304Y005200D01*
X014286Y005209D01*
X014270Y005221D01*
X014255Y005235D01*
X014243Y005252D01*
X014234Y005270D01*
X014228Y005289D01*
X014224Y005310D01*
X014224Y005330D01*
X014224Y006370D01*
X014226Y006387D01*
X014230Y006404D01*
X014237Y006420D01*
X014247Y006434D01*
X014260Y006447D01*
X014274Y006457D01*
X014290Y006464D01*
X014307Y006468D01*
X014324Y006470D01*
X014784Y006470D01*
X014805Y006468D01*
X014825Y006463D01*
X014844Y006454D01*
X014861Y006442D01*
X014876Y006427D01*
X014888Y006410D01*
X014897Y006391D01*
X014902Y006371D01*
X014904Y006350D01*
X015064Y006280D02*
X015066Y006306D01*
X015071Y006332D01*
X015079Y006357D01*
X015091Y006380D01*
X015105Y006402D01*
X015123Y006421D01*
X015142Y006439D01*
X015164Y006453D01*
X015187Y006465D01*
X015212Y006473D01*
X015238Y006478D01*
X015264Y006480D01*
X016964Y006480D01*
X016990Y006478D01*
X017016Y006473D01*
X017041Y006465D01*
X017064Y006453D01*
X017086Y006439D01*
X017105Y006421D01*
X017123Y006402D01*
X017137Y006380D01*
X017149Y006357D01*
X017157Y006332D01*
X017162Y006306D01*
X017164Y006280D01*
X017164Y005480D01*
X017162Y005454D01*
X017157Y005428D01*
X017149Y005403D01*
X017137Y005380D01*
X017123Y005358D01*
X017105Y005339D01*
X017086Y005321D01*
X017064Y005307D01*
X017041Y005295D01*
X017016Y005287D01*
X016990Y005282D01*
X016964Y005280D01*
X017414Y006580D02*
X016314Y006580D01*
X016314Y008580D01*
X017414Y008580D01*
X017414Y006580D01*
X016314Y006580D02*
X015314Y006580D01*
X015314Y008580D01*
X016314Y008580D01*
X016314Y008680D02*
X014614Y008680D01*
X014588Y008682D01*
X014562Y008687D01*
X014537Y008695D01*
X014514Y008707D01*
X014492Y008721D01*
X014473Y008739D01*
X014455Y008758D01*
X014441Y008780D01*
X014429Y008803D01*
X014421Y008828D01*
X014416Y008854D01*
X014414Y008880D01*
X014414Y009680D01*
X014416Y009706D01*
X014421Y009732D01*
X014429Y009757D01*
X014441Y009780D01*
X014455Y009802D01*
X014473Y009821D01*
X014492Y009839D01*
X014514Y009853D01*
X014537Y009865D01*
X014562Y009873D01*
X014588Y009878D01*
X014614Y009880D01*
X016314Y009880D01*
X016340Y009878D01*
X016366Y009873D01*
X016391Y009865D01*
X016414Y009853D01*
X016436Y009839D01*
X016455Y009821D01*
X016473Y009802D01*
X016487Y009780D01*
X016499Y009757D01*
X016507Y009732D01*
X016512Y009706D01*
X016514Y009680D01*
X016514Y008880D01*
X016624Y008810D02*
X016624Y009850D01*
X016626Y009871D01*
X016631Y009891D01*
X016640Y009910D01*
X016652Y009927D01*
X016667Y009942D01*
X016684Y009954D01*
X016703Y009963D01*
X016723Y009968D01*
X016744Y009970D01*
X017184Y009970D01*
X017204Y009966D01*
X017224Y009960D01*
X017242Y009951D01*
X017258Y009939D01*
X017273Y009925D01*
X017285Y009908D01*
X017294Y009890D01*
X017300Y009871D01*
X017304Y009850D01*
X017304Y009830D01*
X017304Y008790D01*
X017302Y008773D01*
X017298Y008756D01*
X017291Y008740D01*
X017281Y008726D01*
X017268Y008713D01*
X017254Y008703D01*
X017238Y008696D01*
X017221Y008692D01*
X017204Y008690D01*
X016744Y008690D01*
X016723Y008692D01*
X016703Y008697D01*
X016684Y008706D01*
X016667Y008718D01*
X016652Y008733D01*
X016640Y008750D01*
X016631Y008769D01*
X016626Y008789D01*
X016624Y008810D01*
X016514Y008880D02*
X016512Y008854D01*
X016507Y008828D01*
X016499Y008803D01*
X016487Y008780D01*
X016473Y008758D01*
X016455Y008739D01*
X016436Y008721D01*
X016414Y008707D01*
X016391Y008695D01*
X016366Y008687D01*
X016340Y008682D01*
X016314Y008680D01*
X015314Y008580D02*
X014214Y008580D01*
X014214Y006580D01*
X015314Y006580D01*
X014054Y006770D02*
X014054Y006090D01*
X012774Y006090D01*
X012774Y006770D01*
X014054Y006770D01*
X014054Y006790D02*
X012774Y006790D01*
X012774Y007470D01*
X014054Y007470D01*
X014054Y006790D01*
X014054Y007490D02*
X012774Y007490D01*
X012774Y008170D01*
X014054Y008170D01*
X014054Y007490D01*
X014054Y008190D02*
X014054Y008870D01*
X012774Y008870D01*
X012774Y008190D01*
X014054Y008190D01*
X013934Y008890D02*
X012894Y008890D01*
X012873Y008892D01*
X012853Y008897D01*
X012834Y008906D01*
X012817Y008918D01*
X012802Y008933D01*
X012790Y008950D01*
X012781Y008969D01*
X012776Y008989D01*
X012774Y009010D01*
X012774Y009450D01*
X012778Y009470D01*
X012784Y009490D01*
X012793Y009508D01*
X012805Y009524D01*
X012819Y009539D01*
X012836Y009551D01*
X012854Y009560D01*
X012873Y009566D01*
X012894Y009570D01*
X012914Y009570D01*
X013954Y009570D01*
X013971Y009568D01*
X013988Y009564D01*
X014004Y009557D01*
X014018Y009547D01*
X014031Y009534D01*
X014041Y009520D01*
X014048Y009504D01*
X014052Y009487D01*
X014054Y009470D01*
X014054Y009010D01*
X014052Y008989D01*
X014047Y008969D01*
X014038Y008950D01*
X014026Y008933D01*
X014011Y008918D01*
X013994Y008906D01*
X013975Y008897D01*
X013955Y008892D01*
X013934Y008890D01*
X014444Y010240D02*
X014884Y010240D01*
X014905Y010242D01*
X014925Y010247D01*
X014944Y010256D01*
X014961Y010268D01*
X014976Y010283D01*
X014988Y010300D01*
X014997Y010319D01*
X015002Y010339D01*
X015004Y010360D01*
X015004Y011400D01*
X015002Y011421D01*
X014997Y011441D01*
X014988Y011460D01*
X014976Y011477D01*
X014961Y011492D01*
X014944Y011504D01*
X014925Y011513D01*
X014905Y011518D01*
X014884Y011520D01*
X014424Y011520D01*
X014407Y011518D01*
X014390Y011514D01*
X014374Y011507D01*
X014360Y011497D01*
X014347Y011484D01*
X014337Y011470D01*
X014330Y011454D01*
X014326Y011437D01*
X014324Y011420D01*
X014324Y010380D01*
X014324Y010360D01*
X014328Y010339D01*
X014334Y010320D01*
X014343Y010302D01*
X014355Y010285D01*
X014370Y010271D01*
X014386Y010259D01*
X014404Y010250D01*
X014424Y010244D01*
X014444Y010240D01*
X015114Y010530D02*
X015114Y011330D01*
X015116Y011356D01*
X015121Y011382D01*
X015129Y011407D01*
X015141Y011430D01*
X015155Y011452D01*
X015173Y011471D01*
X015192Y011489D01*
X015214Y011503D01*
X015237Y011515D01*
X015262Y011523D01*
X015288Y011528D01*
X015314Y011530D01*
X017014Y011530D01*
X017040Y011528D01*
X017066Y011523D01*
X017091Y011515D01*
X017114Y011503D01*
X017136Y011489D01*
X017155Y011471D01*
X017173Y011452D01*
X017187Y011430D01*
X017199Y011407D01*
X017207Y011382D01*
X017212Y011356D01*
X017214Y011330D01*
X017214Y010530D01*
X017212Y010504D01*
X017207Y010478D01*
X017199Y010453D01*
X017187Y010430D01*
X017173Y010408D01*
X017155Y010389D01*
X017136Y010371D01*
X017114Y010357D01*
X017091Y010345D01*
X017066Y010337D01*
X017040Y010332D01*
X017014Y010330D01*
X015314Y010330D01*
X015288Y010332D01*
X015262Y010337D01*
X015237Y010345D01*
X015214Y010357D01*
X015192Y010371D01*
X015173Y010389D01*
X015155Y010408D01*
X015141Y010430D01*
X015129Y010453D01*
X015121Y010478D01*
X015116Y010504D01*
X015114Y010530D01*
X015314Y011630D02*
X014214Y011630D01*
X014214Y013630D01*
X015314Y013630D01*
X015314Y011630D01*
X016314Y011630D01*
X016314Y013630D01*
X017414Y013630D01*
X017414Y011630D01*
X016314Y011630D01*
X017574Y011640D02*
X017574Y012100D01*
X017576Y012121D01*
X017581Y012141D01*
X017590Y012160D01*
X017602Y012177D01*
X017617Y012192D01*
X017634Y012204D01*
X017653Y012213D01*
X017673Y012218D01*
X017694Y012220D01*
X018734Y012220D01*
X018755Y012218D01*
X018775Y012213D01*
X018794Y012204D01*
X018811Y012192D01*
X018826Y012177D01*
X018838Y012160D01*
X018847Y012141D01*
X018852Y012121D01*
X018854Y012100D01*
X018854Y011660D01*
X018850Y011640D01*
X018844Y011620D01*
X018835Y011602D01*
X018823Y011586D01*
X018809Y011571D01*
X018792Y011559D01*
X018774Y011550D01*
X018755Y011544D01*
X018734Y011540D01*
X018714Y011540D01*
X017674Y011540D01*
X017657Y011542D01*
X017640Y011546D01*
X017624Y011553D01*
X017610Y011563D01*
X017597Y011576D01*
X017587Y011590D01*
X017580Y011606D01*
X017576Y011623D01*
X017574Y011640D01*
X017574Y012240D02*
X017574Y012920D01*
X018854Y012920D01*
X018854Y012240D01*
X017574Y012240D01*
X017574Y012940D02*
X017574Y013620D01*
X018854Y013620D01*
X018854Y012940D01*
X017574Y012940D01*
X017694Y013640D02*
X018734Y013640D01*
X018755Y013642D01*
X018775Y013647D01*
X018794Y013656D01*
X018811Y013668D01*
X018826Y013683D01*
X018838Y013700D01*
X018847Y013719D01*
X018852Y013739D01*
X018854Y013760D01*
X018854Y014220D01*
X018852Y014237D01*
X018848Y014254D01*
X018841Y014270D01*
X018831Y014284D01*
X018818Y014297D01*
X018804Y014307D01*
X018788Y014314D01*
X018771Y014318D01*
X018754Y014320D01*
X017714Y014320D01*
X017694Y014320D01*
X017673Y014316D01*
X017654Y014310D01*
X017636Y014301D01*
X017619Y014289D01*
X017605Y014274D01*
X017593Y014258D01*
X017584Y014240D01*
X017578Y014220D01*
X017574Y014200D01*
X017574Y013760D01*
X017576Y013739D01*
X017581Y013719D01*
X017590Y013700D01*
X017602Y013683D01*
X017617Y013668D01*
X017634Y013656D01*
X017653Y013647D01*
X017673Y013642D01*
X017694Y013640D01*
X017354Y013840D02*
X017354Y014880D01*
X017354Y014900D01*
X017350Y014921D01*
X017344Y014940D01*
X017335Y014958D01*
X017323Y014975D01*
X017308Y014989D01*
X017292Y015001D01*
X017274Y015010D01*
X017254Y015016D01*
X017234Y015020D01*
X016794Y015020D01*
X016773Y015018D01*
X016753Y015013D01*
X016734Y015004D01*
X016717Y014992D01*
X016702Y014977D01*
X016690Y014960D01*
X016681Y014941D01*
X016676Y014921D01*
X016674Y014900D01*
X016674Y013860D01*
X016676Y013839D01*
X016681Y013819D01*
X016690Y013800D01*
X016702Y013783D01*
X016717Y013768D01*
X016734Y013756D01*
X016753Y013747D01*
X016773Y013742D01*
X016794Y013740D01*
X017254Y013740D01*
X017271Y013742D01*
X017288Y013746D01*
X017304Y013753D01*
X017318Y013763D01*
X017331Y013776D01*
X017341Y013790D01*
X017348Y013806D01*
X017352Y013823D01*
X017354Y013840D01*
X016564Y013930D02*
X016564Y014730D01*
X016562Y014756D01*
X016557Y014782D01*
X016549Y014807D01*
X016537Y014830D01*
X016523Y014852D01*
X016505Y014871D01*
X016486Y014889D01*
X016464Y014903D01*
X016441Y014915D01*
X016416Y014923D01*
X016390Y014928D01*
X016364Y014930D01*
X014664Y014930D01*
X014638Y014928D01*
X014612Y014923D01*
X014587Y014915D01*
X014564Y014903D01*
X014542Y014889D01*
X014523Y014871D01*
X014505Y014852D01*
X014491Y014830D01*
X014479Y014807D01*
X014471Y014782D01*
X014466Y014756D01*
X014464Y014730D01*
X014464Y013930D01*
X014466Y013904D01*
X014471Y013878D01*
X014479Y013853D01*
X014491Y013830D01*
X014505Y013808D01*
X014523Y013789D01*
X014542Y013771D01*
X014564Y013757D01*
X014587Y013745D01*
X014612Y013737D01*
X014638Y013732D01*
X014664Y013730D01*
X016364Y013730D01*
X016314Y013630D02*
X015314Y013630D01*
X016364Y013730D02*
X016390Y013732D01*
X016416Y013737D01*
X016441Y013745D01*
X016464Y013757D01*
X016486Y013771D01*
X016505Y013789D01*
X016523Y013808D01*
X016537Y013830D01*
X016549Y013853D01*
X016557Y013878D01*
X016562Y013904D01*
X016564Y013930D01*
X014154Y013760D02*
X014154Y014220D01*
X014152Y014237D01*
X014148Y014254D01*
X014141Y014270D01*
X014131Y014284D01*
X014118Y014297D01*
X014104Y014307D01*
X014088Y014314D01*
X014071Y014318D01*
X014054Y014320D01*
X013014Y014320D01*
X012994Y014320D01*
X012973Y014316D01*
X012954Y014310D01*
X012936Y014301D01*
X012919Y014289D01*
X012905Y014274D01*
X012893Y014258D01*
X012884Y014240D01*
X012878Y014220D01*
X012874Y014200D01*
X012874Y013760D01*
X012876Y013739D01*
X012881Y013719D01*
X012890Y013700D01*
X012902Y013683D01*
X012917Y013668D01*
X012934Y013656D01*
X012953Y013647D01*
X012973Y013642D01*
X012994Y013640D01*
X014034Y013640D01*
X014055Y013642D01*
X014075Y013647D01*
X014094Y013656D01*
X014111Y013668D01*
X014126Y013683D01*
X014138Y013700D01*
X014147Y013719D01*
X014152Y013739D01*
X014154Y013760D01*
X014064Y014530D02*
X012864Y014530D01*
X012864Y016030D01*
X014064Y016030D01*
X014064Y014530D01*
X012504Y014220D02*
X012504Y013760D01*
X012502Y013739D01*
X012497Y013719D01*
X012488Y013700D01*
X012476Y013683D01*
X012461Y013668D01*
X012444Y013656D01*
X012425Y013647D01*
X012405Y013642D01*
X012384Y013640D01*
X011344Y013640D01*
X011323Y013642D01*
X011303Y013647D01*
X011284Y013656D01*
X011267Y013668D01*
X011252Y013683D01*
X011240Y013700D01*
X011231Y013719D01*
X011226Y013739D01*
X011224Y013760D01*
X011224Y014200D01*
X011228Y014220D01*
X011234Y014240D01*
X011243Y014258D01*
X011255Y014274D01*
X011269Y014289D01*
X011286Y014301D01*
X011304Y014310D01*
X011323Y014316D01*
X011344Y014320D01*
X011364Y014320D01*
X012404Y014320D01*
X012421Y014318D01*
X012438Y014314D01*
X012454Y014307D01*
X012468Y014297D01*
X012481Y014284D01*
X012491Y014270D01*
X012498Y014254D01*
X012502Y014237D01*
X012504Y014220D01*
X012464Y014530D02*
X011264Y014530D01*
X011264Y016030D01*
X012464Y016030D01*
X012464Y014530D01*
X010704Y014090D02*
X010704Y015130D01*
X010704Y015150D01*
X010700Y015171D01*
X010694Y015190D01*
X010685Y015208D01*
X010673Y015225D01*
X010658Y015239D01*
X010642Y015251D01*
X010624Y015260D01*
X010604Y015266D01*
X010584Y015270D01*
X010144Y015270D01*
X010123Y015268D01*
X010103Y015263D01*
X010084Y015254D01*
X010067Y015242D01*
X010052Y015227D01*
X010040Y015210D01*
X010031Y015191D01*
X010026Y015171D01*
X010024Y015150D01*
X010024Y014110D01*
X010026Y014089D01*
X010031Y014069D01*
X010040Y014050D01*
X010052Y014033D01*
X010067Y014018D01*
X010084Y014006D01*
X010103Y013997D01*
X010123Y013992D01*
X010144Y013990D01*
X010604Y013990D01*
X010621Y013992D01*
X010638Y013996D01*
X010654Y014003D01*
X010668Y014013D01*
X010681Y014026D01*
X010691Y014040D01*
X010698Y014056D01*
X010702Y014073D01*
X010704Y014090D01*
X009904Y013960D02*
X009904Y014420D01*
X009902Y014437D01*
X009898Y014454D01*
X009891Y014470D01*
X009881Y014484D01*
X009868Y014497D01*
X009854Y014507D01*
X009838Y014514D01*
X009821Y014518D01*
X009804Y014520D01*
X008764Y014520D01*
X008724Y014590D02*
X009764Y014590D01*
X009784Y014590D01*
X009805Y014594D01*
X009824Y014600D01*
X009842Y014609D01*
X009859Y014621D01*
X009873Y014636D01*
X009885Y014652D01*
X009894Y014670D01*
X009900Y014690D01*
X009904Y014710D01*
X009904Y015150D01*
X009902Y015171D01*
X009897Y015191D01*
X009888Y015210D01*
X009876Y015227D01*
X009861Y015242D01*
X009844Y015254D01*
X009825Y015263D01*
X009805Y015268D01*
X009784Y015270D01*
X008744Y015270D01*
X008723Y015268D01*
X008703Y015263D01*
X008684Y015254D01*
X008667Y015242D01*
X008652Y015227D01*
X008640Y015210D01*
X008631Y015191D01*
X008626Y015171D01*
X008624Y015150D01*
X008624Y014690D01*
X008626Y014673D01*
X008630Y014656D01*
X008637Y014640D01*
X008647Y014626D01*
X008660Y014613D01*
X008674Y014603D01*
X008690Y014596D01*
X008707Y014592D01*
X008724Y014590D01*
X008764Y014520D02*
X008744Y014520D01*
X008723Y014516D01*
X008704Y014510D01*
X008686Y014501D01*
X008669Y014489D01*
X008655Y014474D01*
X008643Y014458D01*
X008634Y014440D01*
X008628Y014420D01*
X008624Y014400D01*
X008624Y013960D01*
X008626Y013939D01*
X008631Y013919D01*
X008640Y013900D01*
X008652Y013883D01*
X008667Y013868D01*
X008684Y013856D01*
X008703Y013847D01*
X008723Y013842D01*
X008744Y013840D01*
X009784Y013840D01*
X009805Y013842D01*
X009825Y013847D01*
X009844Y013856D01*
X009861Y013868D01*
X009876Y013883D01*
X009888Y013900D01*
X009897Y013919D01*
X009902Y013939D01*
X009904Y013960D01*
X009702Y013455D02*
X009702Y010305D01*
X007025Y010305D01*
X007025Y013455D01*
X009702Y013455D01*
X009774Y013170D02*
X009774Y012490D01*
X011054Y012490D01*
X011054Y013170D01*
X009774Y013170D01*
X009664Y012680D02*
X007064Y012680D01*
X006914Y011830D02*
X004914Y011830D01*
X004914Y013630D01*
X006914Y013630D01*
X006914Y011830D01*
X006404Y011650D02*
X006404Y011210D01*
X006400Y011190D01*
X006394Y011170D01*
X006385Y011152D01*
X006373Y011136D01*
X006359Y011121D01*
X006342Y011109D01*
X006324Y011100D01*
X006305Y011094D01*
X006284Y011090D01*
X006264Y011090D01*
X005224Y011090D01*
X005207Y011092D01*
X005190Y011096D01*
X005174Y011103D01*
X005160Y011113D01*
X005147Y011126D01*
X005137Y011140D01*
X005130Y011156D01*
X005126Y011173D01*
X005124Y011190D01*
X005124Y011650D01*
X005126Y011671D01*
X005131Y011691D01*
X005140Y011710D01*
X005152Y011727D01*
X005167Y011742D01*
X005184Y011754D01*
X005203Y011763D01*
X005223Y011768D01*
X005244Y011770D01*
X006284Y011770D01*
X006305Y011768D01*
X006325Y011763D01*
X006344Y011754D01*
X006361Y011742D01*
X006376Y011727D01*
X006388Y011710D01*
X006397Y011691D01*
X006402Y011671D01*
X006404Y011650D01*
X007064Y011080D02*
X009664Y011080D01*
X009774Y010990D02*
X009774Y011670D01*
X011054Y011670D01*
X011054Y010990D01*
X009774Y010990D01*
X009914Y010920D02*
X010954Y010920D01*
X010971Y010918D01*
X010988Y010914D01*
X011004Y010907D01*
X011018Y010897D01*
X011031Y010884D01*
X011041Y010870D01*
X011048Y010854D01*
X011052Y010837D01*
X011054Y010820D01*
X011054Y010360D01*
X011052Y010339D01*
X011047Y010319D01*
X011038Y010300D01*
X011026Y010283D01*
X011011Y010268D01*
X010994Y010256D01*
X010975Y010247D01*
X010955Y010242D01*
X010934Y010240D01*
X009894Y010240D01*
X009873Y010242D01*
X009853Y010247D01*
X009834Y010256D01*
X009817Y010268D01*
X009802Y010283D01*
X009790Y010300D01*
X009781Y010319D01*
X009776Y010339D01*
X009774Y010360D01*
X009774Y010800D01*
X009778Y010820D01*
X009784Y010840D01*
X009793Y010858D01*
X009805Y010874D01*
X009819Y010889D01*
X009836Y010901D01*
X009854Y010910D01*
X009873Y010916D01*
X009894Y010920D01*
X009914Y010920D01*
X009774Y010170D02*
X009774Y009490D01*
X011054Y009490D01*
X011054Y010170D01*
X009774Y010170D01*
X009704Y010170D02*
X009704Y009490D01*
X008424Y009490D01*
X008424Y010170D01*
X009704Y010170D01*
X009774Y011740D02*
X009774Y012420D01*
X011054Y012420D01*
X011054Y011740D01*
X009774Y011740D01*
X007204Y010120D02*
X006524Y010120D01*
X006524Y008840D01*
X007204Y008840D01*
X007204Y010120D01*
X004298Y008191D02*
X002330Y008191D01*
X002330Y013152D01*
X004298Y013152D01*
X004298Y008191D01*
X004114Y007830D02*
X002814Y007830D01*
X002797Y007828D01*
X002780Y007824D01*
X002764Y007817D01*
X002750Y007807D01*
X002737Y007794D01*
X002727Y007780D01*
X002720Y007764D01*
X002716Y007747D01*
X002714Y007730D01*
X002714Y007130D01*
X002716Y007113D01*
X002720Y007096D01*
X002727Y007080D01*
X002737Y007066D01*
X002750Y007053D01*
X002764Y007043D01*
X002780Y007036D01*
X002797Y007032D01*
X002814Y007030D01*
X004114Y007030D01*
X004131Y007032D01*
X004148Y007036D01*
X004164Y007043D01*
X004178Y007053D01*
X004191Y007066D01*
X004201Y007080D01*
X004208Y007096D01*
X004212Y007113D01*
X004214Y007130D01*
X004214Y007730D01*
X004212Y007747D01*
X004208Y007764D01*
X004201Y007780D01*
X004191Y007794D01*
X004178Y007807D01*
X004164Y007817D01*
X004148Y007824D01*
X004131Y007828D01*
X004114Y007830D01*
X004173Y006922D02*
X002755Y006922D01*
X002755Y004638D01*
X004173Y004638D01*
X004173Y006922D01*
X005064Y006880D02*
X005864Y006880D01*
X005864Y004680D01*
X005064Y004680D01*
X005064Y006880D01*
X005864Y007130D02*
X005864Y007730D01*
X005866Y007747D01*
X005870Y007764D01*
X005877Y007780D01*
X005887Y007794D01*
X005900Y007807D01*
X005914Y007817D01*
X005930Y007824D01*
X005947Y007828D01*
X005964Y007830D01*
X007264Y007830D01*
X007281Y007828D01*
X007298Y007824D01*
X007314Y007817D01*
X007328Y007807D01*
X007341Y007794D01*
X007351Y007780D01*
X007358Y007764D01*
X007362Y007747D01*
X007364Y007730D01*
X007364Y007130D01*
X007362Y007113D01*
X007358Y007096D01*
X007351Y007080D01*
X007341Y007066D01*
X007328Y007053D01*
X007314Y007043D01*
X007298Y007036D01*
X007281Y007032D01*
X007264Y007030D01*
X005964Y007030D01*
X005947Y007032D01*
X005930Y007036D01*
X005914Y007043D01*
X005900Y007053D01*
X005887Y007066D01*
X005877Y007080D01*
X005870Y007096D01*
X005866Y007113D01*
X005864Y007130D01*
X005955Y006922D02*
X007373Y006922D01*
X007373Y004638D01*
X005955Y004638D01*
X005955Y006922D01*
X008314Y006880D02*
X009114Y006880D01*
X009114Y004680D01*
X008314Y004680D01*
X008314Y006880D01*
X009205Y006922D02*
X010623Y006922D01*
X010623Y004638D01*
X009205Y004638D01*
X009205Y006922D01*
X010714Y006780D02*
X010714Y005480D01*
X010716Y005463D01*
X010720Y005446D01*
X010727Y005430D01*
X010737Y005416D01*
X010750Y005403D01*
X010764Y005393D01*
X010780Y005386D01*
X010797Y005382D01*
X010814Y005380D01*
X011414Y005380D01*
X011431Y005382D01*
X011448Y005386D01*
X011464Y005393D01*
X011478Y005403D01*
X011491Y005416D01*
X011501Y005430D01*
X011508Y005446D01*
X011512Y005463D01*
X011514Y005480D01*
X011514Y006780D01*
X011512Y006797D01*
X011508Y006814D01*
X011501Y006830D01*
X011491Y006844D01*
X011478Y006857D01*
X011464Y006867D01*
X011448Y006874D01*
X011431Y006878D01*
X011414Y006880D01*
X010814Y006880D01*
X010797Y006878D01*
X010780Y006874D01*
X010764Y006867D01*
X010750Y006857D01*
X010737Y006844D01*
X010727Y006830D01*
X010720Y006814D01*
X010716Y006797D01*
X010714Y006780D01*
X010564Y004530D02*
X008364Y004530D01*
X008364Y003730D01*
X010564Y003730D01*
X010564Y004530D01*
X010454Y003620D02*
X009414Y003620D01*
X009394Y003620D01*
X009373Y003616D01*
X009354Y003610D01*
X009336Y003601D01*
X009319Y003589D01*
X009305Y003574D01*
X009293Y003558D01*
X009284Y003540D01*
X009278Y003520D01*
X009274Y003500D01*
X009274Y003060D01*
X009276Y003039D01*
X009281Y003019D01*
X009290Y003000D01*
X009302Y002983D01*
X009317Y002968D01*
X009334Y002956D01*
X009353Y002947D01*
X009373Y002942D01*
X009394Y002940D01*
X010434Y002940D01*
X010455Y002942D01*
X010475Y002947D01*
X010494Y002956D01*
X010511Y002968D01*
X010526Y002983D01*
X010538Y003000D01*
X010547Y003019D01*
X010552Y003039D01*
X010554Y003060D01*
X010554Y003520D01*
X010552Y003537D01*
X010548Y003554D01*
X010541Y003570D01*
X010531Y003584D01*
X010518Y003597D01*
X010504Y003607D01*
X010488Y003614D01*
X010471Y003618D01*
X010454Y003620D01*
X011334Y003656D02*
X016294Y003656D01*
X016294Y001687D01*
X011334Y001687D01*
X011334Y003656D01*
X010664Y002830D02*
X009164Y002830D01*
X009164Y001630D01*
X010664Y001630D01*
X010664Y002830D01*
X010564Y001530D02*
X009264Y001530D01*
X009247Y001528D01*
X009230Y001524D01*
X009214Y001517D01*
X009200Y001507D01*
X009187Y001494D01*
X009177Y001480D01*
X009170Y001464D01*
X009166Y001447D01*
X009164Y001430D01*
X009164Y000830D01*
X009166Y000813D01*
X009170Y000796D01*
X009177Y000780D01*
X009187Y000766D01*
X009200Y000753D01*
X009214Y000743D01*
X009230Y000736D01*
X009247Y000732D01*
X009264Y000730D01*
X010564Y000730D01*
X010581Y000732D01*
X010598Y000736D01*
X010614Y000743D01*
X010628Y000753D01*
X010641Y000766D01*
X010651Y000780D01*
X010658Y000796D01*
X010662Y000813D01*
X010664Y000830D01*
X010664Y001430D01*
X010662Y001447D01*
X010658Y001464D01*
X010651Y001480D01*
X010641Y001494D01*
X010628Y001507D01*
X010614Y001517D01*
X010598Y001524D01*
X010581Y001528D01*
X010564Y001530D01*
X009054Y002020D02*
X009054Y000740D01*
X008374Y000740D01*
X008374Y002020D01*
X009054Y002020D01*
X009054Y002290D02*
X008374Y002290D01*
X008374Y003570D01*
X009054Y003570D01*
X009054Y002290D01*
X007414Y002830D02*
X007414Y001630D01*
X005914Y001630D01*
X005914Y002830D01*
X007414Y002830D01*
X007184Y002940D02*
X006144Y002940D01*
X006123Y002942D01*
X006103Y002947D01*
X006084Y002956D01*
X006067Y002968D01*
X006052Y002983D01*
X006040Y003000D01*
X006031Y003019D01*
X006026Y003039D01*
X006024Y003060D01*
X006024Y003500D01*
X006028Y003520D01*
X006034Y003540D01*
X006043Y003558D01*
X006055Y003574D01*
X006069Y003589D01*
X006086Y003601D01*
X006104Y003610D01*
X006123Y003616D01*
X006144Y003620D01*
X006164Y003620D01*
X007204Y003620D01*
X007221Y003618D01*
X007238Y003614D01*
X007254Y003607D01*
X007268Y003597D01*
X007281Y003584D01*
X007291Y003570D01*
X007298Y003554D01*
X007302Y003537D01*
X007304Y003520D01*
X007304Y003060D01*
X007302Y003039D01*
X007297Y003019D01*
X007288Y003000D01*
X007276Y002983D01*
X007261Y002968D01*
X007244Y002956D01*
X007225Y002947D01*
X007205Y002942D01*
X007184Y002940D01*
X007314Y003730D02*
X007314Y004530D01*
X005114Y004530D01*
X005114Y003730D01*
X007314Y003730D01*
X005804Y003570D02*
X005124Y003570D01*
X005124Y002290D01*
X005804Y002290D01*
X005804Y003570D01*
X004114Y003730D02*
X004114Y004530D01*
X001914Y004530D01*
X001914Y003730D01*
X004114Y003730D01*
X004004Y003620D02*
X002964Y003620D01*
X002944Y003620D01*
X002923Y003616D01*
X002904Y003610D01*
X002886Y003601D01*
X002869Y003589D01*
X002855Y003574D01*
X002843Y003558D01*
X002834Y003540D01*
X002828Y003520D01*
X002824Y003500D01*
X002824Y003060D01*
X002826Y003039D01*
X002831Y003019D01*
X002840Y003000D01*
X002852Y002983D01*
X002867Y002968D01*
X002884Y002956D01*
X002903Y002947D01*
X002923Y002942D01*
X002944Y002940D01*
X003984Y002940D01*
X004005Y002942D01*
X004025Y002947D01*
X004044Y002956D01*
X004061Y002968D01*
X004076Y002983D01*
X004088Y003000D01*
X004097Y003019D01*
X004102Y003039D01*
X004104Y003060D01*
X004104Y003520D01*
X004102Y003537D01*
X004098Y003554D01*
X004091Y003570D01*
X004081Y003584D01*
X004068Y003597D01*
X004054Y003607D01*
X004038Y003614D01*
X004021Y003618D01*
X004004Y003620D01*
X004214Y002830D02*
X002714Y002830D01*
X002714Y001630D01*
X004214Y001630D01*
X004214Y002830D01*
X005124Y002020D02*
X005804Y002020D01*
X005804Y000740D01*
X005124Y000740D01*
X005124Y002020D01*
X005914Y001430D02*
X005914Y000830D01*
X005916Y000813D01*
X005920Y000796D01*
X005927Y000780D01*
X005937Y000766D01*
X005950Y000753D01*
X005964Y000743D01*
X005980Y000736D01*
X005997Y000732D01*
X006014Y000730D01*
X007314Y000730D01*
X007331Y000732D01*
X007348Y000736D01*
X007364Y000743D01*
X007378Y000753D01*
X007391Y000766D01*
X007401Y000780D01*
X007408Y000796D01*
X007412Y000813D01*
X007414Y000830D01*
X007414Y001430D01*
X007412Y001447D01*
X007408Y001464D01*
X007401Y001480D01*
X007391Y001494D01*
X007378Y001507D01*
X007364Y001517D01*
X007348Y001524D01*
X007331Y001528D01*
X007314Y001530D01*
X006014Y001530D01*
X005997Y001528D01*
X005980Y001524D01*
X005964Y001517D01*
X005950Y001507D01*
X005937Y001494D01*
X005927Y001480D01*
X005920Y001464D01*
X005916Y001447D01*
X005914Y001430D01*
X004214Y001430D02*
X004214Y000830D01*
X004212Y000813D01*
X004208Y000796D01*
X004201Y000780D01*
X004191Y000766D01*
X004178Y000753D01*
X004164Y000743D01*
X004148Y000736D01*
X004131Y000732D01*
X004114Y000730D01*
X002814Y000730D01*
X002797Y000732D01*
X002780Y000736D01*
X002764Y000743D01*
X002750Y000753D01*
X002737Y000766D01*
X002727Y000780D01*
X002720Y000796D01*
X002716Y000813D01*
X002714Y000830D01*
X002714Y001430D01*
X002716Y001447D01*
X002720Y001464D01*
X002727Y001480D01*
X002737Y001494D01*
X002750Y001507D01*
X002764Y001517D01*
X002780Y001524D01*
X002797Y001528D01*
X002814Y001530D01*
X004114Y001530D01*
X004131Y001528D01*
X004148Y001524D01*
X004164Y001517D01*
X004178Y001507D01*
X004191Y001494D01*
X004201Y001480D01*
X004208Y001464D01*
X004212Y001447D01*
X004214Y001430D01*
X002604Y002020D02*
X002604Y000740D01*
X001924Y000740D01*
X001924Y002020D01*
X002604Y002020D01*
X002604Y002290D02*
X001924Y002290D01*
X001924Y003570D01*
X002604Y003570D01*
X002604Y002290D01*
X002664Y004680D02*
X001864Y004680D01*
X001864Y006880D01*
X002664Y006880D01*
X002664Y004680D01*
X007044Y013840D02*
X008084Y013840D01*
X008105Y013842D01*
X008125Y013847D01*
X008144Y013856D01*
X008161Y013868D01*
X008176Y013883D01*
X008188Y013900D01*
X008197Y013919D01*
X008202Y013939D01*
X008204Y013960D01*
X008204Y014420D01*
X008202Y014437D01*
X008198Y014454D01*
X008191Y014470D01*
X008181Y014484D01*
X008168Y014497D01*
X008154Y014507D01*
X008138Y014514D01*
X008121Y014518D01*
X008104Y014520D01*
X007064Y014520D01*
X007044Y014590D02*
X008084Y014590D01*
X008105Y014592D01*
X008125Y014597D01*
X008144Y014606D01*
X008161Y014618D01*
X008176Y014633D01*
X008188Y014650D01*
X008197Y014669D01*
X008202Y014689D01*
X008204Y014710D01*
X008204Y015170D01*
X008202Y015187D01*
X008198Y015204D01*
X008191Y015220D01*
X008181Y015234D01*
X008168Y015247D01*
X008154Y015257D01*
X008138Y015264D01*
X008121Y015268D01*
X008104Y015270D01*
X007064Y015270D01*
X007044Y015270D01*
X007023Y015266D01*
X007004Y015260D01*
X006986Y015251D01*
X006969Y015239D01*
X006955Y015224D01*
X006943Y015208D01*
X006934Y015190D01*
X006928Y015170D01*
X006924Y015150D01*
X006924Y014710D01*
X006926Y014689D01*
X006931Y014669D01*
X006940Y014650D01*
X006952Y014633D01*
X006967Y014618D01*
X006984Y014606D01*
X007003Y014597D01*
X007023Y014592D01*
X007044Y014590D01*
X007064Y014520D02*
X007044Y014520D01*
X007023Y014516D01*
X007004Y014510D01*
X006986Y014501D01*
X006969Y014489D01*
X006955Y014474D01*
X006943Y014458D01*
X006934Y014440D01*
X006928Y014420D01*
X006924Y014400D01*
X006924Y013960D01*
X006926Y013939D01*
X006931Y013919D01*
X006940Y013900D01*
X006952Y013883D01*
X006967Y013868D01*
X006984Y013856D01*
X007003Y013847D01*
X007023Y013842D01*
X007044Y013840D01*
X006264Y015430D02*
X007964Y015430D01*
X007990Y015432D01*
X008016Y015437D01*
X008041Y015445D01*
X008064Y015457D01*
X008086Y015471D01*
X008105Y015489D01*
X008123Y015508D01*
X008137Y015530D01*
X008149Y015553D01*
X008157Y015578D01*
X008162Y015604D01*
X008164Y015630D01*
X008164Y016430D01*
X008162Y016456D01*
X008157Y016482D01*
X008149Y016507D01*
X008137Y016530D01*
X008123Y016552D01*
X008105Y016571D01*
X008086Y016589D01*
X008064Y016603D01*
X008041Y016615D01*
X008016Y016623D01*
X007990Y016628D01*
X007964Y016630D01*
X006264Y016630D01*
X006238Y016628D01*
X006212Y016623D01*
X006187Y016615D01*
X006164Y016603D01*
X006142Y016589D01*
X006123Y016571D01*
X006105Y016552D01*
X006091Y016530D01*
X006079Y016507D01*
X006071Y016482D01*
X006066Y016456D01*
X006064Y016430D01*
X006064Y015630D01*
X006066Y015604D01*
X006071Y015578D01*
X006079Y015553D01*
X006091Y015530D01*
X006105Y015508D01*
X006123Y015489D01*
X006142Y015471D01*
X006164Y015457D01*
X006187Y015445D01*
X006212Y015437D01*
X006238Y015432D01*
X006264Y015430D01*
X008614Y015630D02*
X008614Y016430D01*
X008616Y016456D01*
X008621Y016482D01*
X008629Y016507D01*
X008641Y016530D01*
X008655Y016552D01*
X008673Y016571D01*
X008692Y016589D01*
X008714Y016603D01*
X008737Y016615D01*
X008762Y016623D01*
X008788Y016628D01*
X008814Y016630D01*
X010514Y016630D01*
X010540Y016628D01*
X010566Y016623D01*
X010591Y016615D01*
X010614Y016603D01*
X010636Y016589D01*
X010655Y016571D01*
X010673Y016552D01*
X010687Y016530D01*
X010699Y016507D01*
X010707Y016482D01*
X010712Y016456D01*
X010714Y016430D01*
X010714Y015630D01*
X010712Y015604D01*
X010707Y015578D01*
X010699Y015553D01*
X010687Y015530D01*
X010673Y015508D01*
X010655Y015489D01*
X010636Y015471D01*
X010614Y015457D01*
X010591Y015445D01*
X010566Y015437D01*
X010540Y015432D01*
X010514Y015430D01*
X008814Y015430D01*
X008788Y015432D01*
X008762Y015437D01*
X008737Y015445D01*
X008714Y015457D01*
X008692Y015471D01*
X008673Y015489D01*
X008655Y015508D01*
X008641Y015530D01*
X008629Y015553D01*
X008621Y015578D01*
X008616Y015604D01*
X008614Y015630D01*
X011334Y016687D02*
X016294Y016687D01*
X016294Y018656D01*
X011334Y018656D01*
X011334Y016687D01*
X016455Y016588D02*
X017873Y016588D01*
X017873Y018872D01*
X016455Y018872D01*
X016455Y016588D01*
X017974Y017090D02*
X017974Y018370D01*
X018654Y018370D01*
X018654Y017090D01*
X017974Y017090D01*
X018724Y017570D02*
X018724Y016530D01*
X018724Y016510D01*
X018728Y016489D01*
X018734Y016470D01*
X018743Y016452D01*
X018755Y016435D01*
X018770Y016421D01*
X018786Y016409D01*
X018804Y016400D01*
X018824Y016394D01*
X018844Y016390D01*
X019284Y016390D01*
X019305Y016392D01*
X019325Y016397D01*
X019344Y016406D01*
X019361Y016418D01*
X019376Y016433D01*
X019388Y016450D01*
X019397Y016469D01*
X019402Y016489D01*
X019404Y016510D01*
X019404Y017550D01*
X019402Y017571D01*
X019397Y017591D01*
X019388Y017610D01*
X019376Y017627D01*
X019361Y017642D01*
X019344Y017654D01*
X019325Y017663D01*
X019305Y017668D01*
X019284Y017670D01*
X018824Y017670D01*
X018844Y017740D02*
X019304Y017740D01*
X019321Y017742D01*
X019338Y017746D01*
X019354Y017753D01*
X019368Y017763D01*
X019381Y017776D01*
X019391Y017790D01*
X019398Y017806D01*
X019402Y017823D01*
X019404Y017840D01*
X019404Y018880D01*
X019404Y018900D01*
X019400Y018921D01*
X019394Y018940D01*
X019385Y018958D01*
X019373Y018975D01*
X019358Y018989D01*
X019342Y019001D01*
X019324Y019010D01*
X019304Y019016D01*
X019284Y019020D01*
X018844Y019020D01*
X018823Y019018D01*
X018803Y019013D01*
X018784Y019004D01*
X018767Y018992D01*
X018752Y018977D01*
X018740Y018960D01*
X018731Y018941D01*
X018726Y018921D01*
X018724Y018900D01*
X018724Y017860D01*
X018726Y017839D01*
X018731Y017819D01*
X018740Y017800D01*
X018752Y017783D01*
X018767Y017768D01*
X018784Y017756D01*
X018803Y017747D01*
X018823Y017742D01*
X018844Y017740D01*
X018824Y017670D02*
X018807Y017668D01*
X018790Y017664D01*
X018774Y017657D01*
X018760Y017647D01*
X018747Y017634D01*
X018737Y017620D01*
X018730Y017604D01*
X018726Y017587D01*
X018724Y017570D01*
X020064Y016780D02*
X020064Y018580D01*
X020064Y018680D01*
X021464Y018680D01*
X021464Y018580D01*
X021464Y016780D01*
X020064Y016780D01*
X019964Y016180D02*
X019964Y019180D01*
X021564Y019180D01*
X021564Y016180D01*
X019964Y016180D01*
X019914Y015930D02*
X021614Y015930D01*
X021640Y015928D01*
X021666Y015923D01*
X021691Y015915D01*
X021714Y015903D01*
X021736Y015889D01*
X021755Y015871D01*
X021773Y015852D01*
X021787Y015830D01*
X021799Y015807D01*
X021807Y015782D01*
X021812Y015756D01*
X021814Y015730D01*
X021814Y014930D01*
X021812Y014904D01*
X021807Y014878D01*
X021799Y014853D01*
X021787Y014830D01*
X021773Y014808D01*
X021755Y014789D01*
X021736Y014771D01*
X021714Y014757D01*
X021691Y014745D01*
X021666Y014737D01*
X021640Y014732D01*
X021614Y014730D01*
X019914Y014730D01*
X019888Y014732D01*
X019862Y014737D01*
X019837Y014745D01*
X019814Y014757D01*
X019792Y014771D01*
X019773Y014789D01*
X019755Y014808D01*
X019741Y014830D01*
X019729Y014853D01*
X019721Y014878D01*
X019716Y014904D01*
X019714Y014930D01*
X019714Y015730D01*
X019716Y015756D01*
X019721Y015782D01*
X019729Y015807D01*
X019741Y015830D01*
X019755Y015852D01*
X019773Y015871D01*
X019792Y015889D01*
X019814Y015903D01*
X019837Y015915D01*
X019862Y015923D01*
X019888Y015928D01*
X019914Y015930D01*
X021214Y014730D02*
X021214Y013680D01*
X024814Y013680D01*
X024814Y012280D01*
X021214Y012280D01*
X021214Y013680D01*
X021104Y013460D02*
X021104Y014500D01*
X021102Y014521D01*
X021097Y014541D01*
X021088Y014560D01*
X021076Y014577D01*
X021061Y014592D01*
X021044Y014604D01*
X021025Y014613D01*
X021005Y014618D01*
X020984Y014620D01*
X020524Y014620D01*
X020507Y014618D01*
X020490Y014614D01*
X020474Y014607D01*
X020460Y014597D01*
X020447Y014584D01*
X020437Y014570D01*
X020430Y014554D01*
X020426Y014537D01*
X020424Y014520D01*
X020424Y013480D01*
X020424Y013460D01*
X020428Y013439D01*
X020434Y013420D01*
X020443Y013402D01*
X020455Y013385D01*
X020470Y013371D01*
X020486Y013359D01*
X020504Y013350D01*
X020524Y013344D01*
X020544Y013340D01*
X020984Y013340D01*
X021005Y013342D01*
X021025Y013347D01*
X021044Y013356D01*
X021061Y013368D01*
X021076Y013383D01*
X021088Y013400D01*
X021097Y013419D01*
X021102Y013439D01*
X021104Y013460D01*
X021214Y012280D02*
X021214Y011230D01*
X024814Y011230D01*
X024814Y012280D01*
X024974Y012690D02*
X024974Y013970D01*
X025654Y013970D01*
X025654Y012690D01*
X024974Y012690D01*
X024814Y013680D02*
X024814Y014730D01*
X021214Y014730D01*
X022224Y015090D02*
X022224Y015770D01*
X023504Y015770D01*
X023504Y015090D01*
X022224Y015090D01*
X022902Y016031D02*
X022902Y016228D01*
X022312Y016228D01*
X022312Y019378D01*
X022902Y019378D01*
X022902Y016228D01*
X026839Y016228D01*
X026839Y019378D01*
X022902Y019378D01*
X022902Y019574D01*
X026839Y019574D01*
X026839Y019378D01*
X026839Y019574D02*
X028020Y019574D01*
X028020Y016031D01*
X026839Y016031D01*
X026839Y016228D01*
X026839Y016031D02*
X022902Y016031D01*
X025840Y015104D02*
X025840Y010852D01*
X027887Y010852D01*
X027887Y009986D02*
X025840Y009986D01*
X025840Y005734D01*
X027887Y005734D01*
X027887Y004868D02*
X025840Y004868D01*
X025840Y000616D01*
X027887Y000616D01*
X025604Y000910D02*
X025604Y001370D01*
X025602Y001387D01*
X025598Y001404D01*
X025591Y001420D01*
X025581Y001434D01*
X025568Y001447D01*
X025554Y001457D01*
X025538Y001464D01*
X025521Y001468D01*
X025504Y001470D01*
X024464Y001470D01*
X024444Y001470D01*
X024423Y001466D01*
X024404Y001460D01*
X024386Y001451D01*
X024369Y001439D01*
X024355Y001424D01*
X024343Y001408D01*
X024334Y001390D01*
X024328Y001370D01*
X024324Y001350D01*
X024324Y000910D01*
X024326Y000889D01*
X024331Y000869D01*
X024340Y000850D01*
X024352Y000833D01*
X024367Y000818D01*
X024384Y000806D01*
X024403Y000797D01*
X024423Y000792D01*
X024444Y000790D01*
X025484Y000790D01*
X025505Y000792D01*
X025525Y000797D01*
X025544Y000806D01*
X025561Y000818D01*
X025576Y000833D01*
X025588Y000850D01*
X025597Y000869D01*
X025602Y000889D01*
X025604Y000910D01*
X025604Y001590D02*
X025604Y002270D01*
X024324Y002270D01*
X024324Y001590D01*
X025604Y001590D01*
X025604Y002390D02*
X024324Y002390D01*
X024324Y003070D01*
X025604Y003070D01*
X025604Y002390D01*
X025554Y003190D02*
X025094Y003190D01*
X025073Y003192D01*
X025053Y003197D01*
X025034Y003206D01*
X025017Y003218D01*
X025002Y003233D01*
X024990Y003250D01*
X024981Y003269D01*
X024976Y003289D01*
X024974Y003310D01*
X024974Y004350D01*
X024954Y004330D02*
X024954Y003290D01*
X024952Y003273D01*
X024948Y003256D01*
X024941Y003240D01*
X024931Y003226D01*
X024918Y003213D01*
X024904Y003203D01*
X024888Y003196D01*
X024871Y003192D01*
X024854Y003190D01*
X024394Y003190D01*
X024373Y003192D01*
X024353Y003197D01*
X024334Y003206D01*
X024317Y003218D01*
X024302Y003233D01*
X024290Y003250D01*
X024281Y003269D01*
X024276Y003289D01*
X024274Y003310D01*
X024274Y004350D01*
X024276Y004371D01*
X024281Y004391D01*
X024290Y004410D01*
X024302Y004427D01*
X024317Y004442D01*
X024334Y004454D01*
X024353Y004463D01*
X024373Y004468D01*
X024394Y004470D01*
X024834Y004470D01*
X024854Y004466D01*
X024874Y004460D01*
X024892Y004451D01*
X024908Y004439D01*
X024923Y004425D01*
X024935Y004408D01*
X024944Y004390D01*
X024950Y004371D01*
X024954Y004350D01*
X024954Y004330D01*
X024974Y004350D02*
X024976Y004371D01*
X024981Y004391D01*
X024990Y004410D01*
X025002Y004427D01*
X025017Y004442D01*
X025034Y004454D01*
X025053Y004463D01*
X025073Y004468D01*
X025094Y004470D01*
X025534Y004470D01*
X025554Y004466D01*
X025574Y004460D01*
X025592Y004451D01*
X025608Y004439D01*
X025623Y004425D01*
X025635Y004408D01*
X025644Y004390D01*
X025650Y004371D01*
X025654Y004350D01*
X025654Y004330D01*
X025654Y003290D01*
X025652Y003273D01*
X025648Y003256D01*
X025641Y003240D01*
X025631Y003226D01*
X025618Y003213D01*
X025604Y003203D01*
X025588Y003196D01*
X025571Y003192D01*
X025554Y003190D01*
X023314Y005280D02*
X021614Y005280D01*
X021588Y005282D01*
X021562Y005287D01*
X021537Y005295D01*
X021514Y005307D01*
X021492Y005321D01*
X021473Y005339D01*
X021455Y005358D01*
X021441Y005380D01*
X021429Y005403D01*
X021421Y005428D01*
X021416Y005454D01*
X021414Y005480D01*
X021414Y006280D01*
X021416Y006306D01*
X021421Y006332D01*
X021429Y006357D01*
X021441Y006380D01*
X021455Y006402D01*
X021473Y006421D01*
X021492Y006439D01*
X021514Y006453D01*
X021537Y006465D01*
X021562Y006473D01*
X021588Y006478D01*
X021614Y006480D01*
X023314Y006480D01*
X023340Y006478D01*
X023366Y006473D01*
X023391Y006465D01*
X023414Y006453D01*
X023436Y006439D01*
X023455Y006421D01*
X023473Y006402D01*
X023487Y006380D01*
X023499Y006357D01*
X023507Y006332D01*
X023512Y006306D01*
X023514Y006280D01*
X023514Y005480D01*
X023512Y005454D01*
X023507Y005428D01*
X023499Y005403D01*
X023487Y005380D01*
X023473Y005358D01*
X023455Y005339D01*
X023436Y005321D01*
X023414Y005307D01*
X023391Y005295D01*
X023366Y005287D01*
X023340Y005282D01*
X023314Y005280D01*
X023764Y006580D02*
X022664Y006580D01*
X022664Y008580D01*
X023764Y008580D01*
X023764Y006580D01*
X024274Y006990D02*
X024274Y007670D01*
X025554Y007670D01*
X025554Y006990D01*
X024274Y006990D01*
X024274Y007690D02*
X024274Y008370D01*
X025554Y008370D01*
X025554Y007690D01*
X024274Y007690D01*
X024344Y008440D02*
X024804Y008440D01*
X024821Y008442D01*
X024838Y008446D01*
X024854Y008453D01*
X024868Y008463D01*
X024881Y008476D01*
X024891Y008490D01*
X024898Y008506D01*
X024902Y008523D01*
X024904Y008540D01*
X024904Y009580D01*
X024924Y009600D02*
X024924Y008560D01*
X024926Y008539D01*
X024931Y008519D01*
X024940Y008500D01*
X024952Y008483D01*
X024967Y008468D01*
X024984Y008456D01*
X025003Y008447D01*
X025023Y008442D01*
X025044Y008440D01*
X025504Y008440D01*
X025521Y008442D01*
X025538Y008446D01*
X025554Y008453D01*
X025568Y008463D01*
X025581Y008476D01*
X025591Y008490D01*
X025598Y008506D01*
X025602Y008523D01*
X025604Y008540D01*
X025604Y009580D01*
X025604Y009600D01*
X025600Y009621D01*
X025594Y009640D01*
X025585Y009658D01*
X025573Y009675D01*
X025558Y009689D01*
X025542Y009701D01*
X025524Y009710D01*
X025504Y009716D01*
X025484Y009720D01*
X025044Y009720D01*
X025023Y009718D01*
X025003Y009713D01*
X024984Y009704D01*
X024967Y009692D01*
X024952Y009677D01*
X024940Y009660D01*
X024931Y009641D01*
X024926Y009621D01*
X024924Y009600D01*
X024904Y009580D02*
X024904Y009600D01*
X024900Y009621D01*
X024894Y009640D01*
X024885Y009658D01*
X024873Y009675D01*
X024858Y009689D01*
X024842Y009701D01*
X024824Y009710D01*
X024804Y009716D01*
X024784Y009720D01*
X024344Y009720D01*
X024323Y009718D01*
X024303Y009713D01*
X024284Y009704D01*
X024267Y009692D01*
X024252Y009677D01*
X024240Y009660D01*
X024231Y009641D01*
X024226Y009621D01*
X024224Y009600D01*
X024224Y008560D01*
X024226Y008539D01*
X024231Y008519D01*
X024240Y008500D01*
X024252Y008483D01*
X024267Y008468D01*
X024284Y008456D01*
X024303Y008447D01*
X024323Y008442D01*
X024344Y008440D01*
X023654Y008740D02*
X023654Y009780D01*
X023654Y009800D01*
X023650Y009821D01*
X023644Y009840D01*
X023635Y009858D01*
X023623Y009875D01*
X023608Y009889D01*
X023592Y009901D01*
X023574Y009910D01*
X023554Y009916D01*
X023534Y009920D01*
X023094Y009920D01*
X023073Y009918D01*
X023053Y009913D01*
X023034Y009904D01*
X023017Y009892D01*
X023002Y009877D01*
X022990Y009860D01*
X022981Y009841D01*
X022976Y009821D01*
X022974Y009800D01*
X022974Y008760D01*
X022976Y008739D01*
X022981Y008719D01*
X022990Y008700D01*
X023002Y008683D01*
X023017Y008668D01*
X023034Y008656D01*
X023053Y008647D01*
X023073Y008642D01*
X023094Y008640D01*
X023554Y008640D01*
X023571Y008642D01*
X023588Y008646D01*
X023604Y008653D01*
X023618Y008663D01*
X023631Y008676D01*
X023641Y008690D01*
X023648Y008706D01*
X023652Y008723D01*
X023654Y008740D01*
X022864Y008880D02*
X022864Y009680D01*
X022862Y009706D01*
X022857Y009732D01*
X022849Y009757D01*
X022837Y009780D01*
X022823Y009802D01*
X022805Y009821D01*
X022786Y009839D01*
X022764Y009853D01*
X022741Y009865D01*
X022716Y009873D01*
X022690Y009878D01*
X022664Y009880D01*
X020964Y009880D01*
X020938Y009878D01*
X020912Y009873D01*
X020887Y009865D01*
X020864Y009853D01*
X020842Y009839D01*
X020823Y009821D01*
X020805Y009802D01*
X020791Y009780D01*
X020779Y009757D01*
X020771Y009732D01*
X020766Y009706D01*
X020764Y009680D01*
X020764Y008880D01*
X020766Y008854D01*
X020771Y008828D01*
X020779Y008803D01*
X020791Y008780D01*
X020805Y008758D01*
X020823Y008739D01*
X020842Y008721D01*
X020864Y008707D01*
X020887Y008695D01*
X020912Y008687D01*
X020938Y008682D01*
X020964Y008680D01*
X022664Y008680D01*
X022664Y008580D02*
X021664Y008580D01*
X021664Y006580D01*
X020564Y006580D01*
X020564Y008580D01*
X021664Y008580D01*
X022664Y008680D02*
X022690Y008682D01*
X022716Y008687D01*
X022741Y008695D01*
X022764Y008707D01*
X022786Y008721D01*
X022805Y008739D01*
X022823Y008758D01*
X022837Y008780D01*
X022849Y008803D01*
X022857Y008828D01*
X022862Y008854D01*
X022864Y008880D01*
X020404Y008870D02*
X020404Y008190D01*
X019124Y008190D01*
X019124Y008870D01*
X020404Y008870D01*
X020284Y008890D02*
X019244Y008890D01*
X019223Y008892D01*
X019203Y008897D01*
X019184Y008906D01*
X019167Y008918D01*
X019152Y008933D01*
X019140Y008950D01*
X019131Y008969D01*
X019126Y008989D01*
X019124Y009010D01*
X019124Y009450D01*
X019128Y009470D01*
X019134Y009490D01*
X019143Y009508D01*
X019155Y009524D01*
X019169Y009539D01*
X019186Y009551D01*
X019204Y009560D01*
X019223Y009566D01*
X019244Y009570D01*
X019264Y009570D01*
X020304Y009570D01*
X020321Y009568D01*
X020338Y009564D01*
X020354Y009557D01*
X020368Y009547D01*
X020381Y009534D01*
X020391Y009520D01*
X020398Y009504D01*
X020402Y009487D01*
X020404Y009470D01*
X020404Y009010D01*
X020402Y008989D01*
X020397Y008969D01*
X020388Y008950D01*
X020376Y008933D01*
X020361Y008918D01*
X020344Y008906D01*
X020325Y008897D01*
X020305Y008892D01*
X020284Y008890D01*
X020404Y008170D02*
X020404Y007490D01*
X019124Y007490D01*
X019124Y008170D01*
X020404Y008170D01*
X020404Y007470D02*
X019124Y007470D01*
X019124Y006790D01*
X020404Y006790D01*
X020404Y007470D01*
X020624Y006470D02*
X021084Y006470D01*
X021105Y006468D01*
X021125Y006463D01*
X021144Y006454D01*
X021161Y006442D01*
X021176Y006427D01*
X021188Y006410D01*
X021197Y006391D01*
X021202Y006371D01*
X021204Y006350D01*
X021204Y005310D01*
X021202Y005289D01*
X021197Y005269D01*
X021188Y005250D01*
X021176Y005233D01*
X021161Y005218D01*
X021144Y005206D01*
X021125Y005197D01*
X021105Y005192D01*
X021084Y005190D01*
X020644Y005190D01*
X020624Y005194D01*
X020604Y005200D01*
X020586Y005209D01*
X020570Y005221D01*
X020555Y005235D01*
X020543Y005252D01*
X020534Y005270D01*
X020528Y005289D01*
X020524Y005310D01*
X020524Y005330D01*
X020524Y006370D01*
X020526Y006387D01*
X020530Y006404D01*
X020537Y006420D01*
X020547Y006434D01*
X020560Y006447D01*
X020574Y006457D01*
X020590Y006464D01*
X020607Y006468D01*
X020624Y006470D01*
X021664Y006580D02*
X022664Y006580D01*
X025840Y015104D02*
X027887Y015104D01*
X021464Y018580D02*
X020064Y018580D01*
D414*
X019479Y019125D02*
X019479Y019415D01*
X019334Y019270D01*
X019528Y019270D01*
X019233Y019270D02*
X019040Y019270D01*
X019185Y019415D01*
X019185Y019125D01*
X018938Y019173D02*
X018890Y019125D01*
X018793Y019125D01*
X018745Y019173D01*
X018745Y019367D01*
X018793Y019415D01*
X018890Y019415D01*
X018938Y019367D01*
X018431Y018780D02*
X018237Y018973D01*
X018189Y018973D01*
X018189Y018780D01*
X018431Y018780D02*
X018479Y018780D01*
X018479Y018678D02*
X018479Y018485D01*
X018189Y018485D01*
X017436Y019041D02*
X017436Y019089D01*
X017388Y019138D01*
X017242Y019138D01*
X017242Y019041D01*
X017291Y018993D01*
X017388Y018993D01*
X017436Y019041D01*
X017339Y019235D02*
X017242Y019138D01*
X017339Y019235D02*
X017436Y019283D01*
X017141Y018993D02*
X016948Y018993D01*
X016948Y019283D01*
X019529Y017694D02*
X019529Y017500D01*
X019674Y017500D01*
X019625Y017597D01*
X019625Y017645D01*
X019674Y017694D01*
X019771Y017694D01*
X019819Y017645D01*
X019819Y017549D01*
X019771Y017500D01*
X019674Y017399D02*
X019674Y017206D01*
X019529Y017351D01*
X019819Y017351D01*
X019771Y017105D02*
X019819Y017056D01*
X019819Y016959D01*
X019771Y016911D01*
X019577Y016911D01*
X019529Y016959D01*
X019529Y017056D01*
X019577Y017105D01*
X019407Y015778D02*
X019359Y015778D01*
X019359Y015584D01*
X019407Y015483D02*
X019359Y015435D01*
X019359Y015338D01*
X019407Y015290D01*
X019407Y015188D02*
X019359Y015140D01*
X019359Y015043D01*
X019407Y014995D01*
X019601Y014995D01*
X019649Y015043D01*
X019649Y015140D01*
X019601Y015188D01*
X019601Y015290D02*
X019649Y015338D01*
X019649Y015435D01*
X019601Y015483D01*
X019552Y015483D01*
X019504Y015435D01*
X019504Y015386D01*
X019504Y015435D02*
X019455Y015483D01*
X019407Y015483D01*
X019601Y015584D02*
X019649Y015584D01*
X019601Y015584D02*
X019407Y015778D01*
X017512Y015387D02*
X017463Y015435D01*
X017367Y015435D01*
X017318Y015387D01*
X017217Y015387D02*
X017169Y015435D01*
X017072Y015435D01*
X017024Y015387D01*
X016922Y015387D02*
X016874Y015435D01*
X016777Y015435D01*
X016729Y015387D01*
X016729Y015193D01*
X016777Y015145D01*
X016874Y015145D01*
X016922Y015193D01*
X017024Y015145D02*
X017217Y015338D01*
X017217Y015387D01*
X017217Y015145D02*
X017024Y015145D01*
X017318Y015145D02*
X017512Y015338D01*
X017512Y015387D01*
X017512Y015145D02*
X017318Y015145D01*
X015662Y015142D02*
X015662Y015093D01*
X015613Y015045D01*
X015517Y015045D01*
X015468Y015093D01*
X015367Y015045D02*
X015174Y015045D01*
X015367Y015238D01*
X015367Y015287D01*
X015319Y015335D01*
X015222Y015335D01*
X015174Y015287D01*
X015072Y015287D02*
X015024Y015335D01*
X014927Y015335D01*
X014879Y015287D01*
X014879Y015093D01*
X014927Y015045D01*
X015024Y015045D01*
X015072Y015093D01*
X015468Y015287D02*
X015517Y015335D01*
X015613Y015335D01*
X015662Y015287D01*
X015662Y015238D01*
X015613Y015190D01*
X015662Y015142D01*
X015613Y015190D02*
X015565Y015190D01*
X014469Y015354D02*
X014469Y015451D01*
X014421Y015499D01*
X014179Y015499D01*
X014179Y015600D02*
X014179Y015794D01*
X014227Y015794D01*
X014421Y015600D01*
X014469Y015600D01*
X014469Y015354D02*
X014421Y015306D01*
X014179Y015306D01*
X013578Y013565D02*
X013481Y013517D01*
X013384Y013420D01*
X013529Y013420D01*
X013578Y013372D01*
X013578Y013323D01*
X013529Y013275D01*
X013433Y013275D01*
X013384Y013323D01*
X013384Y013420D01*
X013283Y013468D02*
X013283Y013517D01*
X013235Y013565D01*
X013138Y013565D01*
X013090Y013517D01*
X012988Y013517D02*
X012940Y013565D01*
X012843Y013565D01*
X012795Y013517D01*
X012795Y013323D01*
X012843Y013275D01*
X012940Y013275D01*
X012988Y013323D01*
X013090Y013275D02*
X013283Y013468D01*
X013283Y013275D02*
X013090Y013275D01*
X012649Y013179D02*
X012649Y013083D01*
X012601Y013034D01*
X012552Y013034D01*
X012504Y013083D01*
X012504Y013179D01*
X012552Y013228D01*
X012601Y013228D01*
X012649Y013179D01*
X012504Y013179D02*
X012455Y013228D01*
X012407Y013228D01*
X012359Y013179D01*
X012359Y013083D01*
X012407Y013034D01*
X012455Y013034D01*
X012504Y013083D01*
X012504Y012933D02*
X012552Y012885D01*
X012552Y012740D01*
X012649Y012740D02*
X012359Y012740D01*
X012359Y012885D01*
X012407Y012933D01*
X012504Y012933D01*
X012359Y012638D02*
X012359Y012445D01*
X012359Y012542D02*
X012649Y012542D01*
X012149Y012542D02*
X011859Y012542D01*
X011859Y012638D02*
X011859Y012445D01*
X011859Y012740D02*
X011859Y012885D01*
X011907Y012933D01*
X012004Y012933D01*
X012052Y012885D01*
X012052Y012740D01*
X012149Y012740D02*
X011859Y012740D01*
X011955Y013034D02*
X011859Y013131D01*
X012149Y013131D01*
X012149Y013034D02*
X012149Y013228D01*
X011928Y013323D02*
X011879Y013275D01*
X011783Y013275D01*
X011734Y013323D01*
X011633Y013323D02*
X011585Y013275D01*
X011488Y013275D01*
X011440Y013323D01*
X011440Y013517D01*
X011488Y013565D01*
X011585Y013565D01*
X011633Y013517D01*
X011734Y013517D02*
X011783Y013565D01*
X011879Y013565D01*
X011928Y013517D01*
X011928Y013468D01*
X011879Y013420D01*
X011928Y013372D01*
X011928Y013323D01*
X011879Y013420D02*
X011831Y013420D01*
X010778Y013673D02*
X010729Y013625D01*
X010633Y013625D01*
X010584Y013673D01*
X010483Y013625D02*
X010290Y013625D01*
X010386Y013625D02*
X010386Y013915D01*
X010290Y013818D01*
X010188Y013867D02*
X010140Y013915D01*
X010043Y013915D01*
X009995Y013867D01*
X009995Y013673D01*
X010043Y013625D01*
X010140Y013625D01*
X010188Y013673D01*
X010219Y013555D02*
X010364Y013555D01*
X010412Y013507D01*
X010412Y013410D01*
X010364Y013362D01*
X010219Y013362D01*
X010316Y013362D02*
X010412Y013265D01*
X010514Y013265D02*
X010707Y013458D01*
X010707Y013507D01*
X010659Y013555D01*
X010562Y013555D01*
X010514Y013507D01*
X010514Y013265D02*
X010707Y013265D01*
X010778Y013673D02*
X010778Y013722D01*
X010729Y013770D01*
X010681Y013770D01*
X010729Y013770D02*
X010778Y013818D01*
X010778Y013867D01*
X010729Y013915D01*
X010633Y013915D01*
X010584Y013867D01*
X010219Y013555D02*
X010219Y013265D01*
X008569Y013954D02*
X008569Y014051D01*
X008521Y014099D01*
X008521Y014200D02*
X008569Y014249D01*
X008569Y014345D01*
X008521Y014394D01*
X008327Y014394D01*
X008279Y014345D01*
X008279Y014249D01*
X008327Y014200D01*
X008375Y014200D01*
X008424Y014249D01*
X008424Y014394D01*
X008521Y014656D02*
X008569Y014704D01*
X008569Y014801D01*
X008521Y014849D01*
X008569Y014950D02*
X008375Y015144D01*
X008327Y015144D01*
X008279Y015095D01*
X008279Y014999D01*
X008327Y014950D01*
X008327Y014849D02*
X008279Y014801D01*
X008279Y014704D01*
X008327Y014656D01*
X008521Y014656D01*
X008569Y014950D02*
X008569Y015144D01*
X008327Y014099D02*
X008279Y014051D01*
X008279Y013954D01*
X008327Y013906D01*
X008521Y013906D01*
X008569Y013954D01*
X006778Y013975D02*
X006584Y013975D01*
X006778Y014168D01*
X006778Y014217D01*
X006729Y014265D01*
X006633Y014265D01*
X006584Y014217D01*
X006386Y014265D02*
X006386Y013975D01*
X006290Y013975D02*
X006483Y013975D01*
X006290Y014168D02*
X006386Y014265D01*
X006188Y014217D02*
X006140Y014265D01*
X006043Y014265D01*
X005995Y014217D01*
X005995Y014023D01*
X006043Y013975D01*
X006140Y013975D01*
X006188Y014023D01*
X005417Y013745D02*
X005224Y013745D01*
X005320Y013745D02*
X005320Y014035D01*
X005224Y013938D01*
X005122Y013987D02*
X005122Y014035D01*
X005122Y013987D02*
X005026Y013890D01*
X005026Y013745D01*
X005026Y013890D02*
X004929Y013987D01*
X004929Y014035D01*
X006290Y014823D02*
X006290Y015017D01*
X006338Y015065D01*
X006435Y015065D01*
X006483Y015017D01*
X006584Y014920D02*
X006584Y014823D01*
X006633Y014775D01*
X006729Y014775D01*
X006778Y014823D01*
X006778Y014872D01*
X006729Y014920D01*
X006584Y014920D01*
X006681Y015017D01*
X006778Y015065D01*
X006483Y014823D02*
X006435Y014775D01*
X006338Y014775D01*
X006290Y014823D01*
X006977Y016745D02*
X007074Y016745D01*
X007122Y016793D01*
X007224Y016793D02*
X007224Y016745D01*
X007224Y016793D02*
X007417Y016987D01*
X007417Y017035D01*
X007224Y017035D01*
X007122Y016987D02*
X007074Y017035D01*
X006977Y017035D01*
X006929Y016987D01*
X006929Y016793D01*
X006977Y016745D01*
X009479Y016793D02*
X009527Y016745D01*
X009624Y016745D01*
X009672Y016793D01*
X009774Y016890D02*
X009919Y017035D01*
X009919Y016745D01*
X009967Y016890D02*
X009774Y016890D01*
X009672Y016987D02*
X009624Y017035D01*
X009527Y017035D01*
X009479Y016987D01*
X009479Y016793D01*
X010859Y015736D02*
X011149Y015736D01*
X011149Y015640D02*
X011149Y015833D01*
X010955Y015640D02*
X010859Y015736D01*
X010859Y015538D02*
X011101Y015538D01*
X011149Y015490D01*
X011149Y015393D01*
X011101Y015345D01*
X010859Y015345D01*
X011169Y012205D02*
X011314Y012205D01*
X011362Y012157D01*
X011362Y012060D01*
X011314Y012012D01*
X011169Y012012D01*
X011266Y012012D02*
X011362Y011915D01*
X011464Y012060D02*
X011657Y012060D01*
X011609Y011915D02*
X011609Y012205D01*
X011464Y012060D01*
X011169Y011915D02*
X011169Y012205D01*
X011169Y011505D02*
X011314Y011505D01*
X011362Y011457D01*
X011362Y011360D01*
X011314Y011312D01*
X011169Y011312D01*
X011266Y011312D02*
X011362Y011215D01*
X011464Y011263D02*
X011512Y011215D01*
X011609Y011215D01*
X011657Y011263D01*
X011657Y011360D01*
X011609Y011408D01*
X011560Y011408D01*
X011464Y011360D01*
X011464Y011505D01*
X011657Y011505D01*
X011169Y011505D02*
X011169Y011215D01*
X011227Y010735D02*
X011179Y010687D01*
X011179Y010493D01*
X011227Y010445D01*
X011324Y010445D01*
X011372Y010493D01*
X011474Y010445D02*
X011667Y010638D01*
X011667Y010687D01*
X011619Y010735D01*
X011522Y010735D01*
X011474Y010687D01*
X011372Y010687D02*
X011324Y010735D01*
X011227Y010735D01*
X011474Y010445D02*
X011667Y010445D01*
X011768Y010445D02*
X011962Y010445D01*
X011865Y010445D02*
X011865Y010735D01*
X011768Y010638D01*
X011657Y010005D02*
X011560Y009957D01*
X011464Y009860D01*
X011609Y009860D01*
X011657Y009812D01*
X011657Y009763D01*
X011609Y009715D01*
X011512Y009715D01*
X011464Y009763D01*
X011464Y009860D01*
X011362Y009860D02*
X011314Y009812D01*
X011169Y009812D01*
X011266Y009812D02*
X011362Y009715D01*
X011362Y009860D02*
X011362Y009957D01*
X011314Y010005D01*
X011169Y010005D01*
X011169Y009715D01*
X011895Y009317D02*
X011895Y009123D01*
X011943Y009075D01*
X012040Y009075D01*
X012088Y009123D01*
X012190Y009123D02*
X012238Y009075D01*
X012335Y009075D01*
X012383Y009123D01*
X012383Y009172D01*
X012335Y009220D01*
X012286Y009220D01*
X012335Y009220D02*
X012383Y009268D01*
X012383Y009317D01*
X012335Y009365D01*
X012238Y009365D01*
X012190Y009317D01*
X012088Y009317D02*
X012040Y009365D01*
X011943Y009365D01*
X011895Y009317D01*
X012484Y009317D02*
X012484Y009123D01*
X012678Y009317D01*
X012678Y009123D01*
X012629Y009075D01*
X012533Y009075D01*
X012484Y009123D01*
X012484Y009317D02*
X012533Y009365D01*
X012629Y009365D01*
X012678Y009317D01*
X012688Y008595D02*
X012494Y008595D01*
X012494Y008450D01*
X012591Y008498D01*
X012639Y008498D01*
X012688Y008450D01*
X012688Y008353D01*
X012639Y008305D01*
X012543Y008305D01*
X012494Y008353D01*
X012393Y008305D02*
X012200Y008305D01*
X012296Y008305D02*
X012296Y008595D01*
X012200Y008498D01*
X012098Y008450D02*
X012050Y008402D01*
X011905Y008402D01*
X012002Y008402D02*
X012098Y008305D01*
X012098Y008450D02*
X012098Y008547D01*
X012050Y008595D01*
X011905Y008595D01*
X011905Y008305D01*
X011905Y007945D02*
X012050Y007945D01*
X012098Y007897D01*
X012098Y007800D01*
X012050Y007752D01*
X011905Y007752D01*
X012002Y007752D02*
X012098Y007655D01*
X012200Y007655D02*
X012393Y007655D01*
X012296Y007655D02*
X012296Y007945D01*
X012200Y007848D01*
X012494Y007897D02*
X012543Y007945D01*
X012639Y007945D01*
X012688Y007897D01*
X012688Y007848D01*
X012494Y007655D01*
X012688Y007655D01*
X012639Y007295D02*
X012688Y007247D01*
X012688Y007198D01*
X012639Y007150D01*
X012688Y007102D01*
X012688Y007053D01*
X012639Y007005D01*
X012543Y007005D01*
X012494Y007053D01*
X012393Y007005D02*
X012200Y007005D01*
X012296Y007005D02*
X012296Y007295D01*
X012200Y007198D01*
X012098Y007150D02*
X012050Y007102D01*
X011905Y007102D01*
X012002Y007102D02*
X012098Y007005D01*
X012098Y007150D02*
X012098Y007247D01*
X012050Y007295D01*
X011905Y007295D01*
X011905Y007005D01*
X011512Y007237D02*
X011318Y007043D01*
X011318Y006995D01*
X011217Y006995D02*
X011024Y006995D01*
X011217Y007188D01*
X011217Y007237D01*
X011169Y007285D01*
X011072Y007285D01*
X011024Y007237D01*
X010922Y007237D02*
X010874Y007285D01*
X010777Y007285D01*
X010729Y007237D01*
X010729Y007043D01*
X010777Y006995D01*
X010874Y006995D01*
X010922Y007043D01*
X011318Y007285D02*
X011512Y007285D01*
X011512Y007237D01*
X011905Y007655D02*
X011905Y007945D01*
X012543Y007295D02*
X012494Y007247D01*
X012543Y007295D02*
X012639Y007295D01*
X012639Y007150D02*
X012591Y007150D01*
X012639Y006595D02*
X012494Y006450D01*
X012688Y006450D01*
X012639Y006305D02*
X012639Y006595D01*
X012296Y006595D02*
X012296Y006305D01*
X012200Y006305D02*
X012393Y006305D01*
X012200Y006498D02*
X012296Y006595D01*
X012098Y006547D02*
X012098Y006450D01*
X012050Y006402D01*
X011905Y006402D01*
X012002Y006402D02*
X012098Y006305D01*
X011905Y006305D02*
X011905Y006595D01*
X012050Y006595D01*
X012098Y006547D01*
X012119Y005135D02*
X012167Y005087D01*
X012167Y004990D01*
X012119Y004942D01*
X011974Y004942D01*
X011974Y004845D02*
X011974Y005135D01*
X012119Y005135D01*
X012268Y005135D02*
X012268Y004990D01*
X012365Y005038D01*
X012413Y005038D01*
X012462Y004990D01*
X012462Y004893D01*
X012413Y004845D01*
X012317Y004845D01*
X012268Y004893D01*
X012268Y005135D02*
X012462Y005135D01*
X011872Y005135D02*
X011679Y005135D01*
X011776Y005135D02*
X011776Y004845D01*
X011136Y004279D02*
X010990Y004134D01*
X011184Y004134D01*
X011136Y003989D02*
X011136Y004279D01*
X010889Y004231D02*
X010841Y004279D01*
X010696Y004279D01*
X010696Y003989D01*
X010841Y003989D01*
X010889Y004037D01*
X010889Y004231D01*
X010824Y003694D02*
X010824Y003500D01*
X010679Y003645D01*
X010969Y003645D01*
X010969Y003399D02*
X010969Y003206D01*
X010775Y003399D01*
X010727Y003399D01*
X010679Y003351D01*
X010679Y003254D01*
X010727Y003206D01*
X010727Y003105D02*
X010679Y003056D01*
X010679Y002959D01*
X010727Y002911D01*
X010921Y002911D01*
X010969Y002959D01*
X010969Y003056D01*
X010921Y003105D01*
X010972Y002385D02*
X010972Y002143D01*
X010924Y002095D01*
X010827Y002095D01*
X010779Y002143D01*
X010779Y002385D01*
X011074Y002240D02*
X011267Y002240D01*
X011219Y002095D02*
X011219Y002385D01*
X011074Y002240D01*
X011059Y001528D02*
X011107Y001528D01*
X011301Y001334D01*
X011349Y001334D01*
X011349Y001233D02*
X011349Y001040D01*
X011349Y001136D02*
X011059Y001136D01*
X011155Y001040D01*
X011107Y000938D02*
X011059Y000890D01*
X011059Y000793D01*
X011107Y000745D01*
X011301Y000745D01*
X011349Y000793D01*
X011349Y000890D01*
X011301Y000938D01*
X011059Y001334D02*
X011059Y001528D01*
X008288Y001897D02*
X008094Y001703D01*
X008094Y001655D01*
X007993Y001655D02*
X007896Y001752D01*
X007945Y001752D02*
X007800Y001752D01*
X007800Y001655D02*
X007800Y001945D01*
X007945Y001945D01*
X007993Y001897D01*
X007993Y001800D01*
X007945Y001752D01*
X007905Y001528D02*
X007954Y001479D01*
X007954Y001383D01*
X007905Y001334D01*
X007857Y001334D01*
X007809Y001383D01*
X007809Y001479D01*
X007857Y001528D01*
X007905Y001528D01*
X007954Y001479D02*
X008002Y001528D01*
X008051Y001528D01*
X008099Y001479D01*
X008099Y001383D01*
X008051Y001334D01*
X008002Y001334D01*
X007954Y001383D01*
X008099Y001233D02*
X008099Y001040D01*
X008099Y001136D02*
X007809Y001136D01*
X007905Y001040D01*
X007857Y000938D02*
X007809Y000890D01*
X007809Y000793D01*
X007857Y000745D01*
X008051Y000745D01*
X008099Y000793D01*
X008099Y000890D01*
X008051Y000938D01*
X008288Y001897D02*
X008288Y001945D01*
X008094Y001945D01*
X007919Y002095D02*
X007822Y002095D01*
X007774Y002143D01*
X007774Y002240D02*
X007870Y002288D01*
X007919Y002288D01*
X007967Y002240D01*
X007967Y002143D01*
X007919Y002095D01*
X007774Y002240D02*
X007774Y002385D01*
X007967Y002385D01*
X007672Y002385D02*
X007672Y002143D01*
X007624Y002095D01*
X007527Y002095D01*
X007479Y002143D01*
X007479Y002385D01*
X007477Y002911D02*
X007671Y002911D01*
X007719Y002959D01*
X007719Y003056D01*
X007671Y003105D01*
X007719Y003206D02*
X007525Y003399D01*
X007477Y003399D01*
X007429Y003351D01*
X007429Y003254D01*
X007477Y003206D01*
X007477Y003105D02*
X007429Y003056D01*
X007429Y002959D01*
X007477Y002911D01*
X007719Y003206D02*
X007719Y003399D01*
X007671Y003500D02*
X007719Y003549D01*
X007719Y003645D01*
X007671Y003694D01*
X007574Y003694D01*
X007525Y003645D01*
X007525Y003597D01*
X007574Y003500D01*
X007429Y003500D01*
X007429Y003694D01*
X007396Y003989D02*
X007541Y003989D01*
X007589Y004037D01*
X007589Y004231D01*
X007541Y004279D01*
X007396Y004279D01*
X007396Y003989D01*
X007690Y004037D02*
X007739Y003989D01*
X007836Y003989D01*
X007884Y004037D01*
X007884Y004134D01*
X007836Y004182D01*
X007787Y004182D01*
X007690Y004134D01*
X007690Y004279D01*
X007884Y004279D01*
X007868Y004731D02*
X007916Y004780D01*
X007916Y004973D01*
X007868Y005022D01*
X007723Y005022D01*
X007723Y004731D01*
X007868Y004731D01*
X008017Y004780D02*
X008066Y004731D01*
X008162Y004731D01*
X008211Y004780D01*
X008211Y004828D01*
X008162Y004876D01*
X008017Y004876D01*
X008017Y004780D01*
X008017Y004876D02*
X008114Y004973D01*
X008211Y005022D01*
X007767Y005337D02*
X007476Y005337D01*
X007767Y005337D02*
X007767Y005530D01*
X007718Y005631D02*
X007767Y005680D01*
X007767Y005777D01*
X007718Y005825D01*
X007670Y005825D01*
X007621Y005777D01*
X007621Y005728D01*
X007621Y005777D02*
X007573Y005825D01*
X007525Y005825D01*
X007476Y005777D01*
X007476Y005680D01*
X007525Y005631D01*
X007507Y007045D02*
X007701Y007045D01*
X007749Y007093D01*
X007749Y007190D01*
X007701Y007238D01*
X007749Y007340D02*
X007555Y007533D01*
X007507Y007533D01*
X007459Y007485D01*
X007459Y007388D01*
X007507Y007340D01*
X007507Y007238D02*
X007459Y007190D01*
X007459Y007093D01*
X007507Y007045D01*
X007749Y007340D02*
X007749Y007533D01*
X007701Y007634D02*
X007652Y007634D01*
X007604Y007683D01*
X007604Y007779D01*
X007652Y007828D01*
X007701Y007828D01*
X007749Y007779D01*
X007749Y007683D01*
X007701Y007634D01*
X007604Y007683D02*
X007555Y007634D01*
X007507Y007634D01*
X007459Y007683D01*
X007459Y007779D01*
X007507Y007828D01*
X007555Y007828D01*
X007604Y007779D01*
X007203Y008465D02*
X007107Y008465D01*
X007058Y008513D01*
X007058Y008610D02*
X007155Y008658D01*
X007203Y008658D01*
X007252Y008610D01*
X007252Y008513D01*
X007203Y008465D01*
X007058Y008610D02*
X007058Y008755D01*
X007252Y008755D01*
X006957Y008707D02*
X006909Y008755D01*
X006812Y008755D01*
X006764Y008707D01*
X006662Y008707D02*
X006662Y008610D01*
X006614Y008562D01*
X006469Y008562D01*
X006566Y008562D02*
X006662Y008465D01*
X006764Y008465D02*
X006957Y008658D01*
X006957Y008707D01*
X006957Y008465D02*
X006764Y008465D01*
X006662Y008707D02*
X006614Y008755D01*
X006469Y008755D01*
X006469Y008465D01*
X005728Y008015D02*
X005631Y007967D01*
X005534Y007870D01*
X005679Y007870D01*
X005728Y007822D01*
X005728Y007773D01*
X005679Y007725D01*
X005583Y007725D01*
X005534Y007773D01*
X005534Y007870D01*
X005433Y007870D02*
X005385Y007822D01*
X005240Y007822D01*
X005240Y007725D02*
X005240Y008015D01*
X005385Y008015D01*
X005433Y007967D01*
X005433Y007870D01*
X005138Y008015D02*
X004945Y008015D01*
X005042Y008015D02*
X005042Y007725D01*
X004599Y007729D02*
X004309Y007729D01*
X004454Y007584D01*
X004454Y007778D01*
X004599Y007483D02*
X004599Y007290D01*
X004599Y007386D02*
X004309Y007386D01*
X004405Y007290D01*
X004357Y007188D02*
X004309Y007140D01*
X004309Y007043D01*
X004357Y006995D01*
X004551Y006995D01*
X004599Y007043D01*
X004599Y007140D01*
X004551Y007188D01*
X004567Y005975D02*
X004567Y005781D01*
X004567Y005878D02*
X004276Y005878D01*
X004373Y005781D01*
X004567Y005680D02*
X004567Y005487D01*
X004276Y005487D01*
X004473Y005172D02*
X004618Y005172D01*
X004666Y005123D01*
X004666Y004930D01*
X004618Y004881D01*
X004473Y004881D01*
X004473Y005172D01*
X004767Y005172D02*
X004961Y005172D01*
X004961Y005123D01*
X004767Y004930D01*
X004767Y004881D01*
X004686Y004279D02*
X004589Y004279D01*
X004540Y004231D01*
X004439Y004231D02*
X004391Y004279D01*
X004246Y004279D01*
X004246Y003989D01*
X004391Y003989D01*
X004439Y004037D01*
X004439Y004231D01*
X004686Y004279D02*
X004734Y004231D01*
X004734Y004182D01*
X004540Y003989D01*
X004734Y003989D01*
X004471Y003694D02*
X004519Y003645D01*
X004519Y003549D01*
X004471Y003500D01*
X004422Y003500D01*
X004374Y003549D01*
X004374Y003645D01*
X004422Y003694D01*
X004471Y003694D01*
X004374Y003645D02*
X004325Y003694D01*
X004277Y003694D01*
X004229Y003645D01*
X004229Y003549D01*
X004277Y003500D01*
X004325Y003500D01*
X004374Y003549D01*
X004471Y003399D02*
X004519Y003351D01*
X004519Y003254D01*
X004471Y003206D01*
X004277Y003206D01*
X004229Y003254D01*
X004229Y003351D01*
X004277Y003399D01*
X004739Y003319D02*
X004739Y003223D01*
X004787Y003174D01*
X004981Y003174D01*
X004787Y003368D01*
X004981Y003368D01*
X005029Y003319D01*
X005029Y003223D01*
X004981Y003174D01*
X005029Y003073D02*
X005029Y002880D01*
X005029Y002976D02*
X004739Y002976D01*
X004835Y002880D01*
X004787Y002778D02*
X004884Y002778D01*
X004932Y002730D01*
X004932Y002585D01*
X004932Y002682D02*
X005029Y002778D01*
X005029Y002585D02*
X004739Y002585D01*
X004739Y002730D01*
X004787Y002778D01*
X004719Y002385D02*
X004622Y002385D01*
X004574Y002337D01*
X004472Y002385D02*
X004472Y002143D01*
X004424Y002095D01*
X004327Y002095D01*
X004279Y002143D01*
X004279Y002385D01*
X004574Y002095D02*
X004767Y002288D01*
X004767Y002337D01*
X004719Y002385D01*
X004767Y002095D02*
X004574Y002095D01*
X004550Y001895D02*
X004695Y001895D01*
X004743Y001847D01*
X004743Y001750D01*
X004695Y001702D01*
X004550Y001702D01*
X004646Y001702D02*
X004743Y001605D01*
X004844Y001653D02*
X004844Y001702D01*
X004893Y001750D01*
X004989Y001750D01*
X005038Y001702D01*
X005038Y001653D01*
X004989Y001605D01*
X004893Y001605D01*
X004844Y001653D01*
X004893Y001750D02*
X004844Y001798D01*
X004844Y001847D01*
X004893Y001895D01*
X004989Y001895D01*
X005038Y001847D01*
X005038Y001798D01*
X004989Y001750D01*
X004550Y001605D02*
X004550Y001895D01*
X004609Y001183D02*
X004609Y000990D01*
X004754Y000990D01*
X004705Y001086D01*
X004705Y001135D01*
X004754Y001183D01*
X004851Y001183D01*
X004899Y001135D01*
X004899Y001038D01*
X004851Y000990D01*
X004851Y000888D02*
X004899Y000840D01*
X004899Y000743D01*
X004851Y000695D01*
X004657Y000695D01*
X004609Y000743D01*
X004609Y000840D01*
X004657Y000888D01*
X001829Y001035D02*
X001539Y001035D01*
X001539Y001180D01*
X001587Y001228D01*
X001684Y001228D01*
X001732Y001180D01*
X001732Y001035D01*
X001732Y001132D02*
X001829Y001228D01*
X001829Y001330D02*
X001829Y001523D01*
X001829Y001426D02*
X001539Y001426D01*
X001635Y001330D01*
X001539Y002585D02*
X001539Y002730D01*
X001587Y002778D01*
X001684Y002778D01*
X001732Y002730D01*
X001732Y002585D01*
X001732Y002682D02*
X001829Y002778D01*
X001781Y002880D02*
X001829Y002928D01*
X001829Y003025D01*
X001781Y003073D01*
X001732Y003073D01*
X001684Y003025D01*
X001684Y002976D01*
X001684Y003025D02*
X001635Y003073D01*
X001587Y003073D01*
X001539Y003025D01*
X001539Y002928D01*
X001587Y002880D01*
X001539Y002585D02*
X001829Y002585D01*
X004739Y003319D02*
X004787Y003368D01*
X001755Y005362D02*
X001755Y005507D01*
X001707Y005555D01*
X001513Y005555D01*
X001465Y005507D01*
X001465Y005362D01*
X001755Y005362D01*
X001707Y005657D02*
X001755Y005705D01*
X001755Y005802D01*
X001707Y005850D01*
X001658Y005850D01*
X001610Y005802D01*
X001610Y005753D01*
X001610Y005802D02*
X001562Y005850D01*
X001513Y005850D01*
X001465Y005802D01*
X001465Y005705D01*
X001513Y005657D01*
X001942Y007725D02*
X001942Y008015D01*
X002038Y008015D02*
X001845Y008015D01*
X002140Y008015D02*
X002285Y008015D01*
X002333Y007967D01*
X002333Y007870D01*
X002285Y007822D01*
X002140Y007822D01*
X002140Y007725D02*
X002140Y008015D01*
X002434Y007967D02*
X002483Y008015D01*
X002579Y008015D01*
X002628Y007967D01*
X002628Y007918D01*
X002434Y007725D01*
X002628Y007725D01*
X005729Y010743D02*
X005777Y010695D01*
X005874Y010695D01*
X005922Y010743D01*
X006024Y010695D02*
X006217Y010695D01*
X006120Y010695D02*
X006120Y010985D01*
X006024Y010888D01*
X005922Y010937D02*
X005874Y010985D01*
X005777Y010985D01*
X005729Y010937D01*
X005729Y010743D01*
X006644Y010788D02*
X006886Y010788D01*
X006934Y010740D01*
X006934Y010643D01*
X006886Y010595D01*
X006644Y010595D01*
X006692Y010890D02*
X006644Y010938D01*
X006644Y011035D01*
X006692Y011083D01*
X006740Y011083D01*
X006789Y011035D01*
X006837Y011083D01*
X006886Y011083D01*
X006934Y011035D01*
X006934Y010938D01*
X006886Y010890D01*
X006789Y010986D02*
X006789Y011035D01*
X008005Y009345D02*
X008150Y009345D01*
X008198Y009297D01*
X008198Y009200D01*
X008150Y009152D01*
X008005Y009152D01*
X008102Y009152D02*
X008198Y009055D01*
X008300Y009055D02*
X008493Y009055D01*
X008396Y009055D02*
X008396Y009345D01*
X008300Y009248D01*
X008594Y009248D02*
X008691Y009345D01*
X008691Y009055D01*
X008594Y009055D02*
X008788Y009055D01*
X008945Y009165D02*
X009138Y009165D01*
X009042Y009165D02*
X009042Y008875D01*
X009240Y008875D02*
X009240Y009165D01*
X009385Y009165D01*
X009433Y009117D01*
X009433Y009020D01*
X009385Y008972D01*
X009240Y008972D01*
X009534Y008923D02*
X009583Y008875D01*
X009679Y008875D01*
X009728Y008923D01*
X009728Y008972D01*
X009679Y009020D01*
X009631Y009020D01*
X009679Y009020D02*
X009728Y009068D01*
X009728Y009117D01*
X009679Y009165D01*
X009583Y009165D01*
X009534Y009117D01*
X009629Y008415D02*
X009484Y008270D01*
X009678Y008270D01*
X009629Y008125D02*
X009629Y008415D01*
X009383Y008367D02*
X009383Y008270D01*
X009335Y008222D01*
X009190Y008222D01*
X009190Y008125D02*
X009190Y008415D01*
X009335Y008415D01*
X009383Y008367D01*
X009088Y008415D02*
X008895Y008415D01*
X008992Y008415D02*
X008992Y008125D01*
X009398Y007283D02*
X009398Y006993D01*
X009591Y006993D01*
X009692Y006993D02*
X009886Y007186D01*
X009886Y007235D01*
X009838Y007283D01*
X009741Y007283D01*
X009692Y007235D01*
X009692Y006993D02*
X009886Y006993D01*
X008005Y009055D02*
X008005Y009345D01*
X013545Y009773D02*
X013593Y009725D01*
X013690Y009725D01*
X013738Y009773D01*
X013840Y009725D02*
X014033Y009725D01*
X013936Y009725D02*
X013936Y010015D01*
X013840Y009918D01*
X013738Y009967D02*
X013690Y010015D01*
X013593Y010015D01*
X013545Y009967D01*
X013545Y009773D01*
X014134Y009773D02*
X014183Y009725D01*
X014279Y009725D01*
X014328Y009773D01*
X014328Y009967D01*
X014134Y009773D01*
X014134Y009967D01*
X014183Y010015D01*
X014279Y010015D01*
X014328Y009967D01*
X014179Y010875D02*
X014083Y010875D01*
X014034Y010923D01*
X014228Y011117D01*
X014228Y010923D01*
X014179Y010875D01*
X014034Y010923D02*
X014034Y011117D01*
X014083Y011165D01*
X014179Y011165D01*
X014228Y011117D01*
X013933Y011117D02*
X013885Y011165D01*
X013788Y011165D01*
X013740Y011117D01*
X013638Y011117D02*
X013590Y011165D01*
X013493Y011165D01*
X013445Y011117D01*
X013445Y010923D01*
X013493Y010875D01*
X013590Y010875D01*
X013638Y010923D01*
X013740Y010875D02*
X013933Y011068D01*
X013933Y011117D01*
X013933Y010875D02*
X013740Y010875D01*
X013735Y011575D02*
X013638Y011575D01*
X013590Y011623D01*
X013590Y011865D01*
X013783Y011865D02*
X013783Y011623D01*
X013735Y011575D01*
X013884Y011623D02*
X013933Y011575D01*
X014029Y011575D01*
X014078Y011623D01*
X014078Y011672D01*
X014029Y011720D01*
X013933Y011720D01*
X013884Y011768D01*
X013884Y011817D01*
X013933Y011865D01*
X014029Y011865D01*
X014078Y011817D01*
X014078Y011768D01*
X014029Y011720D01*
X013933Y011720D02*
X013884Y011672D01*
X013884Y011623D01*
X017309Y011229D02*
X017309Y011133D01*
X017357Y011084D01*
X017405Y011084D01*
X017454Y011133D01*
X017454Y011278D01*
X017551Y011278D02*
X017357Y011278D01*
X017309Y011229D01*
X017551Y011278D02*
X017599Y011229D01*
X017599Y011133D01*
X017551Y011084D01*
X017599Y010983D02*
X017599Y010790D01*
X017599Y010886D02*
X017309Y010886D01*
X017405Y010790D01*
X017357Y010688D02*
X017309Y010640D01*
X017309Y010543D01*
X017357Y010495D01*
X017551Y010495D01*
X017599Y010543D01*
X017599Y010640D01*
X017551Y010688D01*
X017699Y010028D02*
X017699Y009834D01*
X017699Y009931D02*
X017409Y009931D01*
X017505Y009834D01*
X017699Y009733D02*
X017699Y009540D01*
X017699Y009636D02*
X017409Y009636D01*
X017505Y009540D01*
X017457Y009438D02*
X017409Y009390D01*
X017409Y009293D01*
X017457Y009245D01*
X017651Y009245D01*
X017699Y009293D01*
X017699Y009390D01*
X017651Y009438D01*
X018159Y008929D02*
X018207Y008978D01*
X018401Y008978D01*
X018449Y008929D01*
X018449Y008833D01*
X018401Y008784D01*
X018304Y008833D02*
X018304Y008978D01*
X018304Y008833D02*
X018255Y008784D01*
X018207Y008784D01*
X018159Y008833D01*
X018159Y008929D01*
X018207Y008683D02*
X018304Y008683D01*
X018352Y008635D01*
X018352Y008490D01*
X018449Y008490D02*
X018159Y008490D01*
X018159Y008635D01*
X018207Y008683D01*
X018159Y008388D02*
X018159Y008195D01*
X018159Y008292D02*
X018449Y008292D01*
X018227Y006744D02*
X018421Y006550D01*
X018469Y006550D01*
X018324Y006449D02*
X018227Y006449D01*
X018179Y006401D01*
X018179Y006256D01*
X018469Y006256D01*
X018372Y006256D02*
X018372Y006401D01*
X018324Y006449D01*
X018179Y006550D02*
X018179Y006744D01*
X018227Y006744D01*
X017817Y006485D02*
X017720Y006437D01*
X017624Y006340D01*
X017769Y006340D01*
X017817Y006292D01*
X017817Y006243D01*
X017769Y006195D01*
X017672Y006195D01*
X017624Y006243D01*
X017624Y006340D01*
X017522Y006243D02*
X017522Y006485D01*
X017329Y006485D02*
X017329Y006243D01*
X017377Y006195D01*
X017474Y006195D01*
X017522Y006243D01*
X018179Y006155D02*
X018179Y005961D01*
X018179Y006058D02*
X018469Y006058D01*
X019119Y006062D02*
X019264Y006062D01*
X019312Y006110D01*
X019312Y006207D01*
X019264Y006255D01*
X019119Y006255D01*
X019119Y005965D01*
X019216Y006062D02*
X019312Y005965D01*
X019414Y005965D02*
X019607Y005965D01*
X019510Y005965D02*
X019510Y006255D01*
X019414Y006158D01*
X019414Y006365D02*
X019607Y006365D01*
X019510Y006365D02*
X019510Y006655D01*
X019414Y006558D01*
X019312Y006510D02*
X019264Y006462D01*
X019119Y006462D01*
X019216Y006462D02*
X019312Y006365D01*
X019312Y006510D02*
X019312Y006607D01*
X019264Y006655D01*
X019119Y006655D01*
X019119Y006365D01*
X019708Y006413D02*
X019757Y006365D01*
X019853Y006365D01*
X019902Y006413D01*
X019902Y006607D01*
X019853Y006655D01*
X019757Y006655D01*
X019708Y006607D01*
X019708Y006558D01*
X019757Y006510D01*
X019902Y006510D01*
X019853Y006255D02*
X019902Y006207D01*
X019902Y006158D01*
X019853Y006110D01*
X019757Y006110D01*
X019708Y006158D01*
X019708Y006207D01*
X019757Y006255D01*
X019853Y006255D01*
X019853Y006110D02*
X019902Y006062D01*
X019902Y006013D01*
X019853Y005965D01*
X019757Y005965D01*
X019708Y006013D01*
X019708Y006062D01*
X019757Y006110D01*
X020493Y005065D02*
X020445Y005017D01*
X020445Y004823D01*
X020493Y004775D01*
X020590Y004775D01*
X020638Y004823D01*
X020740Y004823D02*
X020788Y004775D01*
X020885Y004775D01*
X020933Y004823D01*
X020933Y004872D01*
X020885Y004920D01*
X020836Y004920D01*
X020885Y004920D02*
X020933Y004968D01*
X020933Y005017D01*
X020885Y005065D01*
X020788Y005065D01*
X020740Y005017D01*
X020638Y005017D02*
X020590Y005065D01*
X020493Y005065D01*
X021034Y005017D02*
X021083Y005065D01*
X021179Y005065D01*
X021228Y005017D01*
X021228Y004968D01*
X021179Y004920D01*
X021228Y004872D01*
X021228Y004823D01*
X021179Y004775D01*
X021083Y004775D01*
X021034Y004823D01*
X021131Y004920D02*
X021179Y004920D01*
X022545Y004923D02*
X022593Y004875D01*
X022690Y004875D01*
X022738Y004923D01*
X022840Y004923D02*
X022888Y004875D01*
X022985Y004875D01*
X023033Y004923D01*
X023033Y004972D01*
X022985Y005020D01*
X022936Y005020D01*
X022985Y005020D02*
X023033Y005068D01*
X023033Y005117D01*
X022985Y005165D01*
X022888Y005165D01*
X022840Y005117D01*
X022738Y005117D02*
X022690Y005165D01*
X022593Y005165D01*
X022545Y005117D01*
X022545Y004923D01*
X023134Y005020D02*
X023328Y005020D01*
X023279Y004875D02*
X023279Y005165D01*
X023134Y005020D01*
X024459Y004985D02*
X024604Y004840D01*
X024604Y005033D01*
X024555Y005134D02*
X024459Y005231D01*
X024749Y005231D01*
X024749Y005134D02*
X024749Y005328D01*
X024749Y004985D02*
X024459Y004985D01*
X024507Y004738D02*
X024459Y004690D01*
X024459Y004593D01*
X024507Y004545D01*
X024701Y004545D01*
X024749Y004593D01*
X024749Y004690D01*
X024701Y004738D01*
X025159Y004690D02*
X025159Y004593D01*
X025207Y004545D01*
X025401Y004545D01*
X025449Y004593D01*
X025449Y004690D01*
X025401Y004738D01*
X025304Y004840D02*
X025304Y005033D01*
X025401Y005134D02*
X025449Y005183D01*
X025449Y005279D01*
X025401Y005328D01*
X025352Y005328D01*
X025304Y005279D01*
X025304Y005231D01*
X025304Y005279D02*
X025255Y005328D01*
X025207Y005328D01*
X025159Y005279D01*
X025159Y005183D01*
X025207Y005134D01*
X025159Y004985D02*
X025304Y004840D01*
X025207Y004738D02*
X025159Y004690D01*
X025159Y004985D02*
X025449Y004985D01*
X026969Y004949D02*
X027163Y005239D01*
X027264Y005239D02*
X027458Y005239D01*
X027458Y005190D01*
X027264Y004997D01*
X027264Y004949D01*
X027163Y004949D02*
X026969Y005239D01*
X025488Y006205D02*
X025294Y006205D01*
X025488Y006398D01*
X025488Y006447D01*
X025439Y006495D01*
X025343Y006495D01*
X025294Y006447D01*
X025193Y006447D02*
X025145Y006495D01*
X025048Y006495D01*
X025000Y006447D01*
X024898Y006447D02*
X024898Y006350D01*
X024850Y006302D01*
X024705Y006302D01*
X024802Y006302D02*
X024898Y006205D01*
X025000Y006205D02*
X025193Y006398D01*
X025193Y006447D01*
X025193Y006605D02*
X025000Y006605D01*
X025000Y006895D01*
X025294Y006750D02*
X025488Y006750D01*
X025439Y006605D02*
X025439Y006895D01*
X025294Y006750D01*
X024898Y006447D02*
X024850Y006495D01*
X024705Y006495D01*
X024705Y006205D01*
X025000Y006205D02*
X025193Y006205D01*
X024167Y006243D02*
X024167Y006437D01*
X024119Y006485D01*
X024022Y006485D01*
X023974Y006437D01*
X023974Y006388D01*
X024022Y006340D01*
X024167Y006340D01*
X024167Y006243D02*
X024119Y006195D01*
X024022Y006195D01*
X023974Y006243D01*
X023872Y006243D02*
X023872Y006485D01*
X023679Y006485D02*
X023679Y006243D01*
X023727Y006195D01*
X023824Y006195D01*
X023872Y006243D01*
X023994Y002845D02*
X023994Y002700D01*
X024091Y002748D01*
X024139Y002748D01*
X024188Y002700D01*
X024188Y002603D01*
X024139Y002555D01*
X024043Y002555D01*
X023994Y002603D01*
X023893Y002555D02*
X023700Y002555D01*
X023700Y002845D01*
X023994Y002845D02*
X024188Y002845D01*
X024129Y002065D02*
X024033Y002065D01*
X023984Y002017D01*
X023984Y001968D01*
X024033Y001920D01*
X024178Y001920D01*
X024178Y001823D02*
X024178Y002017D01*
X024129Y002065D01*
X023883Y002017D02*
X023883Y001968D01*
X023835Y001920D01*
X023883Y001872D01*
X023883Y001823D01*
X023835Y001775D01*
X023738Y001775D01*
X023690Y001823D01*
X023588Y001823D02*
X023540Y001775D01*
X023443Y001775D01*
X023395Y001823D01*
X023395Y002017D01*
X023443Y002065D01*
X023540Y002065D01*
X023588Y002017D01*
X023690Y002017D02*
X023738Y002065D01*
X023835Y002065D01*
X023883Y002017D01*
X023835Y001920D02*
X023786Y001920D01*
X023984Y001823D02*
X024033Y001775D01*
X024129Y001775D01*
X024178Y001823D01*
X024139Y001245D02*
X024188Y001197D01*
X024188Y001148D01*
X024139Y001100D01*
X024188Y001052D01*
X024188Y001003D01*
X024139Y000955D01*
X024043Y000955D01*
X023994Y001003D01*
X023893Y000955D02*
X023700Y000955D01*
X023893Y001148D01*
X023893Y001197D01*
X023845Y001245D01*
X023748Y001245D01*
X023700Y001197D01*
X023598Y001197D02*
X023550Y001245D01*
X023405Y001245D01*
X023405Y000955D01*
X023405Y001052D02*
X023550Y001052D01*
X023598Y001100D01*
X023598Y001197D01*
X023502Y001052D02*
X023598Y000955D01*
X023994Y001197D02*
X024043Y001245D01*
X024139Y001245D01*
X024139Y001100D02*
X024091Y001100D01*
X016828Y004923D02*
X016828Y004972D01*
X016779Y005020D01*
X016634Y005020D01*
X016634Y004923D01*
X016683Y004875D01*
X016779Y004875D01*
X016828Y004923D01*
X016731Y005117D02*
X016634Y005020D01*
X016731Y005117D02*
X016828Y005165D01*
X016436Y005165D02*
X016436Y004875D01*
X016340Y004875D02*
X016533Y004875D01*
X016340Y005068D02*
X016436Y005165D01*
X016238Y005117D02*
X016190Y005165D01*
X016093Y005165D01*
X016045Y005117D01*
X016045Y004923D01*
X016093Y004875D01*
X016190Y004875D01*
X016238Y004923D01*
X016219Y004077D02*
X016074Y003931D01*
X016267Y003931D01*
X016219Y003786D02*
X016219Y004077D01*
X015972Y004077D02*
X015779Y003786D01*
X015972Y003786D02*
X015779Y004077D01*
X014928Y004823D02*
X014879Y004775D01*
X014783Y004775D01*
X014734Y004823D01*
X014734Y004920D02*
X014831Y004968D01*
X014879Y004968D01*
X014928Y004920D01*
X014928Y004823D01*
X014734Y004920D02*
X014734Y005065D01*
X014928Y005065D01*
X014536Y005065D02*
X014536Y004775D01*
X014440Y004775D02*
X014633Y004775D01*
X014440Y004968D02*
X014536Y005065D01*
X014338Y005017D02*
X014290Y005065D01*
X014193Y005065D01*
X014145Y005017D01*
X014145Y004823D01*
X014193Y004775D01*
X014290Y004775D01*
X014338Y004823D01*
X008289Y003305D02*
X008289Y003209D01*
X008241Y003160D01*
X008144Y003209D02*
X008144Y003354D01*
X008241Y003354D02*
X008047Y003354D01*
X007999Y003305D01*
X007999Y003209D01*
X008047Y003160D01*
X008095Y003160D01*
X008144Y003209D01*
X008144Y003059D02*
X008192Y003011D01*
X008192Y002866D01*
X008192Y002962D02*
X008289Y003059D01*
X008144Y003059D02*
X008047Y003059D01*
X007999Y003011D01*
X007999Y002866D01*
X008289Y002866D01*
X008289Y003305D02*
X008241Y003354D01*
X019119Y009715D02*
X019119Y010005D01*
X019264Y010005D01*
X019312Y009957D01*
X019312Y009860D01*
X019264Y009812D01*
X019119Y009812D01*
X019216Y009812D02*
X019312Y009715D01*
X019414Y009715D02*
X019607Y009908D01*
X019607Y009957D01*
X019559Y010005D01*
X019462Y010005D01*
X019414Y009957D01*
X019472Y010095D02*
X019424Y010143D01*
X019472Y010095D02*
X019569Y010095D01*
X019617Y010143D01*
X019617Y010192D01*
X019569Y010240D01*
X019520Y010240D01*
X019569Y010240D02*
X019617Y010288D01*
X019617Y010337D01*
X019569Y010385D01*
X019472Y010385D01*
X019424Y010337D01*
X019322Y010337D02*
X019274Y010385D01*
X019177Y010385D01*
X019129Y010337D01*
X019129Y010143D01*
X019177Y010095D01*
X019274Y010095D01*
X019322Y010143D01*
X019718Y010143D02*
X019718Y010192D01*
X019767Y010240D01*
X019863Y010240D01*
X019912Y010192D01*
X019912Y010143D01*
X019863Y010095D01*
X019767Y010095D01*
X019718Y010143D01*
X019767Y010240D02*
X019718Y010288D01*
X019718Y010337D01*
X019767Y010385D01*
X019863Y010385D01*
X019912Y010337D01*
X019912Y010288D01*
X019863Y010240D01*
X019805Y010005D02*
X019805Y009715D01*
X019708Y009715D02*
X019902Y009715D01*
X019708Y009908D02*
X019805Y010005D01*
X019607Y009715D02*
X019414Y009715D01*
X020929Y010043D02*
X020977Y009995D01*
X021074Y009995D01*
X021122Y010043D01*
X021224Y010043D02*
X021272Y009995D01*
X021369Y009995D01*
X021417Y010043D01*
X021417Y010092D01*
X021369Y010140D01*
X021320Y010140D01*
X021369Y010140D02*
X021417Y010188D01*
X021417Y010237D01*
X021369Y010285D01*
X021272Y010285D01*
X021224Y010237D01*
X021122Y010237D02*
X021074Y010285D01*
X020977Y010285D01*
X020929Y010237D01*
X020929Y010043D01*
X021518Y009995D02*
X021712Y009995D01*
X021615Y009995D02*
X021615Y010285D01*
X021518Y010188D01*
X022929Y010237D02*
X022929Y010043D01*
X022977Y009995D01*
X023074Y009995D01*
X023122Y010043D01*
X023224Y010043D02*
X023272Y009995D01*
X023369Y009995D01*
X023417Y010043D01*
X023417Y010092D01*
X023369Y010140D01*
X023320Y010140D01*
X023369Y010140D02*
X023417Y010188D01*
X023417Y010237D01*
X023369Y010285D01*
X023272Y010285D01*
X023224Y010237D01*
X023122Y010237D02*
X023074Y010285D01*
X022977Y010285D01*
X022929Y010237D01*
X023518Y010237D02*
X023567Y010285D01*
X023663Y010285D01*
X023712Y010237D01*
X023712Y010188D01*
X023518Y009995D01*
X023712Y009995D01*
X024559Y009940D02*
X024559Y009843D01*
X024607Y009795D01*
X024801Y009795D01*
X024849Y009843D01*
X024849Y009940D01*
X024801Y009988D01*
X024704Y010090D02*
X024704Y010283D01*
X024801Y010384D02*
X024607Y010578D01*
X024801Y010578D01*
X024849Y010529D01*
X024849Y010433D01*
X024801Y010384D01*
X024607Y010384D01*
X024559Y010433D01*
X024559Y010529D01*
X024607Y010578D01*
X024559Y010235D02*
X024704Y010090D01*
X024607Y009988D02*
X024559Y009940D01*
X024559Y010235D02*
X024849Y010235D01*
X025259Y010235D02*
X025404Y010090D01*
X025404Y010283D01*
X025307Y010384D02*
X025259Y010433D01*
X025259Y010529D01*
X025307Y010578D01*
X025355Y010578D01*
X025549Y010384D01*
X025549Y010578D01*
X025549Y010235D02*
X025259Y010235D01*
X025307Y009988D02*
X025259Y009940D01*
X025259Y009843D01*
X025307Y009795D01*
X025501Y009795D01*
X025549Y009843D01*
X025549Y009940D01*
X025501Y009988D01*
X027001Y010099D02*
X027195Y010389D01*
X027296Y010244D02*
X027441Y010244D01*
X027489Y010195D01*
X027489Y010147D01*
X027441Y010099D01*
X027344Y010099D01*
X027296Y010147D01*
X027296Y010244D01*
X027393Y010340D01*
X027489Y010389D01*
X027195Y010099D02*
X027001Y010389D01*
X025489Y011771D02*
X025199Y011771D01*
X025199Y011916D01*
X025247Y011965D01*
X025344Y011965D01*
X025392Y011916D01*
X025392Y011771D01*
X025392Y011868D02*
X025489Y011965D01*
X025489Y012066D02*
X025295Y012259D01*
X025247Y012259D01*
X025199Y012211D01*
X025199Y012114D01*
X025247Y012066D01*
X025489Y012066D02*
X025489Y012259D01*
X025344Y012360D02*
X025344Y012554D01*
X025489Y012505D02*
X025199Y012505D01*
X025344Y012360D01*
X026983Y015199D02*
X027177Y015489D01*
X027278Y015489D02*
X027278Y015344D01*
X027375Y015392D01*
X027423Y015392D01*
X027471Y015344D01*
X027471Y015247D01*
X027423Y015199D01*
X027326Y015199D01*
X027278Y015247D01*
X027177Y015199D02*
X026983Y015489D01*
X027278Y015489D02*
X027471Y015489D01*
X025503Y015613D02*
X025310Y015613D01*
X025407Y015613D02*
X025407Y015903D01*
X025310Y015807D01*
X025209Y015903D02*
X025015Y015613D01*
X025209Y015613D02*
X025015Y015903D01*
X024402Y015557D02*
X024208Y015363D01*
X024257Y015315D01*
X024353Y015315D01*
X024402Y015363D01*
X024402Y015557D01*
X024353Y015605D01*
X024257Y015605D01*
X024208Y015557D01*
X024208Y015363D01*
X024107Y015315D02*
X023914Y015315D01*
X024107Y015508D01*
X024107Y015557D01*
X024059Y015605D01*
X023962Y015605D01*
X023914Y015557D01*
X023812Y015557D02*
X023812Y015460D01*
X023764Y015412D01*
X023619Y015412D01*
X023716Y015412D02*
X023812Y015315D01*
X023619Y015315D02*
X023619Y015605D01*
X023764Y015605D01*
X023812Y015557D01*
X020349Y013879D02*
X020349Y013783D01*
X020301Y013734D01*
X020204Y013734D01*
X020204Y013879D01*
X020252Y013928D01*
X020301Y013928D01*
X020349Y013879D01*
X020204Y013734D02*
X020107Y013831D01*
X020059Y013928D01*
X019762Y013893D02*
X019762Y014087D01*
X019713Y014135D01*
X019617Y014135D01*
X019568Y014087D01*
X019568Y014038D01*
X019617Y013990D01*
X019762Y013990D01*
X019762Y013893D02*
X019713Y013845D01*
X019617Y013845D01*
X019568Y013893D01*
X019467Y013845D02*
X019274Y013845D01*
X019467Y014038D01*
X019467Y014087D01*
X019419Y014135D01*
X019322Y014135D01*
X019274Y014087D01*
X019172Y014087D02*
X019124Y014135D01*
X019027Y014135D01*
X018979Y014087D01*
X018979Y013893D01*
X019027Y013845D01*
X019124Y013845D01*
X019172Y013893D01*
X019114Y013405D02*
X018969Y013405D01*
X018969Y013115D01*
X018969Y013212D02*
X019114Y013212D01*
X019162Y013260D01*
X019162Y013357D01*
X019114Y013405D01*
X019264Y013308D02*
X019360Y013405D01*
X019360Y013115D01*
X019264Y013115D02*
X019457Y013115D01*
X019558Y013163D02*
X019607Y013115D01*
X019703Y013115D01*
X019752Y013163D01*
X019752Y013212D01*
X019703Y013260D01*
X019558Y013260D01*
X019558Y013163D01*
X019558Y013260D02*
X019655Y013357D01*
X019752Y013405D01*
X020059Y013488D02*
X020059Y013585D01*
X020107Y013633D01*
X020155Y013633D01*
X020204Y013585D01*
X020252Y013633D01*
X020301Y013633D01*
X020349Y013585D01*
X020349Y013488D01*
X020301Y013440D01*
X020301Y013338D02*
X020349Y013290D01*
X020349Y013193D01*
X020301Y013145D01*
X020107Y013145D01*
X020059Y013193D01*
X020059Y013290D01*
X020107Y013338D01*
X020107Y013440D02*
X020059Y013488D01*
X020204Y013536D02*
X020204Y013585D01*
X019162Y013115D02*
X019066Y013212D01*
X019114Y012755D02*
X018969Y012755D01*
X018969Y012465D01*
X018969Y012562D02*
X019114Y012562D01*
X019162Y012610D01*
X019162Y012707D01*
X019114Y012755D01*
X019264Y012658D02*
X019360Y012755D01*
X019360Y012465D01*
X019264Y012465D02*
X019457Y012465D01*
X019558Y012465D02*
X019558Y012513D01*
X019752Y012707D01*
X019752Y012755D01*
X019558Y012755D01*
X019162Y012465D02*
X019066Y012562D01*
X019027Y012085D02*
X018979Y012037D01*
X018979Y011843D01*
X019027Y011795D01*
X019124Y011795D01*
X019172Y011843D01*
X019274Y011843D02*
X019322Y011795D01*
X019419Y011795D01*
X019467Y011843D01*
X019467Y011892D01*
X019419Y011940D01*
X019370Y011940D01*
X019419Y011940D02*
X019467Y011988D01*
X019467Y012037D01*
X019419Y012085D01*
X019322Y012085D01*
X019274Y012037D01*
X019172Y012037D02*
X019124Y012085D01*
X019027Y012085D01*
X019568Y012085D02*
X019568Y011940D01*
X019665Y011988D01*
X019713Y011988D01*
X019762Y011940D01*
X019762Y011843D01*
X019713Y011795D01*
X019617Y011795D01*
X019568Y011843D01*
X019568Y012085D02*
X019762Y012085D01*
X020345Y012165D02*
X020345Y011923D01*
X020393Y011875D01*
X020490Y011875D01*
X020538Y011923D01*
X020538Y012165D01*
X020640Y012068D02*
X020736Y012165D01*
X020736Y011875D01*
X020640Y011875D02*
X020833Y011875D01*
X020934Y011923D02*
X021128Y012117D01*
X021128Y011923D01*
X021079Y011875D01*
X020983Y011875D01*
X020934Y011923D01*
X020934Y012117D01*
X020983Y012165D01*
X021079Y012165D01*
X021128Y012117D01*
X021679Y018845D02*
X021824Y018845D01*
X021872Y018893D01*
X021872Y019087D01*
X021824Y019135D01*
X021679Y019135D01*
X021679Y018845D01*
X021974Y018845D02*
X022167Y018845D01*
X022070Y018845D02*
X022070Y019135D01*
X021974Y019038D01*
X014117Y018978D02*
X014117Y018930D01*
X014069Y018881D01*
X014117Y018833D01*
X014117Y018785D01*
X014069Y018736D01*
X013972Y018736D01*
X013924Y018785D01*
X013822Y018736D02*
X013629Y019027D01*
X013822Y019027D02*
X013629Y018736D01*
X013924Y018978D02*
X013972Y019027D01*
X014069Y019027D01*
X014117Y018978D01*
X014069Y018881D02*
X014020Y018881D01*
X003067Y013478D02*
X003067Y013430D01*
X002874Y013236D01*
X003067Y013236D01*
X003067Y013478D02*
X003019Y013527D01*
X002922Y013527D01*
X002874Y013478D01*
X002772Y013527D02*
X002579Y013236D01*
X002772Y013236D02*
X002579Y013527D01*
D415*
X004969Y012218D02*
X004984Y012216D01*
X004999Y012212D01*
X005013Y012205D01*
X005025Y012195D01*
X005035Y012183D01*
X005042Y012169D01*
X005046Y012154D01*
X005048Y012139D01*
X020370Y017404D02*
X021158Y017404D01*
X020764Y017907D01*
X020370Y017404D01*
D416*
X005414Y012280D03*
D417*
X009545Y013041D03*
D418*
X011464Y014830D03*
X013064Y014830D03*
D419*
X014914Y014330D03*
X015564Y010930D03*
X016064Y009280D03*
X016714Y005880D03*
X022414Y009280D03*
X023064Y005880D03*
X021364Y015330D03*
X009064Y016030D03*
X007714Y016030D03*
D420*
X008039Y016035D03*
X008739Y016025D03*
X014589Y014325D03*
X015239Y010925D03*
X016389Y009285D03*
X017039Y005885D03*
X022739Y009285D03*
X023389Y005885D03*
X021689Y015335D03*
D421*
X021759Y015330D03*
X015169Y010930D03*
X016459Y009280D03*
X017109Y005880D03*
X022809Y009280D03*
X023459Y005880D03*
X014519Y014330D03*
X008669Y016030D03*
X008109Y016030D03*
D422*
X016864Y011880D03*
X014764Y008330D03*
X021114Y008330D03*
D423*
X009464Y002630D03*
X006214Y002630D03*
X003014Y002630D03*
D424*
X002264Y005180D03*
X005464Y005180D03*
X008714Y005180D03*
D425*
X010064Y004130D03*
X006814Y004130D03*
X003614Y004130D03*
D426*
X020764Y018380D03*
D427*
X021489Y011755D03*
M02*
