%
M48
M72
T01C0.0118
T02C0.0315
T03C0.1181
%
T01
X3464Y2080
X3464Y2380
X4464Y2630
X4464Y2930
X6014Y3780
X6014Y4080
X6664Y2380
X6664Y2080
X7564Y1280
X7564Y980
X9914Y2080
X9914Y2380
X10814Y1280
X10814Y980
X9214Y3780
X9214Y4080
X10914Y4830
X10914Y5130
X10464Y7030
X10164Y7030
X7564Y6580
X7564Y6230
X7164Y7980
X6864Y7980
X6214Y9530
X5864Y9530
X5864Y10330
X6214Y10330
X5414Y10980
X6664Y11430
X7614Y12430
X8864Y11380
X7964Y10080
X7614Y9830
X8114Y9580
X11314Y11080
X13914Y12180
X13514Y12880
X13814Y13580
X13464Y14430
X13464Y15280
X13464Y16130
X13814Y16380
X12214Y16380
X11864Y16130
X11464Y16680
X11864Y15280
X11864Y14430
X12214Y13580
X9714Y15380
X9714Y15730
X8564Y16780
X8214Y16780
X8214Y17580
X8564Y17580
X8564Y18430
X8214Y18430
X6514Y15280
X6814Y14530
X4964Y14530
X4164Y14530
X12614Y8930
X14164Y10630
X15364Y10180
X15664Y10180
X15964Y10030
X16264Y10030
X16164Y10630
X16164Y10930
X16164Y11580
X15614Y12880
X15514Y14130
X15514Y14530
X16014Y15080
X16364Y15080
X17614Y14830
X18564Y14430
X20014Y14430
X20314Y14430
X20764Y15180
X20764Y15480
X21664Y16430
X21664Y16730
X21664Y17030
X19664Y16730
X18514Y16880
X18314Y16630
X18114Y16880
X19814Y18280
X19814Y18580
X19814Y18880
X26714Y13780
X27164Y13780
X27164Y12180
X26714Y12180
X24514Y12530
X24514Y12880
X23514Y13380
X23014Y12680
X20814Y13130
X20314Y12530
X20014Y12530
X20014Y11530
X20314Y11530
X18564Y11330
X15464Y9180
X15464Y8680
X17564Y8930
X18964Y8930
X21814Y8680
X21814Y9180
X22314Y9980
X22614Y9980
X24014Y8930
X24414Y10430
X24414Y10730
X26714Y8630
X27164Y8630
X27164Y7080
X26714Y7080
X24414Y5880
X24064Y5880
X22464Y5680
X22464Y6080
X21864Y5130
X21864Y4830
X21064Y4430
X20764Y4430
X20314Y5580
X20014Y5580
X21814Y7330
X26714Y3530
X27164Y3530
X27164Y1980
X26714Y1980
X25814Y1930
X16114Y5680
X16114Y6080
X15514Y5130
X15514Y4830
X14014Y4430
X13714Y4430
X13714Y5580
X14014Y5580
X4364Y1280
X4364Y980
X2814Y3780
X2814Y4080
X3714Y7980
X4014Y7980
T02
X3814Y8671
X2814Y8671
X2814Y9671
X3814Y9671
X3814Y10671
X2814Y10671
X2814Y11671
X3814Y11671
X3814Y12671
X2814Y12671
X11814Y17171
X12814Y17171
X13814Y17171
X14814Y17171
X15814Y17171
X15814Y18171
X14814Y18171
X13814Y18171
X12814Y18171
X11814Y18171
X11814Y3171
X12814Y3171
X13814Y3171
X14814Y3171
X15814Y3171
X15814Y2171
X14814Y2171
X13814Y2171
X12814Y2171
X11814Y2171
T03
X22705Y17803
X25067Y17803
M30
